<svg clip-rule="evenodd" fill-rule="evenodd" height="6.827in" image-rendering="optimizeQuality" shape-rendering="geometricPrecision" text-rendering="geometricPrecision" viewBox="0 0 6.82666 6.82666" width="6.827in" xmlns="http://www.w3.org/2000/svg"><g id="Layer_x0020_1"><g id="_350993232"><path id="_350976336" d="m.627866.652591c-.0742638 0-.134685.0604173-.134685.134697v3.77546c0 .0742677.0604213.134705.134685.134705h5.57091c.0742795 0 .134693-.0604291.134693-.134693l.00000394-3.77548c0-.0742795-.0604173-.134689-.134697-.134689h-5.57091zm5.57091 4.17819h-5.57091c-.147787 0-.268024-.12024-.268024-.26802v-3.77548c0-.147795.120236-.268035.268024-.268035l5.57091-.00001181c.147795 0 .268043.120264.268043.268055v3.77546c0 .147783-.120252.268039-.268043.268031z"/><path id="_350974896" d="m.976433 4.21419h4.87379v-3.07834h-4.87379zm4.94046.133331h-5.00713c-.0368189 0-.0666693-.0298386-.0666693-.0666614v-3.21169c0-.0368268.0298504-.0666614.0666693-.0666614l5.00713-.00000787c.036815 0 .0666614.0298543.0666614.0666772l.00000394 3.21167c0 .0368268-.0298504.0666811-.0666654.0666732z"/><path id="_350974512" d="m4.26018 5.70333h-1.6937c-.00046063 0-.00066929.00005512-.00066929.00005512l-.0419291.0912244c-.0399173.0855-.0339724.176433.0167205.256016.0506811.0795787.130571.123469.224929.123469h1.2956c.0943622 0 .174252-.0438858.224929-.123469.0506969-.0795906.056626-.1705.0167244-.256l-.0425984-.0912953zm-.199055.604094h-1.29559c-.139488 0-.262476-.0674961-.337406-.185134-.0749449-.11765-.0840827-.257669-.0250827-.384055l.0426102-.0912953c.0221417-.0474685.0684291-.0769252.120819-.0769252l1.69371-.00001181c.052378 0 .0986693.0294803.120819.0769409l.0425984.0912913c.059.12639.0498622.266413-.0250709.384055-.0749291.117634-.197902.185138-.337402.185134z"/><path id="_351001056" d="m2.90636 5.70333c-.0368189 0-.0666654-.0298465-.0666654-.0666496v-.872587c0-.036811.0298465-.0666378.0666654-.0666378s.0666654.0298346.0666654.0666535l.00000394.872563c0 .0367992-.0298504.0666614-.0666693.0666575z"/><path id="_350973384" d="m3.9203 5.70333c-.0368189 0-.0666693-.0298465-.0666693-.0666496v-.872587c0-.036811.0298465-.0666378.0666654-.0666378.0368228 0 .0666693.0298346.0666693.0666535v.872563c0 .0367992-.0298465.0666614-.0666654.0666575z"/><path id="_350972136" d="m3.25263 2.18622h.00014173zm-.417094 1.21258c.0184291 0 .0365945.00762992.0496102.0221024.10161.113024.233429.189209.38122.220307.0308465.00649606.0529291.0337087.0529291.0652362l.00000394.18215c0 .00265748.00241339.00508661.00506693.00508661l.177933-.00000787c.00266535 0 .00508268-.00240945.00508268-.00507874v-.182185c0-.0315315.0220827-.0587441.0529409-.0652283.147768-.0310866.279587-.107264.381197-.22028.0210551-.0234291.0556378-.0289173.0829173-.0131535l.157917.0911614c.00229134.00132677.00561024.00044882.00694094-.00185433l.0889606-.154083c.00133465-.00231496.00044488-.00562598-.0018622-.00695669l-.157736-.0910591c-.0272756-.015752-.0398031-.0484449-.0300551-.0784016.023126-.0709291.0348465-.145012.0348465-.22022 0-.0752402-.0117205-.149335-.0348307-.220224-.00976378-.0299685.00276378-.0626535.0300394-.0784016l.157736-.0910827c.00114173-.00065354.00190157-.00169685.00227953-.00309843.00038976-.00141732.00023622-.0026811-.00041732-.0038189l-.0889724-.154114c-.00065354-.00112205-.00169291-.00190157-.00309843-.00227559-.00141339-.00037795-.00269291-.00022441-.00383071.00041732l-.157917.0911732c-.0272638.0157638-.0618465.0102835-.0829055-.0131457-.101638-.113043-.233457-.189209-.381209-.220291-.0308583-.0065-.0529409-.0337087-.0529409-.0652362v-.182185c0-.00267323-.00241732-.00507874-.00507087-.00507874h-.177945c-.00264961 0-.00507087.00241339-.00507087.00508268l.00000394.182165c0 .0315315-.0220866.0587638-.0529449.065252-.147764.0310787-.279587.107264-.381209.220291-.0210591.0234094-.055626.0289016-.0829055.0131535l-.157913-.0911969c-.00229134-.00134252-.00561417-.00044095-.00694488.00187402l-.0889606.154094c-.00133465.00228346-.00044488.00561811.0018622.00694882l.157736.0910669c.0272795.015752.0398031.0484488.0300394.0783898-.0231102.0709252-.0348307.145016-.0348307.22024 0 .075185.0117205.149291.0348465.220209.00976378.0299291-.00276378.0626496-.0300551.0784016l-.157736.0910591c-.00230315.00134252-.00319685.00466142-.0018622.0069685l.0889606.154079c.00133071.00229528.00462205.00318504.00694094.00186614l.157921-.0911811c.0104134-.00601575.0219016-.00892913.0332913-.00893701zm.666764.628205h-.177933c-.0763189 0-.138402-.0620866-.138402-.138409v-.129843c-.136846-.038063-.260472-.109504-.362335-.209406l-.112638.0650157c-.0660827.0381732-.150917.0154567-.189083-.0506417l-.0889606-.15411c-.0381496-.0660906-.0154291-.150902.0506693-.189055l.1125-.0649724c-.0174173-.068126-.0262244-.138291-.0262244-.209248 0-.0709882.00880709-.141142.0262244-.20928l-.1125-.0649606c-.0660984-.0381535-.0888228-.122972-.0506693-.189067l.0889606-.154102c.0381654-.0660787.122972-.088815.189083-.0506614l.112638.0650354c.101878-.0998898.2255-.171327.362335-.209398v-.12985c0-.0763307.0620827-.138413.138402-.138413l.177945-.00001181c.0763189 0 .138402.0621102.138402.138429l.00000394.129839c.136819.0380787.260457.109524.362331.209413l.112638-.0650394c.0319449-.0184528.069252-.0233228.105-.0137402.0357795.00956693.065626.0324567.0840709.0644173l.0889724.154091c.0184449.031937.0233307.0692283.0137362.105008-.00958268.0357559-.0324449.065622-.0644055.0840669l-.112496.0649409c.0174173.068122.0262205.138295.0262205.209283 0 .0709488-.00880709.141138-.0262244.20926l.112504.0649409c.0660945.038185.0888189.123008.0506654.189087l-.0889724.154098c-.0381654.0660945-.122972.0887953-.189071.0506654l-.112638-.0650394c-.101874.099874-.2255.171335-.362335.209406l.00000394.129843c0 .076315-.0620984.138421-.138417.138409z"/><path id="_350978520" d="m3.41333 2.5538c-.216429 0-.392512.176102-.392512.392535 0 .216417.176083.392512.392512.392512.216433 0 .392516-.176083.392516-.392512 0-.216441-.176087-.392528-.392516-.392535zm0 .918374c-.289945 0-.525846-.235898-.525846-.525839 0-.289972.235902-.525862.525846-.525862.289961 0 .525846.235902.525846.525862 0 .289933-.23589.525846-.525846.525839z"/><path id="_350978616" d="m4.29154 2.50598c-.0253898 0-.0496378-.0145591-.0607795-.0391969-.0151772-.0335551-.00027559-.0730433.0332638-.0882087l.443213-.200472v-.220016c0-.0368268.0298583-.0666654.0666654-.0666654.0368189-.00000394.0666811.0298465.0666811.0666654v.263047c0 .026189-.0153346.0499528-.0391969.060748l-.482413.218177c-.00890551.00402756-.018252.00593307-.0274331.00592126z"/><path id="_350973576" d="m4.77391 1.68602c-.056626 0-.102697.0460748-.102697.102717 0 .0566102.0460709.102693.102697.102693.0566417-.00000394.102709-.0460709.102709-.102693 0-.0566417-.0460709-.102709-.102709-.102717zm0 .338732c-.130138 0-.236028-.105878-.236028-.236016 0-.130154.105886-.236043.236028-.236043.130154-.00000394.236039.10589.236039.236043.00000394.130126-.10589.236028-.236039.236016z"/><path id="_350972616" d="m2.77063 1.45636c-.056622 0-.102709.0460827-.102709.102709 0 .0566181.0460827.102709.102709.102709.056626-.00001181.102693-.0460866.102693-.102709.00000394-.0566299-.0460669-.102697-.102693-.102709zm0 .338732c-.13015 0-.236043-.105874-.236043-.236024 0-.130146.10589-.236028.236043-.236028.130142-.00000787.236028.105886.236028.236028 0 .13015-.10589.236039-.236028.236024z"/><path id="_350977152" d="m4.05604 1.45636c-.056626 0-.102709.0460827-.102709.102709 0 .0566181.0460827.102709.102709.102709.0566378-.00001181.102693-.0460866.102693-.102709.00000394-.0566299-.0460551-.102697-.102693-.102709zm0 .338732c-.130154 0-.236043-.105874-.236043-.236024.00000394-.130146.10589-.236028.236043-.236028.130154-.00000787.236043.105886.236043.236028 0 .13015-.10589.236039-.236043.236024z"/><path id="_350976144" d="m2.58414 3.1302h-.545488c-.0368189 0-.0666654-.0298583-.0666654-.0666772 0-.0368071.0298465-.0666693.0666654-.0666693l.545488-.00001181c.0368189 0 .0666654.029874.0666654.0666811 0 .0368189-.0298465.0666811-.0666654.0666772z"/><path id="_350976240" d="m1.86864 2.96019c-.0569882 0-.10335.0463543-.10335.103339.00000394.0569921.0463622.103346.10335.103346.0569843-.00001181.103331-.0463465.103331-.103346 0-.0569921-.0463465-.103335-.103331-.103339zm0 .340016c-.130512 0-.236685-.106161-.236685-.236677 0-.130508.106173-.236681.236685-.236681.1305 0 .236677.106181.236677.236681.00000394.130508-.106177.236681-.236677.236677z"/><path id="_350975952" d="m1.86864 3.687c-.0569882 0-.10335.0463543-.10335.103343.00000394.0569843.0463622.103335.10335.103335.0569724-.00000787.103331-.0463465.103331-.103335 0-.057-.0463583-.103335-.103331-.103343zm0 .34c-.130512 0-.236685-.106157-.236685-.236657s.106173-.236665.236685-.236665c.1305-.00000787.236665.106165.236665.236665s-.106165.236669-.236665.236657z"/><path id="_350977008" d="m4.78802 3.1302h-.545504c-.0368189 0-.0666654-.0298583-.0666654-.0666772 0-.0368071.0298465-.0666693.0666654-.0666693l.545504-.00001181c.0368189 0 .0666614.029874.0666614.0666811 0 .0368189-.0298465.0666811-.0666614.0666772z"/><path id="_350971944" d="m4.95803 2.96019c-.0569843 0-.10335.0463543-.10335.103339 0 .0569921.0463622.103346.103346.103346.0569921-.00001181.103335-.0463465.103335-.103346.00000394-.0569921-.0463465-.103335-.103331-.103339zm0 .340016c-.130512 0-.236685-.106161-.236685-.236677.00000394-.130508.106169-.236681.236681-.236681.130504 0 .236669.106181.236669.236681 0 .130508-.106169.236681-.236665.236677z"/><path id="_350971392" d="m4.95803 3.687c-.0569843 0-.103335.0463543-.103335.103343 0 .0569843.0463465.103335.103331.103335.0569921-.00000787.103335-.0463465.103335-.103335.00000394-.057-.0463465-.103335-.103331-.103343zm0 .34c-.1305 0-.236669-.106157-.236669-.236657.00000394-.1305.106165-.236665.236665-.236665.130504-.00000787.236669.106165.236669.236665s-.106169.236669-.236665.236657z"/><path id="_350985120" d="m3.88668 1.62572h-.946693c-.0368189 0-.0666693-.0298346-.0666693-.0666496.00000394-.0368346.0298504-.0666693.0666693-.0666693l.946693-.00000787c.0368071 0 .0666535.0298543.0666535.0666772 0 .0368071-.0298465.0666654-.0666535.0666496z"/><path id="_350971608" d="m3.41333 1.99897c-.0368189 0-.0666654-.0298504-.0666654-.0666654v-.37324c0-.0368307.0298465-.0666654.0666654-.0666654.0368189-.00000787.0666654.0298465.0666654.0666693l.00000394.373228c0 .036811-.0298504.0666732-.0666693.0666732z"/><path id="_351001080" d="m2.53513 2.50598c-.00919291 0-.0185118-.0018937-.0274291-.00593307l-.482402-.218177c-.0238622-.0107835-.0392126-.0345433-.0392126-.0607283v-.263055c0-.0368268.0298622-.0666772.0666811-.0666772.0368189-.00000787.0666693.0298583.0666693.0666772v.220016l.443209.200457c.0335394.0151535.0484291.0546693.0332638.0882244-.0111378.0246181-.0354055.0392087-.0607795.0391969z"/><path id="_350998920" d="m2.05276 1.68602c-.0566378 0-.102709.0460748-.102709.102701.00000394.056626.0460709.102709.102709.102709.056626-.00000394.102697-.0460827.102697-.102709 0-.056626-.0460709-.102693-.102697-.102701zm0 .338732c-.13015 0-.236039-.105878-.236039-.236031 0-.130138.10589-.236028.236039-.236028.130142-.00000394.236028.10589.236028.236028.00000394.130142-.105886.236043-.236028.236031z"/><path id="_350997240" d="m1.86864 3.687c-.0368189 0-.0666811-.0298504-.0666811-.0666693v-.386799c0-.036815.0298583-.0666614.0666811-.0666614.0368189-.00001181.0666654.0298465.0666654.0666693v.386787c0 .036811-.0298465.0666811-.0666654.0666732z"/><path id="_350996952" d="m4.95803 3.687c-.0368228 0-.0666693-.0298504-.0666693-.0666693l.00000394-.386799c0-.036815.0298425-.0666614.0666614-.0666614.0368228-.00001181.0666693.0298465.0666693.0666693v.386787c0 .036811-.0298465.0666811-.0666654.0666732z"/></g></g></svg>