<svg id="Layer_1" enable-background="new 0 0 512 512" viewBox="0 0 512 512" xmlns="http://www.w3.org/2000/svg"><path d="m331.72 332.15v-23.3c0-2.41-1.44-4.59-3.66-5.53l-75.93-32.09c-1.49-.63-3.18-.63-4.67 0l-75.93 32.09c-2.22.94-3.66 3.12-3.66 5.53s1.44 4.59 3.66 5.53l26.06 11.01v25.44c0 16.63 22.44 29.17 52.2 29.17s52.2-12.54 52.2-29.17v-25.44l17.73-7.49v14.22c-2.62.89-5.03 2.36-7.04 4.37-3.49 3.47-5.42 8.1-5.43 13.03-.02 6.29 3.76 11.38 6.8 15.47.82 1.1 1.59 2.14 2.23 3.12l4.34 6.6c1.11 1.68 2.98 2.7 5 2.7h.01c2.01 0 3.88-1 5-2.68l4.37-6.58c.65-.98 1.43-2.01 2.25-3.11 3.06-4.08 6.86-9.15 6.88-15.43.02-8.08-5.18-14.95-12.41-17.46zm-41.72 18.67c0 8.1-17.19 17.17-40.2 17.17s-40.2-9.06-40.2-17.17v-20.37l37.86 16c.75.32 1.54.47 2.34.47s1.59-.16 2.34-.47l37.87-16v20.37zm-40.21-16.4-60.51-25.57 60.51-25.57 60.51 25.57zm77.86 23.41c-.66.88-1.34 1.79-1.99 2.71-.65-.93-1.32-1.84-1.98-2.73-2.18-2.94-4.44-5.98-4.43-8.28.01-3.55 2.9-6.42 6.44-6.42h.02c3.55.01 6.43 2.91 6.43 6.46-.02 2.31-2.29 5.34-4.49 8.26zm-137.71-158.26h132.11c3.31 0 6-2.69 6-6v-30.84c0-30.07-20.32-55.47-47.95-63.24 12.95-8.08 21.59-22.44 21.59-38.79 0-25.2-20.5-45.7-45.7-45.7s-45.7 20.5-45.7 45.7c0 16.35 8.64 30.72 21.59 38.79-27.63 7.76-47.95 33.17-47.95 63.24v30.84c.01 3.31 2.7 6 6.01 6zm32.36-138.88c0-18.58 15.12-33.7 33.7-33.7s33.7 15.12 33.7 33.7-15.12 33.7-33.7 33.7-33.7-15.12-33.7-33.7zm51.41 49.56-11.71 21.41v-22.63h.36c3.89 0 7.69.43 11.35 1.22zm-23.71-1.22v22.63l-11.72-21.41c3.66-.79 7.46-1.22 11.36-1.22zm-54.06 53.7c0-21.42 12.61-39.95 30.8-48.56l23.99 43.83c1.05 1.92 3.07 3.12 5.26 3.12s4.21-1.2 5.26-3.12l23.99-43.83c18.19 8.61 30.8 27.13 30.8 48.56v24.84h-13.96v-22.07c0-3.31-2.69-6-6-6s-6 2.69-6 6v22.07h-68.18v-22.07c0-3.31-2.69-6-6-6s-6 2.69-6 6v22.07h-13.97v-24.84zm153.35 33.11c-2.69-1.94-3.29-5.69-1.35-8.38s5.69-3.29 8.38-1.35c33.77 24.37 57.53 60.01 66.88 100.37.75 3.23-1.26 6.45-4.49 7.2-.46.11-.91.16-1.36.16-2.73 0-5.2-1.87-5.84-4.65-8.7-37.53-30.8-70.68-62.22-93.35zm-185.23-8.38c1.94 2.69 1.33 6.44-1.36 8.38-31.42 22.67-53.52 55.82-62.22 93.35-.64 2.77-3.11 4.65-5.84 4.65-.45 0-.9-.05-1.36-.16-3.23-.75-5.24-3.97-4.49-7.2 9.35-40.36 33.11-76 66.88-100.37 2.7-1.95 6.45-1.34 8.39 1.35zm169.7 284.31c1.45 2.98.21 6.57-2.77 8.02-23.47 11.42-48.7 17.21-74.99 17.21s-51.51-5.79-74.98-17.2c-2.98-1.45-4.22-5.04-2.77-8.02s5.04-4.22 8.02-2.77c21.82 10.61 45.28 16 69.73 16 24.46 0 47.92-5.38 69.74-16 2.98-1.46 6.57-.22 8.02 2.76zm115.29-74.85c12.95-8.08 21.59-22.44 21.59-38.79 0-25.2-20.5-45.7-45.7-45.7s-45.7 20.5-45.7 45.7c0 16.35 8.64 30.72 21.59 38.79-.04.01-.08.02-.12.04-27.56 7.81-47.82 33.18-47.82 63.2v30.84c0 3.31 2.69 6 6 6h132.11c3.31 0 6-2.69 6-6v-30.84c0-30.07-20.32-55.47-47.95-63.24zm-57.8-38.79c0-18.58 15.12-33.7 33.7-33.7s33.7 15.12 33.7 33.7-15.12 33.7-33.7 33.7-33.7-15.12-33.7-33.7zm51.41 49.56-11.72 21.41v-22.63h.36c3.9-.01 7.7.42 11.36 1.22zm-23.71-1.23v22.63l-11.72-21.41c3.66-.79 7.46-1.22 11.36-1.22zm66.05 78.54h-13.97v-22.07c0-3.31-2.69-6-6-6s-6 2.69-6 6v22.07h-68.18v-22.07c0-3.31-2.69-6-6-6s-6 2.69-6 6v22.07h-13.96v-24.84c0-21.42 12.61-39.95 30.8-48.56l23.99 43.83c1.05 1.92 3.07 3.12 5.26 3.12s4.21-1.2 5.26-3.12l23.99-43.83c18.19 8.61 30.8 27.14 30.8 48.56v24.84zm-373.72-88.05c-.04-.01-.08-.02-.11-.03 12.95-8.08 21.59-22.44 21.59-38.79 0-25.2-20.5-45.7-45.7-45.7s-45.7 20.5-45.7 45.7c0 16.35 8.64 30.72 21.59 38.79-27.63 7.77-47.95 33.17-47.95 63.24v30.84c0 3.31 2.69 6 6 6h132.11c3.31 0 6-2.69 6-6v-30.84c0-30.03-20.27-55.4-47.83-63.21zm-57.92-38.82c0-18.58 15.12-33.7 33.7-33.7s33.7 15.12 33.7 33.7-15.12 33.7-33.7 33.7-33.7-15.12-33.7-33.7zm51.41 49.56-11.72 21.41v-22.63h.36c3.9-.01 7.7.42 11.36 1.22zm-23.72-1.23v22.63l-11.72-21.41c3.66-.79 7.46-1.22 11.36-1.22zm66.06 78.54h-13.97v-22.07c0-3.31-2.69-6-6-6s-6 2.69-6 6v22.07h-68.17v-22.07c0-3.31-2.69-6-6-6s-6 2.69-6 6v22.07h-13.97v-24.84c0-21.42 12.61-39.95 30.8-48.56l23.99 43.83c1.05 1.92 3.07 3.12 5.26 3.12s4.21-1.2 5.26-3.12l23.99-43.83c18.19 8.61 30.8 27.14 30.8 48.56v24.84z"/></svg>