<svg xmlns="http://www.w3.org/2000/svg" version="1.1" xmlns:xlink="http://www.w3.org/1999/xlink" width="512" height="512" x="0" y="0" viewBox="0 0 24 24" style="enable-background:new 0 0 512 512" xml:space="preserve" class=""><g><path d="M22 14h-1v-.5c0-.827-.673-1.5-1.5-1.5h-3c-.827 0-1.5.673-1.5 1.5v.5h-1c-1.103 0-2 .897-2 2v8h12v-8c0-1.103-.897-2-2-2Zm-6-.5a.5.5 0 0 1 .5-.5h3a.5.5 0 0 1 .5.5v.5h-4v-.5ZM14 15h8c.551 0 1 .449 1 1v2H13v-2c0-.551.449-1 1-1Zm-1 8v-4h4.5v2h1v-2H23v4H13Zm-2.444-9a3.93 3.93 0 0 0-.414 1H4.5C2.57 15 1 16.57 1 18.5V24H0v-5.5C0 16.019 2.019 14 4.5 14h6.056ZM3.157 7.344C3.769 10.007 6.154 12 9 12a5.987 5.987 0 0 0 4.426-1.953l-.292-1.238A5 5 0 0 1 9 11a5.008 5.008 0 0 1-4.899-4.002h.914c3.167-.094 5.88-2.214 6.808-5.207a5.468 5.468 0 0 1 2.425 3.057c.027.088.511 2.135 1.26 5.312.317-.094.645-.161.992-.161h.004c-.673-2.858-1.245-5.268-1.302-5.45C14.347 1.827 11.854-.001 9-.001S3.652 1.829 2.798 4.55c-.082.261-1.226 5.122-2.208 9.306a7.567 7.567 0 0 1 1.239-.878l1.328-5.635ZM9 1a5.52 5.52 0 0 1 1.917.353c-.757 2.664-3.143 4.562-5.918 4.644l-1.524.002a116 116 0 0 1 .276-1.15A5.476 5.476 0 0 1 8.999.999Z" fill="#000000" opacity="1" data-original="#000000" class=""></path></g></svg>