<svg id="Capa_1" enable-background="new 0 0 512.015 512.015" height="512" viewBox="0 0 512.015 512.015" width="512" xmlns="http://www.w3.org/2000/svg"><g><path d="m504.69 286.943-5.157-.729c-19.408-2.746-35.018 4.137-47.629 14.65 3.72-14.18 5.93-28.963 6.463-44.166 27.127-2.306 40.244-17.263 46.521-29.983 12.789-25.918 6.945-63.229-6.298-80.505l-3.418-4.46-5.24 2.027c-19.287 7.461-32.671 23.583-39.842 47.886-4.162-13.996-9.837-27.532-16.954-40.351 20.76-15.457 23.12-34.447 21.151-48.183-3.903-27.243-29.382-55.182-47.874-60.15l-5.03-1.352-3.023 4.241c-11.632 16.319-11.718 35.233-7.246 52.843-9.193-8.243-19.13-15.664-29.71-22.126 3.012-18.006-2.412-32.984-15.572-42.574-18.934-13.798-52.054-13.693-66.852-4.407l-4.175 2.62.748 4.871c5.706 37.158 52.071 45.998 71.87 49.773 1.035.197 1.986.379 2.856.551 27.476 16.017 50.57 38.862 66.87 66.189l.782 1.334c16.721 28.569 25.57 61.229 25.576 94.532l-.064 4.95c-2.613 101.127-85.69 182.589-187.436 182.589s-184.822-81.462-187.435-182.589l-.064-4.95c.007-33.303 8.856-65.963 25.576-94.532l.782-1.334c16.3-27.327 39.394-50.172 66.87-66.189.87-.172 1.821-.353 2.856-.551 19.799-3.775 66.164-12.615 71.87-49.773l.748-4.871-4.175-2.62c-6.704-4.208-17.719-6.682-29.386-6.563l.127 15c6.899-.059 12.524.924 16.478 2.178-7.626 20.874-38.574 28.034-55.229 31.291-.821-7.217.283-13.341 3.305-18.268 5.132-8.366 14.874-12.071 22.144-13.706l-3.291-14.635c-14.469 3.254-25.409 10.343-31.639 20.498-5.338 8.702-6.988 19.175-4.938 31.189-10.578 6.461-20.512 13.882-29.704 22.123 4.471-17.61 4.386-36.524-7.246-52.843l-3.023-4.241-5.03 1.352c-18.492 4.969-43.971 32.907-47.874 60.15-1.968 13.735.392 32.725 21.151 48.183-7.117 12.819-12.792 26.355-16.954 40.351-7.171-24.303-20.556-40.425-39.842-47.886l-5.24-2.027-3.418 4.46c-13.243 17.276-19.087 54.587-6.298 80.505 6.277 12.72 19.394 27.678 46.521 29.983.533 15.201 2.742 29.983 6.461 44.161-12.61-10.512-28.219-17.392-47.628-14.646l-5.157.729-1.117 5.088c-3.939 17.935 6.003 55.191 30.547 72.749 6.842 4.895 16.209 9.221 27.943 9.221 7.816 0 16.686-1.931 26.554-6.882 7.175 10.022 15.244 19.361 24.083 27.909-20.014-3.984-41.217-2.551-58.938 12.751l-3.942 3.404 1.813 4.883c7.044 18.97 38.968 43.035 68.046 44.469.956.047 1.934.072 2.931.072 14.303 0 32.486-5.266 45.781-27.316 9.652 4.481 19.709 8.231 30.108 11.162-24.826 8.092-38.269 21.532-50.655 33.916l10.605 10.607c19.011-19.009 36.966-36.964 94.924-36.964s75.913 17.955 94.924 36.964l10.605-10.607c-12.385-12.385-25.828-25.824-50.655-33.916 10.399-2.931 20.456-6.681 30.108-11.162 13.296 22.051 31.477 27.316 45.781 27.316.996 0 1.976-.025 2.931-.072 29.078-1.434 61.002-25.499 68.046-44.469l1.813-4.883-3.942-3.404c-17.721-15.303-38.924-16.736-58.938-12.751 8.839-8.548 16.908-17.887 24.083-27.909 9.868 4.951 18.737 6.882 26.554 6.882 11.732 0 21.103-4.327 27.943-9.221 24.544-17.558 34.486-54.814 30.547-72.749zm-157.704-215.434c-16.658-3.258-47.608-10.418-55.228-31.298 11.161-3.511 32.222-3.563 45.238 5.923 7.896 5.754 11.242 14.271 9.99 25.375zm-301.505 281.071c-16.205-11.593-25.304-36.891-25.167-51.946.113-.001.224-.002.337-.002 28.856 0 47.354 29.99 59.863 50.273.784 1.271 1.535 2.489 2.261 3.653-13.93 6.436-26.449 5.78-37.294-1.978zm27.096-247.324c2.813-19.632 19.493-38.91 31.868-45.676 12.789 25.735-7.247 61.051-17.885 78.719-11.157-8.876-15.857-19.962-13.983-33.043zm-51.998 114.821c-9.449-19.148-5.629-45.576 1.636-59.721 27.695 15.351 30.645 56.287 31.173 81.255-15.578-1.72-26.596-8.942-32.809-21.534zm102.472 225.475c-21.47-1.058-43.976-17.307-52.228-29.926 26.518-17.515 63.169-.404 86.616 11.114-8.426 13.2-19.958 19.522-34.388 18.812zm318.14-29.925c-8.252 12.619-30.758 28.868-52.228 29.926-14.413.709-25.961-5.612-34.389-18.812 23.449-11.519 60.102-28.63 86.617-11.114zm48.609-255.271c7.265 14.145 11.085 40.572 1.636 59.721-6.213 12.592-17.231 19.813-32.809 21.534.529-24.968 3.478-65.904 31.173-81.255zm-82.23-100.775c12.375 6.766 29.056 26.044 31.868 45.676 1.874 13.08-2.826 24.167-13.983 33.043-10.638-17.669-30.674-52.984-17.885-78.719zm58.964 292.999c-10.847 7.758-23.365 8.412-37.294 1.979.726-1.164 1.477-2.383 2.261-3.653 12.511-20.285 31.004-50.273 59.863-50.273.113 0 .224.001.337.002.136 15.053-8.962 40.352-25.167 51.945z"/><path d="m351.602 355.188 10.066 11.121c3.881-3.514 7.628-7.26 11.135-11.134l-11.121-10.066c-3.175 3.507-6.566 6.898-10.08 10.079z"/><path d="m413.507 249.513c0-86.846-70.654-157.5-157.5-157.5s-157.5 70.654-157.5 157.5 70.654 157.5 157.5 157.5c33.899 0 66.2-10.611 93.41-30.688l-8.906-12.07c-11.747 8.667-24.551 15.359-38.054 20.013 6.4-6.906 12.328-15.307 17.645-25.115 14.975-27.623 23.628-63.651 24.625-102.141h53.564c-1.437 27.92-10.87 54.406-27.542 77.004l12.07 8.906c20.076-27.21 30.688-59.511 30.688-93.409zm-15.197-7.5h-53.583c-.997-38.49-9.65-74.518-24.625-102.141-5.303-9.782-11.213-18.165-17.595-25.062 53.558 18.541 92.727 68.172 95.803 127.203zm-149.803-134.237v134.238h-66.215c.978-36.007 8.987-69.5 22.806-94.991 12.12-22.355 27.312-35.999 43.409-39.247zm0 149.237v134.238c-16.097-3.248-31.289-16.893-43.408-39.247-13.819-25.491-21.828-58.984-22.806-94.991zm15-149.237c16.097 3.248 31.289 16.893 43.408 39.247 13.819 25.491 21.828 58.984 22.806 94.991h-66.215v-134.238zm-54 7.035c-6.381 6.896-12.292 15.28-17.595 25.062-14.975 27.623-23.628 63.651-24.625 102.141h-53.583c3.076-59.032 42.246-108.663 95.803-127.203zm-95.803 142.202h53.583c.997 38.49 9.65 74.518 24.625 102.141 5.303 9.782 11.214 18.165 17.595 25.062-53.557-18.541-92.727-68.171-95.803-127.203zm193.212 94.992c-12.119 22.354-27.311 35.999-43.408 39.247v-134.239h66.215c-.979 36.007-8.988 69.501-22.807 94.992z"/><path d="m278.507 152.014h15v15h-15z"/><path d="m278.507 182.014h15v15h-15z"/></g></svg>