<svg id="Capa_1" enable-background="new 0 0 512 512" height="512" viewBox="0 0 512 512" width="512" xmlns="http://www.w3.org/2000/svg"><g><path d="m262.944 272.017c.511-4.083 4.252-6.973 8.334-6.464 4.082.51 7.002 4.252 6.463 8.335-4.421 34.441-21.401 64.941-46.232 86.769-24.521 21.545-56.666 34.611-91.845 34.611-38.437 0-73.248-15.591-98.448-40.792-25.2-25.2-40.791-60.009-40.791-98.476 0-38.439 15.591-73.249 40.791-98.448s60.011-40.792 98.448-40.792c35.179 0 67.324 13.068 91.845 34.611 24.831 21.8 41.812 52.3 46.232 86.741.539 4.109-2.381 7.825-6.463 8.362-4.082.512-7.823-2.381-8.334-6.491-3.968-30.698-19.133-57.912-41.272-77.357-21.855-19.219-50.57-30.869-82.008-30.869-34.299 0-65.368 13.917-87.847 36.396-22.478 22.479-36.396 53.547-36.396 87.847 0 34.329 13.918 65.368 36.396 87.874 22.478 22.482 53.548 36.369 87.847 36.369 31.438 0 60.152-11.65 82.008-30.84 22.139-19.474 37.305-46.659 41.272-77.386zm54.371-264.505c0-4.139 3.345-7.512 7.512-7.512 4.139 0 7.483 3.373 7.483 7.512v72.002c5.755 1.415 10.913 4.364 14.968 8.417 5.755 5.754 9.298 13.692 9.298 22.479 0 8.76-3.543 16.698-9.298 22.451-4.055 4.053-9.213 7.03-14.968 8.418v83.852c5.755 1.388 10.913 4.364 14.968 8.417 5.755 5.756 9.298 13.692 9.298 22.452 0 8.787-3.543 16.725-9.298 22.479-4.055 4.055-9.213 7.002-14.968 8.39v83.879c5.755 1.389 10.913 4.338 14.968 8.391 5.755 5.753 9.298 13.691 9.298 22.478 0 8.76-3.543 16.698-9.298 22.452-4.055 4.053-9.213 7.029-14.968 8.417v72.031c0 4.139-3.345 7.482-7.483 7.482-4.167 0-7.512-3.344-7.512-7.482v-72.031c-5.755-1.388-10.913-4.364-14.967-8.417-5.755-5.754-9.298-13.692-9.298-22.452 0-8.787 3.543-16.726 9.298-22.478 4.054-4.053 9.212-7.002 14.967-8.391v-83.879c-5.755-1.388-10.913-4.335-14.967-8.39-5.755-5.755-9.298-13.692-9.298-22.479 0-8.76 3.543-16.696 9.298-22.452 4.054-4.053 9.212-7.029 14.967-8.417v-83.852c-5.755-1.388-10.913-4.365-14.967-8.418-5.755-5.753-9.298-13.691-9.298-22.451 0-8.787 3.543-16.726 9.298-22.479 4.054-4.053 9.212-7.002 14.967-8.417zm179.264 411.086c0-4.139 3.374-7.484 7.512-7.484 4.139 0 7.484 3.346 7.484 7.484v24.747c0 4.139-3.346 7.512-7.484 7.512h-105.506c-4.139 0-7.484-3.373-7.484-7.512v-18.228l-18.197-18.199c-2.92-2.92-2.92-7.682 0-10.602l18.197-18.197v-18.257c0-4.139 3.346-7.483 7.484-7.483h105.506c4.139 0 7.484 3.345 7.484 7.483v24.776c0 4.139-3.346 7.482-7.484 7.482s-7.512-3.344-7.512-7.482v-17.265h-90.482v13.862c0 1.899-.736 3.826-2.211 5.301l-15.08 15.08 15.051 15.053c1.39 1.359 2.24 3.232 2.24 5.328v13.862h90.482zm0-145.62c0-4.137 3.374-7.482 7.512-7.482 4.139 0 7.484 3.346 7.484 7.482v24.776c0 4.139-3.346 7.484-7.484 7.484h-105.506c-4.139 0-7.484-3.346-7.484-7.484v-18.254l-18.197-18.199c-2.92-2.92-2.92-7.682 0-10.602l18.197-18.17v-18.257c0-4.139 3.346-7.512 7.484-7.512h105.506c4.139 0 7.484 3.373 7.484 7.512v24.747c0 4.139-3.346 7.514-7.484 7.514s-7.512-3.375-7.512-7.514v-17.263h-90.482v13.862c0 1.927-.736 3.855-2.211 5.301l-15.08 15.081 15.051 15.053c1.39 1.359 2.24 3.26 2.24 5.328v13.862h90.482zm0-145.587c0-4.139 3.374-7.512 7.512-7.512 4.139 0 7.484 3.373 7.484 7.512v24.747c0 4.139-3.346 7.511-7.484 7.511h-105.506c-4.139 0-7.484-3.372-7.484-7.511v-18.257l-18.197-18.17c-2.92-2.947-2.92-7.682 0-10.629l18.197-18.17v-18.257c0-4.139 3.346-7.512 7.484-7.512h105.506c4.139 0 7.484 3.373 7.484 7.512v24.747c0 4.139-3.346 7.512-7.484 7.512s-7.512-3.373-7.512-7.512v-17.235h-90.482v13.835c0 1.927-.736 3.853-2.211 5.328l-15.08 15.08 15.051 15.023c1.39 1.361 2.24 3.26 2.24 5.357v13.835h90.482zm-159.903-28.858c-3.034-3.034-7.23-4.904-11.85-4.904-4.648 0-8.844 1.87-11.877 4.904-3.033 3.033-4.905 7.229-4.905 11.877 0 4.621 1.872 8.816 4.905 11.85 3.033 3.033 7.229 4.904 11.877 4.904 4.62 0 8.815-1.871 11.85-4.904 3.032-3.033 4.903-7.229 4.903-11.85 0-4.648-1.871-8.844-4.903-11.877zm0 291.237c-3.034-3.033-7.23-4.934-11.85-4.934-4.648 0-8.844 1.9-11.877 4.934s-4.905 7.228-4.905 11.848c0 4.621 1.872 8.816 4.905 11.85s7.229 4.904 11.877 4.904c4.62 0 8.815-1.87 11.85-4.904 3.032-3.033 4.903-7.228 4.903-11.85 0-4.62-1.871-8.815-4.903-11.848zm0-145.62c-3.034-3.034-7.23-4.902-11.85-4.902-4.648 0-8.844 1.868-11.877 4.902-3.033 3.033-4.905 7.229-4.905 11.85 0 4.648 1.872 8.816 4.905 11.877 3.033 3.034 7.229 4.904 11.877 4.904 4.62 0 8.815-1.87 11.85-4.904 3.032-3.061 4.903-7.229 4.903-11.877 0-4.621-1.871-8.816-4.903-11.85zm-204.495-52.979c0-4.139 3.345-7.512 7.483-7.512 4.167 0 7.512 3.373 7.512 7.512v38.665c4.508 1.304 8.505 3.712 11.735 6.945 4.934 4.903 7.967 11.707 7.967 19.219s-3.033 14.315-7.967 19.248c-4.931 4.903-11.735 7.966-19.247 7.966-7.341 0-14.003-2.92-18.907-7.654l-22.933 13.237c-3.572 2.042-8.136.823-10.176-2.749-2.07-3.601-.823-8.164 2.75-10.206l22.875-13.209c-.51-2.125-.795-4.336-.795-6.633 0-7.512 3.034-14.315 7.967-19.219 3.203-3.233 7.229-5.642 11.735-6.945v-38.665zm16.129 56.212c-2.211-2.212-5.273-3.572-8.646-3.572-3.345 0-6.406 1.36-8.617 3.572-2.21 2.211-3.571 5.244-3.571 8.617s1.361 6.435 3.571 8.647c2.211 2.211 5.272 3.57 8.617 3.57 3.373 0 6.435-1.359 8.646-3.57 2.212-2.211 3.572-5.274 3.572-8.647s-1.361-6.406-3.572-8.617zm-16.129-93.997c0-4.139 3.345-7.514 7.483-7.514 4.167 0 7.512 3.375 7.512 7.514v8.645c0 4.168-3.345 7.511-7.512 7.511-4.139 0-7.483-3.343-7.483-7.511zm-37.333 195.252c-2.068 3.57-6.661 4.789-10.233 2.722-3.572-2.069-4.791-6.663-2.721-10.233l4.308-7.484c2.07-3.572 6.662-4.791 10.233-2.721 3.572 2.068 4.791 6.633 2.722 10.232zm98.279-170.309c-2.04 3.602-6.605 4.82-10.177 2.779-3.571-2.07-4.819-6.635-2.75-10.205l4.31-7.484c2.068-3.6 6.633-4.818 10.204-2.778 3.571 2.069 4.819 6.634 2.75 10.206zm-138.588 135.471c-3.572 2.068-8.136.85-10.205-2.723-2.069-3.571-.851-8.162 2.722-10.232l7.483-4.336c3.571-2.07 8.164-.852 10.233 2.747 2.068 3.572.85 8.137-2.722 10.206zm170.279-98.309c-3.572 2.07-8.164.853-10.232-2.72-2.07-3.572-.852-8.164 2.722-10.233l7.511-4.309c3.572-2.07 8.135-.852 10.205 2.721 2.069 3.573.85 8.135-2.722 10.205zm-187.769 48.021c-4.139 0-7.512-3.373-7.512-7.512s3.373-7.484 7.512-7.484h8.674c4.139 0 7.484 3.346 7.484 7.484s-3.346 7.512-7.484 7.512zm196.586 0c-4.14 0-7.483-3.373-7.483-7.512s3.344-7.484 7.483-7.484h8.673c4.14 0 7.484 3.346 7.484 7.484s-3.345 7.512-7.484 7.512zm-186.579-52.357c-3.572-2.07-4.791-6.632-2.722-10.205 2.069-3.572 6.633-4.791 10.205-2.721l7.512 4.309c3.571 2.069 4.79 6.661 2.722 10.233-2.069 3.572-6.662 4.79-10.233 2.72zm170.252 98.307c-3.573-2.069-4.792-6.634-2.722-10.206 2.068-3.6 6.66-4.817 10.232-2.747l7.483 4.336c3.571 2.07 4.791 6.661 2.722 10.232-2.07 3.572-6.633 4.791-10.205 2.723zm-135.413-138.588c-2.07-3.57-.852-8.164 2.721-10.233 3.571-2.069 8.164-.849 10.233 2.751l4.31 7.482c2.069 3.572.851 8.137-2.722 10.234-3.571 2.068-8.163.85-10.233-2.75zm98.305 170.252c-2.069-3.602-.821-8.164 2.75-10.205 3.571-2.07 8.137-.822 10.177 2.75l4.337 7.482c2.069 3.572.821 8.164-2.75 10.206-3.571 2.04-8.136.821-10.204-2.751zm-48.019 8.844c0-4.139 3.345-7.512 7.483-7.512 4.167 0 7.512 3.373 7.512 7.512v8.674c0 4.139-3.345 7.482-7.512 7.482-4.139 0-7.483-3.344-7.483-7.482z"/></g></svg>