<svg id="Layer_1" viewBox="0 0 200 200" xmlns="http://www.w3.org/2000/svg" data-name="Layer 1"><path d="m176.66406 188.01367-4.25781-4.22656 4.48633-4.52002h-157.14697v-156.98145l-4.50391 4.5376-4.25879-4.22656 11.7627-11.85107 11.76269 11.85107-4.25879 4.22656-4.5039-4.5376v150.98145h151.14697l-4.48633-4.52002 4.25781-4.22656 11.65918 11.74658z"/><path d="m24.6582 94.70068-4.39844-4.08008c22.32861-24.07129 43.35693-34.79395 62.50146-31.87402 12.49707 1.90771 20.96533 9.16846 28.43701 15.57471 7.24902 6.21533 13.47949 11.5752 22.04297 11.39209 13.92871-.3125 28.22168-15.48535 42.51465-45.11475l-6.73242 3.12207-2.52344-5.44336 15.875-7.36182 7.24414 15.93018-5.46191 2.4834-2.8877-6.34961c-15.58789 32.40723-31.27734 48.35938-47.89355 48.73193-10.81445.25391-18.23926-6.10938-26.08301-12.83545-7.19629-6.16992-14.63672-12.5498-25.43701-14.19775-17.05811-2.60547-36.30273 7.49805-57.19775 30.02246z"/><path d="m49.504 68h6v108.267h-6z"/><path d="m154.309 76h6v102.267h-6z"/><path d="m83.539 124.606h14.599v6h-14.599z"/><path d="m93.83838 143.23682h-6v-24.03662c0-5.63818 4.58691-10.2251 10.2251-10.2251h3.88672v6h-3.88672c-2.32959 0-4.2251 1.89551-4.2251 4.2251z"/><path d="m107.85059 144.11914c-1.52051-2.33398-4.0498-7.271-3.89355-14.1123.14258-6.26953 2.50195-10.78418 3.89551-12.91699l5.02344 3.28223c-1.04395 1.59766-2.81152 4.99121-2.9209 9.77148-.12305 5.4209 2.00293 9.28809 2.92285 10.69922l-5.02734 3.27637z"/><path d="m129.36523 140.23975-5.3916-5.39112-5.39062 5.39112-4.24219-4.24317 5.39063-5.39062-5.39063-5.39014 4.24219-4.24316 5.39062 5.39111 5.3916-5.39111 4.24219 4.24316-5.39062 5.39014 5.39062 5.39062z"/><path d="m140.30176 144.11914-5.02734-3.27637c.91992-1.41113 3.0459-5.27832 2.92285-10.69922-.10938-4.78027-1.87695-8.17383-2.9209-9.77148l5.02344-3.28223c1.39355 2.13281 3.75293 6.64746 3.89551 12.91699.15625 6.84131-2.37305 11.77832-3.89355 14.1123z"/><path d="m67.77197 157.22559c-2.60596 0-5.24609-1.56982-8.0332-4.76611l4.52246-3.94336c2.00244 2.29688 3.23828 2.771 3.61914 2.69873.04297-.0083 4.2627-1.09082 5.74023-26.00146h-.00195c1.16064-22.02148 4.36475-31.9248 10.71338-33.11377 3.00244-.5625 6.02588.95996 9.24561 4.65283l-4.52246 3.94336c-2.00244-2.29688-3.24756-2.771-3.61914-2.69873-.04297.0083-4.2627 1.09082-5.74023 26.00146h.00195c-1.16064 22.02148-4.36475 31.9248-10.71338 33.11377-.40332.07568-.80762.11328-1.2124.11328z"/></svg>