<?xml version="1.0" encoding="UTF-8" standalone="no"?>
<!-- Created with Inkscape (http://www.inkscape.org/) -->

<svg
   version="1.1"
   id="svg285"
   xml:space="preserve"
   width="682.66669"
   height="682.66669"
   viewBox="0 0 682.66669 682.66669"
   xmlns="http://www.w3.org/2000/svg"
   xmlns:svg="http://www.w3.org/2000/svg"><defs
     id="defs289"><clipPath
       clipPathUnits="userSpaceOnUse"
       id="clipPath299"><path
         d="M 0,512 H 512 V 0 H 0 Z"
         id="path297" /></clipPath></defs><g
     id="g291"
     transform="matrix(1.3333333,0,0,-1.3333333,0,682.66667)"><g
       id="g293"><g
         id="g295"
         clip-path="url(#clipPath299)"><g
           id="g301"
           transform="translate(133.6406,74.2227)"><path
             d="m 0,0 v -56.723 c 0,-5.523 4.478,-10 10,-10 h 194.771 c 5.522,0 10,4.477 10,10 V -9.73 c 0,5.522 4.476,10 10,10 h 55.881 c 22.092,0 40,17.908 40,40 v 6.518"
             style="fill:none;stroke:#000000;stroke-width:15;stroke-linecap:round;stroke-linejoin:round;stroke-miterlimit:10;stroke-dasharray:none;stroke-opacity:1"
             id="path303" /></g><g
           id="g305"
           transform="translate(454.293,153.3076)"><path
             d="m 0,0 v 14.313 c 0,5.523 4.478,10 10,10 h 26.996 c 7.525,0 12.354,7.996 8.851,14.655 L 1.724,122.866 C 0.592,125.019 0,127.415 0,129.848 v 27.377 c 0,105.294 -83.971,192.302 -189.251,193.943 -107.62,1.678 -195.389,-85.059 -195.389,-192.295 0,-54.586 22.757,-103.841 59.283,-138.845 2.98,-2.857 4.705,-6.779 4.705,-10.907 v -54.907"
             style="fill:none;stroke:#000000;stroke-width:15;stroke-linecap:round;stroke-linejoin:round;stroke-miterlimit:10;stroke-dasharray:none;stroke-opacity:1"
             id="path307" /></g><g
           id="g309"
           transform="translate(159.9785,418.4565)"><path
             d="m 0,0 -53.496,53.496 c -2.814,2.813 -6.629,4.394 -10.607,4.394 h -49.393"
             style="fill:none;stroke:#000000;stroke-width:15;stroke-linecap:round;stroke-linejoin:round;stroke-miterlimit:10;stroke-dasharray:none;stroke-opacity:1"
             id="path311" /></g><g
           id="g313"
           transform="translate(117.4717,316.5312)"><path
             d="M 0,0 H -72.989"
             style="fill:none;stroke:#000000;stroke-width:15;stroke-linecap:round;stroke-linejoin:round;stroke-miterlimit:10;stroke-dasharray:none;stroke-opacity:1"
             id="path315" /></g><g
           id="g317"
           transform="translate(159.5449,216.6426)"><path
             d="m 0,0 -74.481,-74.481 c -2.813,-2.813 -4.394,-6.628 -4.394,-10.607 v -21.269"
             style="fill:none;stroke:#000000;stroke-width:15;stroke-linecap:round;stroke-linejoin:round;stroke-miterlimit:10;stroke-dasharray:none;stroke-opacity:1"
             id="path319" /></g><g
           id="g321"
           transform="translate(42.2686,476.3462)"><path
             d="m 0,0 c 0,-8.718 -7.067,-15.786 -15.786,-15.786 -8.718,0 -15.785,7.068 -15.785,15.786 0,8.718 7.067,15.786 15.785,15.786 C -7.067,15.786 0,8.718 0,0 Z"
             style="fill:none;stroke:#000000;stroke-width:15;stroke-linecap:round;stroke-linejoin:round;stroke-miterlimit:10;stroke-dasharray:none;stroke-opacity:1"
             id="path323" /></g><g
           id="g325"
           transform="translate(42.2686,316.5312)"><path
             d="m 0,0 c 0,-8.718 -7.067,-15.786 -15.786,-15.786 -8.718,0 -15.785,7.068 -15.785,15.786 0,8.718 7.067,15.786 15.785,15.786 C -7.067,15.786 0,8.718 0,0 Z"
             style="fill:none;stroke:#000000;stroke-width:15;stroke-linecap:round;stroke-linejoin:round;stroke-miterlimit:10;stroke-dasharray:none;stroke-opacity:1"
             id="path327" /></g><g
           id="g329"
           transform="translate(96.4561,90.2856)"><path
             d="m 0,0 c 0,-8.718 -7.067,-15.786 -15.786,-15.786 -8.718,0 -15.786,7.068 -15.786,15.786 0,8.718 7.068,15.786 15.786,15.786 C -7.067,15.786 0,8.718 0,0 Z"
             style="fill:none;stroke:#000000;stroke-width:15;stroke-linecap:round;stroke-linejoin:round;stroke-miterlimit:10;stroke-dasharray:none;stroke-opacity:1"
             id="path331" /></g><g
           id="g333"
           transform="translate(187.165,331.584)"><path
             d="m 0,0 c 6.965,34.035 37.079,59.638 73.174,59.638 41.25,0 74.69,-33.44 74.69,-74.691 0,-41.251 -33.44,-74.691 -74.69,-74.691 -35.552,0 -65.303,24.839 -72.844,58.11 m 208.857,42.143 h -32.514 c -2.218,0 -4.162,1.463 -4.79,3.59 -2.07,7.014 -4.867,13.715 -8.304,20.019 -1.063,1.949 -0.725,4.361 0.846,5.93 l 22.999,23 c 1.953,1.952 1.953,5.119 0,7.071 l -29.078,29.079 c -1.953,1.952 -5.118,1.952 -7.072,0 l -23,-23 c -1.569,-1.57 -3.981,-1.908 -5.929,-0.846 -6.304,3.437 -13.005,6.235 -20.02,8.305 -2.127,0.627 -3.59,2.572 -3.59,4.789 v 32.514 c 0,2.761 -2.239,5 -5,5 H 52.612 c -2.761,0 -5,-2.239 -5,-5 V 88.446 c 0,-2.217 -1.464,-4.162 -3.59,-4.789 -7.014,-2.07 -13.715,-4.868 -20.019,-8.305 -1.949,-1.062 -4.361,-0.724 -5.931,0.846 l -22.999,23 c -1.953,1.952 -5.119,1.952 -7.071,0 L -41.077,70.119 c -1.952,-1.952 -1.952,-5.119 0,-7.071 l 23,-23 c 1.569,-1.569 1.908,-3.981 0.846,-5.93 -3.437,-6.304 -6.236,-13.005 -8.305,-20.019 -0.627,-2.127 -2.572,-3.59 -4.789,-3.59 h -32.514 c -2.762,0 -5,-2.239 -5,-5 v -41.123 c 0,-2.762 2.238,-5 5,-5 h 32.514 c 2.217,0 4.162,-1.464 4.789,-3.591 2.069,-7.014 4.868,-13.715 8.305,-20.019 1.062,-1.949 0.723,-4.36 -0.846,-5.93 l -23,-23 c -1.952,-1.952 -1.952,-5.118 0,-7.071 l 29.079,-29.078 c 1.952,-1.953 5.118,-1.953 7.071,0 l 22.999,22.999 c 1.57,1.57 3.982,1.909 5.931,0.846 6.304,-3.437 13.005,-6.235 20.019,-8.305 2.126,-0.627 3.59,-2.571 3.59,-4.789 v -32.514 c 0,-2.761 2.239,-5 5,-5 h 41.123 c 2.761,0 5,2.239 5,5 v 32.514 c 0,2.218 1.463,4.162 3.59,4.789 7.015,2.07 13.716,4.868 20.02,8.305 1.948,1.063 4.36,0.724 5.929,-0.846 l 23,-22.999 c 1.954,-1.953 5.119,-1.953 7.072,0 l 29.078,29.078 c 1.953,1.953 1.953,5.119 0,7.071 l -22.999,23 c -1.571,1.57 -1.909,3.981 -0.846,5.93 3.437,6.304 6.234,13.005 8.304,20.019 0.628,2.127 2.572,3.591 4.79,3.591 h 32.514 c 2.761,0 5,2.238 5,5 V 5.509 c 0,2.761 -2.239,5 -5,5 z"
             style="fill:none;stroke:#000000;stroke-width:15;stroke-linecap:round;stroke-linejoin:round;stroke-miterlimit:10;stroke-dasharray:none;stroke-opacity:1"
             id="path335" /></g></g></g></g></svg>
