<svg id="Capa_1" enable-background="new 0 0 512.004 512.004" height="512" viewBox="0 0 512.004 512.004" width="512" xmlns="http://www.w3.org/2000/svg"><g><path d="m20.64 479.256c-3.298-2.504-8.002-1.863-10.509 1.435-5.208 6.856-7.812 14.521-9.85 21.783-1.119 3.988 1.207 8.128 5.195 9.248.678.19 1.359.281 2.03.281 3.277 0 6.288-2.165 7.217-5.476 2.269-8.084 4.33-12.784 7.352-16.762 2.506-3.298 1.864-8.003-1.435-10.509z"/><path d="m469.569 456.463c.704-.57 1.401-1.152 2.082-1.757 6.253-5.554 10.138-15.099 10.138-24.91v-23.245c0-21.178-17.68-38.408-39.412-38.408s-39.412 17.23-39.412 38.408v23.245c0 9.811 3.885 19.356 10.138 24.91.681.605 1.377 1.186 2.081 1.756-19.059 10.79-28.739 17.831-34.932 28.074-6.192-10.244-15.872-17.284-34.932-28.074.703-.57 1.4-1.151 2.081-1.756 6.253-5.554 10.138-15.099 10.138-24.91v-23.245c0-21.178-17.68-38.408-39.412-38.408s-39.412 17.23-39.412 38.408v23.245c0 9.811 3.885 19.356 10.138 24.91.681.605 1.377 1.186 2.081 1.756-19.061 10.791-28.742 17.833-34.934 28.078-1.863-3.053-4.116-5.934-6.936-8.764-.914-14.344-7.947-22.772-21.751-25.841 3.767-5.498 5.977-12.742 5.977-20.138v-23.245c0-21.178-17.68-38.408-39.412-38.408s-39.412 17.23-39.412 38.408v23.245c0 9.811 3.885 19.356 10.138 24.91.681.605 1.378 1.187 2.082 1.757-6.853 3.88-12.497 7.28-17.197 10.513-.576.015-1.155.025-1.736.025-8.625 0-14.953-3.007-22.963-6.814-6.292-2.99-13.545-6.436-22.953-8.606 4.506-5.649 7.203-13.62 7.203-21.785v-23.245c0-21.178-17.68-38.408-39.412-38.408s-39.412 17.23-39.412 38.408v23.245c0 9.811 3.885 19.356 10.138 24.91.682.605 1.379 1.188 2.083 1.758-2.373 1.344-4.492 2.568-6.43 3.714-3.565 2.109-4.745 6.709-2.636 10.274 1.4 2.367 3.898 3.682 6.462 3.682 1.298 0 2.614-.337 3.812-1.046 3.687-2.181 8.043-4.649 13.816-7.828 4.233 1.618 8.397 2.51 12.167 2.51 4.355 0 9.234-1.185 14.139-3.314 15.625.291 25.267 4.851 34.584 9.28 5.133 2.44 10.377 4.922 16.342 6.522-3.07 3.962-5.381 8.309-7.362 13.552-1.432-.415-2.824-.856-4.14-1.34-3.886-1.43-8.198.563-9.628 4.45s.562 8.198 4.45 9.628c2.415.889 4.992 1.668 7.673 2.355.958 1.321 2.347 2.344 4.04 2.82.678.19 1.359.281 2.03.281 3.277 0 6.288-2.165 7.217-5.476 4.965-17.695 8.449-22.373 42.738-41.267 4.232 1.618 8.396 2.509 12.166 2.509 2.657 0 5.511-.448 8.446-1.273 1.096 3.061 2.009 6.171 2.899 9.221 3.417 11.71 7.669 26.283 24.451 26.283 6.369 0 11.248-3.333 14.532-7.866 1.696 3.236 3.102 7.14 4.576 12.393.908 3.237 3.859 5.474 7.221 5.474 3.361 0 6.313-2.237 7.221-5.474 4.965-17.695 8.449-22.373 42.738-41.267 4.232 1.618 8.396 2.509 12.166 2.509s7.933-.891 12.166-2.509c34.29 18.894 37.773 23.572 42.738 41.267.908 3.237 3.859 5.474 7.221 5.474s6.313-2.237 7.221-5.474c4.965-17.695 8.449-22.373 42.738-41.267 4.232 1.618 8.396 2.509 12.166 2.509s7.933-.891 12.166-2.509c34.289 18.894 37.773 23.572 42.738 41.267.929 3.311 3.939 5.476 7.217 5.476.67 0 1.353-.091 2.03-.281 3.988-1.119 6.314-5.259 5.195-9.248-6.24-22.238-13.869-29.999-42.154-46.013zm-424.354-49.912c0-12.907 10.951-23.408 24.412-23.408s24.412 10.501 24.412 23.408v23.245c0 5.311-2.145 11.07-5.099 13.694-7.178 6.375-15.043 9.279-19.313 9.279s-12.135-2.904-19.313-9.278c-2.955-2.625-5.099-8.384-5.099-13.695zm129.349 36.94c-2.955-2.625-5.099-8.384-5.099-13.695v-23.245c0-12.907 10.951-23.408 24.412-23.408s24.412 10.501 24.412 23.408v23.245c0 5.311-2.145 11.07-5.099 13.694-7.178 6.375-15.043 9.279-19.313 9.279s-12.135-2.903-19.313-9.278zm55.108 43.51c-4.654 0-6.251-2.46-10.051-15.485-.726-2.487-1.495-5.123-2.397-7.832 16.948.831 16.949 7.625 16.949 15.415-.001 2.357-1.901 7.902-4.501 7.902zm69.142-43.51c-2.955-2.625-5.099-8.384-5.099-13.695v-23.245c0-12.907 10.951-23.408 24.412-23.408s24.412 10.501 24.412 23.408v23.245c0 5.311-2.145 11.07-5.099 13.694-7.178 6.375-15.043 9.279-19.313 9.279s-12.135-2.903-19.313-9.278zm124.25 0c-2.955-2.625-5.099-8.384-5.099-13.695v-23.245c0-12.907 10.951-23.408 24.412-23.408s24.412 10.501 24.412 23.408v23.245c0 5.311-2.145 11.07-5.099 13.694-7.178 6.375-15.043 9.279-19.313 9.279s-12.135-2.903-19.313-9.278z"/><path d="m196.002 198.758h120c4.142 0 7.5-3.358 7.5-7.5v-89.894l24.803-24.803c2.929-2.929 2.929-7.678 0-10.606-2.928-2.929-7.677-2.929-10.606 0l-14.197 14.197v-8.893c0-4.142-3.358-7.5-7.5-7.5h-120c-4.142 0-7.5 3.358-7.5 7.5v120c0 4.141 3.358 7.499 7.5 7.499zm7.5-120h105v16.393l-50.353 50.353-26.463-26.463c-2.929-2.929-7.678-2.929-10.606 0-2.929 2.929-2.929 7.678 0 10.606l31.767 31.767c1.464 1.465 3.384 2.197 5.303 2.197s3.839-.732 5.303-2.197l45.05-45.05v67.394h-105v-105z"/><path d="m196.002 228.758h120c4.142 0 7.5-3.358 7.5-7.5s-3.358-7.5-7.5-7.5h-120c-4.142 0-7.5 3.358-7.5 7.5s3.358 7.5 7.5 7.5z"/><path d="m196.312 16.119c17.931-.742 38.014-1.118 59.69-1.118 111.244 0 175.195 9.816 207.354 31.83 28.442 19.468 33.646 48.701 33.646 99.258 0 43.418-3.607 70.634-22.635 90.082-2.897 2.961-2.845 7.709.116 10.606 1.459 1.428 3.353 2.139 5.245 2.139 1.947 0 3.893-.753 5.361-2.255 24.855-25.404 26.913-62.069 26.913-100.572 0-46.034-3.023-86.208-40.173-111.636-35.279-24.149-99.825-34.452-215.827-34.452-21.882 0-42.173.38-60.31 1.131-4.139.171-7.355 3.665-7.184 7.804s3.663 7.358 7.804 7.183z"/><path d="m62.238 344.357c-.592 3.401 1.213 6.766 4.374 8.154 3.161 1.389 6.86.439 8.963-2.298l49.972-65.053c15.826 2.237 33.436 3.903 53.529 5.064l7.364 56.391c.433 3.311 3.001 5.937 6.301 6.442 3.306.509 6.538-1.23 7.941-4.26l26.352-56.858c9.279.158 19 .238 28.969.238s19.689-.08 28.969-.238l26.352 56.858c1.404 3.029 4.643 4.769 7.941 4.26 3.3-.506 5.868-3.132 6.301-6.442l7.364-56.391c20.093-1.161 37.703-2.827 53.529-5.064l49.972 65.053c1.455 1.894 3.674 2.932 5.951 2.932 1.013 0 2.039-.206 3.012-.633 3.161-1.388 4.966-4.753 4.374-8.154l-12.258-70.388c7.531-2.471 14.432-5.245 20.583-8.276 3.715-1.831 5.243-6.328 3.411-10.043s-6.326-5.244-10.043-3.411c-7.081 3.49-15.348 6.625-24.574 9.319-3.666 1.07-5.941 4.724-5.286 8.486l8.16 46.863-34.088-44.375c-1.664-2.165-4.375-3.254-7.069-2.847-18.04 2.729-38.545 4.658-62.689 5.897-3.616.186-6.583 2.929-7.053 6.519l-4.818 36.894-17.52-37.801c-1.251-2.7-3.993-4.395-6.957-4.345-10.634.216-21.927.326-33.565.326s-22.931-.11-33.565-.326c-2.951-.046-5.706 1.645-6.957 4.345l-17.52 37.801-4.818-36.894c-.469-3.59-3.436-6.333-7.053-6.519-24.144-1.239-44.649-3.168-62.689-5.897-2.698-.407-5.407.682-7.069 2.847l-34.088 44.375 8.16-46.863c.655-3.762-1.621-7.416-5.287-8.486-65.396-19.096-70.115-56.363-70.115-115.47 0-42.906 3.482-69.84 21.849-89.271 20.58-21.771 60.256-33.778 128.644-38.931 4.13-.312 7.227-3.912 6.916-8.042-.311-4.131-3.922-7.225-8.042-6.916-72.392 5.455-115.081 18.897-138.418 43.585-23.964 25.351-25.948 61.567-25.948 99.575 0 60.386 5.475 105.246 74.492 127.882z"/></g></svg>