<svg id="Layer_1" viewBox="0 0 24 24" xmlns="http://www.w3.org/2000/svg" data-name="Layer 1"><path d="m23.618 12.265-2.06-3.242-6.521-2.059c-.154.118-.309.237-.479.338-.027.048-.055.111-.062.147v.389s5.394 1.702 5.394 1.702l-7.897 2.64-7.805-2.61 5.312-1.71c0-.329-.009-.739.04-1.064l-7.147 2.3-2.024 3.169c-.246.384-.369.812-.369 1.24 0 1 .773 2.392 2.008 2.67l-.008 4.487 9.997 3.332 9.996-3.332.008-4.494c1.224-.283 2-1.476 2-2.663 0-.5-.137-.856-.382-1.24zm-22.393.517s1.657-2.593 1.657-2.593l8.355 2.793-1.95 3.251c-.37.617-1.169.923-1.87.69l-5.314-1.771c-.963-.29-1.418-1.526-.877-2.37zm10.271 9.991-8.503-2.831.006-3.433 4.102 1.365c1.126.389 2.445-.104 3.043-1.126l1.355-2.259-.003 8.285zm9.504-2.828-8.504 2.828.003-8.264 1.343 2.239c.598 1.022 1.917 1.514 3.044 1.126l4.121-1.368-.006 3.44zm.883-4.792-5.313 1.771c-.705.233-1.5-.073-1.871-.69l-1.95-3.251 8.363-2.796 1.649 2.596c.541.845.085 2.081-.878 2.37zm-11.883-12.148h-1c0-.889.391-1.726 1.071-2.298.681-.572 1.579-.81 2.469-.655 1.208.212 2.201 1.205 2.413 2.413.224 1.275-.381 2.548-1.506 3.168-.495.273-.946 1.108-.946 1.752v.619h-1v-.619c0-1.004.657-2.183 1.463-2.628.763-.42 1.156-1.252 1.004-2.12-.141-.802-.799-1.46-1.601-1.601-.604-.106-1.192.048-1.652.435-.454.381-.714.94-.714 1.532zm2 6c.552 0 1 .448 1 1s-.448 1-1 1-1-.448-1-1 .448-1 1-1z"/></svg>