<svg id="Layer_1" enable-background="new 0 0 66 66" height="512" viewBox="0 0 66 66" width="512" xmlns="http://www.w3.org/2000/svg"><g><path d="m11.14 60.66h-5.61c-1.31 0-2.37-1.06-2.37-2.37v-47.51c0-1.31 1.06-2.38 2.37-2.38.4 0 .72-.32.72-.72s-.32-.72-.72-.72c-2.1 0-3.81 1.71-3.81 3.82v47.51c0 2.1 1.71 3.81 3.81 3.81h5.61c.4 0 .72-.32.72-.72s-.32-.72-.72-.72z"/><path d="m36.83 60.66h-3.29c-.4 0-.72.32-.72.72s.32.72.72.72h3.29c.4 0 .72-.32.72-.72s-.32-.72-.72-.72z"/><path d="m10.77 56.81h.08c.36 0 .68-.27.72-.64.04-.4-.24-.75-.64-.79-1.2-.13-2.11-1.14-2.11-2.35v-47.52c0-1.31 1.06-2.37 2.37-2.37h34.44c1.31 0 2.37 1.06 2.37 2.37v10.59c0 .4.32.72.72.72s.72-.32.72-.72v-10.59c0-2.1-1.71-3.81-3.81-3.81h-34.45c-2.1 0-3.81 1.71-3.81 3.81v47.51c0 1.96 1.46 3.59 3.4 3.79z"/><path d="m36.83 55.39h-2.12c-.4 0-.72.32-.72.72s.32.72.72.72h2.12c.4 0 .72-.32.72-.72s-.32-.72-.72-.72z"/><path d="m18.87 11.53h1.74v4.78c0 .4.32.72.72.72s.72-.32.72-.72v-4.78h1.74c.4 0 .72-.32.72-.72s-.32-.72-.72-.72h-4.93c-.4 0-.72.32-.72.72.01.4.33.72.73.72z"/><path d="m24.99 17.05c.35.18.79.04.97-.31l.64-1.25h3.28l.64 1.25c.13.25.38.39.64.39.11 0 .22-.03.33-.08.36-.18.5-.62.31-.97l-2.92-5.69c-.12-.24-.37-.39-.64-.39-.27 0-.52.15-.64.39l-2.93 5.69c-.17.35-.03.78.32.97zm3.25-4.76.9 1.75h-1.8z"/><path d="m33.46 16.67c.13.1.29.16.45.16.21 0 .42-.09.57-.27l1.45-1.83 1.45 1.83c.14.18.35.27.57.27.16 0 .31-.05.45-.16.31-.25.37-.7.12-1.01l-1.66-2.09 1.66-2.09c.25-.31.19-.77-.12-1.01-.31-.25-.77-.19-1.01.12l-1.45 1.83-1.45-1.83c-.25-.31-.7-.37-1.01-.12s-.37.7-.12 1.01l1.64 2.08-1.66 2.09c-.25.32-.2.77.12 1.02z"/><path d="m42.92 20.57c1.21 0 2.2-.98 2.2-2.19v-9.64c0-1.21-.98-2.19-2.2-2.19h-29.04c-1.21 0-2.2.98-2.2 2.19v9.64c0 1.21.98 2.19 2.2 2.19zm-29.8-2.19v-9.64c0-.41.34-.75.75-.75h29.04c.42 0 .75.34.75.75v9.64c0 .41-.34.75-.75.75h-29.03c-.42 0-.76-.34-.76-.75z"/><path d="m40.55 25.22h-17.95c-.4 0-.72.32-.72.72s.32.72.72.72h17.95c.4 0 .72-.32.72-.72s-.32-.72-.72-.72z"/><path d="m41.27 30.94c0-.4-.32-.72-.72-.72h-27.19c-.4 0-.72.32-.72.72s.32.72.72.72h27.19c.4 0 .72-.32.72-.72z"/><path d="m33.31 35.22h-19.95c-.4 0-.72.32-.72.72s.32.72.72.72h19.95c.4 0 .72-.32.72-.72s-.32-.72-.72-.72z"/><path d="m33.31 40.22h-19.95c-.4 0-.72.32-.72.72s.32.72.72.72h19.95c.4 0 .72-.32.72-.72s-.32-.72-.72-.72z"/><path d="m61.83 35.04h-12.4v-2.66c0-.4-.32-.72-.72-.72s-.72.32-.72.72v2.66h-6.03c-1.35 0-2.45 1.1-2.45 2.45v24.36c0 1.35 1.1 2.45 2.45 2.45h19.88c1.35 0 2.45-1.1 2.45-2.45v-24.36c-.01-1.35-1.11-2.45-2.46-2.45zm1.01 26.81c0 .55-.45 1-1.01 1h-19.87c-.55 0-1.01-.45-1.01-1v-24.36c0-.55.45-1 1.01-1h19.88c.55 0 1.01.45 1.01 1v24.36z"/><path d="m58.8 38.93h-13.8c-.75 0-1.36.61-1.36 1.36v4.16c0 .75.61 1.36 1.36 1.36h13.8c.75 0 1.36-.61 1.36-1.36v-4.16c0-.75-.61-1.36-1.36-1.36zm-.08 5.44h-13.64v-4h13.64z"/><path d="m46.79 48.16h-2.14c-.4 0-.72.32-.72.72s.32.72.72.72h2.14c.4 0 .72-.32.72-.72s-.32-.72-.72-.72z"/><path d="m52.96 48.16h-2.14c-.4 0-.72.32-.72.72s.32.72.72.72h2.14c.4 0 .72-.32.72-.72s-.32-.72-.72-.72z"/><path d="m59.14 48.16h-2.14c-.4 0-.72.32-.72.72s.32.72.72.72h2.14c.4 0 .72-.32.72-.72s-.32-.72-.72-.72z"/><path d="m46.79 51.65h-2.14c-.4 0-.72.32-.72.72s.32.72.72.72h2.14c.4 0 .72-.32.72-.72s-.32-.72-.72-.72z"/><path d="m52.96 51.65h-2.14c-.4 0-.72.32-.72.72s.32.72.72.72h2.14c.4 0 .72-.32.72-.72s-.32-.72-.72-.72z"/><path d="m59.14 51.65h-2.14c-.4 0-.72.32-.72.72s.32.72.72.72h2.14c.4 0 .72-.32.72-.72s-.32-.72-.72-.72z"/><path d="m46.79 55.15h-2.14c-.4 0-.72.32-.72.72s.32.72.72.72h2.14c.4 0 .72-.32.72-.72s-.32-.72-.72-.72z"/><path d="m52.96 55.15h-2.14c-.4 0-.72.32-.72.72s.32.72.72.72h2.14c.4 0 .72-.32.72-.72.01-.4-.32-.72-.72-.72z"/><path d="m59.14 55.15h-2.14c-.4 0-.72.32-.72.72s.32.72.72.72h2.14c.4 0 .72-.32.72-.72s-.32-.72-.72-.72z"/><path d="m46.79 58.64h-2.14c-.4 0-.72.32-.72.72s.32.72.72.72h2.14c.4 0 .72-.32.72-.72s-.32-.72-.72-.72z"/><path d="m52.96 58.64h-2.14c-.4 0-.72.32-.72.72s.32.72.72.72h2.14c.4 0 .72-.32.72-.72s-.32-.72-.72-.72z"/><path d="m59.14 58.64h-2.14c-.4 0-.72.32-.72.72s.32.72.72.72h2.14c.4 0 .72-.32.72-.72s-.32-.72-.72-.72z"/><path d="m44.37 25.35-.95 5.77c-.05.33.07.67.32.89.18.15.4.23.63.23.1 0 .2-.02.3-.05l5.57-1.78c.58-.19 1.1-.53 1.5-.99l10.82-12.52c.76-.88 1.14-2.01 1.05-3.18s-.63-2.23-1.5-2.98c-1.82-1.57-4.59-1.37-6.16.45l-10.82 12.53c-.4.46-.66 1.03-.76 1.63zm.6 5.23.82-5c.01-.09.05-.17.08-.26l4.17 3.61c-.08.04-.16.09-.25.12zm9.97-16.01 4.43 3.82-8.25 9.54-4.43-3.82zm2.1-2.43c.58-.67 1.39-1.01 2.22-1.01.68 0 1.36.23 1.91.71.59.51.94 1.22 1.01 2 .06.78-.19 1.53-.71 2.12l-1.16 1.35-4.43-3.82z"/><path d="m22.92 43.74c-5.67 0-10.28 4.61-10.28 10.28s4.61 10.28 10.28 10.28 10.28-4.61 10.28-10.28-4.61-10.28-10.28-10.28zm0 19.12c-4.87 0-8.84-3.96-8.84-8.84s3.96-8.84 8.84-8.84 8.84 3.96 8.84 8.84-3.97 8.84-8.84 8.84z"/><path d="m22.87 50.6c.02 0 .03.01.05.01s.03-.01.05-.01c.72.03 1.31.62 1.31 1.35 0 .4.32.72.72.72s.72-.32.72-.72c0-1.29-.88-2.37-2.08-2.69v-.62c0-.4-.32-.72-.72-.72s-.72.32-.72.72v.62c-1.19.32-2.07 1.4-2.07 2.69 0 1.54 1.26 2.79 2.8 2.79.74 0 1.35.61 1.35 1.36 0 .73-.58 1.32-1.31 1.35-.02 0-.03-.01-.05-.01s-.03.01-.05.01c-.72-.03-1.31-.62-1.31-1.35 0-.4-.32-.72-.72-.72s-.72.32-.72.72c0 1.29.88 2.37 2.07 2.69v.62c0 .4.32.72.72.72s.72-.32.72-.72v-.62c1.19-.32 2.08-1.4 2.08-2.69 0-1.54-1.25-2.8-2.79-2.8-.75 0-1.36-.61-1.36-1.35.01-.73.59-1.33 1.31-1.35z"/></g></svg>