<svg id="Layer_1" viewBox="0 0 512 512" xmlns="http://www.w3.org/2000/svg" data-name="Layer 1"><path d="m56.186 242.794c-11.007 11.317-17.805 26.747-17.805 43.743 0 34.624 28.168 62.792 62.792 62.792s62.792-28.168 62.792-62.792c0-6.435-.977-12.646-2.783-18.496 62.757-11.418 109.033-66.196 109.033-130.933 0-73.396-59.712-133.108-133.108-133.108s-133.107 59.712-133.107 133.108c0 41.671 19.355 80.544 52.186 105.687zm44.987 92.535c-26.904 0-48.792-21.888-48.792-48.792s21.888-48.792 48.792-48.792 48.792 21.888 48.792 48.792-21.888 48.792-48.792 48.792zm28.377-104.778c.441-2.433.305-4.757.193-6.588-.067-1.096-.167-2.723-.008-3.326.392-.292 2.782-1.742 11.658-1.742 5.099 0 5.747 1.593 7.314 5.442 1.157 2.841 3.093 7.596 8.403 8.789 5.642 1.268 11.301-1.853 23.288-12.841 6.424-5.89 12.037-8.482 16.689-7.704 6.341 1.06 11.933 8.385 16.439 15.966-16.195 13.553-36.116 22.898-58.193 26.276-6.085-10.352-15.047-18.808-25.785-24.273zm79.266-188.482c-4.04 7.588-1.515 17.179.464 24.69 3.759 14.272 2.752 16.168-3.186 18.08-2.874.925-4.583 1.236-5.543 1.327-.044-.63-.045-1.587.095-2.985 1.187-11.837-3.247-17.056-7.175-19.35-5.605-3.273-13.292-2.173-20.555 2.943-8.273 5.827-15.672 16.773-13.554 28.093.315 1.683.771 3.638 1.299 5.901 1.311 5.621 5.301 22.727 1.63 26.042-.907.819-4.027 1.069-9.828-.924-12.188-4.19-21.5 10.807-27.664 20.729-.683 1.099-1.295 2.086-1.824 2.894-2.303 3.508-5.192 5.76-7.54 5.877-1.646.09-3.405-.996-5.198-3.209-12.033-14.852-20.238-15.305-29.576-11.22-2.584 1.129-3.712 1.622-5.61.785 3.72-2.154 12.629-5.991 33.319-10.54l.879-.194c17.876-4.03 17.732-16.987 17.655-23.948-.023-2.042-.057-5.128.546-5.855 11.73-14.146 9.262-22.235 5.728-29.308-1.468-2.939-1.502-3.159-.724-4.71 3.094-6.162 2.197-11.088.899-14.135-3.859-9.064-15.738-12.744-23.598-15.179l-.593-.184c-4.147-1.287-8.042-5.854-11.25-13.054 12.281-4.292 25.469-6.634 39.195-6.634 26.902 0 51.746 8.97 71.709 24.069zm-123.826-12.045c4.991 11.377 11.701 18.45 20.021 21.033l.602.187c4.052 1.255 13.542 4.195 14.86 7.291.264.619-.218 1.75-.529 2.369-3.964 7.893-1.038 13.75.71 17.249 1.811 3.625 2.904 5.812-3.98 14.114-3.883 4.682-3.82 10.374-3.769 14.948.075 6.774.095 8.595-6.735 10.135l-.807.179c-38.628 8.493-45.049 16.164-46.236 22.548-.5 2.693-.354 7.863 6.251 12.229 9.666 6.388 16.692 3.314 20.892 1.478 2.309-1.01 3.049-1.253 3.861-1.037.978.261 3.834 1.586 9.228 8.244 5.538 6.834 11.539 8.401 15.874 8.401.309 0 .61-.008.901-.022 6.933-.348 13.691-4.786 18.543-12.178.584-.89 1.261-1.978 2.013-3.188 5.539-8.917 9.464-13.865 11.676-14.722 10.174 3.399 18.013 2.7 23.305-2.079 9.797-8.846 5.479-27.361 2.622-39.612-.49-2.102-.914-3.917-1.172-5.297-.679-3.629 1.531-8.442 5.631-12.261 3.533-3.292 6.576-4.106 7.572-4.076.231.497.765 2.103.391 5.83-.273 2.72-1.104 10.998 4.646 15.644 5.349 4.323 12.618 2.798 19.022.737 19.954-6.423 15.247-24.294 12.435-34.972-1.299-4.933-2.059-8.396-2.156-10.882 21.933 21.615 35.553 51.643 35.553 84.796 0 31.419-12.182 60.214-32.286 81.622-6.118-9.654-13.835-18.169-24.532-19.957-9.121-1.523-18.695 2.241-28.458 11.192-4.841 4.438-7.861 6.801-9.69 8.058-2.044-4.856-6.358-13.128-19.854-13.128-11.124 0-17.883 1.912-21.916 6.199-4.27 4.538-3.932 10.065-3.708 13.722.013.207.026.435.039.669-4.699-1.127-9.596-1.74-14.635-1.74-12.441 0-24.038 3.652-33.804 9.918-7.512-5.431-14.281-11.646-20.228-18.492 11.333-2.606 18.764-8.06 20.234-15.312 1.141-5.63-.713-13.854-16.03-21.059l-.478-.225c-2.498-1.173-10.05-4.719-10.8-6.936.037-.142.173-.486.527-1 4.096-5.936 3.075-12.021 2.255-16.91-1.036-6.172-1.72-10.25 5.032-16.413 1.013-.925 2.061-1.861 3.123-2.811 11.882-10.626 28.155-25.18 18.486-44.957-.09-.184-.188-.363-.293-.539-3.363-5.582-8.261-8.926-13.791-9.417-6.15-.546-12.598 2.486-17.708 8.319-.592.676-1.284 1.506-2.054 2.43-1.852 2.224-4.157 4.991-6.484 7.225-2.162 2.075-3.854 2.967-5.431 3.04 9.999-30.986 32.366-56.463 61.262-70.584zm-64.789 84.272c6.414 1.189 12.821-1.032 18.651-6.626 2.892-2.774 5.475-5.875 7.549-8.367.686-.823 1.3-1.562 1.827-2.164 2.318-2.646 4.646-3.715 5.94-3.6 1.145.102 2.174 1.33 2.879 2.441 4.379 9.417-3.261 17.257-15.376 28.091-1.098.982-2.18 1.95-3.228 2.906-12.381 11.302-10.587 21.994-9.4 29.07.641 3.82.823 5.491.029 6.642-3.52 5.102-3.323 9.636-2.538 12.542 2.285 8.457 11.973 13.006 18.383 16.016l.47.221c6.042 2.842 7.729 5.036 8.145 5.745-1.037 1.353-6.028 4.348-15.969 5.332-12.592-19.143-19.561-41.787-19.561-65.437 0-7.801.762-15.426 2.201-22.812zm415.785 200.208c-3.866 0-7-3.134-7-7v-5.186c-7.853-1.573-15.002-5.545-18.493-11.923-1.856-3.391-.613-7.645 2.778-9.501 3.388-1.855 7.644-.614 9.501 2.778 2.762 5.043 15.565 7.182 22.459 3.752 1.716-.854 2.866-2.391 3.076-4.112.134-1.1.337-2.764-3.204-4.843-3.107-1.825-6.978-2.747-11.076-3.723-1.689-.402-3.438-.818-5.22-1.315-5.374-1.499-12.055-4.042-16.062-10.458-4.33-6.93-3.315-15.676 2.525-21.761 3.271-3.407 8.163-5.781 13.715-6.854v-5.06c0-3.866 3.134-7 7-7s7 3.134 7 7v5.1c7.992 1.561 14.242 5.635 17.329 11.367 1.834 3.403.562 7.649-2.843 9.482-3.4 1.834-7.647.562-9.481-2.843-1.15-2.135-4.67-3.892-8.967-4.478-5.441-.743-11.311.541-13.653 2.98-1.011 1.052-1.961 2.713-.751 4.648 1.151 1.845 3.528 3.157 7.948 4.39 1.524.425 3.068.793 4.703 1.182 4.92 1.172 10.007 2.384 14.923 5.27 7.39 4.341 10.944 10.95 10.01 18.61-.781 6.406-4.795 11.995-10.736 14.951-2.537 1.262-5.427 2.144-8.481 2.643v4.903c0 3.866-3.134 7-7 7zm50.434 13.782h-10.489c19.32-12.929 32.07-34.944 32.07-59.885 0-39.708-32.306-72.014-72.015-72.014s-72.013 32.305-72.013 72.014c0 24.942 12.75 46.956 32.07 59.885h-10.488c-11.9 0-21.581 9.682-21.581 21.582v12.266c0 5.624 2.18 10.736 5.717 14.581-3.537 3.845-5.717 8.957-5.717 14.581v12.266c0 5.624 2.18 10.736 5.717 14.581-3.537 3.845-5.717 8.957-5.717 14.581v12.266c0 5.624 2.18 10.736 5.717 14.581-3.537 3.845-5.717 8.957-5.717 14.581v12.266c0 11.9 9.681 21.582 21.581 21.582h100.865c11.899 0 21.581-9.682 21.581-21.582v-12.266c0-5.624-2.18-10.736-5.718-14.581 3.537-3.845 5.718-8.957 5.718-14.581v-12.266c0-5.624-2.18-10.736-5.718-14.581 3.537-3.845 5.718-8.957 5.718-14.581v-12.266c0-5.624-2.18-10.736-5.718-14.581 3.537-3.845 5.718-8.957 5.718-14.581v-12.266c0-11.9-9.682-21.582-21.581-21.582zm-108.447-59.885c0-31.989 26.025-58.014 58.013-58.014s58.015 26.025 58.015 58.014-26.025 58.014-58.015 58.014-58.013-26.025-58.013-58.014zm0 81.467c0-4.181 3.401-7.582 7.581-7.582h100.865c4.181 0 7.581 3.401 7.581 7.582v12.266c0 4.18-3.4 7.581-7.581 7.581s-100.865 0-100.865 0c-4.18 0-7.581-3.401-7.581-7.582v-12.266zm116.027 53.694c0 4.18-3.4 7.581-7.581 7.581s-100.865 0-100.865 0c-4.18 0-7.581-3.401-7.581-7.582v-12.266c0-4.18 3.401-7.581 7.581-7.581h100.865c4.181 0 7.581 3.401 7.581 7.581v12.266zm0 41.429c0 4.18-3.4 7.581-7.581 7.581s-100.865 0-100.865 0c-4.18 0-7.581-3.401-7.581-7.582v-12.266c0-4.18 3.401-7.581 7.581-7.581h100.865c4.181 0 7.581 3.401 7.581 7.581v12.266zm0 41.428c0 4.181-3.4 7.582-7.581 7.582h-100.865c-4.18 0-7.581-3.401-7.581-7.582v-12.266c0-4.18 3.401-7.581 7.581-7.581h100.865c4.181 0 7.581 3.401 7.581 7.581zm-102.68-283.447c2.933-2.89 4.006-7.131 2.804-11.066l-24.44-80.062c-1.078-3.53-3.716-6.19-7.238-7.296-3.523-1.106-7.208-.434-10.11 1.846l-65.342 51.304c-3.213 2.526-4.761 6.594-4.038 10.618.724 4.023 3.592 7.297 7.485 8.545l13.493 4.322c-16.925 43.251-67.534 135.08-204.477 193.363-3.29 1.4-4.996 5.054-3.957 8.476.909 2.993 3.665 4.966 6.693 4.966.432 0 .87-.041 1.309-.124 69.36-13.154 127.951-38.565 174.144-75.528 38.414-30.737 67.63-69.49 84.816-112.404l17.757 5.688c3.919 1.253 8.174.239 11.1-2.648zm-30.878-18.388c-3.567-1.141-7.401.725-8.701 4.238-28.617 77.38-95.502 136.79-187.636 168.607 31.81-19.044 60.012-41.258 84.265-66.41 32.682-33.895 57.332-72.597 71.285-111.924.634-1.785.517-3.75-.324-5.448s-2.333-2.981-4.137-3.559l-15.136-4.849 57.507-45.152 21.51 70.464-18.631-5.968zm-5.683 309.417h-12.2v-158.714c0-3.866-3.134-7-7-7h-43.49c-3.866 0-7 3.134-7 7v158.714h-21.413v-119.613c0-3.866-3.134-7-7-7h-43.49c-3.866 0-7 3.134-7 7v119.613h-21.413v-92.013c0-3.866-3.134-7-7-7h-43.49c-3.866 0-7 3.134-7 7v92.013h-21.414v-67.714c0-3.866-3.134-7-7-7h-43.489c-3.866 0-7 3.134-7 7v67.714h-12.2c-3.866 0-7 3.134-7 7s3.134 7 7 7h318.6c3.866 0 7-3.134 7-7s-3.134-7-7-7zm-55.69-151.714h29.49v151.714h-29.49zm-78.903 39.102h29.49v112.613h-29.49zm-78.903 27.6h29.49v85.013h-29.49zm-78.903 24.299h29.49v60.714h-29.49zm62.297-132.378c-.711 5.83-4.358 10.914-9.758 13.6-2.028 1.009-4.311 1.742-6.726 2.2v3.386c0 3.866-3.134 7-7 7s-7-3.134-7-7v-3.681c-6.701-1.515-12.737-5.023-15.749-10.524-1.857-3.391-.613-7.645 2.778-9.501 3.391-1.855 7.645-.611 9.501 2.779 2.125 3.881 12.531 5.507 17.959 2.808 1.692-.842 2.03-2.21 2.097-2.76.094-.769.21-1.726-2.266-3.18-2.538-1.491-5.64-2.229-9.232-3.085-1.459-.348-2.969-.707-4.517-1.139-4.784-1.334-10.738-3.609-14.357-9.404-3.961-6.34-3.041-14.333 2.292-19.888 3.11-3.24 7.242-5.114 11.493-6.03v-3.507c0-3.866 3.134-7 7-7s7 3.134 7 7v3.57c6.769 1.509 12.065 5.103 14.752 10.09 1.833 3.403.561 7.649-2.843 9.482s-7.649.56-9.482-2.843c-.689-1.28-3.107-2.806-6.955-3.33-4.993-.678-9.326.657-10.865 2.261-1.365 1.421-.728 2.44-.519 2.775.846 1.354 2.713 2.351 6.246 3.337 1.291.36 2.607.673 4 1.005 4.293 1.022 8.732 2.08 13.078 4.632 6.703 3.938 9.925 9.956 9.073 16.946z"/></svg>