<svg id="&#x421;&#x43B;&#x43E;&#x439;_1" enable-background="new 0 0 16 16" viewBox="0 0 16 16" xmlns="http://www.w3.org/2000/svg"><g fill="rgb(0,0,0)"><path d="m12.5.125h-9c-1.8608398 0-3.375 1.5141602-3.375 3.375v5c0 1.734375 1.3149414 3.1669922 3 3.3544922v3.6455078c0 .1518555.0913086.2885742.2314453.3466797.0463867.019043.0952149.0283203.1435547.0283203.0976563 0 .1933594-.0380859.2651367-.1098633l3.8901367-3.8901367h4.8447266c1.8608398 0 3.375-1.5141602 3.375-3.375v-5c0-1.8608398-1.5141602-3.375-3.375-3.375zm2.625 8.375c0 1.4472656-1.1777344 2.625-2.625 2.625h-5c-.0996094 0-.1948242.0395508-.2651367.1098633l-3.3598633 3.3598633v-3.0947266c0-.2070313-.1679688-.375-.375-.375-1.4472656 0-2.625-1.1777344-2.625-2.625v-5c0-1.4472656 1.1777344-2.625 2.625-2.625h9c1.4472656 0 2.625 1.1777344 2.625 2.625z"/><path d="m7.25 4.375c.2070313 0 .375-.1679688.375-.375s-.1679687-.375-.375-.375h-2.5c-.2070312 0-.375.1679688-.375.375v4c0 .2070313.1679688.375.375.375h2.5c.2070313 0 .375-.1679688.375-.375s-.1679687-.375-.375-.375h-2.125v-1.25h2.125c.2070313 0 .375-.1679688.375-.375s-.1679687-.375-.375-.375h-2.125v-1.25z"/><path d="m11.25 3.625c-.2070313 0-.375.1679688-.375.375v2.6923828l-1.8071289-2.8911133c-.0888672-.1420898-.2607422-.2084961-.4213867-.1616211-.1606446.0458985-.2714844.1928711-.2714844.3603516v4c0 .2070313.1679688.375.375.375s.375-.1679687.375-.375v-2.6923828l1.8071289 2.8911133c.0698242.1118164.190918.1762695.3178711.1762695.0341797 0 .0693359-.0048828.1035156-.0146484.1606446-.0458985.2714844-.1928711.2714844-.3603516v-4c0-.2070312-.1679687-.375-.375-.375z"/></g></svg>