<svg id="Layer_1" enable-background="new 0 0 66 66" height="512" viewBox="0 0 66 66" width="512" xmlns="http://www.w3.org/2000/svg"><g><g style="fill:none;stroke:#000;stroke-width:1.5;stroke-linecap:round;stroke-linejoin:round;stroke-miterlimit:10"><g><path d="m51.6 63.5c-5.2-2.2-9.4-5.2-11.4-9.6-.7-1.4-.9-3-.9-4.5v-14.2c8 3.7 16.3 3.7 24.7 0v13.6c0 1.9-.5 3.7-1.3 5.3-2.4 4.5-6 7.7-11.1 9.4z"/><path d="m57.5 51.4c0 3.3-2.6 5.9-5.9 5.9s-5.9-2.6-5.9-5.9"/><path d="m53.5 44.3c0-1.4 1.1-2.5 2.5-2.5s2.5 1.1 2.5 2.5"/><path d="m44.5 44.3c0-1.4 1.1-2.5 2.5-2.5s2.5 1.1 2.5 2.5"/></g><g><path d="m36.9 45.3c-4.3.1-8.1-.7-11.2-2.9-1.3-.9-2.3-2.1-3.1-3.5l-7.1-12.3c8.8-.8 15.9-4.9 21.4-12.4l6.8 11.7c.9 1.6 1.4 3.4 1.5 5.3 0 1.3 0 2.6-.2 3.9"/><path d="m39.8 33c-1.5-2.5-4.7-3.4-7.2-1.9s-3.4 4.7-1.9 7.2"/><path d="m32.4 27.7c-.7-1.3-.3-2.9 1-3.6s2.9-.3 3.6 1"/><path d="m24.6 32.2c-.7-1.3-.3-2.9 1-3.6s2.9-.3 3.6 1"/></g></g><g><g><g style="fill:none;stroke:#000;stroke-width:1.5;stroke-linecap:round;stroke-linejoin:round;stroke-miterlimit:10"><path d="m33.3 14.7h-25.2c-3.4 0-6.1-2.7-6.1-6.1 0-3.4 2.7-6.1 6.1-6.1h38.6c-3.4 0-6.1 2.7-6.1 6.1s2.7 6.1 6.1 6.1h-6.5"/><path d="m46.7 25.7v-11"/><path d="m2 8.6v50.8c0 2.2 1.8 4.1 4.1 4.1h34.6"/><path d="m8.2 14.7v8.4l4-4.1 4.1 4.1v-8.4"/></g></g><g style="fill:none;stroke:#000;stroke-width:1.5;stroke-linecap:round;stroke-linejoin:round;stroke-miterlimit:10"><path d="m6.2 29.4h6.3"/><path d="m6.2 33.6h9.1"/></g></g></g></svg>