<?xml version="1.0" encoding="UTF-8" standalone="no"?>
<!-- Created with Inkscape (http://www.inkscape.org/) -->
<svg xmlns="http://www.w3.org/2000/svg" xmlns:svg="http://www.w3.org/2000/svg" version="1.1" id="svg1155" width="682.66669" height="682.66669" viewBox="0 0 682.66669 682.66669">
  <defs id="defs1159">
    <clipPath clipPathUnits="userSpaceOnUse" id="clipPath1169">
      <path d="M 0,512 H 512 V 0 H 0 Z" id="path1167"/>
    </clipPath>
  </defs>
  <mask id="custom"><rect id="bg" x="0" y="0" width="100%" height="100%" fill="white"/><g transform="matrix(1.3333333,0,0,-1.3333333,0,682.66667)"><path transform="matrix(1,0,0,1,242.4941,321.9146)" d="m 0,0 c -0.042,-7.979 -6.543,-14.415 -14.523,-14.374 -7.98,0.042 -14.415,6.544 -14.374,14.524 0.042,7.98 6.544,14.415 14.523,14.373 C -6.394,14.482 0.042,7.979 0,0" style="fill:#ffffff;fill-opacity:1;fill-rule:nonzero;stroke:none" id="path1205"/><path transform="matrix(1,0,0,1,344.1255,321.3872)" d="m 0,0 c -0.042,-7.979 -6.544,-14.415 -14.523,-14.374 -7.98,0.042 -14.415,6.544 -14.374,14.524 0.042,7.98 6.544,14.415 14.523,14.373 C -6.394,14.482 0.042,7.98 0,0" style="fill:#ffffff;fill-opacity:1;fill-rule:nonzero;stroke:none" id="path1209"/><path transform="matrix(1,0,0,1,282.4487,270.1753)" d="m 0,0 c -4.603,2.927 -10.377,2.927 -14.98,0 -2.772,-1.762 -6.155,-3.218 -10.046,-4.335 v -4.393 c 0,-9.472 7.679,-17.151 17.151,-17.151 9.473,0 17.152,7.679 17.152,17.151 V -4.12 C 5.707,-3.032 2.59,-1.647 0,0" style="fill:#ffffff;fill-opacity:1;fill-rule:nonzero;stroke:none" id="path1225"/><path transform="matrix(1,0,0,1,68.6572,119.8237)" d="m 0,0 c -1.126,0.383 -2.333,0.592 -3.588,0.594 -2.994,0.005 -5.713,-1.168 -7.723,-3.08 -0.803,-0.765 -2.078,-0.749 -2.886,0.01 -2.029,1.906 -4.768,3.063 -7.779,3.03 -6.978,-0.077 -12.06,-6.449 -10.893,-13.329 0.406,-2.392 1.64,-4.127 4.332,-6.808 2.817,-2.805 11.675,-11.273 14.776,-14.235 0.608,-0.581 1.563,-0.578 2.168,0.005 3.197,3.083 12.525,12.083 14.789,14.357 2.745,2.757 4.372,5.246 4.377,8.854 C 7.581,-5.684 4.411,-1.502 0,0" style="fill:#ffffff;fill-opacity:1;fill-rule:nonzero;stroke:none" id="path1229"/></g></mask><g mask="url(#custom)"><g id="g1161" transform="matrix(1.3333333,0,0,-1.3333333,0,682.66667)">
    <g id="g1163">
      <g id="g1165" clip-path="url(#clipPath1169)">
        <g id="g1171" transform="translate(132.6611,291.5542)">
          <path d="m 0,0 c -11.358,-8.97 -21.849,-18.989 -31.326,-29.911 -1.04,-1.198 -1.342,-2.871 -0.8,-4.362 0.785,-2.159 1.22,-4.484 1.22,-6.915 0,-11.259 -9.128,-20.387 -20.387,-20.387 -0.159,0 -0.318,0.003 -0.476,0.008 -1.599,0.046 -3.107,-0.76 -3.921,-2.138 -7.23,-12.235 -13.355,-25.201 -18.244,-38.757 3.977,-3.72 6.477,-8.999 6.477,-14.875 0,-1.039 -0.078,-2.06 -0.228,-3.057" style="fill:none;stroke:#000000;stroke-width:15;stroke-linecap:round;stroke-linejoin:round;stroke-miterlimit:10;stroke-dasharray:none;stroke-opacity:1" id="path1173"/>
        </g>
        <g id="g1175" transform="translate(397.8906,88.7632)">
          <path d="m 0,0 c 25.735,-11.185 47.999,-25.777 65.437,-42.849 11.421,-11.182 30.676,-5.94 34.54,9.57 1.217,4.886 2.275,9.836 3.173,14.84 0.251,1.398 -0.257,2.803 -1.262,3.806 -3.691,3.688 -5.979,8.778 -5.979,14.408 0,7.021 3.552,13.208 8.955,16.874 1.197,0.812 1.89,2.195 1.903,3.642 0.015,1.685 0.012,3.374 -0.01,5.068 -0.163,12.885 -1.374,25.503 -3.551,37.776 -0.263,1.481 -1.266,2.754 -2.671,3.29 -7.671,2.925 -13.126,10.331 -13.126,19.029 0,4.835 1.686,9.275 4.499,12.769 0.944,1.173 1.168,2.779 0.646,4.192 -5.043,13.662 -11.344,26.699 -18.761,38.977 -0.836,-0.104 -1.683,-0.176 -2.547,-0.176 -11.26,0 -20.387,9.128 -20.387,20.387 0,2.36 0.412,4.621 1.156,6.726 0.513,1.452 0.174,3.079 -0.832,4.246 -8.27,9.589 -17.321,18.481 -27.056,26.58" style="fill:none;stroke:#000000;stroke-width:15;stroke-linecap:round;stroke-linejoin:round;stroke-miterlimit:10;stroke-dasharray:none;stroke-opacity:1" id="path1177"/>
        </g>
        <g id="g1179" transform="translate(208.6851,106.5327)">
          <path d="m 0,0 c 20.971,4.314 43.205,6.633 66.23,6.633 31.955,0 62.384,-4.466 90.03,-12.534" style="fill:none;stroke:#000000;stroke-width:15;stroke-linecap:round;stroke-linejoin:round;stroke-miterlimit:10;stroke-dasharray:none;stroke-opacity:1" id="path1181"/>
        </g>
        <g id="g1183" transform="translate(247.5146,484.894)">
          <path d="m 0,0 c -47.881,4.67 -83.623,-34.563 -108.4,-75.047 -3.773,-6.165 -10.419,-9.867 -17.639,-10.191 -0.038,-0.002 -0.077,-0.004 -0.115,-0.006 -23.873,-1.137 -42.177,-21.857 -40.12,-45.889 1.894,-22.137 21.025,-39.218 43.235,-38.628 1.831,0.049 3.631,0.213 5.393,0.485" style="fill:none;stroke:#000000;stroke-width:15;stroke-linecap:round;stroke-linejoin:round;stroke-miterlimit:10;stroke-dasharray:none;stroke-opacity:1" id="path1185"/>
        </g>
        <g id="g1187" transform="translate(426.8203,315.1201)">
          <path d="M 0,0 C 21.58,0.179 39.917,16.993 41.77,38.641 43.826,62.673 25.522,83.393 1.649,84.53 c -0.038,0.002 -0.076,0.004 -0.115,0.006 -7.22,0.324 -13.866,4.026 -17.638,10.191 -24.405,39.874 -59.444,78.534 -106.243,75.228" style="fill:none;stroke:#000000;stroke-width:15;stroke-linecap:round;stroke-linejoin:round;stroke-miterlimit:10;stroke-dasharray:none;stroke-opacity:1" id="path1189"/>
        </g>
        <g id="g1191" transform="translate(108.5435,95.3413)">
          <path d="m 0,0 v -57.328 c 0,-6.428 -7.167,-10.199 -12.503,-6.616 -8.428,5.659 -21.033,11.376 -37.568,11.376 -19.968,0 -34.204,-8.337 -42.273,-14.841 -3.138,-2.529 -7.798,-0.303 -7.798,3.727 V 50.036 c 0,2.305 0.895,4.517 2.509,6.163 5.887,6.006 22.045,19.62 47.562,19.62 C -17.333,75.819 0,53.409 0,53.409 V 35.193" style="fill:none;stroke:#000000;stroke-width:15;stroke-linecap:round;stroke-linejoin:round;stroke-miterlimit:10;stroke-dasharray:none;stroke-opacity:1" id="path1193"/>
        </g>
        <g id="g1195" transform="translate(108.5435,131.3809)">
          <path d="m 0,0 v 17.369 c 0,0 17.333,22.41 50.071,22.41 25.517,0 41.675,-13.613 47.562,-19.619 1.614,-1.647 2.509,-3.859 2.509,-6.164 V -99.721 c 0,-4.03 -4.66,-6.257 -7.798,-3.727 -8.069,6.504 -22.305,14.84 -42.273,14.84 -16.535,0 -29.14,-5.717 -37.568,-11.375 C 7.167,-103.567 0,-99.796 0,-93.368 v 18.57" style="fill:none;stroke:#000000;stroke-width:15;stroke-linecap:round;stroke-linejoin:round;stroke-miterlimit:10;stroke-dasharray:none;stroke-opacity:1" id="path1197"/>
        </g>
        <g id="g1199" transform="translate(173.1147,401.6426)">
          <path d="m 0,0 c -5.162,-20.444 -7.133,-42.176 -7.612,-62.299 -5.923,3.054 -12.096,3.863 -17.674,1.785 -14.111,-5.257 -22.935,-28.387 -14.927,-49.88 7.119,-19.106 31.719,-29.501 47.01,-27.882 20.597,-52.907 59.621,-103.065 94.118,-103.047 34.757,0.017 74.638,50.369 95.66,103.37 0.174,-0.073 0.338,-0.155 0.518,-0.224 14.056,-5.404 44.302,4.766 52.532,26.174 8.23,21.408 -0.353,44.628 -14.409,50.032 -7.522,2.891 -16.19,0.516 -23.887,-5.592 C 211.066,-1.56 195.57,85.479 102.439,85.431 55.905,85.407 28.612,63.96 12.833,34.277" style="fill:none;stroke:#000000;stroke-width:15;stroke-linecap:round;stroke-linejoin:round;stroke-miterlimit:10;stroke-dasharray:none;stroke-opacity:1" id="path1201"/>
        </g>
        <g id="g1203" transform="translate(242.4941,321.9146)">
          <path d="m 0,0 c -0.042,-7.979 -6.543,-14.415 -14.523,-14.374 -7.98,0.042 -14.415,6.544 -14.374,14.524 0.042,7.98 6.544,14.415 14.523,14.373 C -6.394,14.482 0.042,7.979 0,0" style="fill:#000000;fill-opacity:1;fill-rule:nonzero;stroke:none" id="path1205"/>
        </g>
        <g id="g1207" transform="translate(344.1255,321.3872)">
          <path d="m 0,0 c -0.042,-7.979 -6.544,-14.415 -14.523,-14.374 -7.98,0.042 -14.415,6.544 -14.374,14.524 0.042,7.98 6.544,14.415 14.523,14.373 C -6.394,14.482 0.042,7.98 0,0" style="fill:#000000;fill-opacity:1;fill-rule:nonzero;stroke:none" id="path1209"/>
        </g>
        <g id="g1211" transform="translate(256.772,353.4028)">
          <path d="M 0,0 C -6.24,5.533 -16.777,9.169 -28.726,9.169 -40.675,9.169 -51.212,5.533 -57.452,0" style="fill:none;stroke:#000000;stroke-width:15;stroke-linecap:round;stroke-linejoin:round;stroke-miterlimit:10;stroke-dasharray:none;stroke-opacity:1" id="path1213"/>
        </g>
        <g id="g1215" transform="translate(358.4033,353.4028)">
          <path d="M 0,0 C -6.24,5.533 -16.777,9.169 -28.726,9.169 -40.676,9.169 -51.213,5.533 -57.453,0" style="fill:none;stroke:#000000;stroke-width:15;stroke-linecap:round;stroke-linejoin:round;stroke-miterlimit:10;stroke-dasharray:none;stroke-opacity:1" id="path1217"/>
        </g>
        <g id="g1219" transform="translate(289.1948,217.7397)">
          <path d="m 0,0 c 0,-7.887 -6.393,-27.54 -14.28,-27.54 -7.886,0 -14.28,19.653 -14.28,27.54 0,7.887 6.394,8.16 14.28,8.16 C -6.393,8.16 0,7.887 0,0 Z" style="fill:none;stroke:#000000;stroke-width:15;stroke-linecap:round;stroke-linejoin:round;stroke-miterlimit:10;stroke-dasharray:none;stroke-opacity:1" id="path1221"/>
        </g>
        <g id="g1223" transform="translate(282.4487,270.1753)">
          <path d="m 0,0 c -4.603,2.927 -10.377,2.927 -14.98,0 -2.772,-1.762 -6.155,-3.218 -10.046,-4.335 v -4.393 c 0,-9.472 7.679,-17.151 17.151,-17.151 9.473,0 17.152,7.679 17.152,17.151 V -4.12 C 5.707,-3.032 2.59,-1.647 0,0" style="fill:#000000;fill-opacity:1;fill-rule:nonzero;stroke:none" id="path1225"/>
        </g>
        <g id="g1227" transform="translate(68.6572,119.8237)">
          <path d="m 0,0 c -1.126,0.383 -2.333,0.592 -3.588,0.594 -2.994,0.005 -5.713,-1.168 -7.723,-3.08 -0.803,-0.765 -2.078,-0.749 -2.886,0.01 -2.029,1.906 -4.768,3.063 -7.779,3.03 -6.978,-0.077 -12.06,-6.449 -10.893,-13.329 0.406,-2.392 1.64,-4.127 4.332,-6.808 2.817,-2.805 11.675,-11.273 14.776,-14.235 0.608,-0.581 1.563,-0.578 2.168,0.005 3.197,3.083 12.525,12.083 14.789,14.357 2.745,2.757 4.372,5.246 4.377,8.854 C 7.581,-5.684 4.411,-1.502 0,0" style="fill:#000000;fill-opacity:1;fill-rule:nonzero;stroke:none" id="path1229"/>
        </g>
        <g id="g1231" transform="translate(331.1909,274.9355)">
          <path d="m 0,0 -42.782,12.5 c -1.322,0.386 -2.659,0.533 -3.963,0.468 -6.346,-0.316 -12.715,-0.316 -19.061,0 -1.304,0.065 -2.641,-0.082 -3.963,-0.468 L -112.551,0 c -4.591,-1.341 -5.362,-7.478 -1.275,-9.962 6.61,-4.02 16.63,-6.584 27.852,-6.584 10.201,0 18.177,2.118 23.532,5.523 3.789,2.41 8.544,2.41 12.333,0 5.355,-3.405 13.331,-5.523 23.532,-5.523 11.222,0 21.242,2.564 27.852,6.584 C 5.361,-7.478 4.591,-1.341 0,0 Z" style="fill:none;stroke:#000000;stroke-width:15;stroke-linecap:round;stroke-linejoin:round;stroke-miterlimit:10;stroke-dasharray:none;stroke-opacity:1" id="path1233"/>
        </g>
      </g>
    </g>
  </g></g>
</svg>
