<?xml version="1.0" encoding="UTF-8" standalone="no"?>
<!-- Created with Inkscape (http://www.inkscape.org/) -->
<svg xmlns="http://www.w3.org/2000/svg" xmlns:svg="http://www.w3.org/2000/svg" version="1.1" id="svg363" width="682.66669" height="682.66669" viewBox="0 0 682.66669 682.66669">
  <defs id="defs367">
    <clipPath clipPathUnits="userSpaceOnUse" id="clipPath377">
      <path d="M 0,512 H 512 V 0 H 0 Z" id="path375"/>
    </clipPath>
  </defs>
  <mask id="custom"><rect id="bg" x="0" y="0" width="100%" height="100%" fill="white"/><g transform="matrix(1.3333333,0,0,-1.3333333,0,682.66667)"/></mask><g mask="url(#custom)"><g id="g369" transform="matrix(1.3333333,0,0,-1.3333333,0,682.66667)">
    <g id="g371">
      <g id="g373" clip-path="url(#clipPath377)">
        <g id="g379" transform="translate(369.9463,144.0269)">
          <path d="m 0,0 c 8.709,-15.078 21.507,-31.641 37.396,-47.53 18.287,-18.286 37.462,-32.477 54.243,-41.054 4.672,-2.388 10.355,-1.427 14.065,2.283 l 14.42,14.42 c 3.71,3.71 4.671,9.393 2.283,14.066 -8.577,16.78 -22.768,35.956 -41.053,54.241 C 65.747,12.033 49.492,24.657 34.632,33.353" style="fill:none;stroke:#000000;stroke-width:15;stroke-linecap:round;stroke-linejoin:round;stroke-miterlimit:10;stroke-dasharray:none;stroke-opacity:1" id="path381"/>
        </g>
        <g id="g383" transform="translate(319.1709,148.1592)">
          <path d="m 0,0 c 60.869,26.182 103.597,86.745 103.597,157.098 0,31.554 -8.595,61.138 -23.568,86.535 m -21.25,28.722 c -31.271,34.185 -76.223,55.656 -126.094,55.656 -94.243,0 -170.914,-76.672 -170.914,-170.913 0,-38.611 12.87,-74.272 34.544,-102.921 m -33.464,0.427 c -18.131,29.933 -28.577,65.017 -28.577,102.494 0,109.403 89.006,198.409 198.411,198.409 109.403,0 198.409,-89.006 198.409,-198.409 C 131.094,71.313 76.371,-1.931 0,-29.558" style="fill:none;stroke:#000000;stroke-width:15;stroke-linecap:round;stroke-linejoin:round;stroke-miterlimit:10;stroke-dasharray:none;stroke-opacity:1" id="path385"/>
        </g>
        <g id="g387" transform="translate(361.2246,308.6162)">
          <path d="m 0,0 c 4.285,-4.851 4.285,-12.13 0,-16.981 -16.456,-18.63 -59.812,-61.442 -110.706,-61.442 -50.895,0 -94.249,42.812 -110.705,61.442 -4.286,4.851 -4.286,12.13 0,16.981 16.456,18.629 59.81,61.441 110.705,61.441 C -59.812,61.441 -16.456,18.629 0,0 Z" style="fill:none;stroke:#000000;stroke-width:15;stroke-linecap:round;stroke-linejoin:round;stroke-miterlimit:10;stroke-dasharray:none;stroke-opacity:1" id="path389"/>
        </g>
        <g id="g391" transform="translate(288.3887,279.4136)">
          <path d="m 0,0 c 0,-20.915 -16.955,-37.87 -37.87,-37.87 -20.915,0 -37.87,16.955 -37.87,37.87 0,20.915 16.955,37.87 37.87,37.87 8.189,0 15.77,-2.599 21.966,-7.017" style="fill:none;stroke:#000000;stroke-width:15;stroke-linecap:round;stroke-linejoin:round;stroke-miterlimit:10;stroke-dasharray:none;stroke-opacity:1" id="path393"/>
        </g>
        <g id="g395" transform="translate(319.1602,393.4546)">
          <path d="M 0,0 C -12.742,18.576 -35.163,29.56 -59.056,26.57 -73.555,24.756 -86.261,18.088 -95.747,8.402 -106.831,-2.916 -121.944,-9.377 -137.782,-9.049" style="fill:none;stroke:#000000;stroke-width:15;stroke-linecap:round;stroke-linejoin:round;stroke-miterlimit:10;stroke-dasharray:none;stroke-opacity:1" id="path397"/>
        </g>
        <g id="g399" transform="translate(315.8955,178.3799)">
          <path d="m 0,0 c -7.682,7.837 -28.765,25.602 -62.062,25.602 -42.718,0 -65.334,-29.243 -65.334,-29.243 h -25.841 c 0,0 -22.617,29.243 -65.336,29.243 -33.296,0 -54.38,-17.765 -62.061,-25.602 -2.106,-2.148 -3.275,-5.034 -3.275,-8.042 v -148.385 c 0,-5.259 6.081,-8.163 10.176,-4.863 10.528,8.486 29.105,19.364 55.16,19.364 42.719,0 65.336,-29.241 65.336,-29.241 h 25.841 c 0,0 22.616,29.241 65.334,29.241 26.056,0 44.632,-10.878 55.162,-19.364 4.093,-3.3 10.174,-0.396 10.174,4.863 V -8.042 C 3.274,-5.034 2.105,-2.148 0,0 Z" style="fill:none;stroke:#000000;stroke-width:15;stroke-linecap:round;stroke-linejoin:round;stroke-miterlimit:10;stroke-dasharray:none;stroke-opacity:1" id="path401"/>
        </g>
        <g id="g403" transform="translate(319.1699,21.9531)">
          <path d="m 0,0 c 0,-5.259 -6.081,-8.164 -10.175,-4.863 -10.529,8.486 -29.105,19.364 -55.161,19.364 -42.719,0 -65.335,-29.242 -65.335,-29.242 v 167.527 c 0,0 22.616,29.242 65.335,29.242 33.297,0 54.38,-17.764 62.062,-25.601 C -1.169,154.279 0,151.393 0,148.385 Z" style="fill:none;stroke:#000000;stroke-width:15;stroke-linecap:round;stroke-linejoin:round;stroke-miterlimit:10;stroke-dasharray:none;stroke-opacity:1" id="path405"/>
        </g>
        <g id="g407" transform="translate(162.6582,114.958)">
          <path d="M 0,0 V 59.781 H 25.841 V -107.746 H 0 v 72.765" style="fill:none;stroke:#000000;stroke-width:15;stroke-linecap:round;stroke-linejoin:round;stroke-miterlimit:10;stroke-dasharray:none;stroke-opacity:1" id="path409"/>
        </g>
      </g>
    </g>
  </g></g>
</svg>
