<svg id="Layer_1" viewBox="0 0 64 64" xmlns="http://www.w3.org/2000/svg"><path d="m63 56h-2v-23c0-.417-.259-.79-.649-.937l-7.351-2.757v-5.307h1c.552 0 1-.448 1-1v-4h2c.552 0 1-.448 1-1v-4c0-.43-.275-.812-.683-.948l-18.001-6c-.502-.167-1.048.086-1.245.577l-2 5c-.148.371-.061.795.221 1.078l4.708 4.708v4.586c0 .552.448 1 1 1h1v8.153l-5.422.904-3.578 2.863v-7.919h1c.552 0 1-.448 1-1v-5c0-.552-.448-1-1-1h-12c-.552 0-1 .448-1 1v5c0 .552.448 1 1 1h1v6.45l-5.625.511-1.375-1.376v-13.586h1.001c.304 0 .591-.138.78-.375l4-5c.244-.305.288-.723.114-1.073l-2-4c-.227-.452-.757-.668-1.231-.494l-14 5c-.398.142-.663.519-.663.941v4c0 .552.448 1 1 1h2v10h-4.001c-.552 0-1 .448-1 1v25h-2c-.552.001-1 .449-1 1.001v6c0 .552.448 1 1 1h62c.552 0 1-.448 1-1v-6c0-.552-.448-1-1-1zm-4-22.307v8.307h-3c-.304 0-.591.138-.781.375l-2.219 2.774v-13.706zm-6-11.693h-10v-3h10zm-13.422-12.753 16.422 5.474v2.279h-13.586l-4.241-4.241zm11.422 14.753v23h-2v-13c0-.553-.448-1-1-1s-1 .447-1 1v13h-1.219l-.781-3.123v-19.877zm-12.579 10.943 4.579-.763v8.702l-7.294-.81-1.502-3.755zm-14.421-11.943h10v3h-10zm2 5h6v8l-2-1.5v-3.5c0-.553-.448-1-1-1s-1 .447-1 1v3.087l-2 .182zm-19-12.295 12.502-4.465 1.317 2.635-3.3 4.125h-10.519zm3 4.295h5v11.586l-1.293-1.293c-.188-.188-.442-.293-.707-.293h-3zm2.586 12 4.707 4.707c.21.21.504.32.798.289l10.616-.966 3.469 2.602 1.896 4.739c.137.343.452.582.818.623l8.309.923.831 3.325c.111.445.511.758.97.758h7c.304 0 .591-.138.781-.375l3.7-4.625h2.52v12h-46.001v-3c0-.553-.448-1-1-1h-7v-11h4c.552 0 1-.447 1-1s-.448-1-1-1h-4v-7zm-7.586 22h6v2h-6zm57 8h-60v-4h60z"/><path d="m12 50h7c.552 0 1-.447 1-1v-4c0-.553-.448-1-1-1h-7c-.552 0-1 .447-1 1v4c0 .553.448 1 1 1zm1-4h5v2h-5z"/><path d="m24 48v4c0 .553.448 1 1 1h7c.552 0 1-.447 1-1v-4c0-.553-.448-1-1-1h-7c-.552 0-1 .447-1 1zm2 1h5v2h-5z"/><path d="m24 43h4c.552 0 1-.447 1-1s-.448-1-1-1h-4c-.552 0-1 .447-1 1s.448 1 1 1z"/><path d="m38 53h4c.552 0 1-.447 1-1s-.448-1-1-1h-4c-.552 0-1 .447-1 1s.448 1 1 1z"/><circle cx="48" cy="30" r="1"/></svg>