<svg id="&#x421;&#x43B;&#x43E;&#x439;_1" enable-background="new 0 0 160 160" viewBox="0 0 160 160" xmlns="http://www.w3.org/2000/svg"><g fill="rgb(0,0,0)"><path d="m141.414 78.586-6.5-6.5c-.78-.781-2.048-.781-2.828 0-.781.781-.781 2.047 0 2.828l3.086 3.086h-53.172v-53.172l3.086 3.086c.39.391.902.586 1.414.586s1.024-.195 1.414-.586c.781-.781.781-2.047 0-2.828l-6.5-6.5c-.78-.781-2.048-.781-2.828 0l-6.5 6.5c-.781.781-.781 2.047 0 2.828.78.781 2.048.781 2.828 0l3.086-3.086v53.172h-53.172l3.086-3.086c.781-.781.781-2.047 0-2.828-.78-.781-2.048-.781-2.828 0l-6.5 6.5c-.781.781-.781 2.047 0 2.828l6.5 6.5c.39.391.902.586 1.414.586s1.024-.195 1.414-.586c.781-.781.781-2.047 0-2.828l-3.086-3.086h53.172v53.172l-3.086-3.086c-.78-.781-2.048-.781-2.828 0-.781.781-.781 2.047 0 2.828l6.5 6.5c.39.391.902.586 1.414.586s1.024-.195 1.414-.586l6.5-6.5c.781-.781.781-2.047 0-2.828-.78-.781-2.048-.781-2.828 0l-3.086 3.086v-53.172h53.172l-3.086 3.086c-.781.781-.781 2.047 0 2.828.39.391.902.586 1.414.586s1.024-.195 1.414-.586l6.5-6.5c.781-.781.781-2.047 0-2.828z"/><path d="m26 68h36c3.309 0 6-2.691 6-6v-36c0-3.309-2.691-6-6-6h-36c-3.309 0-6 2.691-6 6v36c0 3.309 2.691 6 6 6zm-2-42c0-1.103.897-2 2-2h36c1.103 0 2 .897 2 2v36c0 1.103-.897 2-2 2h-36c-1.103 0-2-.897-2-2z"/><path d="m98 68h36c3.309 0 6-2.691 6-6v-36c0-3.309-2.691-6-6-6h-36c-3.309 0-6 2.691-6 6v36c0 3.309 2.691 6 6 6zm-2-42c0-1.103.897-2 2-2h36c1.103 0 2 .897 2 2v36c0 1.103-.897 2-2 2h-36c-1.103 0-2-.897-2-2z"/><path d="m62 92h-36c-3.309 0-6 2.691-6 6v36c0 3.309 2.691 6 6 6h36c3.309 0 6-2.691 6-6v-36c0-3.309-2.691-6-6-6zm2 42c0 1.103-.897 2-2 2h-36c-1.103 0-2-.897-2-2v-36c0-1.103.897-2 2-2h36c1.103 0 2 .897 2 2z"/><path d="m134 92h-36c-3.309 0-6 2.691-6 6v36c0 3.309 2.691 6 6 6h36c3.309 0 6-2.691 6-6v-36c0-3.309-2.691-6-6-6zm2 42c0 1.103-.897 2-2 2h-36c-1.103 0-2-.897-2-2v-36c0-1.103.897-2 2-2h36c1.103 0 2 .897 2 2z"/></g></svg>