<svg height="512" viewBox="0 0 512 511.31" width="512" xmlns="http://www.w3.org/2000/svg"><g id="Layer_2" data-name="Layer 2"><g id="_33_-_Video_Editing" data-name="33 - Video Editing"><path d="m315.16 365.1-97.88-56.58a10 10 0 0 0 -15 8.66v113.15a10 10 0 0 0 15 8.66l97.88-56.58a10 10 0 0 0 0-17.31zm-92.88 47.9v-78.49l67.89 39.25z"/><path d="m482 157.81h-347.4l342.13-60.4a30 30 0 0 0 24.33-34.74l-6.65-37.82c-2.47-15.94-18.94-27.47-34.76-24.33l-434.86 76.76a30 30 0 0 0 -24.33 34.72l10 56.65v312.66a30 30 0 0 0 30 30h441.54a30 30 0 0 0 30-30v-293.5a30 30 0 0 0 -30-30zm10 30v48.39h-77.49l21.23-58.39h46.26a10 10 0 0 1 10 10zm-461.56 48.39v-58.39h101.07l-21.23 58.39zm122.35-58.39h73l-21.2 58.39h-73zm94.31 0h73l-21.19 58.39h-73zm94.32 0h73l-21.19 58.39h-73zm-30.62-71.42-68 12-22-55.39 68.05-12zm-1.84-59 69.75-12.32 22 55.42-69.76 12.31zm-86.31 74.61-68 12-22-55.42 68-12zm240.47-101.79a10.55 10.55 0 0 1 1.76-.15 10 10 0 0 1 9.83 8.26l6.66 37.81a10 10 0 0 1 -8.11 11.59l-52.48 9.28-22-55.42zm-434.86 76.79 84.29-14.9 22 55.42-106 18.7-8.4-47.66a10 10 0 0 1 8.11-11.56zm453.74 394.31h-441.56a10 10 0 0 1 -10-10v-225.11h461.56v225.11a10 10 0 0 1 -10 10z"/><path d="m74.67 199.93a10 10 0 1 0 -1.52 15.39 10.09 10.09 0 0 0 1.52-15.39z"/><path d="m50.85 124.83a10.58 10.58 0 0 0 .91 1.73 10.07 10.07 0 0 0 15.39 1.52c6.91-7 .64-18.74-9-16.88a10.05 10.05 0 0 0 -7.3 13.63z"/></g></g></svg>