<?xml version="1.0"?>
<svg xmlns="http://www.w3.org/2000/svg" id="Line_Expand" data-name="Line Expand" viewBox="0 0 64 64"><path d="M11,24.75A10.75,10.75,0,1,0,.25,14,10.762,10.762,0,0,0,11,24.75Zm0-20A9.25,9.25,0,1,1,1.75,14,9.26,9.26,0,0,1,11,4.75Z"/><path d="M53,24.75A10.75,10.75,0,1,0,42.25,14,10.762,10.762,0,0,0,53,24.75Zm0-20A9.25,9.25,0,1,1,43.75,14,9.26,9.26,0,0,1,53,4.75Z"/><path d="M63,27.25H43a.75.75,0,0,0-.75.75v2A2.752,2.752,0,0,0,45,32.75h4.25v5.5H37.124a5.876,5.876,0,0,0-10.248,0H14.75v-5.5H19A2.752,2.752,0,0,0,21.75,30V28a.75.75,0,0,0-.75-.75H1A.75.75,0,0,0,.25,28v2A2.752,2.752,0,0,0,3,32.75H7.25v5.5H2.5a2.25,2.25,0,0,0,0,4.5H25.54l-3.125,12.5H22A2.752,2.752,0,0,0,19.25,58v2a.75.75,0,0,0,.75.75H44a.75.75,0,0,0,.75-.75V58A2.752,2.752,0,0,0,42,55.25h-.415L38.46,42.75H61.5a2.25,2.25,0,0,0,0-4.5H56.75v-5.5H61A2.752,2.752,0,0,0,63.75,30V28A.75.75,0,0,0,63,27.25Zm-60,4A1.252,1.252,0,0,1,1.75,30V28.75h18.5V30A1.252,1.252,0,0,1,19,31.25Zm10.25,1.5v5.5H8.75v-5.5ZM2.5,41.25a.75.75,0,0,1,0-1.5H26.29l-.375,1.5ZM42,56.75A1.252,1.252,0,0,1,43.25,58v1.25H20.75V58A1.252,1.252,0,0,1,22,56.75Zm-1.96-1.5H23.96l3.8-15.187a4.372,4.372,0,0,1,8.484,0ZM61.5,39.75a.75.75,0,0,1,0,1.5H38.085l-.375-1.5Zm-10.75-1.5v-5.5h4.5v5.5ZM62.25,30A1.252,1.252,0,0,1,61,31.25H45A1.252,1.252,0,0,1,43.75,30V28.75h18.5Z"/><path d="M32,38.25a2.25,2.25,0,1,0,2.25,2.25A2.253,2.253,0,0,0,32,38.25Zm0,3a.75.75,0,1,1,.75-.75A.752.752,0,0,1,32,41.25Z"/><path d="M47.52,19.48a2.253,2.253,0,0,0,3.182,0l2.3-2.3,2.3,2.3A2.25,2.25,0,0,0,58.48,16.3l-2.3-2.3,2.3-2.3A2.25,2.25,0,0,0,55.3,8.52l-2.3,2.3-2.3-2.3A2.25,2.25,0,0,0,47.52,11.7l2.3,2.3-2.3,2.3A2.253,2.253,0,0,0,47.52,19.48Zm1.061-2.121,2.828-2.829a.749.749,0,0,0,0-1.06l-2.828-2.829a.75.75,0,0,1,1.06-1.06l2.829,2.828a.749.749,0,0,0,1.06,0l2.829-2.828a.75.75,0,0,1,1.06,1.06L54.591,13.47a.749.749,0,0,0,0,1.06l2.828,2.829a.75.75,0,0,1-1.06,1.06L53.53,15.591a.749.749,0,0,0-1.06,0l-2.829,2.828a.75.75,0,0,1-1.06-1.06Z"/><path d="M10.418,18.774l6.364-6.364A2.25,2.25,0,0,0,13.6,9.228L8.827,14,7.59,12.763a2.25,2.25,0,0,0-3.182,3.182l2.828,2.829A2.253,2.253,0,0,0,10.418,18.774Zm-4.95-4.95a.752.752,0,0,1,1.061,0L8.3,15.592a.749.749,0,0,0,1.06,0l5.3-5.3a.75.75,0,0,1,1.06,1.06L9.357,17.713a.751.751,0,0,1-1.06,0L5.468,14.885A.752.752,0,0,1,5.468,13.824Z"/></svg>
