<svg id="Layer_1" viewBox="0 0 64 64" xmlns="http://www.w3.org/2000/svg" data-name="Layer 1"><path d="m24.236 14.396c-.553 0-1 .448-1 1v3.689l-2.653-4.221c-.237-.377-.694-.553-1.124-.429-.428.124-.723.515-.723.961v7.159c0 .552.447 1 1 1s1-.448 1-1v-3.689l2.653 4.221c.187.296.509.468.847.468.092 0 .186-.013.277-.039.428-.124.723-.515.723-.961v-7.159c0-.552-.447-1-1-1z"/><path d="m30.497 16.396c.553 0 1-.448 1-1s-.447-1-1-1h-3.539c-.553 0-1 .448-1 1v7.159c0 .552.447 1 1 1h3.539c.553 0 1-.448 1-1s-.447-1-1-1h-2.539v-1.58h2.539c.553 0 1-.448 1-1s-.447-1-1-1h-2.539v-1.579z"/><path d="m39.577 14.409c-.543-.101-1.066.258-1.166.801l-.602 3.248-.678-2.128c-.133-.415-.518-.697-.953-.697-.436 0-.82.283-.952.698l-.674 2.125-.608-3.255c-.103-.542-.625-.901-1.167-.799-.543.102-.901.624-.8 1.167l1.342 7.171c.085.451.465.786.923.814.476.036.876-.259 1.014-.696l.926-2.923.933 2.928c.133.417.52.697.953.697.021 0 .041 0 .062-.002.458-.029.837-.365.921-.816l1.328-7.167c.101-.543-.258-1.065-.801-1.166z"/><path d="m43.946 17.97c-.497 0-.902-.379-.902-.844s.405-.844.902-.844c.267 0 .518.11.688.301.368.412.999.447 1.412.078.411-.368.446-1 .078-1.412-.55-.615-1.344-.967-2.179-.967-1.601 0-2.902 1.276-2.902 2.844s1.302 2.844 2.9 2.844c.497 0 .902.381.902.847s-.405.847-.901.847c-.497 0-.901-.381-.901-.847 0-.552-.447-1-1-1s-1 .448-1 1c0 1.566 1.3 2.843 2.899 2.847 1.601 0 2.903-1.277 2.903-2.847s-1.3-2.843-2.9-2.847z"/><path d="m14.638 10.842v16.26c0 .552.447 1 1 1h34.308c.553 0 1-.448 1-1v-16.26c0-.552-.447-1-1-1h-34.308c-.553 0-1 .448-1 1zm2 1h32.308v14.26h-32.308z"/><path d="m15.421 56.831h33.156c.553 0 1-.448 1-1s-.447-1-1-1h-33.156c-.553 0-1 .448-1 1s.447 1 1 1z"/><path d="m54.58 2.68h-37.1c-5 0-9.06 4.06-9.06 9.06v44.09c0 3.03 2.46 5.49 5.49 5.49h40.67c.55 0 1-.45 1-1v-56.64c0-.55-.45-1-1-1zm-1 56.64h-39.67c-1.92 0-3.49-1.56-3.49-3.49 0-1.92 1.57-3.49 3.49-3.49h39.67zm0-8.98h-39.67c-1.32 0-2.54.47-3.49 1.26v-39.86c0-3.89 3.17-7.06 7.06-7.06h36.1z"/><path d="m15.638 30.54c-.553 0-1 .448-1 1s.447 1 1 1h34.692c.553 0 1-.448 1-1s-.447-1-1-1z"/><path d="m50.138 35.388h-34.693c-.553 0-1 .448-1 1s.447 1 1 1h34.692c.553 0 1-.448 1-1s-.447-1-1-1z"/><path d="m49.02 40.85h-20.29c-.56 0-1 .45-1 1v5.92c0 .55.44 1 1 1h20.29c.56 0 1-.45 1-1v-5.92c0-.55-.44-1-1-1z"/></svg>