<?xml version="1.0" encoding="UTF-8"?>
<svg xmlns="http://www.w3.org/2000/svg" id="Layer_1" data-name="Layer 1" viewBox="0 0 24 24">
  <path d="M15,11H0V2.5C0,1.121,1.122,0,2.5,0H15V11ZM1,10H14V1H2.5c-.827,0-1.5,.673-1.5,1.5v7.5Zm23,1h-7V0h4.5c1.378,0,2.5,1.121,2.5,2.5V11Zm-6-1h5V2.5c0-.827-.673-1.5-1.5-1.5h-3.5V10ZM7,24H2.5c-1.378,0-2.5-1.121-2.5-2.5V13H7v11ZM1,14v7.5c0,.827,.673,1.5,1.5,1.5h3.5V14H1Zm20.5,10H9V13h15v8.5c0,1.379-1.122,2.5-2.5,2.5Zm-11.5-1h11.5c.827,0,1.5-.673,1.5-1.5v-7.5H10v9Z"/>
</svg>
