<svg id="Layer_1" height="512" viewBox="0 0 512 512" width="512" xmlns="http://www.w3.org/2000/svg" data-name="Layer 1"><path d="m505.176 406.477c-8.472-21.85-24.959-37.887-44.567-44.506 8.521-6.257 14.065-16.34 14.065-27.698 0-12.576-6.798-23.589-16.908-29.574 3.162-17.222 3.78-34.684 1.843-52.061l3.624 1.114c2.225.684 4.459 1.024 6.67 1.024 3.694 0 7.322-.95 10.724-2.832 5.392-2.984 9.232-7.874 10.812-13.77s.7-12.052-2.478-17.332c-3.205-5.326-8.102-8.875-14.161-10.263l-27.617-6.33c-8.947-21.653-21.939-41.102-38.669-57.832-4.437-4.437-9.055-8.587-13.825-12.458h67.379c3.745 0 7.106-1.772 9.221-4.862 2.115-3.088 2.552-6.862 1.199-10.354-7.541-19.449-22.105-33.803-39.475-39.978 7.355-5.747 12.098-14.691 12.098-24.727 0-17.301-14.075-31.376-31.375-31.376s-31.375 14.075-31.375 31.376c0 10.015 4.722 18.942 12.05 24.69-15.023 5.295-27.872 16.702-36.019 32.459-47.908-22.488-103.833-22.488-151.74 0-8.147-15.758-20.996-27.164-36.019-32.46 7.328-5.749 12.051-14.676 12.051-24.69 0-17.301-14.075-31.376-31.375-31.376s-31.376 14.075-31.376 31.376c0 10.036 4.742 18.98 12.098 24.728-17.37 6.175-31.934 20.529-39.475 39.978-1.354 3.491-.917 7.265 1.199 10.354 2.115 3.09 5.476 4.862 9.221 4.862h67.379c-4.77 3.87-9.387 8.02-13.825 12.458-21.419 21.419-36.642 47.431-44.932 75.509-7.447-8.667-16.677-15.065-26.795-18.667 7.358-5.747 12.102-14.693 12.102-24.731 0-17.3-14.075-31.375-31.375-31.375s-31.376 14.075-31.376 31.375c0 10.036 4.742 18.98 12.098 24.728-17.37 6.175-31.933 20.529-39.475 39.977-1.354 3.492-.917 7.266 1.199 10.354 2.115 3.091 5.476 4.863 9.221 4.863h87.661c-1.188 15.261-.401 30.791 2.436 46.24-10.118 5.983-16.923 17.001-16.923 29.583 0 11.357 5.545 21.441 14.065 27.697-19.608 6.619-36.094 22.656-44.567 44.506-1.438 3.708-.974 7.718 1.273 10.999 2.247 3.283 5.817 5.166 9.795 5.166h107.563c2.102 0 4.082-.539 5.821-1.519 11.437 7.569 23.691 13.767 36.555 18.5-8.179 9.081-14.865 20.05-19.495 32.512-1.476 3.973-.935 8.248 1.484 11.727 2.419 3.481 6.239 5.478 10.479 5.478h138.355c4.239 0 8.058-1.997 10.478-5.478 2.418-3.479 2.96-7.754 1.484-11.727-4.63-12.461-11.316-23.43-19.495-32.511 12.865-4.733 25.119-10.931 36.555-18.5 1.739.98 3.719 1.518 5.821 1.518h107.563c3.978 0 7.548-1.882 9.796-5.165 2.247-3.282 2.71-7.291 1.273-10.999zm-40.502-72.204c0 13.426-10.923 24.349-24.349 24.349s-24.349-10.923-24.349-24.349 10.923-24.349 24.349-24.349 24.349 10.923 24.349 24.349zm15.72-108.274c1.765 2.933 2.257 6.337 1.387 9.587-.871 3.25-3 5.952-5.994 7.608-3.092 1.712-6.237 2.039-9.615.999l-140.744-43.273c.982-4.554 2.189-9.055 3.615-13.49l143.524 32.896c3.445.79 6.005 2.645 7.828 5.672zm-190.657-86.376s.001-.007.001-.007c0 .002 0 .004-.001.007zm49.178 6.793-1.277 4.766-47.582-12.75 1.277-4.766c.338-1.262 1.157-2.323 2.305-2.985 1.149-.663 2.476-.84 3.738-.503l38.05 10.196c2.628.704 4.193 3.415 3.489 6.042zm-46.443 3.017 37.572 10.067c-10.868 20.397-16.928 43.012-17.714 66.11l-37.572-10.067c10.868-20.397 16.928-43.012 17.714-66.11zm-26.585 79.193 1.277-4.765 47.583 12.75-1.277 4.766c-.704 2.627-3.414 4.192-6.043 3.489l-38.05-10.195c-2.628-.704-4.194-3.416-3.49-6.044zm147.849-195.964c11.787 0 21.375 9.589 21.375 21.376s-9.589 21.375-21.375 21.375-21.375-9.589-21.375-21.375 9.589-21.376 21.375-21.376zm0 52.752c21.325 0 40.727 14.501 49.429 36.944.164.422.129.718-.126 1.091s-.518.511-.97.511h-80.98c-4.487-2.981-9.083-5.731-13.767-8.262 9.76-18.793 27.189-30.284 46.414-30.284zm-262.428-52.752c11.787 0 21.375 9.589 21.375 21.376s-9.589 21.375-21.375 21.375-21.376-9.589-21.376-21.375 9.589-21.376 21.376-21.376zm-48.333 91.298c-.452 0-.715-.138-.97-.511-.255-.374-.29-.669-.126-1.09 8.703-22.443 28.104-36.945 49.429-36.945 19.225 0 36.654 11.491 46.414 30.284-4.684 2.531-9.279 5.281-13.766 8.262zm-37.446 33.193c11.787 0 21.375 9.589 21.375 21.375s-9.589 21.376-21.375 21.376-21.376-9.589-21.376-21.376 9.589-21.375 21.376-21.375zm-48.332 91.297c-.452 0-.714-.138-.97-.513-.255-.373-.29-.667-.126-1.088 8.703-22.443 28.104-36.945 49.429-36.945 16.785 0 32.688 9.074 42.911 24.373-1.024 4.684-1.872 9.409-2.515 14.173zm146.405-94.962c31.765-31.765 73.999-49.259 118.921-49.259s87.156 17.494 118.921 49.259c14.074 14.074 25.345 30.183 33.609 47.98l-102.587-23.513c2.306-5.734 4.991-11.326 8.046-16.741.823-.195 1.625-.499 2.379-.934 2.031-1.172 3.482-3.062 4.087-5.32l1.596-5.957c2.131-7.954-2.606-16.159-10.561-18.29l-38.05-10.196c-3.842-1.029-7.865-.495-11.326 1.502-3.461 1.999-5.935 5.215-6.964 9.058l-1.596 5.956c-.605 2.258-.293 4.62.879 6.651.437.757.975 1.433 1.593 2.016-.24 23.881-6.52 47.314-18.253 68.116-3.043.717-5.608 3.039-6.472 6.264l-1.596 5.956c-2.13 7.955 2.607 16.159 10.561 18.291l38.05 10.195c1.29.346 2.585.51 3.861.51 6.593 0 12.643-4.406 14.429-11.07l1.596-5.957c.864-3.225-.197-6.518-2.473-8.661.062-6.213.533-12.394 1.402-18.509l125.473 38.578c2.357 17.15 2.071 34.416-.845 51.45-2.556-.609-5.218-.94-7.957-.94-18.94 0-34.349 15.409-34.349 34.349 0 11.358 5.545 21.441 14.065 27.698-19.608 6.619-36.094 22.656-44.567 44.506-.826 2.131-1.004 4.359-.596 6.494-12.023 7.918-24.995 14.235-38.655 18.825-9.167-7.979-19.699-13.885-31.028-17.283 11.632-7.484 19.359-20.534 19.359-35.364 0-23.176-18.855-42.031-42.032-42.031s-42.032 18.855-42.032 42.031c0 14.83 7.727 27.88 19.359 35.364-11.329 3.397-21.861 9.303-31.028 17.283-13.658-4.59-26.631-10.906-38.655-18.825.407-2.135.23-4.362-.596-6.493-8.472-21.85-24.958-37.887-44.567-44.506 8.521-6.257 14.065-16.34 14.065-27.698 0-18.94-15.409-34.349-34.349-34.349-2.741 0-5.405.332-7.963.942-9.224-53.874 8.064-108.598 46.845-147.378zm118.921 257.691c-17.663 0-32.032-14.369-32.032-32.031s14.369-32.031 32.032-32.031 32.032 14.369 32.032 32.031-14.369 32.031-32.032 32.031zm-182.152-76.907c0-13.426 10.923-24.349 24.349-24.349s24.349 10.923 24.349 24.349-10.923 24.349-24.349 24.349-24.349-10.923-24.349-24.349zm79.676 77.553c-.391.571-.854.814-1.545.814h-107.564c-.692 0-1.153-.243-1.544-.814s-.451-1.09-.201-1.734c9.768-25.192 31.564-41.47 55.527-41.47s45.76 16.278 55.528 41.469c.25.645.189 1.165-.201 1.735zm173.921 66.327c-.562.809-1.283 1.186-2.267 1.186h-138.357c-.985 0-1.705-.376-2.268-1.186-.562-.808-.664-1.614-.321-2.537 12.286-33.068 40.456-54.436 71.766-54.436s59.481 21.367 71.767 54.435c.343.923.241 1.729-.321 2.538zm141.685-66.327c-.391.571-.854.814-1.545.814h-107.563c-.691 0-1.153-.243-1.544-.814s-.451-1.09-.201-1.734c9.768-25.192 31.564-41.47 55.527-41.47s45.759 16.278 55.527 41.469c.25.645.189 1.165-.201 1.735zm-289.692-95.693h158.342c2.761 0 5-2.239 5-5v-7.478c0-11.925-11.591-21.627-25.838-21.627h-1.514v-3.572c0-8.87-7.216-16.086-16.085-16.086h-81.467c-8.869 0-16.084 7.216-16.084 16.086v3.572h-1.514c-14.247 0-25.838 9.702-25.838 21.627v7.478c0 2.761 2.239 5 5 5zm32.353-37.676c0-3.356 2.729-6.086 6.084-6.086h81.467c3.355 0 6.085 2.73 6.085 6.086v3.572h-93.637v-3.572zm-27.353 25.199c0-6.303 7.253-11.627 15.838-11.627h116.665c8.585 0 15.838 5.324 15.838 11.627v2.478h-148.343v-2.478z"/></svg>