<?xml version="1.0" encoding="UTF-8" standalone="no"?>
<!-- Created with Inkscape (http://www.inkscape.org/) -->

<svg
   version="1.1"
   id="svg4893"
   xml:space="preserve"
   width="682.66669"
   height="682.66669"
   viewBox="0 0 682.66669 682.66669"
   xmlns="http://www.w3.org/2000/svg"
   xmlns:svg="http://www.w3.org/2000/svg"><defs
     id="defs4897"><clipPath
       clipPathUnits="userSpaceOnUse"
       id="clipPath4907"><path
         d="M 0,512 H 512 V 0 H 0 Z"
         id="path4905" /></clipPath></defs><g
     id="g4899"
     transform="matrix(1.3333333,0,0,-1.3333333,0,682.66667)"><g
       id="g4901"><g
         id="g4903"
         clip-path="url(#clipPath4907)"><g
           id="g4909"
           transform="translate(300.8574,168.0215)"><path
             d="m 0,0 h 184.646 c 9.07,0 16.497,7.398 16.497,16.498 v 17.236 c 0,9.072 -7.427,16.498 -16.497,16.498 H -274.36 c -9.071,0 -16.497,-7.426 -16.497,-16.498 V 16.498 C -290.857,7.427 -283.431,0 -274.36,0 h 184.532"
             style="fill:none;stroke:#000000;stroke-width:20.176;stroke-linecap:round;stroke-linejoin:round;stroke-miterlimit:10;stroke-dasharray:none;stroke-opacity:1"
             id="path4911" /></g><g
           id="g4913"
           transform="translate(160.0068,119.7441)"><path
             d="m 0,0 h 191.986 c 7.002,0 12.756,-5.727 12.756,-12.729 v -35.009 c 0,-7.031 -5.754,-12.757 -12.756,-12.757 H 0 c -7.03,0 -12.756,5.726 -12.756,12.757 v 35.009 C -12.756,-5.727 -7.03,0 0,0 Z"
             style="fill:none;stroke:#000000;stroke-width:20.176;stroke-linecap:round;stroke-linejoin:round;stroke-miterlimit:10;stroke-dasharray:none;stroke-opacity:1"
             id="path4915" /></g><g
           id="g4917"
           transform="translate(46.5098,168.0215)"><path
             d="m 0,0 38.238,-149.68 c 1.219,-4.818 2.609,-7.341 7.031,-7.341 h 328.443 c 4.422,0 5.783,2.523 7.03,7.341 L 418.98,0"
             style="fill:none;stroke:#000000;stroke-width:20.176;stroke-linecap:round;stroke-linejoin:round;stroke-miterlimit:10;stroke-dasharray:none;stroke-opacity:1"
             id="path4919" /></g><g
           id="g4921"
           transform="translate(470.4795,270.7549)"><path
             d="M 0,0 V -52.501"
             style="fill:none;stroke:#000000;stroke-width:20.176;stroke-linecap:round;stroke-linejoin:round;stroke-miterlimit:10;stroke-dasharray:none;stroke-opacity:1"
             id="path4923" /></g><g
           id="g4925"
           transform="translate(441.8213,304.9717)"><path
             d="M 0,0 28.658,-34.217"
             style="fill:none;stroke:#000000;stroke-width:20.176;stroke-linecap:round;stroke-linejoin:round;stroke-miterlimit:10;stroke-dasharray:none;stroke-opacity:1"
             id="path4927" /></g><g
           id="g4929"
           transform="translate(403.7529,350.3857)"><path
             d="m 0,0 v 0 c -9.411,-7.909 -10.658,-22.112 -2.749,-31.523 l 9.297,-11.113 c 7.909,-9.44 22.082,-10.687 31.52,-2.778 9.44,7.909 10.687,22.083 2.779,31.523 L 31.521,-2.778 C 23.641,6.662 9.439,7.909 0,0 Z"
             style="fill:none;stroke:#000000;stroke-width:20.176;stroke-linecap:round;stroke-linejoin:round;stroke-miterlimit:10;stroke-dasharray:none;stroke-opacity:1"
             id="path4931" /></g><g
           id="g4933"
           transform="translate(41.4922,270.7549)"><path
             d="M 0,0 V -52.501"
             style="fill:none;stroke:#000000;stroke-width:20.176;stroke-linecap:round;stroke-linejoin:round;stroke-miterlimit:10;stroke-dasharray:none;stroke-opacity:1"
             id="path4935" /></g><g
           id="g4937"
           transform="translate(70.1504,304.9717)"><path
             d="M 0,0 -28.658,-34.217"
             style="fill:none;stroke:#000000;stroke-width:20.176;stroke-linecap:round;stroke-linejoin:round;stroke-miterlimit:10;stroke-dasharray:none;stroke-opacity:1"
             id="path4939" /></g><g
           id="g4941"
           transform="translate(108.2188,350.3857)"><path
             d="m 0,0 v 0 c 9.439,-7.909 10.687,-22.112 2.777,-31.523 l -9.325,-11.113 c -7.881,-9.44 -22.082,-10.687 -31.52,-2.778 -9.411,7.909 -10.659,22.083 -2.779,31.523 l 9.326,11.113 C -23.612,6.662 -9.439,7.909 0,0 Z"
             style="fill:none;stroke:#000000;stroke-width:20.176;stroke-linecap:round;stroke-linejoin:round;stroke-miterlimit:10;stroke-dasharray:none;stroke-opacity:1"
             id="path4943" /></g><g
           id="g4945"
           transform="translate(324.4697,414.5664)"><path
             d="m 0,0 v -24.352 c 0,-31.353 -43.567,-60.551 -68.484,-60.551 -24.916,0 -68.484,29.226 -68.484,60.551 V 0"
             style="fill:none;stroke:#000000;stroke-width:20.176;stroke-linecap:round;stroke-linejoin:round;stroke-miterlimit:10;stroke-dasharray:none;stroke-opacity:1"
             id="path4947" /></g><g
           id="g4949"
           transform="translate(324.4697,414.5664)"><path
             d="m 0,0 v 17.944 c 0,37.675 -30.812,68.49 -68.484,68.49 -37.643,0 -68.484,-30.815 -68.484,-68.49 V 0 C -99.381,54.429 -69.249,0.198 0,0 Z"
             style="fill:none;stroke:#000000;stroke-width:20.176;stroke-linecap:round;stroke-linejoin:round;stroke-miterlimit:10;stroke-dasharray:none;stroke-opacity:1"
             id="path4951" /></g><g
           id="g4953"
           transform="translate(187.502,323.4551)"><path
             d="M 0,0 C -39.485,-18.285 -45.665,-43.515 -45.665,-105.201"
             style="fill:none;stroke:#000000;stroke-width:20.176;stroke-linecap:round;stroke-linejoin:round;stroke-miterlimit:10;stroke-dasharray:none;stroke-opacity:1"
             id="path4955" /></g><g
           id="g4957"
           transform="translate(212.0215,348.5146)"><path
             d="m 0,0 -24.52,-25.06 44.844,-41.36 23.64,47.568 23.64,-47.568 44.844,41.36 L 87.957,0"
             style="fill:none;stroke:#000000;stroke-width:20.176;stroke-linecap:round;stroke-linejoin:round;stroke-miterlimit:10;stroke-dasharray:none;stroke-opacity:1"
             id="path4959" /></g><g
           id="g4961"
           transform="translate(324.4697,323.4551)"><path
             d="M 0,0 C 39.485,-18.285 45.665,-43.515 45.665,-105.201"
             style="fill:none;stroke:#000000;stroke-width:20.176;stroke-linecap:round;stroke-linejoin:round;stroke-miterlimit:10;stroke-dasharray:none;stroke-opacity:1"
             id="path4963" /></g><g
           id="g4965"
           transform="translate(255.9854,168.0215)"><path
             d="M 0,0 H -0.028"
             style="fill:none;stroke:#000000;stroke-width:20.176;stroke-linecap:round;stroke-linejoin:round;stroke-miterlimit:10;stroke-dasharray:none;stroke-opacity:1"
             id="path4967" /></g></g></g></g></svg>
