<svg id="Layer_1" viewBox="0 0 512 512" xmlns="http://www.w3.org/2000/svg" data-name="Layer 1"><path d="m136.222 249.324c34.012 0 61.683-27.67 61.683-61.682s-27.671-61.71-61.683-61.71-61.71 27.683-61.71 61.71 27.684 61.682 61.71 61.682zm0-107.405c25.196 0 45.694 20.511 45.694 45.723s-20.498 45.694-45.694 45.694-45.722-20.499-45.722-45.694 20.511-45.723 45.722-45.723zm116.079 204.402v-43.677c0-2.692-1.355-5.203-3.604-6.681-2.034-1.337-4.551-1.656-6.84-.917-13.252-22.161-37.365-36.113-63.398-36.113h-84.473c-26.046 0-50.166 13.948-63.421 36.105-2.284-.729-4.79-.407-6.817.924-2.249 1.478-3.604 3.989-3.604 6.681v43.676c-9.431.796-16.866 8.713-16.866 18.346v31.181c0 9.633 7.435 17.55 16.866 18.346v33.471c0 3.188 1.895 6.071 4.821 7.337l108.085 46.743c.283.123.571.224.859.312.052.016.104.026.156.04.295.083.591.147.888.195.074.012.148.024.223.034.348.046.696.078 1.042.078.026 0 .052-.005.078-.006.312-.003.624-.028.935-.068.102-.013.202-.029.303-.046.268-.045.533-.103.797-.175.07-.019.14-.033.209-.054.289-.088.575-.188.855-.31l108.085-46.743c2.927-1.266 4.821-4.149 4.821-7.337v-33.473c9.417-.809 16.838-8.721 16.838-18.345v-31.181c0-9.624-7.42-17.536-16.838-18.345zm-158.316-71.4h84.473c19.668 0 37.943 10.18 48.539 26.499l-90.775 39.257-90.797-39.267c10.599-16.314 28.882-26.49 48.56-26.49zm-74.72 120.926v-31.181c0-1.321 1.116-2.438 2.438-2.438h12.841c1.321 0 2.438 1.117 2.438 2.438v31.181c0 1.321-1.116 2.438-2.438 2.438h-12.841c-1.321 0-2.438-1.117-2.438-2.438zm16.866 18.345c9.418-.809 16.838-8.721 16.838-18.345v-31.181c0-9.624-7.42-17.536-16.838-18.345v-31.511l92.097 39.829v127.602l-92.097-39.829zm108.085 68.05v-127.603l92.097-39.829v31.511c-9.433.808-16.865 8.72-16.865 18.345v31.181c0 9.624 7.433 17.537 16.865 18.345v28.22zm108.934-86.395c0 1.321-1.115 2.438-2.437 2.438h-12.813c-1.336 0-2.465-1.117-2.465-2.438v-31.181c0-1.321 1.129-2.438 2.465-2.438h12.813c1.321 0 2.437 1.117 2.437 2.438zm41.439-141.418c-3.893 4.444-6.26 10.253-6.26 16.608 0 7.051 2.911 13.433 7.591 18.019-3.841 4.437-6.174 10.217-6.174 16.536 0 11.233 7.374 20.773 17.534 24.044-.002.159-.016.316-.016.475 0 19.459 15.832 35.291 35.292 35.291h17.036c19.46 0 35.292-15.832 35.292-35.291 0-.159-.014-.317-.016-.475 10.16-3.271 17.535-12.811 17.535-24.044 0-6.319-2.333-12.098-6.174-16.535 4.68-4.586 7.591-10.968 7.591-18.019 0-6.355-2.367-12.165-6.261-16.609 3.448-6.054 9.022-12.498 18.636-21.739 21.413-20.613 33.206-48.339 33.206-78.071 0-59.723-48.602-108.312-108.341-108.312s-108.312 48.588-108.312 108.312c0 29.732 11.793 57.458 33.21 78.075 9.611 9.24 15.184 15.683 18.631 21.736zm14.324 8.626c1.381-.812 2.985-1.286 4.702-1.286h74.92c1.714 0 3.316.473 4.696 1.283.167.113.341.216.518.317 2.462 1.669 4.083 4.484 4.083 7.67 0 5.111-4.17 9.27-9.297 9.27v.04c-.46-.025-.923-.04-1.39-.04h-72.142c-.466 0-.929.015-1.389.04v-.04c-5.127 0-9.297-4.158-9.297-9.27 0-3.187 1.622-6.004 4.087-7.672.173-.099.345-.2.508-.31zm18.534-94.717h-7.455c-4.59 0-9.949-2.279-9.949-8.702 0-4.799 3.903-8.703 8.702-8.703 6.424 0 8.702 5.375 8.702 9.978zm31.266 77.443h-15.277v-61.456h15.277zm.879 103.635h-17.036c-10.396 0-18.875-8.266-19.266-18.567h55.569c-.392 10.301-8.871 18.567-19.266 18.567zm27.553-34.555h-72.142c-5.111 0-9.269-4.158-9.269-9.269s4.157-9.298 9.269-9.298h72.142c5.111 0 9.27 4.171 9.27 9.298s-4.158 9.269-9.27 9.269zm-128.409-160.242c0-50.908 41.416-92.324 92.323-92.324s92.353 41.417 92.353 92.324c0 25.346-10.052 48.982-28.302 66.549-9.357 8.995-16.478 16.724-21.329 25.164-1.694-.358-3.448-.55-5.247-.55h-13.833v-61.456h7.455c14.786 0 25.938-10.614 25.938-24.689 0-13.614-11.076-24.69-24.69-24.69-14.307 0-24.69 10.92-24.69 25.965v7.427h-15.277v-7.427c0-15.045-10.384-25.965-24.69-25.965-13.614 0-24.69 11.076-24.69 24.69 0 14.075 11.151 24.689 25.938 24.689h7.455v61.456h-13.833c-1.799 0-3.553.192-5.247.55-4.85-8.438-11.971-16.167-21.325-25.16-18.254-17.571-28.306-41.207-28.306-66.553zm115.965 13.719v-7.427c0-4.603 2.278-9.978 8.702-9.978 4.799 0 8.702 3.904 8.702 8.703 0 6.423-5.359 8.702-9.949 8.702zm-31.636-135.127v-18.794c0-4.415 3.579-7.994 7.994-7.994s7.994 3.579 7.994 7.994v18.793c0 4.415-3.579 7.994-7.994 7.994s-7.994-3.579-7.994-7.994zm-96.785 27.933c-3.122-3.122-3.122-8.183 0-11.305 3.121-3.122 8.184-3.122 11.305 0l13.266 13.266c3.122 3.122 3.122 8.183 0 11.305-1.561 1.561-3.606 2.341-5.652 2.341s-4.092-.78-5.652-2.341l-13.266-13.266zm-43.416 93.475c0-4.415 3.579-7.994 7.994-7.994h18.794c4.415 0 7.994 3.579 7.994 7.994s-3.579 7.994-7.994 7.994h-18.794c-4.415 0-7.994-3.579-7.994-7.994zm67.981 80.203c3.125 3.119 3.131 8.18.012 11.305l-13.266 13.294c-1.561 1.564-3.609 2.347-5.658 2.347s-4.086-.778-5.646-2.335c-3.125-3.119-3.131-8.18-.012-11.305l13.266-13.294c3.117-3.124 8.18-3.13 11.305-.012zm160.418-160.418c-3.119-3.125-3.113-8.187.012-11.305l13.295-13.266c3.126-3.117 8.187-3.112 11.305.012 3.119 3.125 3.113 8.187-.012 11.305l-13.295 13.266c-1.561 1.557-3.604 2.335-5.646 2.335s-4.097-.783-5.658-2.347zm68.021 80.215c0 4.415-3.579 7.994-7.994 7.994h-18.794c-4.415 0-7.994-3.579-7.994-7.994s3.579-7.994 7.994-7.994h18.794c4.415 0 7.994 3.579 7.994 7.994zm-56.711 80.209 13.295 13.294c3.122 3.122 3.122 8.183 0 11.305-1.561 1.561-3.606 2.341-5.652 2.341s-4.092-.78-5.652-2.341l-13.295-13.294c-3.122-3.122-3.122-8.183 0-11.305 3.121-3.122 8.184-3.122 11.305 0zm26.947 138.03h-154.46c-20.054 0-36.369 16.327-36.369 36.396 0 11.469 5.342 21.707 13.661 28.378-8.32 6.676-13.661 16.923-13.661 28.4 0 20.054 16.315 36.368 36.369 36.368h154.46c4.415 0 7.994-3.579 7.994-7.994v-113.556c0-4.415-3.579-7.994-7.994-7.994zm-174.841 36.397c0-11.253 9.143-20.409 20.381-20.409h146.466v12.416h-53.942c-4.415 0-7.994 3.579-7.994 7.994s3.579 7.994 7.994 7.994h53.942v12.388h-146.466c-11.238 0-20.381-9.143-20.381-20.381zm20.381 77.159c-11.238 0-20.381-9.143-20.381-20.381s9.143-20.41 20.381-20.41h146.466v12.416h-53.942c-4.415 0-7.994 3.579-7.994 7.994s3.579 7.994 7.994 7.994h53.942v12.387z"/></svg>