<svg id="Layer_1" enable-background="new 0 0 500 500" viewBox="0 0 500 500" xmlns="http://www.w3.org/2000/svg"><path clip-rule="evenodd" d="m436.532 300.807c-1.95 4.536-6.061 7.247-10.997 7.247h-116.246c-4.935 0-9.046-2.71-10.997-7.247l-8.049-18.749h154.35zm-88.828-38.183v-41.06h13.329v41.06c0 3.675-2.995 6.665-6.665 6.665-3.679-.001-6.664-2.991-6.664-6.665zm-5.485-93.446 9.93-39.396c.857-3.421-1.223-6.891-4.633-7.753-3.421-.862-6.885 1.207-7.753 4.633l-9.919 39.379v.011c-.9 3.556-4.526 5.727-8.082 4.827-1.713-.426-3.168-1.509-4.078-3.049-.921-1.541-1.191-3.33-.76-5.038l12.537-49.794c1.918-7.575 7.333-13.109 14.87-15.161 5.404-1.471 10.873-2.435 16.266-2.866 2.182.555 4.461.852 6.821.852 2.344 0 4.628-.297 6.81-.852 5.393.431 10.856 1.396 16.26 2.866 7.543 2.053 12.968 7.586 14.876 15.161l12.532 49.794c.436 1.708.167 3.496-.749 5.038-.916 1.53-2.365 2.624-4.084 3.049-3.551.894-7.177-1.261-8.076-4.822l-.011-.005c0-.011 0-.011 0-.011l-9.914-39.379c-.862-3.416-4.326-5.495-7.753-4.633-3.416.862-5.49 4.332-4.634 7.753l9.924 39.396 9.978 39.616h-70.332zm25.199-115.709c8.152 0 14.784 6.638 14.784 14.789 0 8.157-6.632 14.795-14.784 14.795-8.163 0-14.795-6.638-14.795-14.795 0-8.151 6.632-14.789 14.795-14.789zm19.703 209.155c0 3.675-2.99 6.665-6.665 6.665-3.669 0-6.654-2.99-6.654-6.665v-41.06h13.319zm-68.01 165.157 8.06 18.755h-154.35l8.06-18.755c1.95-4.531 6.061-7.241 10.996-7.241h116.247c4.925 0 9.042 2.71 10.987 7.241zm-255.635-126.974-8.06-18.749h154.35l-8.06 18.749c-1.95 4.536-6.061 7.247-11.002 7.247h-116.232c-4.94 0-9.051-2.711-10.996-7.247zm49.4-38.183v-134.609c0-3.534-2.855-6.385-6.385-6.385-3.524 0-6.384 2.85-6.384 6.385v46.13c0 3.669-2.985 6.654-6.654 6.654-3.68 0-6.665-2.985-6.665-6.654v-54.821c0-7.882 4.052-14.429 11.115-17.936 7.931-3.949 15.932-6.557 23.814-7.807 3.335 1.438 7.015 2.241 10.873 2.241 3.863 0 7.537-.803 10.883-2.247 7.893 1.239 15.883 3.847 23.814 7.796 7.052 3.513 11.104 10.054 11.104 17.936v54.837c0 3.669-2.99 6.654-6.67 6.654-3.675 0-6.665-2.985-6.665-6.654v-46.13c0-3.534-2.855-6.385-6.379-6.385s-6.384 2.85-6.384 6.385v134.609c0 3.675-2.985 6.665-6.659 6.665s-6.66-2.99-6.66-6.665v-63.522c0-3.524-2.861-6.385-6.384-6.385-3.529 0-6.385 2.861-6.385 6.385v63.522c0 3.675-2.99 6.665-6.665 6.665-3.668 0-6.664-2.99-6.664-6.664zm19.714-209.155c8.152 0 14.789 6.638 14.789 14.789 0 8.157-6.638 14.795-14.789 14.795-8.157 0-14.795-6.638-14.795-14.795.001-8.151 6.638-14.789 14.795-14.789zm327.024 218.696c-1.18-1.794-3.195-2.877-5.339-2.877h-55.559c.754-2.074 1.169-4.326 1.169-6.665v-41.06h10.889c1.967 0 3.825-.911 5.032-2.457 1.207-1.557 1.638-3.577 1.158-5.49l-7.527-29.87c2.204.232 4.488.086 6.751-.485 5.011-1.266 9.251-4.418 11.918-8.884 2.672-4.461 3.437-9.677 2.177-14.698l-12.538-49.8c-3.071-12.176-11.778-21.055-23.9-24.364-1.385-.377-2.775-.717-4.17-1.04 3.324-4.553 5.291-10.156 5.291-16.217 0-15.188-12.36-27.559-27.548-27.559-15.204 0-27.564 12.37-27.564 27.559 0 6.061 1.967 11.665 5.296 16.217-1.396.323-2.786.663-4.17 1.04-12.123 3.308-20.829 12.187-23.895 24.364l-12.543 49.8c-1.261 5.021-.49 10.237 2.177 14.698 2.661 4.466 6.902 7.618 11.918 8.884 2.274.571 4.542.717 6.746.485l-7.521 29.87c-.474 1.913-.048 3.933 1.158 5.49 1.207 1.546 3.06 2.457 5.038 2.457h10.878v41.06c0 2.339.415 4.591 1.174 6.665h-55.564c-2.144 0-4.154 1.083-5.329 2.872-1.18 1.794-1.385 4.057-.533 6.034l11.88 27.65c3.976 9.235 12.683 14.973 22.726 14.973h47.709l-8.825 27.154c-2.392 7.387-8.965 12.155-16.729 12.155h-162.896c-7.764 0-14.326-4.768-16.724-12.155l-8.825-27.154h47.704c10.054 0 18.76-5.738 22.726-14.973l11.891-27.65c.846-1.967.647-4.24-.533-6.029-1.185-1.794-3.184-2.877-5.329-2.877h-55.575c.76-2.074 1.175-4.326 1.175-6.665v-70.23c2.085.765 4.326 1.175 6.665 1.175 10.722 0 19.434-8.712 19.434-19.423v-54.837c0-12.721-6.789-23.701-18.173-29.369-5.717-2.84-11.487-5.075-17.268-6.713 2.796-4.316 4.434-9.45 4.434-14.967 0-15.188-12.365-27.559-27.559-27.559-15.199 0-27.564 12.37-27.564 27.559 0 5.528 1.643 10.668 4.445 14.984-5.77 1.643-11.541 3.874-17.257 6.713-11.395 5.662-18.194 16.643-18.194 29.369v54.821c0 10.711 8.717 19.423 19.434 19.423 2.338 0 4.58-.409 6.654-1.175v70.23c0 2.339.42 4.591 1.185 6.665h-55.578c-2.144 0-4.143 1.083-5.329 2.877-1.18 1.789-1.379 4.062-.533 6.029l11.891 27.65c3.965 9.235 12.672 14.973 22.726 14.973h55.101l10.113 31.104c4.138 12.742 15.468 20.969 28.862 20.969h75.063v34.881h-51.734c-10.048 0-18.76 5.738-22.726 14.968l-11.88 27.65c-.851 1.978-.647 4.24.528 6.034 1.185 1.8 3.184 2.877 5.339 2.877h173.73c2.144 0 4.154-1.078 5.329-2.877 1.18-1.794 1.385-4.057.533-6.034l-11.88-27.65c-3.976-9.229-12.683-14.968-22.726-14.968h-51.744v-34.882h75.063c13.399 0 24.735-8.227 28.873-20.969l10.102-31.104h55.117c10.048 0 18.755-5.738 22.726-14.973l11.88-27.65c.852-1.966.647-4.24-.527-6.029z" fill-rule="evenodd"/></svg>