<svg clip-rule="evenodd" fill-rule="evenodd" height="512" image-rendering="optimizeQuality" shape-rendering="geometricPrecision" text-rendering="geometricPrecision" viewBox="0 0 6.82666 6.82666" width="512" xmlns="http://www.w3.org/2000/svg"><g id="Layer_x0020_1"><g id="_277986624"><path id="_277987872" d="m3.41345 6.47706c-.0387244 0-.0701614-.0314252-.0701614-.0701575l.00000394-4.2902c0-.0387283.0314213-.0701535.0701535-.0701535.0387402-.00000394.0701614.0314252.0701614.0701575v4.2902c0 .0387323-.0314252.0701575-.0701575.0701575z"/><path id="_277988400" d="m6.22926 6.47706h-5.63185c-.118744 0-.215346-.0965866-.215346-.215343l.00001181-3.99935c0-.118752.0965787-.215339.215335-.215339l.320835-.00000394c.0387244 0 .0701457.0314291.0701457.0701614.00001181.0387283-.0314252.0701575-.0701575.0701575l-.320823-.00000394c-.0412835 0-.0750315.0337441-.0750315.0750315l.00001181 3.99934c0 .0412874.0337283.0750276.0750197.0750276h5.63185c.0412874 0 .0750197-.0337402.0750197-.0750276l.00000394-3.99935c0-.0412835-.0337441-.0750236-.0750315-.0750236l-.320579-.00000394c-.0387244 0-.0701614-.0314213-.0701614-.0701535.00000394-.0387362.0314252-.0701575.0701575-.0701575l.320591-.00000394c.118744 0 .215335.0965906.215335.215346l.00000394 3.99934c0 .118752-.0965945.215343-.215339.215343z"/><path id="_277988304" d="m2.84623 3.18404h-1.36077c-.0387244 0-.0701614-.0314213-.0701614-.0701575.00000394-.0387362.0314252-.0701575.0701575-.0701575h1.36077c.0387244 0 .0701496.0314291.0701496.0701575.00000787.0387323-.0314252.0701575-.0701496.0701575z"/><path id="_277988496" d="m2.84623 3.90011h-1.36077c-.0387244 0-.0701614-.0314213-.0701614-.0701535.00000394-.0387362.0314252-.0701575.0701575-.0701575l1.36077-.00000394c.0387244 0 .0701496.0314291.0701496.0701614.00000787.0387323-.0314252.0701575-.0701496.0701535z"/><path id="_277988256" d="m2.84623 4.61606h-1.36077c-.0387244 0-.0701614-.0314252-.0701614-.0701535.00000394-.0387362.0314252-.0701575.0701575-.0701575l1.36077-.00000394c.0387244 0 .0701496.0314252.0701496.0701614.00000787.0387244-.0314252.0701575-.0701496.0701535z"/><path id="_277987344" d="m2.84623 2.4681h-1.36077c-.0387244 0-.0701614-.0314252-.0701614-.0701575.00000394-.0387323.0314252-.0701575.0701575-.0701575h1.36077c.0387244 0 .0701496.0314252.0701496.0701575.00000787.0387283-.0314252.0701575-.0701496.0701575z"/><path id="_277987176" d="m2.84623 5.33212h-1.36077c-.0387244 0-.0701614-.0314173-.0701614-.0701496.00000394-.0387402.0314252-.0701575.0701575-.0701575l1.36077-.00000787c.0387244 0 .0701496.0314331.0701496.0701654.00000787.0387323-.0314252.0701575-.0701496.0701496z"/><path id="_277987800" d="m5.34145 3.18404h-1.36077c-.0387362 0-.0701654-.0314213-.0701654-.0701575.00000787-.0387362.0314291-.0701575.0701575-.0701575h1.36078c.0387205 0 .0701496.0314291.0701496.0701575.00000787.0387323-.0314331.0701575-.0701496.0701575z"/><path id="_277987752" d="m5.34145 3.90011h-1.36077c-.0387362 0-.0701654-.0314213-.0701654-.0701535.00000787-.0387362.0314291-.0701575.0701575-.0701575l1.36078-.00000394c.0387205 0 .0701496.0314291.0701496.0701614.00000787.0387323-.0314331.0701575-.0701496.0701535z"/><path id="_277987536" d="m5.34145 4.61606h-1.36077c-.0387362 0-.0701654-.0314252-.0701654-.0701535.00000787-.0387362.0314291-.0701575.0701575-.0701575l1.36078-.00000394c.0387205 0 .0701496.0314252.0701496.0701614.00000787.0387244-.0314331.0701575-.0701496.0701535z"/><path id="_277987488" d="m5.34145 2.4681h-1.36077c-.0387362 0-.0701654-.0314252-.0701654-.0701575.00000787-.0387323.0314291-.0701575.0701575-.0701575h1.36078c.0387205 0 .0701496.0314252.0701496.0701575.00000787.0387283-.0314331.0701575-.0701496.0701575z"/><path id="_277987632" d="m5.34145 5.33212h-1.36077c-.0387362 0-.0701654-.0314173-.0701654-.0701496.00000787-.0387402.0314291-.0701575.0701575-.0701575l1.36078-.00000787c.0387205 0 .0701496.0314331.0701496.0701654.00000787.0387323-.0314331.0701575-.0701496.0701496z"/><path id="_277987512" d="m3.41345 6.47694c-.0595512 0-.117295-.0175354-.166626-.0505433-.0414094-.0275354-.0834331-.0627323-.124236-.0967126-.071122-.0594409-.144823-.120827-.213276-.141654-.119717-.0361772-.243843-.0545709-.368937-.0545709h-1.48901c-.112181 0-.203409-.0913504-.203409-.203406l.00000787-4.2371c0-.0898858.0605236-.170272.147126-.195484.159197-.0460433.567713-.0885472 1.24895-.129961.0387402-.0026811.0719843.0270394.0742992.0656496.00244094.0387283-.0270433.0719843-.0657756.0742992-.661492.040315-1.07148.0823346-1.2185.124846-.0269173.0077874-.0457953.0327638-.0457953.0606535l.00000787 4.2371c0 .0347087.028248.0630906.0630787.0630906h1.48903c.138846 0 .276724.0203425.409732.0606614.0957441.0289843.180508.099752.262476.168209.0395906.0330039.0768583.064185.112059.0875709.0264331.0176614.057126.0270433.0887913.0270433.0311929-.00000394.0613898-.00901575.0872087-.0259449.00049213-.00037008.00109843-.00073228.00158661-.00097638.229602-.153232.498531-.316563.784035-.316563h1.48902c.0348346 0 .0630827-.028378.0630827-.0630906l.00000394-4.2371c0-.028252-.0185157-.0527323-.0460433-.0607717-.146764-.0423898-.556752-.0844094-1.21825-.124724-.0387283-.00231496-.0682087-.0355669-.0657756-.0742992.0023189-.0386181.035811-.0683307.0743031-.0656496.681354.0414055 1.08987.0839213 1.24894.129961.0867244.0254488.147138.105724.147138.195488v4.2371c0 .112055-.0912283.203406-.203409.203406h-1.48902c-.245673 0-.492445.150429-.704622.291961-.0006063.00036221-.00109449.00072835-.00170472.00109449-.0493268.0330079-.106941.0504291-.1665.0504252z"/><path id="_277987656" d="m2.38533.489921c-.0367756 0-.066622.0299685-.066622.066752v1.0805c0 .0367835.0298386.066626.066622.066626l.767228-.00000394c.0811181 0 .153831.045315.189764.118154l.0689409.140311.0690591-.140315c.0359409-.0728386.10865-.118024.189764-.118024l.771614-.00012598c.0367913 0 .066748-.0298386.066748-.066622l.00000787-1.0805c0-.0367835-.0299724-.0667441-.066878-.0667441l-2.05625-.00000394zm1.028 1.6973h-.00401181c-.0267913 0-.0511614-.0152205-.0629764-.0392165l-.129957-.264063c-.0120591-.0244882-.0365433-.0398307-.0638307-.0398307l-.767224-.00000394c-.114126 0-.206937-.092811-.206937-.206937v-1.0805c0-.11413.0928071-.207059.206937-.207059l2.05626-.00000394c.114236 0 .207173.0929409.207173.207067l.00000787 1.0805c0 .114126-.0929449.206941-.207071.206941l-.77161.00011811c-.0272795 0-.0517638.0152283-.0639449.0397126l-.129839.264063c-.011811.0239921-.0361772.0392205-.0629764.0392165z"/><path id="_277987704" d="m3.19836 1.54996h-.510602c-.0387244 0-.0701575-.0314252-.0701575-.0701575v-.765768c0-.0387323.0314252-.0701535.0701575-.0701535l.510602-.00000394c.0387244 0 .0701457.0314291.0701457.0701614.00001181.0387283-.0314252.0701575-.0701575.0701575l-.440433-.00000394v.625453h.440445c.0387244 0 .0701457.0314252.0701457.0701575.00001181.0387283-.0314252.0701575-.0701457.0701575z"/><path id="_277986816" d="m3.19836 1.16702h-.510602c-.0387244 0-.0701575-.0313031-.0701575-.0701575 0-.0387402.0314252-.0701575.0701575-.0701575h.510602c.0387244 0 .0701457.0314213.0701457.0701575.00001181.0388504-.0314252.0701575-.0701457.0701575z"/><path id="_277986648" d="m4.13915 1.54996c-.0230236 0-.0450709-.0113268-.0583425-.0311811l-.382091-.573079v.534102c0 .0387283-.0314291.0701575-.0701614.0701575s-.0701575-.0314252-.0701575-.0701575l.00000394-.765768c0-.0309331.0202165-.0582165.049815-.0671063.0297283-.00901575.0616299.00243307.0786811.0281339l.382094.573075v-.534102c0-.0387323.0314213-.0701535.0701535-.0701535.0387362-.00000394.0701575.0314252.0701575.0701575l.00000394.765764c0 .0309331-.0202244.0582205-.0498189.0671102-.00669291.00207087-.0135197.00304724-.0203386.00304724z"/></g></g></svg>