<?xml version="1.0" encoding="UTF-8"?>
<svg xmlns="http://www.w3.org/2000/svg" id="Outline" viewBox="0 0 512 512" width="512" height="512"><path d="M208,128h96a8,8,0,0,0,0-16H208a8,8,0,0,0,0,16Z"/><path d="M184,176h40a8,8,0,0,0,0-16H184a8,8,0,0,0,0,16Z"/><path d="M248,168a8,8,0,0,0,8,8H360a8,8,0,0,0,0-16H256A8,8,0,0,0,248,168Z"/><path d="M120,320h88a8,8,0,0,0,0-16H120a8,8,0,0,0,0,16Z"/><path d="M184,224h96a8,8,0,0,0,0-16H184a8,8,0,0,0,0,16Z"/><path d="M344,208H312a8,8,0,0,0,0,16h32a8,8,0,0,0,0-16Z"/><path d="M484.687,161.372l-6.059-6.059a32.039,32.039,0,0,0-45.256,0L416,172.686V72a8,8,0,0,0-8-8H368V24a8,8,0,0,0-8-8H24a8,8,0,0,0-8,8V440a8,8,0,0,0,8,8H64v40a8,8,0,0,0,8,8H344a8,8,0,0,0,5.657-2.343l64-64A8,8,0,0,0,416,424V304.005a8,8,0,0,0,13.657,5.652l44.687-44.686a24,24,0,0,0,0-33.942L467.314,224l17.373-17.372A32.039,32.039,0,0,0,484.687,161.372ZM360,308.686,331.314,280,392,219.314,420.686,248ZM259.957,359.271l20.772,20.772-29.081,8.309ZM267.313,344,320,291.314,348.686,320,296,372.687ZM432,236.686,403.314,208,416,195.314,444.686,224ZM64,72V432H32V32H352V64H72A8,8,0,0,0,64,72Zm16,8H400V188.686L332.686,256H120a8,8,0,0,0,0,16H316.686l-32,32H240a8,8,0,0,0,0,16h28.686l-18.343,18.343a7.954,7.954,0,0,0-2.033,3.459h0L245.394,352H120a8,8,0,0,0,0,16H240.822l-8.514,29.8a8,8,0,0,0,9.89,9.89l56-16v0a7.954,7.954,0,0,0,3.459-2.033L400,291.314V416H344a8,8,0,0,0-8,8v56H80ZM388.687,432,352,468.687V432Zm74.342-189.656a8.007,8.007,0,0,1,0,11.312l-44.686,44.687A7.973,7.973,0,0,0,416,304V275.314l40-40Zm10.343-47.031L456,212.686,427.314,184l17.373-17.372a16.017,16.017,0,0,1,22.626,0l6.059,6.059A16.015,16.015,0,0,1,473.372,195.313Z"/><path d="M120,224h32a8,8,0,0,0,0-16H128V192h24a8,8,0,0,0,0-16H128V160h24a8,8,0,0,0,0-16H120a8,8,0,0,0-8,8v64A8,8,0,0,0,120,224Z"/></svg>
