<?xml version="1.0"?>
<svg xmlns="http://www.w3.org/2000/svg" id="Layer_1" data-name="Layer 1" viewBox="0 0 64 64"><path d="M14.454,61.859a1,1,0,0,0,.987.021L21.152,58.8l5.711,3.082A1,1,0,0,0,28.338,61V50.74h16.02A4.145,4.145,0,0,0,48.5,46.6V37.994l.095-.092c.009-.008.012-.019.02-.027a.981.981,0,0,0,.2-.278L58.16,17.313a.113.113,0,0,0,.012-.018l0-.015L60.242,12.8c.908-1.97.439-4.059-1.069-4.754l-3.94-1.815a2.712,2.712,0,0,0-2.543.232A4.633,4.633,0,0,0,50.924,8.5L48.855,12.99,48.849,13l0,.011-.347.754V6.14A4.145,4.145,0,0,0,44.358,2H7.438A4.145,4.145,0,0,0,3.3,6.14V46.6a4.145,4.145,0,0,0,4.14,4.14h6.528V61A1,1,0,0,0,14.454,61.859Zm11.884-2.535-4.711-2.542a1,1,0,0,0-.95,0l-4.711,2.542V50.74H26.338Zm23.91-44.579,5.686,2.62-8.52,18.487-1.934-.891,6.559-14.232a1,1,0,1,0-1.816-.837L43.664,34.123l-1.935-.891Zm-8.929,20.5,4.83,2.226L40.922,42.46ZM52.74,9.338a2.663,2.663,0,0,1,.977-1.163.834.834,0,0,1,.679-.132l3.94,1.815c.355.164.568,1.064.09,2.1l-1.655,3.59-5.685-2.62ZM46.5,6.14V18.1L39.494,33.3a1,1,0,0,0-.091.363l-.617,11.207a1,1,0,0,0,1.689.778L46.5,39.9v6.7a2.143,2.143,0,0,1-2.141,2.14H11.973V4H44.358A2.143,2.143,0,0,1,46.5,6.14ZM5.3,46.6V6.14A2.142,2.142,0,0,1,7.438,4H9.973V48.74H7.438A2.142,2.142,0,0,1,5.3,46.6Z"/><path d="M16.963,21.381H40.479a1,1,0,0,0,1-1V8.575a1,1,0,0,0-1-1H16.963a1,1,0,0,0-1,1V20.381A1,1,0,0,0,16.963,21.381Zm1-11.806H39.479v9.806H17.963Z"/><path d="M16.963,26.968H34.447a1,1,0,0,0,0-2H16.963a1,1,0,0,0,0,2Z"/><path d="M16.963,32.387H27.479a1,1,0,0,0,0-2H16.963a1,1,0,0,0,0,2Z"/><path d="M16.963,38.839H37.8a1,1,0,0,0,0-2H16.963a1,1,0,0,0,0,2Z"/></svg>
