<svg clip-rule="evenodd" fill-rule="evenodd" height="512" image-rendering="optimizeQuality" shape-rendering="geometricPrecision" text-rendering="geometricPrecision" viewBox="0 0 1706.66 1706.66" width="512" xmlns="http://www.w3.org/2000/svg" xmlns:xodm="http://www.corel.com/coreldraw/odm/2003"><g id="Layer_x0020_1"><path d="m660.46 1706.1c-11.03 0-19.99-8.96-19.99-19.98v-188.82h-202.09c-118.8 1.41-101.92-116.98-101.92-183.2l-69.19-56.84c-26.33-21.59 20.57-47.03 44.7-65.96-61.7-29.61-50.65-11.09-50.65-104.64l-52.72-24.16c-36.19-11.33-57.52-29.55-63.4-54.16-8.62-36.04 20.78-68.58 28.12-76.05l119.23-158.82c-10.02-45.46-15.1-92.01-15.1-138.53 0-846.61 1285.54-846.59 1285.54 0 0 147.8-133.45 474.56-240.77 592.54v454.27c0 26.31-39.97 26.3-39.97 0v-462.17c0-5.16 2.01-10.12 5.58-13.85 101.11-105.14 235.18-430.55 235.18-570.8 0-792.02-1205.56-794.1-1205.56 0 0 46.57 5.43 93.17 16.14 138.54 1.36 5.78.1 11.85-3.47 16.59l-127.8 169.85c-28.74 27.83-25.8 50.92 19.3 64.82l68.04 30.99c7.11 3.25 11.66 10.34 11.66 18.17v68c29.26 14.04 66.22 25.26 68.19 43.2 1.96 17.93-32.03 37.1-57.61 57.15 79.21 65.06 64.56 35.67 64.56 138.94 0 31.46 1.66 76.91 61.42 76.17l222.62-.02c11.03 0 19.98 8.96 19.98 19.98v208.82c-.04 11.03-8.99 19.98-20.03 19.98z"/><path d="m909.58 980.26c-112.38 0-200.42-194.43-200.42-442.64s88.04-442.64 200.42-442.64c112.4 0 200.43 194.43 200.43 442.64s-88.05 442.64-200.43 442.64zm0-845.31c-77.49 0-160.45 161.8-160.45 402.67s82.97 402.65 160.45 402.65c77.49 0 160.46-161.79 160.46-402.65s-82.97-402.67-160.46-402.67z"/><path d="m668.69 820.44c-252.17 0-192.66-263.95 140.68-456.39 364.25-210.28 618.56-92.95 438.81 146.64-119.02 158.65-389.39 309.75-579.49 309.75zm481.79-525.68c-273.8 0-663.11 316.87-589.61 444.18 69.06 119.63 488.78-30.31 655.35-252.27 80.54-107.32 68.68-191.91-65.74-191.91z"/><path d="m1150.5 820.44c-287.9 0-722.71-333.6-624.25-504.15 94.04-162.88 550.46 19.69 721.94 248.26 105.26 140.3 64.55 255.9-97.69 255.9zm-481.81-525.68c-134.42 0-146.27 84.61-65.74 191.93 168.1 224 586.98 370.59 655.35 252.27 73.52-127.24-315.78-444.19-589.61-444.19z"/><path d="m909.59 622.48c-111.69 0-111.69-169.72 0-169.72s111.69 169.72 0 169.72zm0-129.75c-59.08 0-59.08 89.78 0 89.78 59.06 0 59.06-89.78 0-89.78z"/></g></svg>