<svg id="Layer_1" enable-background="new 0 0 56 56" viewBox="0 0 56 56" xmlns="http://www.w3.org/2000/svg"><g id="Royal_Book"><path d="m51.7487335 12.4742403-2.1162109.1201172.0118408.2530518-.0021973-.003418h-.0100098l-1.3372803-2.0280762.9489746-2.6746826c.2243042-.6338191-.2101135-1.3011155-.875-1.358398l-26.9906005-2.2977295c-1.2205811-.3500977-2.6461182.2556763-3.2144775 1.3865967-3.6231728 8.7565594-14.2603893 34.4611969-14.2949228 34.5625-.4550781 1.3349609.3837888 2.9824219 2.0869138 4.0986328.4960938.3251953 1.0761719.5458984 1.7265625.6582031l2.3895264.3840332c-.745966 1.4073486-1.6809111 2.676487-2.6854248 3.6989746-.0000906.0001869-.0015922.0031738-.0019531.0039063-.1833811.1878548.0064716.4893532.2480469.4160156 1.5149193-.4469337 3.0416174-1.1697998 4.2611084-1.9765625-.2019939 1.29702-.7385426 2.6057549-1.3050537 3.5136719-.103776.1667824.0160675.3828125.2119141.3828125h.0019531c.0214844 0 .0439453-.0029297.0654297-.0087891 2.9099941-.790802 4.9038305-1.9534607 6.8158579-4.788208 21.882328 3.5473518 20.6324615 3.3575439 20.7651978 3.3575439.3916016 0 .7568359-.2539063.8886719-.6376953l12.8925781-36.4287109c.0996285-.318808-.1289062-.6404833-.4814453-.6337895zm-2.4465942 1.0097656c.0700073 0 .1199951.0999756.1199951.2199707 0 .1300049-.0499878.2300415-.1199951.2300415-.0699463 0-.1300049-.1000366-.1300049-.2300415 0-.1199951.0600586-.2199707.1300049-.2199707zm-.7399903-.4700317c0 .2600098-.1199951.4700317-.2799683.4700317-.1600342 0-.2900391-.210022-.2900391-.4700317 0-.2599487.1300049-.4699707.2900391-.4699707.1599732 0 .2799683.210022.2799683.4699707zm0 1.5900268c0 .0999756-.039978.1900024-.0999756.1900024s-.1099854-.0900269-.1099854-.1900024.0499878-.1900024.1099854-.1900024.0999756.0900269.0999756.1900024zm-1.7099609 3.1900034-7.1600342 21.3499737c-.111618.307251-.5796318.1635857-.4799805-.1599731l7.1599731-21.3500347c.0499878-.1299438.1900024-.1999512.3200073-.1599731s.2000123.1900024.1600343.3200072zm-26.9745483 25.1704693c.0110569-.0217667.015377-.1640625.0137329-.1705322-.051899-.2217941-.3775711-.2730293-.4910889.0039063-2.0934277 4.0717659-3.7080421 6.8239632-8.0724497 8.1539307.6510439-1.2107811 1.0308828-2.6590767 1.1337891-3.734375.0191755-.2117157-.2202654-.3561592-.3955078-.2285156-1.0857849.7787933-2.4549646 1.4900513-3.6658325 1.9264526 1.8147402-2.097683 2.9812107-4.4929428 3.6209106-7.1246948l-.0046997-.0015259c.0012207-.0054321.0029907-.0107422.0042114-.0161743l.0043945.0010986c.0167236-.0700073.0006104-.1381226-.0354614-.1938477-.0099487-.0158691-.0315552-.0195313-.0448608-.0328979-.0308838-.0301514-.0584106-.0648804-.1032715-.0759888-.0013428-.0003052-.0024414.0009155-.0037842.0006104-.0021362-.0005493-.0028687-.0030518-.0050049-.00354-.1386719-.03125-.2685547.0556641-.2988281.1894531-.0087891.0390625-.0214844.0773926-.0305786.116394-.0015259.005188-.0042725.0101318-.0055542.0154419-.0014648.0066528-.0037842.0134277-.0053101.0200806l-1.5003052-.2057495c-.1399536-.0200195-.2299805-.1400146-.2099609-.2800293.0100098-.1300049.1399536-.2299805.2799683-.2099609l10.6600351 1.4799805c.3024082.0432587.2728958.4899902-.0300293.4899902h-.039978l-.7819214-.1052856c.0024414-.0046999.0049439-.0095217.0073853-.0142214zm1.6386718-37.9658189 6.5154419.5546265c-1.7974243 3.4183345-4.744812 5.0573115-8.7669067 4.8981318zm-2.4586792 5.9545894c4.3714294.2427387 7.6385555-1.6212759 9.5217285-5.353332l13.4445191 1.1444702c-1.0265045 3.852509.8002472 6.1337819 4.6054077 7.2713618l-7.6732178 21.6273193c-4.8578491.47052-7.9467163 2.6451416-9.1870728 6.4563599l-15.4332895-2.2766113c.6210327-1.8858032.5571289-3.6065063-.1934357-4.9804077-.7145233-1.3084717-2.0319672-2.255188-3.8097992-2.7580566zm11.218628 31.2210074c1.1838989-3.5379639 3.9667358-5.5014648 8.4909058-5.9988403l-2.3016357 6.4873047c-.0830078.2333984-.3251953.3808594-.5673828.3408203zm-20.1353159-9.6260987c1.6747437.4628906 2.9066162 1.3325806 3.5628662 2.5335083.6914063 1.2666016.7382813 2.8769531.1367188 4.6572266-.0012817.0037842.0018311.0072021.0007324.0109863l-6.2907715-.9279785zm-2.9387818 7.2658692c.1300049.6599731.460022 1.3499756.9400024 1.8199463-.2299805-.0299683-.4700317-.0699463-.7000122-.0999756.3200073.2600098.6300049.5200195.9500122.7800293h-.5499877c.5999756.5199585 1.4199829.8999634 2.1799927 1.1099854-.6900024-.0400391-1.4100342-.1000366-2.0100098-.4500122-1.0870285-.6153108-1.4794369-2.0371209-.8099976-3.1599732zm41.5709849-31.8407579-1.9763794 5.5705562c-3.5851631-1.0623226-5.2713089-3.093729-4.2611694-6.7558589l5.7902832.4929199c.3391304.02843.5612793.3689923.4472656.6923828zm-30.1542969-1.8935547c.4143066-.8250732 1.4584351-1.3108521 2.3897705-1.1626587l-14.0164194 33.9447618c-.8339233-.0477905-1.5426025.088501-2.0847168.3826294zm-12.3896494 38.0351548c-2.7632208-1.8130798-2.7297978-4.9203262.6963501-4.7560425-.9213867 1.2167969-.8858032 2.468689.1766357 3.5951538.2799683.3000488.6699829.5 1.0799561.5700073l2.6495972.4006348c-.3014441.768425-.4228354.9766884-.5227661 1.1816406l-2.5446167-.4083862c-.5800782-.0996093-1.0966797-.2958984-1.5351563-.5830078zm32.6367197 5.2578125c-.0712891.2060547-.28125.3349609-.4941406.2939453l-20.3905029-3.3085938c.260273-.4045601.4758911-.7541199.7540283-1.2443237l18.6168823 2.8103027c.2599487.039978.5099487-.1099854.5899658-.3599854l12-34.0599976c.0300293-.0800171.0200195-.1600342-.0200195-.2300415l-.123291-.1893921 1.9577026-.1337891z"/><path d="m21.4020538 28.5686016c.1879883-.048584.3759766-.097168.5639648-.145752-.6194458-.0510254-1.2206421-.2017822-1.7747803-.4449463.1677856.0053101.3355713.0106201.5033569.0158691-.3756714-.1295166-.696106-.3892822-.8861084-.7362671l-.2130127 1.0783081c1.5524292.7330933 3.1654053 1.3656616 4.9420776 1.5167236-2.8197611-1.156803 3.2475187 1.3195631-3.1354979-1.2839354z"/><path d="m33.1796417 29.9349957c.1355782.044363.2681961-.2807446.1332397-.3249512-.1355171-.0443917-.2681884.2807464-.1332397.3249512z"/><path d="m33.964798 29.7609844c.1353378.0443325.2705574-.286293.135437-.3305054-.0564575-.0184326-.2705307.2863007-.135437.3305054z"/><path d="m33.4430084 30.3979473c-.1230812.3001842.168396.3970757.2919922.0956421.1231384-.3003216-.1685753-.3968544-.2919922-.0956421z"/><path d="m18.8923492 21.491209c.288208 1.0158691.4616089 1.9514771.522583 2.8036499-.7205505-.0587826-1.4879055 1.0315933-.5344849 1.9381714-.017334.1107178-.0377808.2340088-.0625.3753662-.5781727.0499954-.9098434.6834888-.8328857 1.1636963.2365532 1.4818592 3.7428207 2.3297977 5.0957031 2.6503906 2.875.6826172 5.8857422 1.0712891 8.7041016 1.1240234.9392204.0157852 2.487442.0662441 3.203125-.4433594.3320313-.2363281.5683594-.7080078.5605469-1.1210938-.0045166-.2474976-.1148071-.4492188-.2737427-.6148071.043396-.1553955.0795898-.2947998.1090088-.4191284 1.1338081-.4771881 1.2331429-1.6082897.5826416-1.9526367.7410278-.845459 1.5379028-1.6421509 2.3936768-2.288147.4114113.3615742.8970528.4520512 1.3720093.333313 1.4613686-.3649426 1.8946228-2.4601002.6591797-3.2890625-1.0787392-.71525-2.5099449.1660004-2.5970459 1.5340576-2.0737152-.0239296-3.0580368.5115261-3.3062744.5792236-.3398438.1230469-.6113281.2304688-.8261719.3271484.7839355-2.3300781 1.864624-4.5813599 3.208313-6.710083.3469734.1847858.6959953.2413578 1.0866089.1407471 1.4640961-.3672276 1.8899498-2.4675722.6591797-3.2880869-1.265049-.8479614-2.9818611.5437479-2.5286865 2.1542978-2.7909546 1.3637695-5.3581543 3.31604-7.4605713 5.6835938-.2904053-1.6992798-.8417969-3.3228149-1.6287231-4.840271 1.4447861-1.2371464.4352512-3.5409212-1.257019-3.1235971-1.6974602.4266939-1.8973732 3.0455599-.196228 3.4875498-.0770874.7764282-.2040405 1.5361328-.3945923 2.2556152-.4435501 1.7171345-.8646965 2.4278965-1.4853516 3.2041016-.8353882-1.0928955-2.09375-2.0278931-3.5809326-2.6880493.4687576-1.2071781-.4908581-2.352663-1.5958252-2.0629272-.7841797.1953125-1.3232422 1.0371094-1.2001953 1.875.1124647.7747612.7739752 1.3620358 1.604553 1.2113037zm15.4447022 9.3754883c-.6526871.2147808-1.8904724.1910324-2.5424194.1798096-2.7841797-.0527344-5.7568359-.4365234-8.5986328-1.1103516-1.4040318-.33325-3.013689-.7333679-4.1821899-1.5596313.0769329-.4920731.2179909-1.2248516.3157349-1.7965088 2.6698933 1.7075138 8.8971786 2.4050083 12.0783691 2.6110229 1.0217972.0666389 2.4177513.1455212 3.4154053-.0704956-.1524545.5611515-.3786584 1.2764817-.4862672 1.7461548zm5.2183227-8.868042c.1992188 0 .390625.0576172.5576172.1689453.8621063.5757999.563694 2.1210575-.5019531 2.3886719-.2900391.0712891-.5810547.0234375-.8222656-.1367188-.963501-.6459026-.4451142-2.4208984.7666015-2.4208984zm-1.2177734-7.2490244c.857769.5729027.5672531 2.1203241-.5029297 2.3886728-.6409302.1553764-1.2105141-.2709999-1.3095703-.9472656-.1621551-1.1180839.9814682-1.9954281 1.8125-1.4414072zm-13.4648437 1.5205088c-.1606293-1.1060476.9709263-1.9982166 1.8125-1.4404306.864748.5797024.5553246 2.1231604-.5019531 2.3886728-.6194287.1527633-1.2084294-.2510948-1.3105469-.9482422zm-1.4267579 7.4355469c.0950241.1393681.2944927.1427708.3964844.0195313.8421688-.9937611 1.3147602-1.7928829 1.7910156-3.6464844.1984253-.7472534.3303223-1.5359497.4094849-2.3428955.1948757-.0161266.2715969-.0157681.5299683-.1310425.8311768 1.6139526 1.388916 3.3502808 1.6416016 5.1731567.029995.2142525.2998219.2920494.4384766.1279297 2.1161499-2.4934082 4.7520752-4.5459595 7.6325073-5.9570313.0537109.0847168.1137695.1644897.1812134.2370605-1.5072632 2.3805542-2.6890259 4.9158325-3.5031738 7.5412598 0 .0019531 0 .0029297-.0009766.0039063-.0924492.304409.3539276.4604263.4707031.1669922.1646118-.1948509 1.2308426-.5590076 1.3310547-.6015625 1.0574188-.4182968 1.9845619-.5280743 3.0687256-.5113525.0401001.1945801.1056519.3794556.2033081.5431519-1.5803223 1.1982422-2.9589233 2.8815308-4.1364746 4.4069214-.3221436.0198364-.6417236.0266724-.9373169.0241699-.5175781-.0039063-1.0351563-.0351563-1.5214844-.0664063-3.0876312-.2010212-8.9396667-.8574562-11.6105347-2.4040527.239624-1.3709106.0847778-3.0393066-.4672852-4.9698486.1830444-.105896.3421021-.2478027.4724121-.4168701 1.5438233.6771849 2.8253784 1.6618041 3.6102905 2.8034667zm-4.1582031-4.7041016c.21875.1464844.3632813.3857422.4052734.6748047.1313438.8924942-.7886734 1.6806622-1.5058594 1.2060547-.21875-.1474609-.3632813-.3867188-.4052734-.6748047-.1353664-.9321785.8169861-1.6653042 1.5058594-1.2060547z"/><path d="m26.8280182 25.1741314-.8636475-1.8031616s-1.3457031 1.7502441-1.3398438 1.809082l.9299316 1.6395874z"/><path d="m22.0981598 25.196104-.6320801-.7712402s-.4873657.9918823-.4779663 1.0195313l.647644.6851807z"/><path d="m34.1563873 26.546751s-1.0391846.293396-1.0560913.3200684l-.2006226.9960938.9800415-.2731323z"/><path d="m31.3668976 26.3103008-.3964844-2.0032349s-1.6842651 1.4229736-1.6924438 1.4830322l.4975586 1.8560791z"/><path d="m15.8852072 34.4360924c.9207773 1.5068359 1.2578745 3.3604736.9265757 5.0950317.7367554-1.0876465.963623-2.0126343.8251953-3.3190308-.1383667-1.3063965-.7518921-2.557251-1.7001963-3.4663696.5551767.4588623 1.3012705.6791382 2.0166636.5953369-1.328064-1.2409668-2.6561289-2.4819927-3.9841928-3.7229595.5072021.1005249 1.0144043.2010498 1.5216064.3015747-.703125-1.0309448-1.25-2.0231934-1.953064-3.0540771-.5878906 1.4738159-1.1757813 2.9476318-1.7637329 4.4214478 1.6947021.4965209 3.1903686 1.6422099 4.111145 3.1490459z"/><ellipse cx="38.264" cy="9.685" rx="1.187" ry=".86"/><path d="m40.8316193 12.2252169c.3456421 0 .6257935-.1461792.6257935-.3264771s-.2801514-.3264771-.6257935-.3264771c-.3455811 0-.6257324.1461792-.6257324.3264771s.2801513.3264771.6257324.3264771z"/><path d="m37.6759186 12.4177828c0 .1664429.1948242.3013306.4351807.3013306s.4352417-.1348877.4352417-.3013306-.1948853-.3013916-.4352417-.3013916-.4351807.1349487-.4351807.3013916z"/><path d="m11.966506 38.7936974c-.6395264-.395752-1.2892456-.7167969-1.928772-1.1124878.3513184.0665894.7026978.1331787 1.0540771.1997681-.3125-.3613892-.624939-.7227783-.937439-1.0841675.2572021.0806885.5143433.161438.7715454.2421265-.3253784-.8365479-.5487061-1.6826782-.8740845-2.5192261-.2702637 1.2962646-.7267456 2.5535889-1.3508911 3.7213745 1.0985109.1166381 2.1898195.3012695 3.2655641.5526123z"/><ellipse cx="46.152" cy="9.331" rx=".461" ry=".354"/><path d="m46.9519806 10.2781954c0-.0501099-.0406494-.0907593-.0907593-.0907593s-.0906982.0406494-.0906982.0907593c0 .1201324.1814575.1198826.1814575 0z"/><path d="m11.9574728 45.9273643c-.088623-.0556641-.1418457-.1798706-.0872803-.269165.0819702-.1342773.3082275-.0824585.4164429-.1966553.0733643-.0774536.0619507-.2073975.0031738-.2963867-.0587769-.0890503-.1533813-.1467896-.244873-.2016602.2017212.0386353.4034424.0772705.6051636.1158447-.1358032-.2497559-.2715454-.4995117-.4073486-.7492065.1046753.1011963.2094116.2024536.3141479.3037109-.0906982-.5518188-.2114868-1.0817261-.3022461-1.6335449-.307373 1.5519409-.9785156 3.0306396-1.9443359 4.2837524.944397-.4015503 1.8529663-.887207 2.7114258-1.4494019-.2510986.098877-.4905396.1356201-.7601318.147583-.1045533.0045778-.2154542.0007936-.3041383-.0548705z"/></g></svg>