<svg id="Layer_2" viewBox="0 0 64 64" xmlns="http://www.w3.org/2000/svg" data-name="Layer 2"><path d="m57.93 1.56c0-.31-.25-.56-.56-.56h-42.64c-4.77 0-8.65 3.88-8.65 8.65v49.4c0 2.18 1.77 3.95 3.95 3.95h47.35c.43 0 .72-.51.47-.87-1.46-2.13-1.16-4.19.08-6.41.03-.02 0-54.12 0-54.15zm-1.13 53.55h-41.51v-52.98h41.51zm-49.6-45.46c0-3.96 3.08-7.21 6.96-7.5v52.95h-4.15c-1.1 0-2.1.46-2.82 1.19v-46.64zm49.19 52.22h-46.37c-3.71-.09-3.72-5.54 0-5.64h46.39c-.92 1.9-.93 3.79-.01 5.64z"/><path d="m41.14 39.51c-1.25.59-2.58.95-3.96 1.08-.31.03-.54.3-.51.61.03.29.27.51.56.51 1.53-.13 3.01-.54 4.39-1.18.66-.31.19-1.33-.48-1.02z"/><path d="m47.64 33.54c-.28-.13-.62-.02-.75.27-.6 1.25-1.4 2.37-2.38 3.35-.22.22-.22.58 0 .8s.58.22.8 0c1.07-1.07 1.95-2.3 2.6-3.66.13-.28.02-.62-.26-.75z"/><path d="m33.08 40.27c-.93-.24-1.82-.58-2.66-1.03-.27-.15-.62-.04-.76.23-.15.28-.04.62.23.76.96.5 1.99.93 3.05 1.14.64.02.77-.97.14-1.11z"/><path d="m26.75 37.91c.56.41 1.62 1.95 2.31 1.19.18-.25.13-.6-.12-.79-3.08-2.25-4.93-5.88-4.91-9.7 0-6.63 5.39-12.02 12.02-12.02s12.02 5.39 12.02 12.02c0 .61-.05 1.23-.14 1.83-.05.31.16.6.47.64.3.05.6-.16.64-.47 1.27-7.86-5.03-15.22-13-15.15-11.59-.07-17.55 14.32-9.3 22.44z"/><path d="m45.05 28.62c0-.31-.25-.56-.56-.56h-7.88s0-6.38 0-6.38c0-.31-.25-.56-.56-.56s-.56.25-.56.56v6.94c0 .3.26.57.56.56h8.44c.31 0 .56-.25.56-.56z"/></svg>