<svg version="1.1" id="Capa_1" xmlns="http://www.w3.org/2000/svg" xmlns:xlink="http://www.w3.org/1999/xlink" x="0px" y="0px" viewBox="0 0 512 512" style="enable-background:new 0 0 512 512;" xml:space="preserve">
<g>
	<path style="fill:none;stroke:#000000;stroke-width:15;stroke-linecap:round;stroke-linejoin:round;stroke-miterlimit:10;" d="&#10;&#9;&#9;M162.812,101.748v97.658c0,5.523,4.477,10,10,10h135.312c5.523,0,10-4.477,10-10v-107"/>
	<path style="fill:none;stroke:#000000;stroke-width:15;stroke-linecap:round;stroke-linejoin:round;stroke-miterlimit:10;" d="&#10;&#9;&#9;M233.218,7.5h-60.406c-5.523,0-10,4.477-10,10v49.248"/>
	
		<line style="fill:none;stroke:#000000;stroke-width:15;stroke-linecap:round;stroke-linejoin:round;stroke-miterlimit:10;" x1="224.938" y1="69.625" x2="271.531" y2="69.625"/>
	
		<line style="fill:none;stroke:#000000;stroke-width:15;stroke-linecap:round;stroke-linejoin:round;stroke-miterlimit:10;" x1="193.875" y1="100.688" x2="287.062" y2="100.688"/>
	
		<line style="fill:none;stroke:#000000;stroke-width:15;stroke-linecap:round;stroke-linejoin:round;stroke-miterlimit:10;" x1="193.875" y1="131.75" x2="287.062" y2="131.75"/>
	
		<line style="fill:none;stroke:#000000;stroke-width:15;stroke-linecap:round;stroke-linejoin:round;stroke-miterlimit:10;" x1="193.875" y1="162.812" x2="256" y2="162.812"/>
	<path style="fill:none;stroke:#000000;stroke-width:15;stroke-linecap:round;stroke-linejoin:round;stroke-miterlimit:10;" d="&#10;&#9;&#9;M256,37.5c0-16.569-13.431-30-30-30h7.218c14.587,0,28.576,5.795,38.891,16.109l29.907,29.907&#10;&#9;&#9;c10.315,10.315,16.109,24.304,16.109,38.891v7.218c0-16.569-13.431-30-30-30H256V37.5z"/>
	
		<line style="fill:none;stroke:#000000;stroke-width:15;stroke-linecap:round;stroke-linejoin:round;stroke-miterlimit:10;" x1="54.094" y1="395.781" x2="116.219" y2="395.781"/>
	
		<line style="fill:none;stroke:#000000;stroke-width:15;stroke-linecap:round;stroke-linejoin:round;stroke-miterlimit:10;" x1="38.562" y1="426.844" x2="116.219" y2="426.844"/>
	
		<line style="fill:none;stroke:#000000;stroke-width:15;stroke-linecap:round;stroke-linejoin:round;stroke-miterlimit:10;" x1="38.562" y1="457.906" x2="85.156" y2="457.906"/>
	<path style="fill:none;stroke:#000000;stroke-width:15;stroke-linecap:round;stroke-linejoin:round;stroke-miterlimit:10;" d="&#10;&#9;&#9;M110.688,364.719c-5.523,0-10-4.477-10-10v-11.594c0-13.807-11.193-25-25-25h4.289c13.261,0,25.979,5.268,35.355,14.645&#10;&#9;&#9;l17.304,17.304c9.377,9.377,14.645,22.095,14.645,35.355v4.289c0-13.807-11.193-25-25-25H110.688z"/>
	
		<line style="fill:none;stroke:#000000;stroke-width:15;stroke-linecap:round;stroke-linejoin:round;stroke-miterlimit:10;" x1="147.281" y1="415.54" x2="147.281" y2="385.429"/>
	<path style="fill:none;stroke:#000000;stroke-width:15;stroke-linecap:round;stroke-linejoin:round;stroke-miterlimit:10;" d="&#10;&#9;&#9;M79.977,318.125H17.5c-5.523,0-10,4.477-10,10V494.5c0,5.523,4.477,10,10,10h119.781c5.523,0,10-4.477,10-10v-43.96"/>
	
		<line style="fill:none;stroke:#000000;stroke-width:15;stroke-linecap:round;stroke-linejoin:round;stroke-miterlimit:10;" x1="232.703" y1="395.781" x2="294.828" y2="395.781"/>
	
		<line style="fill:none;stroke:#000000;stroke-width:15;stroke-linecap:round;stroke-linejoin:round;stroke-miterlimit:10;" x1="217.172" y1="426.844" x2="294.828" y2="426.844"/>
	
		<line style="fill:none;stroke:#000000;stroke-width:15;stroke-linecap:round;stroke-linejoin:round;stroke-miterlimit:10;" x1="217.172" y1="457.906" x2="263.766" y2="457.906"/>
	<path style="fill:none;stroke:#000000;stroke-width:15;stroke-linecap:round;stroke-linejoin:round;stroke-miterlimit:10;" d="&#10;&#9;&#9;M289.297,364.719c-5.523,0-10-4.477-10-10v-11.594c0-13.807-11.193-25-25-25h4.289c13.261,0,25.979,5.268,35.355,14.645&#10;&#9;&#9;l17.304,17.304c9.377,9.377,14.645,22.095,14.645,35.355v4.289c0-13.807-11.193-25-25-25H289.297z"/>
	<path style="fill:none;stroke:#000000;stroke-width:15;stroke-linecap:round;stroke-linejoin:round;stroke-miterlimit:10;" d="&#10;&#9;&#9;M258.586,318.125h-62.477c-5.523,0-10,4.477-10,10V494.5c0,5.523,4.477,10,10,10h119.781c5.523,0,10-4.477,10-10V385.429"/>
	
		<line style="fill:none;stroke:#000000;stroke-width:15;stroke-linecap:round;stroke-linejoin:round;stroke-miterlimit:10;" x1="411.312" y1="395.781" x2="473.438" y2="395.781"/>
	
		<line style="fill:none;stroke:#000000;stroke-width:15;stroke-linecap:round;stroke-linejoin:round;stroke-miterlimit:10;" x1="395.781" y1="426.844" x2="473.438" y2="426.844"/>
	
		<line style="fill:none;stroke:#000000;stroke-width:15;stroke-linecap:round;stroke-linejoin:round;stroke-miterlimit:10;" x1="395.781" y1="457.906" x2="442.375" y2="457.906"/>
	<path style="fill:none;stroke:#000000;stroke-width:15;stroke-linecap:round;stroke-linejoin:round;stroke-miterlimit:10;" d="&#10;&#9;&#9;M467.906,364.719c-5.523,0-10-4.477-10-10v-11.594c0-13.807-11.193-25-25-25h4.289c13.261,0,25.979,5.268,35.355,14.645&#10;&#9;&#9;l17.304,17.304c9.377,9.377,14.645,22.095,14.645,35.355v4.289c0-13.807-11.193-25-25-25H467.906z"/>
	<path style="fill:none;stroke:#000000;stroke-width:15;stroke-linecap:round;stroke-linejoin:round;stroke-miterlimit:10;" d="&#10;&#9;&#9;M437.196,318.125h-62.477c-5.523,0-10,4.477-10,10V494.5c0,5.523,4.477,10,10,10H494.5c5.523,0,10-4.477,10-10V385.429"/>
	<path style="fill:none;stroke:#000000;stroke-width:15;stroke-linecap:round;stroke-linejoin:round;stroke-miterlimit:10;" d="&#10;&#9;&#9;M69.625,318.125V266c0-5.523,4.477-10,10-10h337.219c5.523,0,10,4.477,10,10v52.125"/>
	
		<line style="fill:none;stroke:#000000;stroke-width:15;stroke-linecap:round;stroke-linejoin:round;stroke-miterlimit:10;" x1="240.469" y1="209.406" x2="240.469" y2="318.125"/>
	<path style="fill:none;stroke:#000000;stroke-width:15;stroke-linecap:round;stroke-linejoin:round;stroke-miterlimit:10;" d="&#10;&#9;&#9;M355.384,177.603c-8.068-19.565-20.987-36.619-37.259-49.663"/>
	<path style="fill:none;stroke:#000000;stroke-width:15;stroke-linecap:round;stroke-linejoin:round;stroke-miterlimit:10;" d="&#10;&#9;&#9;M296.857,335.685c40.279-20.549,67.862-62.427,67.862-110.747c0-4.407-0.229-8.761-0.677-13.05"/>
	<path style="fill:none;stroke:#000000;stroke-width:15;stroke-linecap:round;stroke-linejoin:round;stroke-miterlimit:10;" d="&#10;&#9;&#9;M162.812,127.94c-28.405,22.771-46.594,57.76-46.594,96.998c0,49.127,28.512,91.595,69.891,111.759"/>
</g>
<g>
</g>
<g>
</g>
<g>
</g>
<g>
</g>
<g>
</g>
<g>
</g>
<g>
</g>
<g>
</g>
<g>
</g>
<g>
</g>
<g>
</g>
<g>
</g>
<g>
</g>
<g>
</g>
<g>
</g>
</svg>