<svg id="Layer_1" enable-background="new 0 0 512 512" height="512" viewBox="0 0 512 512" width="512" xmlns="http://www.w3.org/2000/svg"><path d="m475.08 268.92h-438.16c-4.418 0-8 3.582-8 8v29.649c0 3.31 2.038 6.277 5.126 7.466l32.415 12.478c4.522 17.32 11.388 33.884 20.457 49.346l-14.107 31.763c-1.344 3.024-.686 6.563 1.654 8.904l41.931 41.931c2.34 2.34 5.88 2.996 8.904 1.654l31.774-14.112c15.468 9.069 32.025 15.934 49.331 20.451l12.48 32.424c1.188 3.088 4.156 5.126 7.466 5.126h59.297c3.31 0 6.277-2.038 7.466-5.126l12.477-32.414c17.318-4.52 33.881-11.387 49.346-20.458l31.763 14.109c3.024 1.345 6.564.686 8.904-1.655l41.93-41.932c2.34-2.34 2.998-5.879 1.654-8.903l-14.112-31.774c9.069-15.467 15.934-32.023 20.452-49.331l32.425-12.48c3.088-1.188 5.126-4.156 5.126-7.466v-29.65c.001-4.418-3.58-8-7.999-8zm-119.085 16c-4.09 51.587-47.375 92.314-99.995 92.314-52.621 0-95.906-40.727-99.996-92.314zm111.085 16.156-31.179 12.002c-2.461.947-4.298 3.048-4.909 5.613-4.407 18.518-11.717 36.149-21.727 52.406-1.383 2.246-1.57 5.03-.499 7.441l13.571 30.557-34.162 34.163-30.545-13.568c-2.413-1.072-5.197-.884-7.443.5-16.253 10.012-33.889 17.323-52.419 21.731-2.566.611-4.667 2.447-5.614 4.909l-11.998 31.17h-48.312l-12.001-31.179c-.947-2.462-3.048-4.298-5.614-4.908-18.516-4.406-36.147-11.716-52.406-21.727-2.247-1.384-5.032-1.57-7.441-.499l-30.556 13.571-34.163-34.162 13.566-30.545c1.071-2.411.884-5.195-.5-7.442-10.008-16.249-17.319-33.887-21.73-52.421-.611-2.565-2.447-4.666-4.909-5.613l-31.17-11.998v-16.157h95.045c4.125 60.418 54.588 108.315 116.035 108.315 61.446 0 111.909-47.896 116.034-108.314h95.046zm-184.691-193.892c-4.418 0-8 3.582-8 8v132.089c0 4.418 3.582 8 8 8h36.634c4.418 0 8-3.582 8-8v-132.089c0-4.418-3.582-8-8-8zm28.634 132.089h-20.634v-116.089h20.634zm49.394-107.105c-4.418 0-8 3.582-8 8v107.104c0 4.418 3.582 8 8 8h36.635c4.418 0 8-3.582 8-8v-107.104c0-4.418-3.582-8-8-8zm28.635 107.105h-20.635v-91.104h20.635zm86.028-180.145h-36.635c-4.418 0-8 3.582-8 8v180.144c0 4.418 3.582 8 8 8h36.635c4.418 0 8-3.582 8-8v-180.144c0-4.418-3.581-8-8-8zm-8 180.144h-20.635v-164.144h20.635zm-262.719 16h36.634c4.418 0 8-3.582 8-8v-70.281c0-4.418-3.582-8-8-8h-36.634c-4.418 0-8 3.582-8 8v70.281c0 4.418 3.581 8 8 8zm8-70.281h20.634v54.281h-20.634zm3.945-74.072c-2.672-3.519-1.985-8.537 1.534-11.209l78.028-59.247c2.295-1.744 5.351-2.117 7.998-.979l73.297 31.518 51.582-46.927-8.359.03c-.01 0-.02 0-.029 0-4.405 0-7.983-3.562-8-7.971-.016-4.419 3.553-8.014 7.971-8.029l29.153-.105h.029c2.388 0 4.652 1.067 6.172 2.91 1.526 1.851 2.142 4.288 1.676 6.642l-5.653 28.599c-.753 3.811-4.097 6.449-7.839 6.45-.515 0-1.036-.051-1.56-.154-4.334-.856-7.154-5.064-6.297-9.399l.952-4.814-52.841 48.072c-2.321 2.11-5.662 2.67-8.543 1.432l-73.747-31.712-74.314 56.427c-1.446 1.099-3.146 1.629-4.832 1.629-2.416 0-4.804-1.09-6.378-3.163zm-179.386 144.354h144.399c2.27 0 4.433-.964 5.95-2.652s2.246-3.942 2.004-6.199c-3.308-30.91-23.693-56.085-51.213-66.621 9.642-8.208 15.776-20.422 15.776-34.048 0-24.656-20.06-44.716-44.716-44.716-24.657 0-44.717 20.06-44.717 44.716 0 13.626 6.133 25.839 15.776 34.048-27.52 10.535-47.906 35.711-51.214 66.621-.242 2.258.487 4.511 2.004 6.199s3.681 2.652 5.951 2.652zm43.484-109.521c0-15.834 12.882-28.716 28.717-28.716 15.834 0 28.716 12.882 28.716 28.716 0 15.828-12.871 28.706-28.696 28.716-.007 0-.014 0-.021 0s-.013 0-.02 0c-15.825-.01-28.696-12.887-28.696-28.716zm28.695 44.717h.021.021c30.053.01 55.58 20.444 62.655 48.804h-125.354c7.076-28.361 32.603-48.795 62.657-48.804z"/></svg>