<svg id="Layer_1" enable-background="new 0 0 512 512" viewBox="0 0 512 512" xmlns="http://www.w3.org/2000/svg"><path d="m328.02 10.99c-95.39 0-173 77.61-173 173 0 37.67 12.11 72.56 32.63 101l-58.35 58.35c-8.54-2.58-18.21-.51-24.95 6.24l-81.35 81.34c-16.01 16.01-16.01 42.07 0 58.08 8.01 8.01 18.52 12.01 29.04 12.01s21.03-4 29.04-12.01l81.35-81.35c4.71-4.71 7.31-10.99 7.31-17.68 0-2.5-.36-4.95-1.07-7.28l58.35-58.35c28.44 20.52 63.33 32.63 101 32.63 95.39 0 173-77.61 173-173-.01-95.38-77.61-172.98-173-172.98zm-172.66 389.59-81.35 81.35c-12.11 12.11-31.83 12.11-43.94 0s-12.11-31.83 0-43.94l81.35-81.35c5.85-5.85 15.36-5.85 21.21 0l22.73 22.73c5.85 5.85 5.85 15.36 0 21.21zm8.27-26.98c-.39-.44-.78-.88-1.2-1.3l-22.73-22.73c-.42-.42-.86-.82-1.3-1.2l55.38-55.38c7.52 9.25 15.98 17.7 25.23 25.23zm164.39-26.62c-89.88 0-163-73.12-163-163s73.12-163 163-163 163 73.12 163 163-73.13 163-163 163zm0-294.17c-72.33 0-131.17 58.85-131.17 131.18s58.84 131.17 131.17 131.17 131.17-58.84 131.17-131.17c0-72.34-58.84-131.18-131.17-131.18zm0 252.35c-66.82 0-121.17-54.36-121.17-121.17 0-66.82 54.36-121.18 121.17-121.18s121.17 54.36 121.17 121.18c0 66.81-54.36 121.17-121.17 121.17zm0-163.24c-23.19 0-42.06 18.87-42.06 42.06s18.87 42.06 42.06 42.06 42.06-18.87 42.06-42.06-18.87-42.06-42.06-42.06zm0 74.13c-17.68 0-32.06-14.38-32.06-32.06s14.38-32.06 32.06-32.06 32.06 14.38 32.06 32.06-14.39 32.06-32.06 32.06zm92.34-42.46c-.78-6.99-6.22-12.29-13.23-12.89l-12.72-1.08c-1.97-.17-2.77-1.59-3.02-2.19s-.7-2.17.56-3.69l8.15-9.82c4.49-5.41 4.53-13 .1-18.46-4.22-5.2-9.01-9.95-14.24-14.13-5.5-4.39-13.09-4.29-18.46.25l-9.75 8.23c-1.51 1.28-3.08.84-3.69.59-.6-.25-2.03-1.04-2.21-3.01l-1.18-12.71c-.65-7-5.99-12.4-12.99-13.13-6.65-.69-13.4-.66-20.05.08-6.99.78-12.29 6.22-12.89 13.23l-1.08 12.72c-.17 1.97-1.59 2.77-2.19 3.02s-2.17.7-3.69-.56l-9.82-8.15c-5.41-4.49-13.01-4.53-18.46-.1-5.2 4.22-9.95 9.01-14.13 14.24-4.39 5.49-4.28 13.09.25 18.46l8.23 9.75c1.28 1.51.84 3.08.59 3.69s-1.04 2.03-3.01 2.21l-12.71 1.18c-7 .65-12.4 5.99-13.13 12.98-.69 6.65-.67 13.4.08 20.05.78 6.99 6.22 12.29 13.23 12.89l12.72 1.08c1.97.17 2.77 1.59 3.02 2.19s.7 2.17-.56 3.69l-8.15 9.82c-4.49 5.41-4.53 13-.1 18.46 4.22 5.2 9.01 9.95 14.24 14.13 5.49 4.39 13.09 4.28 18.46-.25l9.75-8.23c1.51-1.28 3.08-.84 3.69-.59.6.25 2.03 1.04 2.21 3.01l1.18 12.71c.65 7 5.99 12.4 12.98 13.13 3.21.33 6.44.5 9.67.5 3.47 0 6.94-.19 10.38-.58 6.99-.78 12.29-6.22 12.89-13.23l1.08-12.72c.17-1.97 1.59-2.77 2.19-3.02s2.17-.7 3.69.56l9.82 8.15c5.41 4.49 13 4.53 18.46.1 5.2-4.22 9.95-9.01 14.13-14.24 4.39-5.49 4.29-13.09-.25-18.46l-8.22-9.75c-1.28-1.51-.84-3.08-.59-3.69s1.04-2.03 3-2.21l12.71-1.18c7-.65 12.4-5.99 13.13-12.98.7-6.65.67-13.39-.07-20.05zm-9.87 19.02c-.23 2.22-1.88 3.85-4.11 4.06l-12.71 1.18c-5.07.47-9.41 3.68-11.33 8.38s-1.08 10.03 2.2 13.92l8.22 9.75c1.44 1.71 1.47 4.03.08 5.77-3.73 4.67-7.97 8.95-12.62 12.72-1.73 1.41-4.05 1.4-5.77-.03l-9.82-8.15c-3.92-3.25-9.26-4.05-13.94-2.09s-7.86 6.33-8.29 11.4l-1.08 12.72c-.19 2.23-1.81 3.89-4.03 4.14-5.94.66-11.97.68-17.91.07-2.22-.23-3.85-1.88-4.06-4.11l-1.18-12.71c-.47-5.07-3.68-9.41-8.38-11.33-1.67-.68-3.42-1.02-5.15-1.02-3.15 0-6.26 1.1-8.77 3.22l-9.75 8.22c-1.71 1.44-4.03 1.47-5.77.08-4.67-3.73-8.95-7.97-12.72-12.62-1.41-1.73-1.4-4.06.03-5.77l8.15-9.82c3.25-3.92 4.05-9.26 2.09-13.94s-6.33-7.86-11.4-8.29l-12.72-1.08c-2.23-.19-3.89-1.81-4.14-4.03-.66-5.94-.68-11.97-.07-17.91.23-2.22 1.88-3.85 4.11-4.06l12.71-1.18c5.07-.47 9.41-3.68 11.33-8.38s1.08-10.03-2.2-13.92l-8.23-9.75c-1.44-1.71-1.47-4.03-.08-5.77 3.73-4.67 7.98-8.95 12.62-12.72 1.73-1.41 4.06-1.4 5.77.03l9.82 8.15c3.92 3.25 9.26 4.05 13.94 2.09s7.86-6.33 8.29-11.4l1.08-12.72c.19-2.23 1.81-3.89 4.03-4.14 5.94-.66 11.97-.69 17.91-.07 2.22.23 3.85 1.88 4.06 4.11l1.18 12.71c.47 5.07 3.68 9.41 8.38 11.33s10.03 1.08 13.92-2.2l9.75-8.23c1.71-1.44 4.03-1.47 5.77-.08 4.67 3.73 8.95 7.97 12.72 12.62 1.41 1.73 1.4 4.06-.03 5.77l-8.15 9.82c-3.25 3.92-4.05 9.26-2.09 13.94s6.33 7.86 11.4 8.29l12.72 1.08c2.23.19 3.89 1.81 4.14 4.03.68 5.96.7 11.98.08 17.92z"/></svg>