<svg id="Layer_1" enable-background="new 0 0 500 500" viewBox="0 0 500 500" xmlns="http://www.w3.org/2000/svg"><path clip-rule="evenodd" d="m129.456 198.837c0 6.174 5.145 11.27 11.27 11.27h55.372c7.595 0 14.21 3.724 18.131 10.143l10.78 18.057 10.78-18.057c3.92-6.419 10.535-10.143 18.13-10.143h55.372c6.125 0 11.27-5.096 11.27-11.27v-95.479c0-6.248-5.145-11.344-11.27-11.344h-29.401l20.091 34.62c6.666 11.95-1.814 26.681-15.435 26.681-5.925 0-8.977-2.586-9.8-2.818-17.151-.711-36.751 1.494-57.822 6.248l12.495 21.487c3.689 6.49 1.075 14.678-4.9 18.13l-6.125 3.455c-6.131 3.642-14.515 1.44-18.13-4.851l-16.661-29.156c-1.47.171-2.695.27-4.165.27-9.31 0-17.886-4.851-23.031-13.377l-.245-.711c-6.37-11.001-4.165-24.574 5.145-33.125 9.8-8.894 18.62-17.885 26.706-26.853h-47.286c-6.125 0-11.27 5.096-11.27 11.344v95.479zm135.489-61.644c-24.256.441-51.942 5.537-81.097 14.97-6.125 2.034-12.74-.539-15.925-6.076l-.245-.711c-3.43-5.537-2.205-12.422 2.45-16.734 22.786-20.605 41.161-42.092 53.656-62.697zm-68.357 24.917c2.45-.686 4.655-1.396 7.105-2.009l14.211 24.819-6.125 3.455zm34.301-110.082c-1.225-2.131-.49-4.949 1.715-6.272 1.923-1.022 4.87-.599 6.125 1.691l49.736 85.777c.49 1.054.735 2.303.49 3.528-.49 1.151-1.225 2.107-2.205 2.72-1.991 1.269-4.944.601-6.125-1.666zm-114.663 146.809v-95.479c0-13.549 11.025-24.574 24.501-24.574h58.067c7.35-9.506 13.475-18.915 18.376-28.078-.245-6.444 2.94-12.863 8.82-16.293 8.575-4.949 19.356-2.034 24.256 6.419l22.051 37.951h36.996c13.475 0 24.501 11.025 24.501 24.574v95.479c0 13.475-11.025 24.501-24.501 24.501h-55.373c-2.94 0-5.39 1.323-6.615 3.773l-16.66 27.49c-2.473 3.992-8.538 4.412-11.27 0l-16.661-27.49c-1.47-2.45-3.675-3.773-6.615-3.773h-55.372c-13.476 0-24.501-11.025-24.501-24.5zm130.589 219.306h-161.705c-3.675 0-6.615 3.014-6.615 6.615 0 3.626 2.94 6.615 6.615 6.615h161.705c3.675 0 6.615-2.989 6.615-6.615 0-3.602-2.94-6.615-6.615-6.615zm0-36.531h-161.705c-3.675 0-6.615 2.891-6.615 6.591 0 3.626 2.94 6.615 6.615 6.615h161.705c3.675 0 6.615-2.989 6.615-6.615 0-3.7-2.94-6.591-6.615-6.591zm0-36.653h-161.705c-3.675 0-6.615 3.013-6.615 6.615 0 3.601 2.94 6.59 6.615 6.59h161.705c3.675 0 6.615-2.989 6.615-6.59s-2.94-6.615-6.615-6.615zm-161.705-23.423h161.705c3.675 0 6.615-2.916 6.615-6.591 0-3.626-2.94-6.615-6.615-6.615h-161.705c-3.675 0-6.615 2.989-6.615 6.615 0 3.676 2.94 6.591 6.615 6.591zm275.878 93.887c0-7.399-5.88-13.377-13.476-13.377-7.105 0-13.23 5.978-13.23 13.377s6.125 13.402 13.23 13.402c7.596 0 13.476-6.003 13.476-13.402zm13.231 0c0 14.627-12.006 26.608-26.706 26.608-14.455 0-26.461-11.981-26.461-26.608 0-14.7 12.005-26.583 26.461-26.583 14.7 0 26.706 11.883 26.706 26.583zm-22.296-78.206c0-2.475-1.96-4.41-4.41-4.41-2.205 0-4.165 1.935-4.165 4.41 0 2.376 1.96 4.312 4.165 4.312 2.45 0 4.41-1.936 4.41-4.312zm13.23 0c0 9.604-7.84 17.518-17.641 17.518-9.555 0-17.395-7.914-17.395-17.518 0-9.678 7.84-17.616 17.395-17.616 9.801 0 17.641 7.938 17.641 17.616zm8.821 0c0 14.431-12.005 26.167-26.461 26.167-14.455 0-25.971-11.736-25.971-26.167 0-14.529 11.515-26.265 25.971-26.265 14.455 0 26.461 11.736 26.461 26.265zm13.23 0c0 21.658-17.886 39.373-39.691 39.373-21.561 0-39.201-17.714-39.201-39.373 0-21.757 17.641-39.471 39.201-39.471 21.806 0 39.691 17.714 39.691 39.471zm12.741-42.901v151.145c0 5.096-4.165 9.335-9.065 9.335h-95.553v-169.815h95.553c4.899 0 9.065 4.141 9.065 9.335zm-340.806 160.48c-5.145 0-9.31-4.239-9.31-9.335v-151.145c0-5.194 4.165-9.335 9.31-9.335h222.957v169.815zm298.909-183.021h18.376v-84.92h-18.376zm0-111.429v13.304h18.376v-13.304c0-5.096-4.165-9.335-9.31-9.335-5.146 0-9.066 4.239-9.066 9.335zm55.127 133.97v151.145c0 12.422-10.045 22.541-22.296 22.541h-331.74c-12.25 0-22.541-10.119-22.541-22.541v-151.145c0-12.422 10.29-22.541 22.541-22.541h285.679v-111.429c0-12.398 10.045-22.541 22.296-22.541 12.495 0 22.541 10.143 22.541 22.541v111.429h1.225c12.25 0 22.295 10.119 22.295 22.541zm-46.061-193.335c32.831 0 59.537 26.706 59.537 59.365 0 3.626-3.185 6.615-6.615 6.615-3.675 0-6.615-2.989-6.615-6.615 0-25.432-20.826-46.135-46.306-46.135-3.43 0-6.615-2.916-6.615-6.615-.002-3.602 3.183-6.615 6.614-6.615zm96.288 59.365c0 3.626-2.94 6.615-6.615 6.615s-6.615-2.989-6.615-6.615c0-45.694-37.241-82.886-83.058-82.886-3.43 0-6.615-2.989-6.615-6.591 0-3.7 3.185-6.615 6.615-6.615 53.166 0 96.288 43.072 96.288 96.092z" fill="rgb(0,0,0)" fill-rule="evenodd"/></svg>