<svg clip-rule="evenodd" fill-rule="evenodd" stroke-linejoin="round" stroke-miterlimit="2" viewBox="0 0 510 510" xmlns="http://www.w3.org/2000/svg"><path d="m186.698 386.181h-103.133c-18.458 0-33.419-14.961-33.419-33.418v-211.255c0-16.082 11.357-29.51 26.489-32.701-.167-1.413-.253-29.398-.253-29.398 0-20.064 16.29-36.354 36.354-36.354h74.233c20.065 0 36.355 16.29 36.355 36.354 0 0-.06 27.498-.176 28.679h37.858c-3.757-7.271-5.879-15.52-5.879-24.262v-22.942c0-29.233 23.733-52.967 52.967-52.967h98.876c29.233 0 52.967 23.734 52.967 52.967v22.942c0 20.234-11.37 37.833-28.063 46.751.19 1.28.289 2.59.289 3.923v218.263c0 18.457-14.96 33.418-33.42 33.418h-103.196c1.574 26.12 7.408 48.314 13.552 65.431h30.267c13.829 0 25.166 11.327 25.166 25.194s-11.337 25.194-25.166 25.194h-194.501c-13.865 0-25.194-11.33-25.194-25.194s11.329-25.194 25.194-25.194h33.192c5.164-17.133 8.402-39.33 8.641-65.431zm-105.687-263.927c-9.518 1.251-16.865 9.394-16.865 19.254v180.501h354.017v-186.403c-3.608.778-7.353 1.187-11.193 1.187h-31.176l-29.878 40.282c-1.336 1.801-3.446 2.863-5.689 2.863s-4.353-1.062-5.689-2.863l-29.964-40.397c-12.803-.842-24.371-6.241-33.093-14.59h-52.695c-5.087 9.173-14.027 15.921-24.628 18.052l-20.31 36.182c-1.254 2.234-3.616 3.616-6.177 3.616s-4.923-1.382-6.177-3.616l-19.91-35.469h-28.848c-13.618 0-25.497-7.504-31.725-18.599zm219.358 157.837c0 8.143-5.209 15.179-14.644 20.064-10.812 5.6-27.675 8.572-44.57 8.572-16.896 0-33.758-2.972-44.571-8.572-9.435-4.885-14.644-11.921-14.644-20.064 0-32.696 26.505-59.203 59.215-59.203 32.695 0 59.214 26.507 59.214 59.203zm-14.013 0c0-24.957-20.244-45.189-45.201-45.189-24.968 0-45.202 20.232-45.202 45.189 0 3.409 3.125 5.575 7.075 7.621 9.235 4.782 23.697 7.001 38.127 7.001 14.429 0 28.891-2.219 38.126-7.001 3.95-2.046 7.075-4.212 7.075-7.621zm-45.201-138.884c18.686 0 33.856 15.171 33.856 33.857s-15.17 33.857-33.856 33.857-33.857-15.171-33.857-33.857 15.171-33.857 33.857-33.857zm0 14.167c-10.868 0-19.69 8.823-19.69 19.69s8.822 19.69 19.69 19.69c10.867 0 19.69-8.823 19.69-19.69s-8.823-19.69-19.69-19.69zm-177.009 180.635v16.754c0 10.725 8.694 19.418 19.419 19.418h315.178c10.727 0 19.42-8.693 19.42-19.418v-16.754zm176.563 27.029c-5.699 0-10.326-4.627-10.326-10.327 0-5.699 4.627-10.327 10.326-10.327 5.7 0 10.327 4.628 10.327 10.327 0 5.7-4.627 10.327-10.327 10.327zm40.814 23.143h-80.825c-.23 25.699-3.267 47.83-8.079 65.431h101.657c-5.942-17.614-11.295-39.748-12.753-65.431zm-92.491-259.589c11.282-1.038 20.125-10.542 20.125-22.093v-25.09c0-12.245-9.942-22.187-22.188-22.187h-74.233c-12.246 0-22.188 9.942-22.188 22.187v25.09c0 12.245 9.942 22.187 22.188 22.187h32.995c2.561 0 4.923 1.383 6.176 3.616l15.764 28.083 15.834-28.207c1.14-2.032 3.207-3.372 5.527-3.586zm-76.607-40.625c-3.863 0-7-3.137-7-7 0-3.864 3.137-7 7-7h13.037c3.863 0 7 3.136 7 7 0 3.863-3.137 7-7 7zm39.53 0c-3.863 0-7-3.137-7-7 0-3.864 3.137-7 7-7h35.325c3.864 0 7 3.136 7 7 0 3.863-3.136 7-7 7zm-39.53 26.704c-3.863 0-7-3.137-7-7 0-3.864 3.137-7 7-7h74.855c3.864 0 7 3.136 7 7 0 3.863-3.136 7-7 7zm32.44 352.941c-6.16 0-11.194 5.034-11.194 11.194s5.034 11.194 11.194 11.194h194.501c6.14 0 11.166-5.037 11.166-11.194s-5.026-11.194-11.166-11.194zm163.229-342.984c.034-.001.068-.004.103-.001 3.249.203 5.717 2.863 5.717 2.863l26.313 35.475 26.313-35.475c1.336-1.801 3.446-2.863 5.689-2.863h34.741c21.415 0 38.801-17.386 38.801-38.801v-22.942c0-21.415-17.386-38.801-38.801-38.801h-98.876c-21.415 0-38.801 17.386-38.801 38.801v22.942c0 21.415 17.386 38.801 38.801 38.801zm-4.739-40.939c-3.864 0-7-3.137-7-7 0-3.864 3.136-7 7-7h29.979c3.864 0 7 3.136 7 7 0 3.863-3.136 7-7 7zm6.128-27.105c-3.864 0-7-3.137-7-7s3.136-7 7-7h96.098c3.864 0 7 3.137 7 7s-3.136 7-7 7zm53.42 27.105c-3.864 0-7-3.137-7-7 0-3.864 3.136-7 7-7h55.852c3.863 0 7 3.136 7 7 0 3.863-3.137 7-7 7zm-60.812 27.104c-3.864 0-7-3.136-7-7 0-3.863 3.136-7 7-7h110.882c3.864 0 7 3.137 7 7 0 3.864-3.136 7-7 7z"/></svg>