<?xml version="1.0" encoding="UTF-8" standalone="no"?>
<!-- Created with Inkscape (http://www.inkscape.org/) -->

<svg
   version="1.1"
   id="svg4179"
   xml:space="preserve"
   width="682.66669"
   height="682.66669"
   viewBox="0 0 682.66669 682.66669"
   xmlns="http://www.w3.org/2000/svg"
   xmlns:svg="http://www.w3.org/2000/svg"><defs
     id="defs4183"><clipPath
       clipPathUnits="userSpaceOnUse"
       id="clipPath4193"><path
         d="M 0,512 H 512 V 0 H 0 Z"
         id="path4191" /></clipPath></defs><g
     id="g4185"
     transform="matrix(1.3333333,0,0,-1.3333333,0,682.66667)"><g
       id="g4187"><g
         id="g4189"
         clip-path="url(#clipPath4193)"><g
           id="g4195"
           transform="translate(75.875,351.5273)"><path
             d="m 0,0 -41.824,11.207 c -0.915,0.245 -1.551,1.074 -1.551,2.022 V 49.33 c 0,1.376 1.305,2.378 2.634,2.022 L 153.574,-0.715 c 0.915,-0.245 1.551,-1.074 1.551,-2.021 v -36.102 c 0,-1.376 -1.305,-2.378 -2.634,-2.021 L 34.101,-9.138"
             style="fill:none;stroke:#000000;stroke-width:15;stroke-linecap:round;stroke-linejoin:round;stroke-miterlimit:10;stroke-dasharray:none;stroke-opacity:1"
             id="path4197" /></g><g
           id="g4199"
           transform="translate(166.1528,297.3379)"><path
             d="M 0,0 -68.806,18.437"
             style="fill:none;stroke:#000000;stroke-width:15;stroke-linecap:round;stroke-linejoin:round;stroke-miterlimit:10;stroke-dasharray:none;stroke-opacity:1"
             id="path4201" /></g><g
           id="g4203"
           transform="translate(34.0513,214.0049)"><path
             d="m 0,0 82.564,-22.123 c 1.33,-0.356 2.635,0.645 2.635,2.021 v 73.796 c 0,0.948 -0.636,1.777 -1.552,2.022 L 1.083,77.839 c -1.329,0.356 -2.634,-0.646 -2.634,-2.022 V 2.021 C -1.551,1.074 -0.915,0.245 0,0 Z"
             style="fill:none;stroke:#000000;stroke-width:15;stroke-linecap:round;stroke-linejoin:round;stroke-miterlimit:10;stroke-dasharray:none;stroke-opacity:1"
             id="path4205" /></g><g
           id="g4207"
           transform="translate(231,239.3623)"><path
             d="M 0,0 -61.291,16.423"
             style="fill:none;stroke:#000000;stroke-width:15;stroke-linecap:round;stroke-linejoin:round;stroke-miterlimit:10;stroke-dasharray:none;stroke-opacity:1"
             id="path4209" /></g><g
           id="g4211"
           transform="translate(144.25,184.4775)"><path
             d="M 0,0 61.291,-16.423"
             style="fill:none;stroke:#000000;stroke-width:15;stroke-linecap:round;stroke-linejoin:round;stroke-miterlimit:10;stroke-dasharray:none;stroke-opacity:1"
             id="path4213" /></g><g
           id="g4215"
           transform="translate(231,213.3193)"><path
             d="M 0,0 -86.75,23.244"
             style="fill:none;stroke:#000000;stroke-width:15;stroke-linecap:round;stroke-linejoin:round;stroke-miterlimit:10;stroke-dasharray:none;stroke-opacity:1"
             id="path4217" /></g><g
           id="g4219"
           transform="translate(144.25,210.5205)"><path
             d="M 0,0 86.75,-23.245"
             style="fill:none;stroke:#000000;stroke-width:15;stroke-linecap:round;stroke-linejoin:round;stroke-miterlimit:10;stroke-dasharray:none;stroke-opacity:1"
             id="path4221" /></g><g
           id="g4223"
           transform="translate(228.3657,58.8096)"><path
             d="m 0,0 -82.564,22.123 c -0.915,0.245 -1.552,1.074 -1.552,2.022 V 97.94 c 0,1.376 1.305,2.378 2.635,2.022 L 1.083,77.839 C 1.998,77.594 2.634,76.765 2.634,75.817 V 2.021 C 2.634,0.645 1.329,-0.356 0,0 Z"
             style="fill:none;stroke:#000000;stroke-width:15;stroke-linecap:round;stroke-linejoin:round;stroke-miterlimit:10;stroke-dasharray:none;stroke-opacity:1"
             id="path4225" /></g><g
           id="g4227"
           transform="translate(32.5,189.4209)"><path
             d="M 0,0 86.75,-23.245"
             style="fill:none;stroke:#000000;stroke-width:15;stroke-linecap:round;stroke-linejoin:round;stroke-miterlimit:10;stroke-dasharray:none;stroke-opacity:1"
             id="path4229" /></g><g
           id="g4231"
           transform="translate(88.647,96.2471)"><path
             d="M 0,0 -56.147,15.044"
             style="fill:none;stroke:#000000;stroke-width:15;stroke-linecap:round;stroke-linejoin:round;stroke-miterlimit:10;stroke-dasharray:none;stroke-opacity:1"
             id="path4233" /></g><g
           id="g4235"
           transform="translate(32.5,163.377)"><path
             d="M 0,0 86.75,-23.244"
             style="fill:none;stroke:#000000;stroke-width:15;stroke-linecap:round;stroke-linejoin:round;stroke-miterlimit:10;stroke-dasharray:none;stroke-opacity:1"
             id="path4237" /></g><g
           id="g4239"
           transform="translate(119.25,114.0898)"><path
             d="M 0,0 -86.75,23.244"
             style="fill:none;stroke:#000000;stroke-width:15;stroke-linecap:round;stroke-linejoin:round;stroke-miterlimit:10;stroke-dasharray:none;stroke-opacity:1"
             id="path4241" /></g><g
           id="g4243"
           transform="translate(477.9487,330.1016)"><path
             d="m 0,0 -82.564,-22.123 c -1.33,-0.356 -2.635,0.644 -2.635,2.021 v 73.796 c 0,0.948 0.636,1.777 1.552,2.022 l 82.564,22.123 c 1.329,0.356 2.634,-0.646 2.634,-2.022 V 2.021 C 1.551,1.074 0.915,0.245 0,0 Z"
             style="fill:none;stroke:#000000;stroke-width:15;stroke-linecap:round;stroke-linejoin:round;stroke-miterlimit:10;stroke-dasharray:none;stroke-opacity:1"
             id="path4245" /></g><g
           id="g4247"
           transform="translate(306,362.1572)"><path
             d="M 0,0 61.75,16.546"
             style="fill:none;stroke:#000000;stroke-width:15;stroke-linecap:round;stroke-linejoin:round;stroke-miterlimit:10;stroke-dasharray:none;stroke-opacity:1"
             id="path4249" /></g><g
           id="g4251"
           transform="translate(342.5205,293.8135)"><path
             d="M 0,0 -61.291,-16.423"
             style="fill:none;stroke:#000000;stroke-width:15;stroke-linecap:round;stroke-linejoin:round;stroke-miterlimit:10;stroke-dasharray:none;stroke-opacity:1"
             id="path4253" /></g><g
           id="g4255"
           transform="translate(281,329.415)"><path
             d="M 0,0 86.75,23.245"
             style="fill:none;stroke:#000000;stroke-width:15;stroke-linecap:round;stroke-linejoin:round;stroke-miterlimit:10;stroke-dasharray:none;stroke-opacity:1"
             id="path4257" /></g><g
           id="g4259"
           transform="translate(367.75,326.6162)"><path
             d="M 0,0 -86.75,-23.244"
             style="fill:none;stroke:#000000;stroke-width:15;stroke-linecap:round;stroke-linejoin:round;stroke-miterlimit:10;stroke-dasharray:none;stroke-opacity:1"
             id="path4261" /></g><g
           id="g4263"
           transform="translate(477.9487,110.876)"><path
             d="m 0,0 -194.085,-52.005 c -1.329,-0.356 -2.634,0.645 -2.634,2.022 v 77.819 c 0,0.947 0.636,1.776 1.551,2.021 L -1.083,81.862 c 1.329,0.356 2.634,-0.645 2.634,-2.021 V 2.021 C 1.551,1.074 0.915,0.245 0,0 Z"
             style="fill:none;stroke:#000000;stroke-width:15;stroke-linecap:round;stroke-linejoin:round;stroke-miterlimit:10;stroke-dasharray:none;stroke-opacity:1"
             id="path4265" /></g><g
           id="g4267"
           transform="translate(306,254.0273)"><path
             d="M 0,0 173.5,46.489"
             style="fill:none;stroke:#000000;stroke-width:15;stroke-linecap:round;stroke-linejoin:round;stroke-miterlimit:10;stroke-dasharray:none;stroke-opacity:1"
             id="path4269" /></g><g
           id="g4271"
           transform="translate(392.75,199.1426)"><path
             d="M 0,0 -111.75,-29.943"
             style="fill:none;stroke:#000000;stroke-width:15;stroke-linecap:round;stroke-linejoin:round;stroke-miterlimit:10;stroke-dasharray:none;stroke-opacity:1"
             id="path4273" /></g><g
           id="g4275"
           transform="translate(280.9995,221.2852)"><path
             d="M 0,0 198.5,53.188"
             style="fill:none;stroke:#000000;stroke-width:15;stroke-linecap:round;stroke-linejoin:round;stroke-miterlimit:10;stroke-dasharray:none;stroke-opacity:1"
             id="path4277" /></g><g
           id="g4279"
           transform="translate(479.4995,248.4307)"><path
             d="M 0,0 -198.5,-53.188"
             style="fill:none;stroke:#000000;stroke-width:15;stroke-linecap:round;stroke-linejoin:round;stroke-miterlimit:10;stroke-dasharray:none;stroke-opacity:1"
             id="path4281" /></g><g
           id="g4283"
           transform="translate(261.541,27.8887)"><path
             d="M 0,0 197.672,52.967 -0.002,0 Z"
             style="fill:none;stroke:#000000;stroke-width:1;stroke-linecap:butt;stroke-linejoin:miter;stroke-miterlimit:10;stroke-dasharray:none;stroke-opacity:1"
             id="path4285" /></g><g
           id="g4287"
           transform="translate(502.9487,92.5742)"><path
             d="M 0,0 V 0 L -43.735,-11.719 Z"
             style="fill:none;stroke:#000000;stroke-width:15;stroke-linecap:round;stroke-linejoin:round;stroke-miterlimit:10;stroke-dasharray:none;stroke-opacity:1"
             id="path4289" /></g><g
           id="g4291"
           transform="translate(256,145.6104)"><path
             d="m 0,0 v -118.451 c 1.862,0 3.725,0.243 5.539,0.729 l 197.674,52.967 43.736,11.719 c 0.915,0.245 1.551,1.074 1.551,2.021 v 342.961 c 0,1.376 -1.305,2.377 -2.634,2.022 L 0,228.088 V 35"
             style="fill:none;stroke:#000000;stroke-width:15;stroke-linecap:round;stroke-linejoin:round;stroke-miterlimit:10;stroke-dasharray:none;stroke-opacity:1"
             id="path4293" /></g><g
           id="g4295"
           transform="translate(256,373.6982)"><path
             d="m 0,0 -245.865,65.88 c -1.33,0.355 -2.635,-0.646 -2.635,-2.022 v -342.961 c 0,-0.947 0.636,-1.776 1.551,-2.021 L -5.541,-345.81 c 1.815,-0.486 3.678,-0.729 5.541,-0.729"
             style="fill:none;stroke:#000000;stroke-width:15;stroke-linecap:round;stroke-linejoin:round;stroke-miterlimit:10;stroke-dasharray:none;stroke-opacity:1"
             id="path4297" /></g><g
           id="g4299"
           transform="translate(317.1528,409.7549)"><path
             d="M 0,0 -61.153,-36.057"
             style="fill:none;stroke:#000000;stroke-width:15;stroke-linecap:round;stroke-linejoin:round;stroke-miterlimit:10;stroke-dasharray:none;stroke-opacity:1"
             id="path4301" /></g><g
           id="g4303"
           transform="translate(448.4351,425.2617)"><path
             d="m 0,0 v 56.474 c 0,2.399 -2.608,3.889 -4.675,2.671 L -100.08,2.892"
             style="fill:none;stroke:#000000;stroke-width:15;stroke-linecap:round;stroke-linejoin:round;stroke-miterlimit:10;stroke-dasharray:none;stroke-opacity:1"
             id="path4305" /></g><g
           id="g4307"
           transform="translate(256,373.6982)"><path
             d="m 0,0 -190.921,97.017 c -2.063,1.047 -4.505,-0.452 -4.505,-2.765 V 52.364"
             style="fill:none;stroke:#000000;stroke-width:15;stroke-linecap:round;stroke-linejoin:round;stroke-miterlimit:10;stroke-dasharray:none;stroke-opacity:1"
             id="path4309" /></g></g></g></g></svg>
