<svg id="Layer_1" enable-background="new 0 0 66 66" height="512" viewBox="0 0 66 66" width="512" xmlns="http://www.w3.org/2000/svg"><g><g><path d="m19.2 49.1h-17.2c-.6 0-1-.4-1-1v-37c0-.6.4-1 1-1h6.5c.6 0 1 .4 1 1s-.4 1-1 1h-5.5v35h16.2c.6 0 1 .4 1 1s-.4 1-1 1z"/></g><g><path d="m64 49.1h-19.5c-.6 0-1-.4-1-1s.4-1 1-1h18.5v-35h-5.5c-.6 0-1-.4-1-1s.4-1 1-1h6.5c.6 0 1 .4 1 1v37c0 .6-.4 1-1 1z"/></g><g><path d="m57.5 43.4c-.1 0-.1 0-.2 0-3.5-.6-7-.9-10.9-1-.6 0-1-.5-1-1 0-.6.5-1 1-1 3.5.1 6.8.4 10 .8v-35.2c-7.7-2-15.3-2-22.4 0v11.7c0 .6-.4 1-1 1s-1-.4-1-1v-12.5c0-.4.3-.8.7-1 7.9-2.3 16.3-2.3 25 0 .4.1.7.5.7 1v37.2c0 .3-.1.6-.4.8 0 .1-.3.2-.5.2z"/></g><g><path d="m8.5 43.4c-.2 0-.5-.1-.6-.2-.2-.2-.4-.5-.4-.8v-37.2c0-.4.3-.8.7-1 7.9-2.3 16.3-2.3 25 0 .4.1.7.5.7 1v12.5c0 .6-.4 1-1 1s-1-.4-1-1v-11.7c-7.7-2-15.3-2-22.4 0v35.3c3.1-.5 6.3-.7 9.7-.8.6 0 1 .4 1 1s-.4 1-1 1c-3.8.1-7.2.4-10.6 1 0-.1 0-.1-.1-.1z"/></g><g><path d="m43.5 63.5h-25.5c-.6 0-1-.4-1-1v-9.1c0-.6.4-1 1-1h25.5c.6 0 1 .4 1 1v9.1c0 .6-.4 1-1 1zm-24.5-2h23.5v-7.1h-23.5z"/></g><g><path d="m24.6 37.7c-.6 0-1-.4-1-1v-13.6c0-2 1.7-3.7 3.7-3.7s3.7 1.7 3.7 3.7c0 .6-.4 1-1 1s-1-.4-1-1c0-1-.7-1.7-1.7-1.7s-1.7.7-1.7 1.7v13.6c0 .6-.4 1-1 1z"/></g><g><path d="m35.5 37.7c-.6 0-1-.4-1-1v-16.3c0-1-.7-1.7-1.7-1.7s-1.7.7-1.7 1.7v16.3c0 .6-.4 1-1 1s-1-.4-1-1v-16.3c0-2 1.7-3.7 3.7-3.7s3.7 1.7 3.7 3.7v16.3c0 .6-.4 1-1 1z"/></g><g><path d="m40.9 33c-.6 0-1-.4-1-1v-8.9c0-1-.7-1.7-1.7-1.7s-1.7.7-1.7 1.7c0 .6-.4 1-1 1s-1-.4-1-1c0-2 1.7-3.7 3.7-3.7s3.7 1.7 3.7 3.7v8.9c0 .6-.4 1-1 1z"/></g><g><path d="m21.2 54.4c-.3 0-.6-.1-.8-.4-1.4-2-2.2-4.4-2.2-6.9v-21.6c0-2 1.7-3.7 3.7-3.7s3.7 1.7 3.7 3.7c0 .6-.4 1-1 1s-1-.4-1-1c0-1-.7-1.7-1.7-1.7s-1.7.7-1.7 1.7v21.6c0 2.1.6 4.1 1.8 5.7.3.4.2 1.1-.2 1.4-.2.1-.4.2-.6.2z"/></g><g><path d="m40.6 54.4c-.2 0-.4-.1-.6-.2-.4-.3-.6-.9-.2-1.4.3-.4.7-.9 1.1-1.5 1.5-2 3.8-5.1 4.5-6.9v-10.3c0-2.1-1.5-3.9-3.5-4.4v10.2c0 .6-.4 1-1 1s-1-.4-1-1v-11.3c0-.6.4-1 1-1 3.6 0 6.5 2.9 6.5 6.5v10.5c0 .1 0 .2-.1.4-.8 2.1-3.1 5.2-4.8 7.6-.4.6-.8 1.1-1.1 1.5-.2.2-.5.3-.8.3z"/></g><g><path d="m27.8 9.7h-14.4c-.6 0-1-.4-1-1s.4-1 1-1h14.4c.6 0 1 .4 1 1s-.4 1-1 1z"/></g><g><path d="m27.8 14.2h-14.4c-.6 0-1-.4-1-1s.4-1 1-1h14.4c.6 0 1 .4 1 1s-.4 1-1 1z"/></g><g><path d="m19.7 18.7h-6.3c-.6 0-1-.4-1-1s.4-1 1-1h6.3c.6 0 1 .4 1 1s-.4 1-1 1z"/></g><g><g><path d="m52.5 9.7h-14.5c-.6 0-1-.4-1-1s.4-1 1-1h14.5c.6 0 1 .4 1 1s-.4 1-1 1z"/></g><g><path d="m52.5 14.2h-14.5c-.6 0-1-.4-1-1s.4-1 1-1h14.5c.6 0 1 .4 1 1s-.4 1-1 1z"/></g><g><path d="m52.5 18.7h-6.3c-.6 0-1-.4-1-1s.4-1 1-1h6.3c.6 0 1 .4 1 1s-.4 1-1 1z"/></g></g></g></svg>