<?xml version="1.0"?>
<svg xmlns="http://www.w3.org/2000/svg" id="Layer_1" data-name="Layer 1" viewBox="0 0 512 512"><path d="M308.671,278.774l-10.258-17.2a104.591,104.591,0,0,0,9.707-23.388l19.4-4.874a7,7,0,0,0,5.24-5.875,128.946,128.946,0,0,0,0-34.6,7,7,0,0,0-5.225-5.871l-19.417-4.908a104.828,104.828,0,0,0-9.7-23.381L308.671,141.5a7,7,0,0,0-.431-7.816,127.465,127.465,0,0,0-24.5-24.536,7,7,0,0,0-7.836-.429L258.718,118.99a103.967,103.967,0,0,0-23.4-9.7l-4.874-19.4a7,7,0,0,0-5.839-5.235,129.626,129.626,0,0,0-34.676,0,7,7,0,0,0-5.835,5.221l-4.906,19.414a104.151,104.151,0,0,0-23.39,9.7l-17.158-10.272a7,7,0,0,0-7.827.423,126.827,126.827,0,0,0-24.543,24.543,7,7,0,0,0-.423,7.826l10.272,17.159a104.121,104.121,0,0,0-9.7,23.39L87.01,186.963a7,7,0,0,0-5.22,5.834,128.947,128.947,0,0,0,0,34.677,7,7,0,0,0,5.235,5.838l19.389,4.871a103.686,103.686,0,0,0,9.712,23.417l-10.274,17.163a7,7,0,0,0,.43,7.835,126.519,126.519,0,0,0,24.546,24.514,7,7,0,0,0,7.805.421l17.178-10.254a104.867,104.867,0,0,0,23.382,9.7L184.1,330.4a7,7,0,0,0,5.87,5.225,128.968,128.968,0,0,0,34.606,0,7,7,0,0,0,5.874-5.24l4.874-19.4a105.077,105.077,0,0,0,23.406-9.707l17.182,10.257a7,7,0,0,0,7.824-.436,128.1,128.1,0,0,0,24.5-24.5A7,7,0,0,0,308.671,278.774ZM295.56,230.813A90.763,90.763,0,0,1,284.32,257.9a7,7,0,0,0-.065,7.27L294.17,281.8a114.162,114.162,0,0,1-15.231,15.23l-16.6-9.91a7,7,0,0,0-7.269.056,91.3,91.3,0,0,1-27.12,11.244,7,7,0,0,0-5.185,5.1l-4.721,18.749a113.8,113.8,0,0,1-21.555,0l-4.737-18.747a7,7,0,0,0-5.182-5.1,90.931,90.931,0,0,1-27.087-11.241,7,7,0,0,0-7.277-.06l-16.615,9.918a112.641,112.641,0,0,1-15.239-15.23l9.932-16.609a7,7,0,0,0-.063-7.283,89.761,89.761,0,0,1-11.232-27.089,7,7,0,0,0-5.105-5.2L95.124,220.9c-.333-3.542-.5-7.148-.5-10.769s.168-7.234.5-10.78l18.76-4.741a7,7,0,0,0,5.1-5.182,90.249,90.249,0,0,1,11.232-27.072,7,7,0,0,0,.069-7.291l-9.935-16.615a112.763,112.763,0,0,1,15.242-15.243l16.615,9.937a7,7,0,0,0,7.291-.07,90.244,90.244,0,0,1,27.074-11.232,7,7,0,0,0,5.181-5.1l4.74-18.759a116.282,116.282,0,0,1,21.549,0l4.724,18.761a7,7,0,0,0,5.185,5.1,90.083,90.083,0,0,1,27.069,11.231,7,7,0,0,0,7.283.074l16.645-9.937a113.428,113.428,0,0,1,15.227,15.246l-9.914,16.608a7,7,0,0,0,.06,7.277,90.947,90.947,0,0,1,11.241,27.086,7,7,0,0,0,5.1,5.182l18.748,4.738c.342,3.654.515,7.264.515,10.783s-.172,7.123-.515,10.772l-18.747,4.72A7,7,0,0,0,295.56,230.813ZM207.272,141.79a68.345,68.345,0,1,0,68.345,68.345A68.423,68.423,0,0,0,207.272,141.79Zm0,122.685a54.341,54.341,0,1,1,54.341-54.34A54.4,54.4,0,0,1,207.272,264.475ZM511.061,373.369,470.582,303.3a7,7,0,0,0-6.063-3.5h0a7,7,0,0,0-6.062,3.5l-20.209,35.033L433.6,346.37H354.146L336.2,328.423c21.838-32.175,36.023-63.549,42.318-93.713a176.4,176.4,0,0,0,2.759-17.573h45.682v23.556a7,7,0,0,0,7,7h61.144a7,7,0,0,0,7-7V179.577a7,7,0,0,0-7-7H433.961a7,7,0,0,0-7,7v23.556H382.153c.537-27.624-6.129-53.678-19.781-76.6a153.273,153.273,0,0,0-27.306-33.55l19.08-19.08h73.478a37.56,37.56,0,1,0,0-14H351.246a7,7,0,0,0-4.952,2.051L324.409,83.833A194.54,194.54,0,0,0,271.1,54.266c-38.248-14.108-79.767-17.118-116.91-8.478C90.662,60.569,51.248,106.184,46.059,170.932c-2.4,29.543-9.537,54.324-23.154,80.354L.8,293.636A7,7,0,0,0,7,303.878H45.188l9.394,65.087a30.682,30.682,0,0,0,30.6,26.5h35.661c10.569,0,22.544,6.136,23.917,17.5l7.6,63.525a7,7,0,0,0,6.952,6.171h135.1a7,7,0,0,0,7-7V373.083q14.6-16.64,26.592-33.05l18.29,18.29a7.009,7.009,0,0,0,4.952,2.051h74.267l-7.508,13a7,7,0,0,0,6.063,10.5H505a7,7,0,0,0,6.063-10.5Zm-70.1-186.79H488.1v47.112h-47.14ZM464.519,43.343A23.556,23.556,0,1,1,440.963,66.9,23.581,23.581,0,0,1,464.519,43.343ZM289.17,365.793a7,7,0,0,0-1.762,4.643v98.221H165.523l-6.859-57.363c-2.056-17.007-18.315-29.831-37.821-29.831H85.182a16.78,16.78,0,0,1-16.739-14.494L58.181,295.876a7,7,0,0,0-6.93-6H18.556l16.761-32.1c14.525-27.768,22.142-54.2,24.7-85.713,4.67-58.272,40.153-99.324,97.349-112.631,54.353-12.644,115.027,2.054,157,34.446l-13.26,13.26a7,7,0,0,0,9.9,9.9l14.1-14.1A138.406,138.406,0,0,1,350.34,133.7c12.585,21.131,18.478,44.47,17.852,69.437H344.981a7,7,0,0,0,0,14h22.2c-3.769,31.737-17.565,65.823-41.106,101.158l-15.059-15.06a7,7,0,0,0-9.9,9.9l16.85,16.85Q305.164,347.724,289.17,365.793ZM436.2,369.869,464.523,320.8l28.344,49.066Z"/></svg>
