<?xml version="1.0"?>
<svg xmlns="http://www.w3.org/2000/svg" viewBox="0 0 64 64" width="512" height="512"><g id="Layer_14" data-name="Layer 14"><path d="M62,58.184V57a3,3,0,0,0-2-2.816V29.816A3,3,0,0,0,62,27V21.816a2.983,2.983,0,0,0-.685-5.784L32.483.125a.994.994,0,0,0-.966,0L2.685,16.032A2.983,2.983,0,0,0,2,21.816V27a3,3,0,0,0,2,2.816V54.184A3,3,0,0,0,2,57v1.184A3,3,0,0,0,0,61v2a1,1,0,0,0,1,1H63a1,1,0,0,0,1-1V61A3,3,0,0,0,62,58.184ZM50,58V57a3,3,0,0,0-2-2.816V29.816A3,3,0,0,0,50,27V26h2v1a3,3,0,0,0,2,2.816V33a1,1,0,0,0,2,0V30h2V54H56V37a1,1,0,0,0-2,0V54.184A3,3,0,0,0,52,57v1ZM39,58V37.816A2.993,2.993,0,0,0,38,32H26a2.993,2.993,0,0,0-1,5.816V58H24V57a3,3,0,0,0-2-2.816V29.816A3,3,0,0,0,24,27V26H40v1a3,3,0,0,0,2,2.816V54.184A3,3,0,0,0,40,57v1ZM27,38h5a1,1,0,0,0,0-2H26a1,1,0,0,1,0-2H38a1,1,0,0,1,0,2H36a1,1,0,0,0,0,2h1V58H27ZM12,58V57a3,3,0,0,0-2-2.816V51a1,1,0,0,0-2,0v3H6V30H8V47a1,1,0,0,0,2,0V29.816A3,3,0,0,0,12,27V26h2v1a3,3,0,0,0,2,2.816V54.184A3,3,0,0,0,14,57v1ZM4,27V26h6v1a1,1,0,0,1-1,1H5A1,1,0,0,1,4,27Zm14,3h2V54H18Zm3-2H17a1,1,0,0,1-1-1V26h6v1A1,1,0,0,1,21,28ZM16,57a1,1,0,0,1,1-1h4a1,1,0,0,1,1,1v1H16ZM44,30h2V54H44Zm3-2H43a1,1,0,0,1-1-1V26h6v1A1,1,0,0,1,47,28ZM42,57a1,1,0,0,1,1-1h4a1,1,0,0,1,1,1v1H42Zm12,0a1,1,0,0,1,1-1h4a1,1,0,0,1,1,1v1H54Zm6-30a1,1,0,0,1-1,1H55a1,1,0,0,1-1-1V26h6ZM32,2.142,57.118,16H6.882ZM3,18H61a1,1,0,0,1,0,2H53a1,1,0,0,0,0,2h7v2H4V22H49a1,1,0,0,0,0-2H3a1,1,0,0,1,0-2ZM4,57a1,1,0,0,1,1-1H9a1,1,0,0,1,1,1v1H4Zm58,5H2V61a1,1,0,0,1,1-1H61a1,1,0,0,1,1,1Z"/><path d="M17.75,13.464a1,1,0,0,0,1.35.422L32,7.129l12.9,6.757a1,1,0,0,0,.928-1.772l-13.364-7a1,1,0,0,0-.928,0l-13.364,7A1,1,0,0,0,17.75,13.464Z"/></g></svg>
