<svg id="Layer_1" enable-background="new 0 0 512 512" height="512" viewBox="0 0 512 512" width="512" xmlns="http://www.w3.org/2000/svg"><g><g><g><g><path d="m99.395 370.822c-1.367 0-2.754-.183-4.131-.566l-47.915-13.341c-4.016-1.118-7.347-3.738-9.379-7.378s-2.516-7.851-1.36-11.856l37.033-128.417c2.347-8.141 10.895-12.915 19.058-10.641l47.914 13.341c4.016 1.118 7.347 3.738 9.379 7.378s2.516 7.851 1.36 11.856l-37.033 128.418c-1.951 6.765-8.189 11.206-14.926 11.206zm-1.449-10.199c2.9.806 5.934-.888 6.767-3.779l37.033-128.417c.41-1.422.239-2.918-.483-4.21-.721-1.292-1.904-2.223-3.33-2.62l-47.914-13.341c-2.897-.806-5.934.888-6.767 3.778l-37.034 128.418c-.41 1.422-.239 2.917.483 4.21.721 1.292 1.904 2.223 3.33 2.62z"/><path d="m81.894 347.383c-1.511 0-3.03-.206-4.525-.623-4.315-1.2-7.905-4.011-10.108-7.913-2.202-3.901-2.753-8.428-1.551-12.743 1.202-4.316 4.013-7.906 7.914-10.108s8.427-2.756 12.744-1.551c4.316 1.201 7.906 4.012 10.108 7.913 2.202 3.902 2.753 8.428 1.551 12.743-1.202 4.316-4.013 7.906-7.915 10.108-2.55 1.439-5.368 2.174-8.218 2.174zm-.024-23.555c-2.965 0-5.694 1.965-6.527 4.957-.485 1.743-.263 3.57.626 5.146.889 1.575 2.338 2.71 4.081 3.194 1.745.488 3.572.265 5.147-.626 1.575-.889 2.71-2.338 3.195-4.081.485-1.743.263-3.57-.626-5.146s-2.338-2.711-4.082-3.196c-.605-.167-1.215-.248-1.814-.248z"/></g><g><path d="m412.605 370.822c-6.737 0-12.976-4.44-14.927-11.207l-37.034-128.418c-1.154-4.005-.672-8.216 1.361-11.856 2.032-3.64 5.363-6.26 9.379-7.378l47.915-13.341h-.001c8.162-2.272 16.711 2.501 19.058 10.641l37.034 128.418c1.154 4.006.672 8.217-1.361 11.856-2.032 3.64-5.363 6.26-9.379 7.378l-47.914 13.341c-1.376.384-2.763.566-4.131.566zm10.844-162.767c-.486 0-.979.065-1.467.201h-.001l-47.915 13.341c-1.426.397-2.608 1.327-3.33 2.62s-.894 2.788-.482 4.21l37.033 128.417c.833 2.892 3.869 4.585 6.768 3.779l47.914-13.341c1.426-.397 2.608-1.328 3.33-2.62.722-1.293.894-2.788.482-4.21l-37.033-128.418c-.692-2.403-2.907-3.979-5.299-3.979zm-2.808-4.616h.01z"/><path d="m405.908 260.357c-7.343 0-14.1-4.865-16.163-12.276-1.202-4.316-.651-8.842 1.551-12.744 2.202-3.901 5.792-6.712 10.108-7.914s8.842-.65 12.743 1.551c3.901 2.202 6.712 5.792 7.913 10.108 2.481 8.91-2.749 18.176-11.659 20.657-1.498.419-3.008.618-4.493.618zm.006-23.55c-.61 0-1.224.083-1.828.251-1.742.485-3.192 1.62-4.081 3.195-.89 1.575-1.112 3.403-.627 5.146s1.62 3.192 3.196 4.082c1.574.889 3.401 1.111 5.146.626 1.742-.485 3.192-1.62 4.081-3.195.89-1.576 1.112-3.403.627-5.146-.485-1.743-1.62-3.193-3.196-4.082-1.03-.581-2.168-.877-3.318-.877z"/></g></g><g><path d="m353.507 371.478c-2.679 0-4.896-2.121-4.994-4.819-.1-2.758 2.054-5.074 4.811-5.177.248-.01 24.96-1.104 44.262-14.462 2.271-1.572 5.386-1.005 6.957 1.267 1.571 2.271 1.005 5.385-1.267 6.956-21.765 15.062-48.459 16.191-49.585 16.232-.062.002-.124.003-.184.003z"/><g><g><path d="m127.91 365.67c-1.28 0-2.559-.488-3.536-1.465l-14.82-14.82c-1.953-1.952-1.953-5.118 0-7.07 1.953-1.953 5.118-1.953 7.071 0l14.82 14.82c1.953 1.952 1.953 5.118 0 7.07-.976.977-2.255 1.465-3.535 1.465z"/><path d="m226.048 455.309c-6.527 0-13.054-2.484-18.024-7.454l-8.53-8.53c-1.953-1.952-1.953-5.118 0-7.07 1.953-1.953 5.118-1.953 7.071 0l8.53 8.53c6.037 6.037 15.861 6.037 21.898 0 2.928-2.914 4.536-6.797 4.536-10.944 0-2.012-.382-3.975-1.134-5.833-.771-1.914-1.913-3.634-3.401-5.121-1.953-1.952-1.953-5.118-.001-7.071s5.117-1.954 7.071-.001l18.989 18.979c6.04 6.038 15.863 6.037 21.901.001 2.925-2.925 4.535-6.815 4.535-10.954 0-4.133-1.61-8.021-4.535-10.945-1.953-1.952-1.953-5.118 0-7.07 1.951-1.953 5.119-1.953 7.07 0 4.813 4.813 7.465 11.211 7.465 18.016 0 6.81-2.651 13.211-7.465 18.024-9.936 9.938-26.105 9.938-36.042 0l-4.671-4.668c-.723 5.55-3.236 10.667-7.256 14.667-4.961 4.961-11.483 7.444-18.007 7.444z"/><path d="m311.317 424.702c-6.808 0-13.208-2.651-18.021-7.466l-46.645-46.645c-1.953-1.952-1.953-5.118 0-7.07 1.953-1.953 5.118-1.953 7.071 0l46.645 46.645c2.926 2.925 6.814 4.536 10.95 4.536 4.137 0 8.025-1.611 10.951-4.536 6.038-6.038 6.038-15.863 0-21.901l-46.646-46.645c-1.953-1.952-1.953-5.118 0-7.07 1.951-1.953 5.119-1.953 7.07 0l46.646 46.645c9.938 9.937 9.938 26.105 0 36.042-4.813 4.814-11.213 7.465-18.021 7.465z"/><path d="m333.292 388.729c-6.808 0-13.209-2.651-18.023-7.467-1.952-1.952-1.952-5.118.001-7.071 1.953-1.951 5.118-1.952 7.071.001 2.926 2.926 6.814 4.537 10.951 4.537 4.136 0 8.024-1.611 10.95-4.537 2.323-2.33 3.821-5.269 4.328-8.491.139-.826.205-1.636.205-2.46 0-4.132-1.611-8.023-4.537-10.956l-74.057-74.058c-5.39-5.389-13.294-7.454-20.632-5.39-3.763 1.06-7.152 3.14-9.8 6.016l-23.081 25.062c-.046.05-.094.1-.142.147-10.855 10.857-28.52 10.858-39.378 0-8.718-8.718-10.689-21.878-4.905-32.747 7.415-13.936 20.234-33.055 39.196-45.002.07-.044.141-.086.212-.126 15.593-9.76 32.678-13.042 50.784-9.759 2.717.396 40.397 6.187 69.956 26.447l32.029-13.843c2.531-1.093 5.478.072 6.573 2.606 1.096 2.535-.071 5.478-2.606 6.574l-34.6 14.954c-1.618.699-3.486.493-4.913-.538-28.335-20.488-67.556-26.258-67.948-26.314-.065-.009-.13-.02-.194-.031-15.676-2.863-30.465-.005-43.952 8.492-.066.041-.132.081-.2.119-17.002 10.786-28.69 28.302-35.51 41.119-3.704 6.961-2.438 15.392 3.148 20.979 6.935 6.933 18.203 6.956 25.167.067l23.006-24.98c3.904-4.239 8.9-7.306 14.447-8.866 10.815-3.044 22.468-.001 30.412 7.944l74.062 74.062c4.813 4.824 7.462 11.224 7.462 18.022 0 1.38-.112 2.749-.335 4.067-.828 5.268-3.294 10.109-7.121 13.949-4.818 4.821-11.219 7.472-18.026 7.472z"/></g><path d="m144.691 241.839c-2.282 0-4.343-1.572-4.871-3.891-.613-2.692 1.072-5.373 3.765-5.985 32.508-7.403 69.063-6.462 70.647-6.417 2.703.067 4.879 2.279 4.879 4.999 0 2.808-2.33 5.074-5.146 4.998-1.505-.043-36.853-.958-68.159 6.171-.374.084-.748.125-1.115.125z"/></g></g></g><g><path d="m302.994 238.009c-1.706 0-3.368-.874-4.304-2.447-1.41-2.374-.629-5.442 1.745-6.853 26.321-15.64 42.673-44.351 42.673-74.927 0-47.67-38.768-86.738-86.419-87.089-.075 0-.149-.003-.223-.007-.156-.009-.303-.006-.46-.006-.155 0-.304-.003-.46.006-.074.004-.148.006-.223.007-47.659.351-86.432 39.419-86.432 87.089 0 15.321 4.033 30.375 11.662 43.537 6.686 11.583 16.104 21.615 27.242 29.02 2.299 1.529 2.924 4.632 1.395 6.932-1.529 2.299-4.633 2.925-6.932 1.395-12.414-8.254-22.913-19.437-30.36-32.339-8.507-14.675-13.006-31.464-13.006-48.544 0-25.808 10.014-50.105 28.196-68.415 18.15-18.277 42.319-28.458 68.064-28.673.574-.024 1.135-.024 1.709 0 25.74.215 49.905 10.396 68.053 28.673 18.182 18.311 28.194 42.607 28.194 68.415 0 34.086-18.226 66.091-47.565 83.524-.801.476-1.681.702-2.549.702z"/><path d="m281.922 230.877c-.836 0-1.683-.21-2.461-.651-2.402-1.362-3.246-4.414-1.884-6.816 3.898-6.875 7.15-15.235 9.665-24.848 3.533-13.542 5.401-29.028 5.401-44.779 0-15.722-1.864-31.195-5.391-44.747-6.611-25.271-18.668-41.896-30.714-42.346-.229-.011-.376-.009-.533-.009-.155 0-.304-.002-.46.006-12.126.454-24.188 17.078-30.801 42.355-3.525 13.546-5.389 29.02-5.389 44.741 0 15.751 1.868 31.237 5.402 44.782 2.255 8.588 5.105 16.203 8.471 22.626 1.282 2.446.338 5.468-2.108 6.749-2.447 1.283-5.468.337-6.749-2.108-3.715-7.09-6.84-15.412-9.287-24.735-3.749-14.364-5.729-30.723-5.729-47.314 0-16.559 1.975-32.903 5.712-47.266 7.995-30.56 22.959-49.182 40.03-49.82.52-.028 1.221-.032 1.886.003 16.991.635 31.95 19.256 39.943 49.811 3.739 14.369 5.715 30.712 5.715 47.272 0 16.591-1.98 32.95-5.727 47.307-2.734 10.455-6.314 19.623-10.641 27.253-.918 1.622-2.609 2.534-4.351 2.534z"/><path d="m348.105 158.78h-184.21c-2.761 0-5-2.239-5-5s2.239-5 5-5h184.211c2.762 0 5 2.239 5 5s-2.239 5-5.001 5z"/><path d="m335.775 204.833h-159.55c-2.761 0-5-2.239-5-5s2.239-5 5-5h159.551c2.762 0 5 2.239 5 5s-2.239 5-5.001 5z"/><path d="m335.81 112.772h-159.619c-2.761 0-5-2.239-5-5s2.239-5 5-5h159.619c2.762 0 5 2.239 5 5s-2.239 5-5 5z"/></g><g><path d="m139.537 385.548c-4.899 0-9.506-1.908-12.97-5.373-3.464-3.464-5.372-8.069-5.372-12.97 0-4.899 1.908-9.505 5.372-12.97l15.778-15.778c7.152-7.152 18.788-7.151 25.939-.001 3.465 3.465 5.373 8.071 5.373 12.971s-1.908 9.506-5.373 12.971c-1.952 1.952-5.118 1.952-7.071-.001s-1.952-5.118 0-7.071c1.576-1.575 2.443-3.67 2.443-5.898s-.868-4.322-2.443-5.897c-3.253-3.254-8.545-3.255-11.798-.001l-15.778 15.777c-1.576 1.576-2.443 3.671-2.443 5.899s.868 4.323 2.443 5.898c1.576 1.576 3.671 2.444 5.899 2.444s4.323-.868 5.899-2.443c1.952-1.953 5.119-1.952 7.071-.001 1.953 1.953 1.953 5.119 0 7.071-3.463 3.465-8.069 5.373-12.969 5.373z"/><path d="m152.782 410.032c-4.697 0-9.394-1.787-12.97-5.362-3.465-3.465-5.373-8.071-5.373-12.971s1.908-9.506 5.373-12.971l21.402-21.402c7.152-7.152 18.788-7.151 25.94-.001 3.465 3.466 5.373 8.071 5.373 12.971s-1.908 9.506-5.373 12.971c-1.952 1.952-5.118 1.952-7.071-.001-1.953-1.952-1.953-5.118 0-7.071 1.575-1.575 2.443-3.67 2.443-5.898s-.868-4.323-2.443-5.899c-3.253-3.253-8.545-3.252-11.798.001l-21.402 21.401c-1.576 1.576-2.444 3.671-2.444 5.899s.868 4.323 2.444 5.899c3.253 3.253 8.545 3.252 11.798-.001 1.953-1.95 5.118-1.951 7.071.001s1.953 5.118 0 7.071c-3.577 3.576-8.273 5.363-12.97 5.363z"/><path d="m165.437 435.115c-4.697 0-9.394-1.787-12.969-5.362 0-.001 0-.001 0-.001-3.464-3.465-5.372-8.07-5.372-12.97s1.908-9.506 5.373-12.971l27.616-27.616c7.153-7.152 18.79-7.15 25.94-.001 3.465 3.466 5.373 8.071 5.373 12.971s-1.908 9.506-5.373 12.971l-27.616 27.616c-3.578 3.576-8.275 5.363-12.972 5.363zm-5.899-12.434c3.253 3.253 8.545 3.253 11.799 0l27.616-27.616c1.576-1.576 2.443-3.671 2.443-5.899s-.868-4.323-2.443-5.899c-3.252-3.253-8.544-3.252-11.798.001l-27.616 27.616c-1.576 1.576-2.443 3.671-2.443 5.899-.001 2.227.866 4.322 2.442 5.898z"/><path d="m192.319 445.971c-4.697 0-9.394-1.787-12.97-5.362-3.465-3.466-5.373-8.071-5.373-12.971s1.908-9.506 5.373-12.971c1.953-1.951 5.118-1.951 7.071.001s1.953 5.118 0 7.071c-1.575 1.575-2.443 3.67-2.443 5.898s.868 4.323 2.443 5.899c3.252 3.252 8.545 3.253 11.798-.001l19.603-19.603c1.576-1.576 2.443-3.671 2.443-5.899s-.868-4.323-2.443-5.899c-3.252-3.252-8.545-3.253-11.798.001-1.952 1.952-5.118 1.952-7.071-.001-1.953-1.952-1.953-5.118 0-7.071 7.151-7.15 18.788-7.15 25.939 0 3.465 3.466 5.373 8.071 5.373 12.971s-1.908 9.506-5.373 12.971l-19.603 19.603c-3.574 3.576-8.271 5.363-12.969 5.363z"/></g></g></svg>