<svg enable-background="new 0 0 512 512" height="512" viewBox="0 0 512 512" width="512" xmlns="http://www.w3.org/2000/svg"><g id="_x30_1_Graduation"><g><path d="m9.012 239.02 98.525 46.455.008 34.471c0 30.259 74.902 46.094 148.886 46.094 73.992 0 148.894-15.835 148.894-46.094v-43.367l48.275-19.993.007 92.596c-14.976 2.837-26.352 15.979-26.352 31.768 0 17.851 14.526 32.376 32.376 32.376 17.851 0 32.376-14.525 32.376-32.376 0-15.788-11.377-28.931-26.353-31.768l-.007-97.585 36.674-15.188c11.237-4.61 11.654-20.351.674-25.553l-234.352-110.84c-3.741-1.773-8.031-1.78-11.804-.071l-247.694 113.757c-10.774 4.939-10.887 20.238-.133 25.318zm470.949 141.929c0 11.208-9.122 20.329-20.329 20.329-11.208 0-20.329-9.122-20.329-20.329s9.122-20.329 20.329-20.329 20.329 9.121 20.329 20.329zm-360.385-127.208c0-21.498 56.204-45.451 136.847-45.451 80.651 0 136.855 23.953 136.855 45.451 0 1.071 0 48.183 0 46.902-24.044-17.641-80.665-26.793-136.847-26.793-56.18 0-112.803 9.153-136.844 26.797zm136.855 100.251c-84.784 0-136.839-19.827-136.839-34.047s52.055-34.047 136.839-34.047 136.847 19.827 136.847 34.047-52.062 34.047-136.847 34.047zm-242.259-129.341 247.702-113.757c.518-.251 1.106-.243 1.624.008l234.345 110.839c1.533.728 1.479 2.873-.11 3.522-13.326 5.519-79.395 32.879-92.408 38.268v-9.79c0-32.776-64.016-57.498-148.902-57.498s-148.894 24.722-148.894 57.498l.004 18.404-93.385-44.028c-1.473-.698-1.48-2.787.024-3.466z"/></g></g></svg>