<svg height="512" viewBox="0 0 60 60" width="512" xmlns="http://www.w3.org/2000/svg"><g id="Page-1" fill="none" fill-rule="evenodd"><g id="096---Writing-Book" fill="rgb(0,0,0)" fill-rule="nonzero"><path id="Shape" d="m57.374 21.788-2.25-.28c-.2845624-.0355602-.570697.05276-.7857099.2425222-.2150129.1897623-.3382092.4627022-.3382901.7494778v24.79c-8.908-7.274-19.174-3.407-23-1.519v-6.771c0-.5522847-.4477153-1-1-1s-1 .4477153-1 1v6.77c-3.826-1.888-14.089-5.755-23 1.519v-25.781c5.851-5.668 12.543-5.489 17.124-4.338.3475751.0897157.7165715-.0137487.9668327-.2710941.2502613-.2573454.3433879-.6290855.2440075-.9740215-.0993804-.3449361-.3760192-.6101421-.7248402-.6948844-5.07-1.273-12.486-1.468-18.995 4.837-.39614994.3791105-.61860683.9046875-.615 1.453v.1l-1.379.172c-1.49589435.1967226-2.61585869 1.4692345-2.621 2.978v29.23c0 1.6568542 1.34314575 3 3 3h20.212c.739 1.764 3.408 3 6.788 3s6.049-1.236 6.788-3h20.212c1.6568542 0 3-1.3431458 3-3v-29.23c-.0043504-1.5116258-1.1270585-2.7865366-2.626-2.982zm-3.82 27.762-1.428 1.387c-9.121-8.215-20.051-1.265-20.507-.968l-.619.4v-2.346c2.356-1.323 13.444-6.781 22.554 1.527zm-24.554-1.534v2.351l-.633-.407c-.469-.291-11.576-7.03-20.513 1l-1.416-1.4c9.192-8.42 20.162-2.919 22.562-1.544zm29 5.984c0 .5522847-.4477153 1-1 1h-20v-1c0-.5522847-.4477153-1-1-1s-1 .4477153-1 1v2c0 .8-1.994 2-5 2s-5-1.2-5-2v-1.986c0-.5522847-.4477153-1-1-1s-1 .4477153-1 1v.986h-20c-.55228475 0-1-.4477153-1-1v-29.23c.00040082-.5049447.37365376-.9320076.874-1l1.126-.138v25.908c.00084231.2675931.10889807.5236852.3.711l2.148 2.129c.76521593.7404627 1.97355969.7605799 2.763.046 7.813-7.015 17.689-1.026 18.089-.776l1.619 1.042c.6590442.4239398 1.5049558.4239398 2.164 0l1.623-1.045c.41-.264 10.091-6.421 18.082.775.7876437.7215225 2.0017042.7022099 2.766-.044l2.15-2.127c.1911019-.1873148.2991577-.4434069.3-.711v-25.908l1.121.139c.5018899.0665343.8773876.4937218.879 1z"/><path id="Shape" d="m54.831 15.244c.7060766-1.3559824 1.0922795-2.8556401 1.129-4.384.12773-5.05853982-3.327102-9.50632231-8.26-10.634-1.8972551-.41815768-3.8771587-.24362457-5.672.5-2.258.9-3.98 2.744-5.5 4.376l-.3.315c-1.741134 1.86405747-3.3298983 3.86481028-4.751 5.983-1.269523 1.8139274-2.2251657 3.8283154-2.827 5.959-.2784269-.22305-.6166186-.3587443-.972-.39-.6141233-.055103-1.2156393.1977136-1.606.675l-3.093 3.765c-2.5638492 3.0283192-2.7474736 7.4097779-.446 10.642l-.972.972-.223-1.115c-.109794-.5401702-.6359937-.8896327-1.1764626-.7813185-.5404689.1083143-.8913711.633555-.7845374 1.1743185l.484 2.422-2.568 2.568c-.3789722.3923789-.3735524 1.0160848.0121814 1.4018186s1.0094397.3911536 1.4018186.0121814l2.568-2.568 2.422.484c.0657876.0136176.1328186.0203207.2.02.5157092.0031386.949225-.3864226 1.0010282-.899533s-.2950985-.9814619-.8010282-1.081467l-1.115-.223.971-.971c1.3581372 1.0241966 3.0160171 1.572137 4.717 1.559 2.1197198-.0217914 4.1660325-.7793053 5.789-2.143l3.763-3.092c.7540386-.613433.9039593-1.7061493.343-2.5l.387-.082c1.8457687-.4124257 3.5903504-1.1900243 5.131-2.287.5321944-.3727718.8306985-.9967098.787-1.645-.021518-.343922-.1393379-.6748571-.34-.955.128-.024.256-.049.382-.076 1.9137631-.3992878 3.7215735-1.1984047 5.305-2.345.4067642-.2963014.6746741-.7460499.7415307-1.2448302.0668566-.4987804-.0731556-1.0032068-.3875307-1.3961698.9300427-.1844783 1.8470051-.4296697 2.745-.734.6534507-.211798 1.1975332-.671844 1.515-1.281zm-2.155-.611c-1.8079202.581021-3.6746354.9599984-5.566 1.13-.4428946.0471173-.8012418.3814672-.8788959.8200393-.0776542.4385721.1441053.8756365.5438959 1.0719607.0828368.0357861.1676401.0668361.254.093.6163814.1839369 1.2180744.4139173 1.8.688-1.3066048.8992792-2.7798065 1.5282714-4.333 1.85-1.059.22-2.211.4-3.423.525-.4332484.0464004-.7865808.3679896-.8734398.7949705-.0868591.4269808.112752.8610532.4934398 1.0730295.1140416.0584912.2345245.1034625.359.134.5706526.1627824 1.1287769.3666481 1.67.61-1.3024245.884692-2.761945 1.5122859-4.3 1.849-1.1185244.25505-2.2497767.4506575-3.389.586-.4955086.051756-.87734.4603565-.8954537.9582313-.0181137.4978749.3330161.933142.8234537 1.0207687.6187557.1189954 1.2224337.3061356 1.8.558l-3.588 2.948c-1.2650356 1.0677998-2.8616835 1.6630522-4.517 1.684-1.1690884.0084479-2.3133204-.3374017-3.282-.992l21.026-21.025c.3397768-.3967603.3169323-.9881942-.0524368-1.35756322-.369369-.36936905-.9608029-.39221358-1.3575632-.05243678l-4.334 4.333-.331-4.984c-.036727-.55228474-.5142153-.97022691-1.0665-.93349997-.5522847.03672693-.9702269.51421523-.9335 1.06649997l.448 6.731-4.014 4.014-.207-3.116c-.0237582-.3572656-.2363105-.6747178-.5575907-.8327754-.3212801-.1580577-.702478-.132708-1 .0665-.297522.1992079-.4661675.5420098-.4424093.8992754l.323 4.863-8.915 8.915c-1.5790034-2.4803778-1.3533941-5.7009902.556-7.937l2.953-3.585c.254871.579648.4437252 1.1861282.563 1.808.0858623.4903286.5192924.8428453 1.0168299.8270066.4975376-.0158387.9076686-.3952096.9621701-.8900066.1899782-1.8242479.6643891-3.6075062 1.406-5.285.4848443-1.0611089 1.0606618-2.0782414 1.721-3.04 1.3639448-2.0318796 2.8895582-3.95043378 4.562-5.737l.3-.319c1.444-1.549 2.936-3.151 4.774-3.88 1.4327674-.59669385 3.0148409-.73639129 4.53-.4 3.9800734.92323967 6.7640365 4.51545014 6.665 8.6-.0269373 1.2283029-.3348066 2.4341242-.9 3.525-.0814692.1569657-.2233786.2739597-.393.324z"/><circle id="Oval" cx="49" cy="7" r="1"/></g></g></svg>