<svg id="Layer_1" viewBox="0 0 24 24" xmlns="http://www.w3.org/2000/svg" data-name="Layer 1"><path d="m23.94 9.515-.037-.418c-3.103-.368-5.873.271-7.315 1.949-1.921 2.123-1.623 5.166-1.494 6.01l-2.594 2.594v-7.026c.468-.325 3.345-2.452 3.507-5.698.174-2.324-1.4-4.857-3.993-6.906-2.595 2.05-4.167 4.581-3.993 6.906.16 3.196 2.947 5.304 3.479 5.679v7.046l-2.594-2.594c.128-.844.427-3.888-1.494-6.01-1.44-1.68-4.213-2.319-7.315-1.949-.064.531-.097.903-.097 1.561 0 2.453.654 4.558 2.046 5.753 1.829 1.672 4.558 1.761 6.253 1.452l3.201 3.201v2.936h1v-2.936l3.201-3.201c1.698.309 4.421.221 6.253-1.452 1.383-1.251 2.046-3.167 2.046-5.706 0-.4-.024-.78-.06-1.191zm-16.025 7.4c-.687.103-3.407.376-5.198-1.244-1.279-1.157-1.847-3.055-1.692-5.646 2.594-.151 4.489.413 5.646 1.692 1.62 1.791 1.346 4.509 1.244 5.198zm4.099-5.173c-.567-.416-2.864-2.26-2.994-4.866-.092-1.841.915-3.704 2.994-5.543 2.079 1.839 3.086 3.702 2.994 5.543-.13 2.596-2.428 4.448-2.995 4.866zm9.27 3.929c-1.792 1.621-4.511 1.347-5.198 1.244-.102-.688-.376-3.407 1.244-5.198 1.157-1.279 3.055-1.844 5.646-1.692.155 2.591-.413 4.489-1.692 5.646z"/></svg>