<svg id="Layer_1" enable-background="new 0 0 500 500" viewBox="0 0 500 500" xmlns="http://www.w3.org/2000/svg"><path clip-rule="evenodd" d="m308.506 307.369c-.431-.877-2.424-3.468-2.093-4.292.366-.909-1.886-2.727-2.392-4.536-.396-1.414-3.659-10.2-3.389-10.92.447-1.194-.239-1.657-.449-2.677-1.511-7.358-1.542-10.874-.698-17.883.216-1.797 1.494-7.192 2.293-9.096 1.802-4.296 1.457-3.766 4.287-8.424 5.72-9.412 20.023-17.561 24.772-30.309 1.017-2.73 1.573-7.421 1.446-10.148-.301-6.472-2.197-10.645-.947-16.448.698-2.981 1.894-5.667 3.888-8.179.449-.454.748-.977 1.146-1.41 3.473-3.375 7.568-5.937 11.663-8.693l2.392-1.196c.897-.638 1.645-1.495 2.791-1.744.05-.01.1-.045.1-.09.173-.436 1.958-.77 2.691-1.505.728-.731 6.032-2.254 7.975-3.16 2.346-1.094 4.803-.875 5.682-1.65.399-.344.847-.618 1.296-.842l1.046 7.192c1.329 11.58.959 24.603-.648 36.151-.282 2.023-2.848 15.279-3.688 17.45l-3.14 10.029-3.589 8.862c-5.267 11.384-10.152 20.28-18.193 30.568-9.545 12.212-21.532 24.138-34.242 32.95zm103.922-116.039c.927-31.517-5.538-61.34-19.788-89.458-1.544-3.046-3.602-5.985-4.486-8.752-1.111-3.479-12.048-18.971-15.102-22.943l-9.071-11.095c-1.118 1.192-3.622 4.117-4.885 4.65-.929.393-6.41 5.659-7.078 6.445-1.64 1.931-6.923 7.038-9.171 8.757 9.21 9.649 17.237 20.806 23.476 32.527 18.763 35.252 23.535 73.838 13.757 112.909-4.414 17.637-15.391 40.621-27.064 54.907-2.812 3.441-5.905 8.176-9.57 10.935-.598.449-1.246 1.091-1.844 1.695-4.758 4.926-12.24 11.545-17.894 15.78-7.322 5.486-11.675 7.927-19.787 12.486-3.401 1.911-14.119 6.518-17.594 7.935-2.878 1.174-11.98 4.979-14.903 4.979l-11.165 2.258c-6.456 1.139-7.298 1.611-14.554 2.203-3.764.307-11.83.077-15.451-.648 2.195-.545 6.568-.564 9.271-.982-2.687-.108-1.904.124.299-1.042-.477-.164-6.776-.102-2.841-.633 7.405-1.006 12.783-1.864 20.236-3.499 16.419-3.603 33.698-11.568 47.5-20.744-2.668-2.536-7.757-8.412-9.819-11.379-4.391-6.321-5.305-9.571-6.928-16.976-.454-2.07-.386-3.338-.698-4.63-.414-1.713.057-1.919-.1-2.492-.328-1.197-.136-6.277 0-7.392l1.196-8.404c.199-.708.399-1.4.548-2.108 1.664-7.711 6.325-15.887 11.264-21.801l8.025-9.131 6.33-6.749 2.542-4.675c2.268-5.393-7.145-21.336 5.383-38.08 4.585-6.128 12.127-11.171 19.14-14.39 3.878-1.78 12.996-4.775 16.548-4.491 4.137.336 3.617-.745 11.613.498l-1.695-7.432c-1.994-7.302-4.586-14.424-7.626-21.333-10.096-22.842-25.877-42.423-45.955-57.239-1.463 7.614-5.864 18.409-11.015 24.583-7.877 9.44-15.958 10.291-26.716 14.579-4.615 1.84-14.09 5.309-16.697 9.126-1.39 2.034-1.428 5.839-.498 7.755 1.672 3.444 8.372 4.222 11.464 6.086 1.763 1.062 2.99.955 6.43 3.454 5.066 3.68 7.912 8.48 9.57 14.255l1.246 6.564c.359 7.17-.808 12.156-4.685 18.686-3.694 6.222-14.41 17.79-20.137 22.908-6.924 6.189-6.896 4.877-8.523 13.158-2.375 12.087-2.314 22.847-9.47 33.37l-10.168 13.024c-2.688 3.117-9.418 9.512-12.71 12.177-4.507 3.648-10.779.165-10.965-4.526l-.548-4.994-5.732-49.449c-.648-1.381-1.396-2.716-2.193-3.958-2.305-3.636-5.22-6.375-8.673-8.498-5.796-3.564-14.273-2.031-21.582-8.742-5.082-4.667-8.9-13.174-9.819-19.678-2.179-15.415 9.062-22.3 21.233-28.814 11.696-6.26 26.447-6.792 24.523-14.903-1.457-6.138-9.399-10.375-15.152-13.807-3.26-1.944-7.046-3.513-10.716-4.545-4.713-1.326-9.724-1.763-13.856-2.921-7.884-2.21-14.336-4.272-20.236-10.203-4.725-4.749-8.485-10.103-11.264-16.099-1.296 1.186-2.642 2.403-3.938 3.634-9.939 9.339-19.189 21.691-25.868 33.444-7.121 13.168-11.748 25.351-14.853 39.919-.895 4.2-2.254 12.661-2.492 16.777 4.449 1.336 7.822 2.563 12.012 4.586 4.556 2.199 12.309 8.673 13.806 13.707l.997 2.188c2.18 6.651 1.569 10.346 4.486 16.239 1.837 3.712 4.553 6.799 7.975 9.141 2.311 1.582 6.391 2.661 8.623 3.728 1.83 1.047 3.072 1.215 6.081 2.976 5.504 3.222 8.079 5.736 12.062 10.592 7.359 8.973 10.175 18.195 8.922 29.786-.552 5.107-2.012 9.453-2.891 14.156-.199 1.027-.299 2.033-.698 3l-.449 4.496c-.421 4.102-.297 7.283-.249 11.504.016 1.418-.479 1.065-.1 4.276l.15 6.2c5.138 3.512 13.468 7.466 19.389 10.068 11.975 5.265 24.03 8.56 36.784 11.334 1.873.374 1.46.974 6.33 1.914 2.51.484 1.855.824 6.579 1.49-2.293.159-4.586.199-6.081.653-.349.11-1.595.115-2.392.035-3.991-.338-4.759.319-7.327.204-2.481-.111-20.025-2.05-21.931-2.532-10.394-2.628-23.526-7.508-33.295-12.231-6.392-3.091-16.113-9.255-21.482-13.333l-7.526-5.812c-3.079-2.168-4.45-3.554-7.127-6.071-.199.317-1.547 1.458-2.293 2.901-.499 1.002-1.445 2.073-2.442 3.145-2.641 2.746-4.984 5.533-6.978 8.384-1.22 1.766-6.368 6.842-8.025 8.483 3.409 3.002 18.251 15.413 23.625 18.163 2.913 1.491 7.225 4.483 9.121 5.243.15.06.349.16.499.259 4.792 3.075 8.733 4.083 13.308 6.469 11.124 5.803 33.899 12.679 44.759 14.604l14.803 2.368 7.626.618c28.131 2.115 56.759-2.555 82.739-13.587 9.327-3.961 14.243-6.696 22.927-11.519 5.321-2.955 19.048-12.53 23.626-16.588 12.044-10.678 16.854-15.597 26.915-28.336 4.401-5.572 10.114-13.981 13.457-19.762 7.253-12.544 11.292-20.599 16.049-34.426 4.028-11.708 6.966-24.29 8.423-36.545l1.096-11.464c-.002-1.18.048-2.356.098-3.532zm-184.468 225.234-7.875-.239c.638-1.792 1.581-6.571 2.093-7.581l1.844-5.408c.349-1.459.213-4.138.498-4.73l.698-3.853c.05-.359-.05-.733 0-1.096l1.296-8.837c-.537-2.147.32-1.113-.449-2.073l8.573.025.847 9.321.05 5.717.847 3.295c0 .463.449.832.299 1.321l.648 3.863c.1.354.299.688.349 1.032l1.844 8.743c.1.194.199.389.299.583-3.936-.053-7.923-.053-11.861-.083zm-118.177-157.787c-7.412-12.388-11.065-21.439-14.753-34.426-4.008-14.11-5.532-28.571-5.034-43.169l7.277 5.966c.733.87 1.689 1.278 1.745 1.79.105.974 1.159 1.287 1.695 1.824 4.85 4.868 5.017 5.579 6.081 12.281.349 2.118.449 4.815 1.296 7.681.656 1.945.672 2.69 1.695 5.019 4.597 10.469 10.889 16.01 21.283 20.67 1.895.85 6.73 2.946 8.274 4.207 2.1 1.715 1.311.662 3.14 2.841 7.374 8.781 9.423 14.981 7.078 26.382-.149.653-.149 1.351-.349 2.019-.769 2.723-2.043 10.105-2.043 12.715l.15 6.829c.299 1.186.748 2.318.698 3.549 0 .055.05.125.05.18.299.528.299 1.126.399 1.7.143 1.06.602 1.36 1.047 3.399.149.957.498 1.884.698 2.826-16.488-12.342-29.829-26.544-40.427-44.283zm41.22-188.999c-.399.309-.847.628-1.296.947-3.09 2.178-6.081 4.516-8.972 6.968.104.135 1.095.743 2.492 2.417 4.257 5.103 5.521 4.842 7.975 7.158 5.291 4.992 8.829 6.848 15.85 8.06 5.675.979 19.858 2.059 24.921 3.923l5.533 2.098c3.173 1.812 6.298 2.992 9.32 4.605 4.021 2.147 9.595 6.753 12.311 10.552 4.21 5.886 5.932 13.766 3.09 20.555-4.822 11.519-18.399 13.676-27.962 17.684l-5.184 2.796c-3.832 2.174-8.58 4.524-10.666 8.483-1.57 2.98 1.484 9.027 2.791 11.594.662 1.3 1.4 2.02 2.392 2.881 4.362 3.781 23.426.145 35.538 26.212.438.943.861 1.718.897 2.786l1.645 15.93c.349 3.03.797 6.076.947 9.076.201 4.07 1.645 13.364 1.645 15.366 4.127-4.651 10.182-11.32 12.411-16.503 2.422-5.634 3.542-15.423 4.885-22.14 1.715-8.584 2.975-12.752 9.57-18.277 5.265-4.411 5.737-4.538 11.215-10.298 6.049-6.36 15.112-15.036 13.607-24.398-.449-2.797-.863-4.516-2.143-7.182-2.88-6.001-10.861-7.24-17.146-10.616-8.047-4.323-10.613-13.08-8.374-21.417 1.359-5.058 4.583-7.969 8.423-10.881 3.188-2.416 5.034-2.34 7.626-3.294l11.065-3.753c7.247-2.034 12.705-2.651 19.14-6.2 3.069-1.693 5.415-5.174 7.327-8.015 1.673-2.485 1.282-.925 2.592-2.941 3.657-5.629 3.907-9 6.629-14.609-6.131-4.432-10.621-6.645-17.246-10.068-6.705-3.465-12.43-5.616-19.588-7.89l-7.825-2.223c-7.698-2.368-21.459-4.126-29.407-4.421-6.14-.228-16.253-.147-22.529.807-12.388 1.883-21.136 3.425-33.494 8.184-10.616 4.122-20.684 9.5-30.005 16.044zm273.886 109.729c-.644-13.882-2.099-23.845-5.134-37.113-.449-1.994-.897-3.998-1.545-5.916-.199-.479-.349-1.027-.449-1.505-1.02-5.08-6.613-20.183-8.822-25.011-6.846-14.958-13.536-26.919-23.974-39.396-6.245-7.464-12.501-13.72-19.638-20.092-.897-.777-2.243-.703-3.04.195l-16.448 18.85c-1.944 2.178-3.888 4.361-5.682 6.564l-4.187-4.067c-24.927-23.947-58.86-39.247-93.455-41.474-8.891-.572-15.058-.47-23.924.085-10.035.627-24.4 3.496-33.793 6.295-21.604 6.587-43.012 18.794-59.562 34.177-30.553 28.399-49.797 68.941-50.341 110.86-.22 16.979.668 24.674 4.486 41.524 1.407 6.208 5.103 17.179 7.825 23.117 2.671 5.827 5.437 11.319 8.822 16.777 2.587 4.171 7.635 12.207 10.617 15.701l12.012 13.138c.897.783 1.794 1.645 2.641 2.517-2.54 1.561-2.413.981-3.489 1.71-6.1 4.129-12.048 9.549-17.844 14.24-2.243 1.814-4.436 3.718-6.629 5.667 0 .023-3.334 3.143 0 6.525l6.729 7.083 7.426 7.521c4.114 3.47 6.606 5.733 11.065 9.056 15.096 11.25 31.575 19.586 49.294 25.584l7.676 2.597c8.098 2.4 15.133 3.889 23.376 5.473l13.408 1.724c-1.362 4.581-1.939 6.315-2.093 11.354 0 1.241.149 2.215-.15 3.469-.05.179.05.379.05.558l-.299 3.03c.282 2.219-.798 7.007-.798 10.562v1.685c.137.151-.377.055-.1.549l-.1 3.08-20.137-.299-49.992.09c-2.592.035-5.084 1.371-6.43 3.753l-10.467 18.083c-3.19 5.632-6.38 11.275-9.57 16.877-1.508 2.605-3.706 5.421-3.688 8.164.05 3.853 3.14 6.978 7.028 6.973l27.114-.214 16.897-.125 10.866-.289c26.18-.504 52.829-.265 79.05-.523l19.389-.284c2.642-.03 5.333-.035 7.975-.105 2.941-.09 5.931.095 8.872-.18.399-.035.798-.045 1.146 0 1.856.239 5.059-.031 7.277-.055l23.974-.319c9.928-.163 17.006-.635 26.865-1.336 3.509-.25 4.516-3.116 2.891-5.647-1.794-2.572-3.639-5.074-5.433-7.576-2.542-3.549-5.034-7.117-7.576-10.492-2.343-3.08-4.586-6.225-6.779-9.34-.509-.727-5.21-7.569-5.233-6.579.199.763.797 1.495.847 2.233-.15-.03-.349-.055-.498-.08-.177-.07-.785-.944-.149.768-.597-.836-2.136-3.196-2.741-3.614.415 2.86 4.385 10.825 6.23 13.522.474.686 3.026 5.418 3.09 6.205.105 1.276 2.97 5.446 3.838 6.813.897 1.391 1.794 2.806 2.492 4.276.1.16.15.319.249.478-2.121-.017-10.871-.092-11.863-.379-2.352-.68-4.996-.293-7.576-.324-1.196-.015-2.392-.095-3.639-.105l-79.449-.618-66.391-1.012-18.043.055c-5.394.024-10.981.322-16.398.204-1.296-.025-2.592-.01-3.888.02l14.205-24.114 46.553-.159c1.944-.01 3.888-.115 5.832-.08 3.788.07 7.576.105 11.364.025 7.327-.149 14.604.055 21.981-.299l11.464-.429c1.744-.045 3.389.055 5.134-.095 2.941-.269 5.882-.708 8.822-.593.149 0 .299-.01.449-.035 2.586-.446 5.075.007 8.124-.523 1.599-.278 12.03-.424 13.358-.428 5.572-.019 11.252-.767 16.398-.688 1.863.029 7.221.041 9.021-.329 2.791-.568 5.632-.832 8.473-.932 3.444-.113 3.095-.757 5.881-.802.449-.01 1.047-.02 1.346-.125.997-.434 2.243-.523 3.589-.718-2.435-.504-2.39-.99-2.891-1.141-3.192-.967-1.714-1.089-2.791-1.301-1.296-.284-2.542-.623-3.937-.832l-20.386-2.303c-3.14-.224-6.38-.419-9.371-.897-5.528-.891-21.028-1.229-27.912-1.43l.2-2.582-.2-1.405c.221-.81.031-.85-.05-1.7 0-.159.1-.329.05-.488-.361-1.782-.053-2.799-1.047-5.876l-.698-2.348c-.696-2.105-.503-.733-.997-3.315-.05-.174-.2-.334-.249-.513l-.748-2.956c-1.293-2.589-1.331-5.604-2.243-8.358l-1.196-3.429c0-.233.167-.323-.05-.548l-.449-1.311c27.389-2.244 53.66-10.142 77.755-23.586 9.623-5.369 18.746-11.66 27.413-18.442l9.919-8.448c11.667-10.645 17.127-17.279 26.317-29.153 3.311-4.278 9.455-14.359 12.311-19.419 2.719-4.987 5.34-10.057 7.676-15.232 10.634-23.557 17.173-48.976 17.594-74.968.05-2.313.1-4.635.15-6.953z" fill="rgb(0,0,0)" fill-rule="evenodd"/></svg>