<svg id="Layer_1" enable-background="new 0 0 512 512" viewBox="0 0 512 512" xmlns="http://www.w3.org/2000/svg"><g><g><path d="m448.3 348.6c-2.7 0-4.9-2.2-4.9-4.9v-270c0-2.7 2.2-4.9 4.9-4.9s4.9 2.2 4.9 4.9v270c0 2.8-2.2 4.9-4.9 4.9z"/></g><g><path d="m63.7 348.6c-2.7 0-4.9-2.2-4.9-4.9v-270c0-2.7 2.2-4.9 4.9-4.9s4.9 2.2 4.9 4.9v270c0 2.8-2.2 4.9-4.9 4.9z"/></g><g><path d="m416.1 318h-320.1c-2.7 0-4.9-2.2-4.9-4.9v-208.8c0-2.7 2.2-4.9 4.9-4.9h320.1c2.7 0 4.9 2.2 4.9 4.9v208.7c0 2.8-2.2 5-4.9 5zm-315.2-9.8h310.3v-199h-310.3z"/></g><g><path d="m461.4 78.7h-410.7c-4.6 0-8.3-3.7-8.3-8.3v-21.1c0-4.6 3.7-8.3 8.3-8.3h410.6c4.4 0 8.2 3.6 8.4 8v.3 21.1c0 4.6-3.7 8.3-8.3 8.3zm-409.3-9.7h407.9v-18.2h-407.9z"/></g><g><path d="m461.4 376.6h-410.7c-4.6 0-8.3-3.7-8.3-8.3v-21.1c0-4.6 3.7-8.3 8.3-8.3h410.6c4.4 0 8.2 3.6 8.4 8v.3 21.1c0 4.6-3.7 8.3-8.3 8.3zm-409.3-9.8h407.9v-18.2h-407.9z"/></g><g><g><g><g><g><path d="m141.7 471h-32.5c-2.5 0-4.8-1.3-6-3.4s-1.2-4.8 0-6.9l51-91.3c1.3-2.4 4.3-3.2 6.6-1.9 2.4 1.3 3.2 4.3 1.9 6.6l-48.7 87.1h27.3l51.3-91.9c1.3-2.4 4.3-3.2 6.6-1.9 2.4 1.3 3.2 4.3 1.9 6.6l-51.5 92.3c-1.5 2.8-4.6 4.7-7.9 4.7z"/></g></g></g></g><g><g><g><g><path d="m402.9 471h-32.5c-3.3 0-6.5-1.9-8-4.7l-51.5-92.2c-1.3-2.4-.5-5.3 1.9-6.6s5.3-.5 6.6 1.9l51.3 91.9h27.3l-48.6-87.1c-1.3-2.4-.5-5.3 1.9-6.6s5.3-.5 6.6 1.9l51 91.4c1.2 2.1 1.2 4.7 0 6.9-1.3 1.9-3.6 3.2-6 3.2z"/></g></g></g></g></g><g><g><g><g><path d="m227.4 242.9c-1.3 0-2.5-.5-3.5-1.4l-58.5-58.5c-1.9-1.9-1.9-5 0-6.9s5-1.9 6.9 0l58.5 58.5c1.9 1.9 1.9 5 0 6.9-.9.9-2.2 1.4-3.4 1.4z"/></g><g><path d="m168.8 242.9c-1.3 0-2.5-.5-3.5-1.4-1.9-1.9-1.9-5 0-6.9l58.5-58.5c1.9-1.9 5-1.9 6.9 0s1.9 5 0 6.9l-58.5 58.5c-.9.9-2.1 1.4-3.4 1.4z"/></g></g><g><g><path d="m320.3 213.6c-1.5 0-2.9-.6-3.9-1.9l-22.9-29.2c-1.7-2.1-1.3-5.2.8-6.9s5.2-1.3 6.9.8l22.9 29.2c1.7 2.1 1.3 5.2-.8 6.9-.9.7-1.9 1.1-3 1.1z"/></g><g><path d="m297.4 242.9c-1.1 0-2.1-.3-3-1-2.1-1.7-2.5-4.7-.8-6.9l45.7-58.5c1.7-2.1 4.7-2.5 6.9-.8 2.1 1.7 2.5 4.7.8 6.9l-45.7 58.4c-1 1.3-2.4 1.9-3.9 1.9z"/></g></g></g><g><g><path d="m262.5 230c-2.7 0-4.9-2.2-4.9-4.9v-32.7c0-2.7 2.2-4.9 4.9-4.9s4.9 2.2 4.9 4.9v32.7c-.1 2.7-2.3 4.9-4.9 4.9z"/></g><g><path d="m278.8 213.6h-32.8c-2.7 0-4.9-2.2-4.9-4.9s2.2-4.9 4.9-4.9h32.7c2.7 0 4.9 2.2 4.9 4.9.1 2.7-2.1 4.9-4.8 4.9z"/></g></g><g><g><path d="m154.3 258.1c-.9 0-1.8-.2-2.6-.7-13.5-8.3-22.3-27.3-22.3-48.5 0-21.4 8.8-40.4 22.3-48.6 2.3-1.4 5.3-.6 6.7 1.7s.6 5.3-1.7 6.7c-10.5 6.3-17.6 22.5-17.6 40.2 0 17.6 7.1 33.7 17.6 40.2 2.3 1.4 3 4.4 1.6 6.7-.8 1.4-2.4 2.3-4 2.3z"/></g><g><path d="m357.7 258c-1.7 0-3.3-.8-4.2-2.4-1.4-2.3-.6-5.3 1.7-6.7 10.5-6.3 17.6-22.5 17.6-40.2 0-17.6-7.1-33.7-17.6-40.2-2.3-1.4-3-4.4-1.6-6.7s4.4-3 6.7-1.6c13.5 8.3 22.3 27.3 22.3 48.5 0 21.4-8.8 40.4-22.3 48.6-.8.4-1.7.7-2.6.7z"/></g></g></g></g></svg>