<svg height="512pt" viewBox="-12 0 512 512" width="512pt" xmlns="http://www.w3.org/2000/svg"><path d="m247.734375 131.945312c23.992187 0 47.265625 6.855469 67.308594 19.828126 3.480469 2.25 8.121093 1.257812 10.371093-2.21875 2.25-3.480469 1.257813-8.121094-2.21875-10.375-22.476562-14.542969-48.570312-22.234376-75.460937-22.234376-76.671875 0-139.050781 62.378907-139.050781 139.054688s62.378906 139.054688 139.050781 139.054688c76.675781 0 139.054687-62.378907 139.054687-139.054688 0-34.425781-12.675781-67.460938-35.6875-93.019531-2.773437-3.078125-7.515624-3.324219-10.59375-.554688-3.078124 2.769531-3.324218 7.515625-.554687 10.59375 20.53125 22.796875 31.835937 52.269531 31.835937 82.980469 0 39.867188-18.910156 75.398438-48.226562 98.109375-2.65625-15.890625-15.699219-28.300781-31.882812-29.972656h26.585937c6.019531 0 10.914063-4.894531 10.914063-10.910157v-34.722656c.816406-2.203125 1.28125-4.574218 1.28125-7.058594v-15.5c0-2.484374-.46875-4.855468-1.28125-7.058593v-36.621094c0-33.101563-26.90625-60.027344-59.976563-60.027344h-42.933594c-33.070312 0-59.972656 26.929688-59.972656 60.027344v36.609375c-.820313 2.207031-1.289063 4.582031-1.289063 7.066406v15.503906c0 2.488282.46875 4.863282 1.289063 7.066407v34.714843c0 6.015626 4.894531 10.90625 10.90625 10.90625h26.585937c-16.183593 1.675782-29.226562 14.085938-31.878906 29.976563-29.316406-22.710937-48.226562-58.242187-48.226562-98.109375 0-68.402344 55.648437-124.054688 124.050781-124.054688zm66.445313 177.191407h-15.132813c3.835937-5.113281 6.746094-10.953125 8.507813-17.269531h2.492187c1.414063 0 2.796875-.144532 4.132813-.421876zm1.285156-37.6875c0 2.988281-2.433594 5.417969-5.417969 5.417969h-.558594v-26.34375h.558594c2.984375 0 5.417969 2.433593 5.417969 5.421874zm-135.453125-15.503907c0-2.988281 2.429687-5.421874 5.417969-5.421874h.554687v26.34375h-.554687c-2.988282 0-5.417969-2.429688-5.417969-5.417969zm1.285156 53.191407v-17.6875c1.335937.273437 2.714844.417969 4.132813.417969h2.488281c1.765625 6.316406 4.671875 12.15625 8.507812 17.273437h-15.128906zm4.6875-75.929688v2.316407h-.558594c-1.414062 0-2.792969.148437-4.128906.421874v-23.675781c0-24.832031 20.175781-45.03125 44.972656-45.03125h42.933594c24.800781 0 44.976563 20.199219 44.976563 45.03125v23.675781c-1.335938-.273437-2.71875-.421874-4.132813-.421874h-.558594v-2.316407c0-6.019531-4.894531-10.914062-10.910156-10.914062h-6.207031c-7.882813 0-15.191406-3.902344-19.535156-10.425781-2.023438-3.054688-5.417969-4.875-9.082032-4.875-3.664062 0-7.0625 1.820312-9.078125 4.859374-4.359375 6.539063-11.664062 10.441407-19.546875 10.441407h-38.238281c-6.011719 0-10.90625 4.894531-10.90625 10.914062zm15 44.613281v-40.527343h34.144531c11.03125 0 21.382813-4.675781 28.621094-12.730469 7.234375 8.054688 17.585938 12.730469 28.621094 12.730469h2.117187v40.527343c0 20.5625-16.726562 37.285157-37.28125 37.285157h-18.941406c-20.554687 0-37.28125-16.722657-37.28125-37.285157zm58.84375 52.21875v1.050782c0 6.890625-5.421875 12.5-12.089844 12.5s-12.09375-5.609375-12.09375-12.5v-1.050782c.871094.046876 1.742188.066407 2.621094.066407h18.941406c.878907 0 1.753907-.019531 2.621094-.066407zm-73.421875 30.050782c0-11.664063 9.476562-21.152344 21.121094-21.152344h14.25c3.335937 11.351562 13.710937 19.652344 25.960937 19.652344s22.621094-8.300782 25.960938-19.652344h14.242187c11.648438 0 21.125 9.488281 21.125 21.152344v3.710937c-18.101562 10.339844-39.035156 16.253907-61.332031 16.253907-22.292969 0-43.226563-5.914063-61.328125-16.25zm0 0"/><path d="m221.042969 264.003906c4.144531 0 7.5-3.359375 7.5-7.5v-10.335937c0-4.144531-3.355469-7.5-7.5-7.5s-7.5 3.355469-7.5 7.5v10.335937c0 4.140625 3.355469 7.5 7.5 7.5zm0 0"/><path d="m274.433594 264.003906c4.140625 0 7.5-3.359375 7.5-7.5v-10.335937c0-4.144531-3.359375-7.5-7.5-7.5-4.144532 0-7.5 3.355469-7.5 7.5v10.335937c0 4.140625 3.355468 7.5 7.5 7.5zm0 0"/><path d="m250.152344 275.484375h5.332031c4.144531 0 7.5-3.355469 7.5-7.5s-3.355469-7.5-7.5-7.5h-2.832031v-6.132813c0-4.140624-3.359375-7.5-7.5-7.5-4.144532 0-7.5 3.359376-7.5 7.5v8.632813c0 6.894531 5.605468 12.5 12.5 12.5zm0 0"/><path d="m225.710938 287.679688c0 11.40625 9.878906 20.683593 22.023437 20.683593s22.027344-9.277343 22.027344-20.683593c0-4.140626-3.359375-7.5-7.5-7.5-4.144531 0-7.5 3.359374-7.5 7.5 0 3.082031-3.21875 5.683593-7.027344 5.683593s-7.023437-2.601562-7.023437-5.683593c0-4.140626-3.355469-7.5-7.5-7.5-4.144532 0-7.5 3.359374-7.5 7.5zm0 0"/><path d="m234.785156 48.574219v-4.964844c0-4.140625-3.355468-7.5-7.5-7.5-4.140625 0-7.5 3.359375-7.5 7.5v4.964844c0 4.144531 3.359375 7.5 7.5 7.5 4.144532 0 7.5-3.355469 7.5-7.5zm0 0"/><path d="m268.183594 36.109375c-4.140625 0-7.5 3.359375-7.5 7.5v4.964844c0 4.144531 3.359375 7.5 7.5 7.5 4.144531 0 7.5-3.355469 7.5-7.5v-4.964844c0-4.140625-3.355469-7.5-7.5-7.5zm0 0"/><path d="m263.03125 59.769531c-4.144531 0-7.5 3.355469-7.5 7.5 0 3.347657-3.570312 6.175781-7.796875 6.175781-4.222656 0-7.792969-2.828124-7.792969-6.175781 0-4.144531-3.355468-7.5-7.5-7.5-4.140625 0-7.5 3.355469-7.5 7.5 0 11.675781 10.226563 21.175781 22.792969 21.175781 12.570313 0 22.796875-9.5 22.796875-21.175781 0-4.144531-3.355469-7.5-7.5-7.5zm0 0"/><path d="m480.734375 385.5c4.144531 0 7.5-3.355469 7.5-7.5v-29.035156c0-6.894532-5.605469-12.5-12.5-12.5h-13.496094v-17.183594c0-6.292969-2.132812-12.089844-5.703125-16.722656v-144.210938l18.21875-17.746094c5.632813-5.488281 8.734375-12.800781 8.734375-20.585937s-3.101562-15.097656-8.734375-20.582031c-5.578125-5.4375-12.984375-8.429688-20.851562-8.429688-7.867188 0-15.273438 2.992188-20.847656 8.429688l-5.695313 5.546875-5.691406-5.546875c-5.578125-5.4375-12.980469-8.429688-20.847657-8.429688-5.226562 0-10.246093 1.328125-14.664062 3.808594l-83.664062-48.300781c-4.390626-26.355469-27.265626-46.511719-54.757813-46.511719-27.488281 0-50.363281 20.15625-54.757813 46.511719l-89.945312 51.933593c-2.074219-1.53125-4.628906-2.449218-7.398438-2.449218h-80.320312c-6.894531 0-12.5 5.605468-12.5 12.5v56.625c0 6.894531 5.605469 12.5 12.5 12.5h23.621094v38.378906c0 4.144531 3.359375 7.5 7.5 7.5 4.144531 0 7.5-3.355469 7.5-7.5v-38.378906h41.695312c6.894532 0 12.5-5.609375 12.5-12.5v-52.300782l84.679688-48.890624c3.964844 26.855468 27.082031 47.535156 54.925781 47.535156 27.847656 0 50.964844-20.679688 54.925781-47.535156l72.402344 41.800781c-2.492188 4.308593-3.828125 9.191406-3.828125 14.285156 0 7.789063 3.101563 15.097656 8.734375 20.589844l40.070312 39.03125c1.972657 1.917969 4.570313 2.972656 7.320313 2.972656s5.351563-1.054687 7.324219-2.976563l6.851562-6.675781v119.730469c-2.136718-.539062-4.367187-.828125-6.667968-.828125h-4.140626c-15.089843 0-27.367187 12.300781-27.367187 27.421875v17.183594h-13.5c-6.890625 0-12.5 5.605468-12.5 12.5v55.976562l-74.480469 43.003906c-3.917968-27.03125-27.148437-47.863281-55.144531-47.863281-27.992187 0-51.222656 20.832031-55.140625 47.863281l-84.820312-48.96875c5.976562-9.222656 9.460937-20.214843 9.460937-32.015624 0-32.46875-26.296875-58.882813-58.617187-58.882813-1.578126 0-3.136719.082031-4.683594.203125v-56.28125c0-4.144531-3.355469-7.5-7.5-7.5-4.144532 0-7.5 3.355469-7.5 7.5v59.503906c-22.667969 8.144532-38.933594 29.921875-38.933594 55.457032 0 32.464843 26.296875 58.878906 58.617188 58.878906 15.105468 0 28.894531-5.769532 39.300781-15.234375l94.875 54.777343c4.445312 26.421876 27.382812 46.617188 54.941406 46.617188 27.5625 0 50.5-20.195312 54.945313-46.617188l74.679687-43.121093v7.296875c0 6.890625 5.609375 12.5 12.5 12.5h85.875c6.894531 0 12.5-5.609375 12.5-12.5v-15.558594c0-4.144531-3.355469-7.5-7.5-7.5-4.140625 0-7.5 3.355469-7.5 7.5v13.058594h-80.875v-75.59375h11v9.320312c0 4.140625 3.355469 7.5 7.5 7.5s7.5-3.359375 7.5-7.5v-9.320312h28.878906v9.320312c0 4.140625 3.355469 7.5 7.5 7.5s7.5-3.359375 7.5-7.5v-9.320312h10.996094v26.535156c0 4.144531 3.359375 7.5 7.5 7.5zm-402.109375-274.503906-23.152344 17.855468-23.152344-17.855468zm14.507812 51.625h-75.320312v-43.871094l29.117188 22.457031c2.433593 1.878907 5.488281 2.816407 8.539062 2.816407 3.054688 0 6.105469-.9375 8.539062-2.816407l29.121094-22.457031v43.871094zm154.601563-66.15625c-22.347656 0-40.53125-18.273438-40.53125-40.730469 0-22.460937 18.183594-40.734375 40.53125-40.734375 22.351563 0 40.53125 18.273438 40.53125 40.734375 0 22.457031-18.179687 40.730469-40.53125 40.730469zm-189.117187 314.375c-24.050782 0-43.613282-19.683594-43.613282-43.878906 0-24.195313 19.5625-43.882813 43.613282-43.882813 24.054687 0 43.617187 19.6875 43.617187 43.882813 0 24.195312-19.5625 43.878906-43.617187 43.878906zm194.878906 85.742187c1.300781-1.347656 2.101562-3.179687 2.101562-5.199219 0-4.144531-3.355468-7.5-7.5-7.5h-.726562c-4.140625 0-7.5 3.355469-7.5 7.5 0 2.019532.804687 3.851563 2.105468 5.199219-17.710937-2.53125-31.792968-16.554687-34.5-34.304687 1.277344 1.015625 2.890626 1.625 4.648438 1.625 4.144531 0 7.5-3.359375 7.5-7.5v-.722656c0-4.144532-3.355469-7.5-7.5-7.5-1.757812 0-3.371094.609374-4.648438 1.621093 2.707032-17.746093 16.789063-31.773437 34.5-34.304687-1.300781 1.347656-2.105468 3.179687-2.105468 5.203125 0 4.140625 3.359375 7.5 7.5 7.5h.730468c4.140626 0 7.5-3.359375 7.5-7.5 0-2.023438-.804687-3.855469-2.105468-5.203125 17.714844 2.53125 31.796875 16.558594 34.503906 34.308594-1.277344-1.015626-2.894531-1.625-4.652344-1.625-4.144531 0-7.5 3.355468-7.5 7.5v.722656c0 4.140625 3.355469 7.5 7.5 7.5 1.757813 0 3.375-.613282 4.652344-1.625-2.707031 17.75-16.789062 31.773437-34.503906 34.304687zm188.039062-160.117187h-23.175781v-17.183594c0-6.847656 5.546875-12.421875 12.367187-12.421875h4.140626c2.457031 0 4.742187.730469 6.667968 1.976563zm-14.175781-170.636719-36.921875-35.96875c-2.710938-2.640625-4.203125-6.136719-4.203125-9.84375s1.492187-7.199219 4.199219-9.835937c2.765625-2.691407 6.453125-4.175782 10.386718-4.175782 3.933594 0 7.621094 1.480469 10.378907 4.171875l10.925781 10.644531c2.910156 2.839844 7.554688 2.835938 10.46875 0l10.929688-10.644531c2.761718-2.691406 6.445312-4.171875 10.378906-4.171875 3.9375 0 7.621094 1.480469 10.386718 4.175782 2.707032 2.636718 4.199219 6.132812 4.199219 9.835937 0 3.707031-1.492187 7.203125-4.203125 9.84375zm0 0"/><path d="m66.339844 358.929688h-15.441406c-1.675782 0-3.039063-1.390626-3.039063-3.097657 0-1.703125 1.363281-3.089843 3.039063-3.089843h19.742187c4.140625 0 7.5-3.355469 7.5-7.5 0-4.144532-3.359375-7.5-7.5-7.5h-4.523437v-2.824219c0-4.140625-3.355469-7.5-7.5-7.5-4.140626 0-7.5 3.359375-7.5 7.5v2.824219h-.21875c-9.949219 0-18.039063 8.113281-18.039063 18.089843 0 9.980469 8.089844 18.097657 18.039063 18.097657h15.441406c1.675781 0 3.039062 1.386718 3.039062 3.089843 0 1.707031-1.363281 3.09375-3.039062 3.09375h-23.382813c-4.144531 0-7.5 3.359375-7.5 7.5 0 4.144531 3.355469 7.5 7.5 7.5h8.160157v.683594c0 4.140625 3.359374 7.5 7.5 7.5 4.144531 0 7.5-3.359375 7.5-7.5v-.683594h.222656c9.945312 0 18.039062-8.117187 18.039062-18.09375 0-9.972656-8.09375-18.089843-18.039062-18.089843zm0 0"/><path d="m275.71875 430.125c-2.792969-3.058594-7.535156-3.273438-10.59375-.480469l-17.167969 15.675781-9.492187-9.441406c-2.9375-2.921875-7.6875-2.90625-10.605469.027344-2.921875 2.9375-2.910156 7.6875.027344 10.609375l14.5625 14.480469c1.457031 1.453125 3.371093 2.183594 5.289062 2.183594 1.808594 0 3.621094-.648438 5.058594-1.960938l22.441406-20.496094c3.058594-2.792968 3.273438-7.539062.480469-10.597656zm0 0"/></svg>