<svg id="Layer_1" enable-background="new 0 0 100 100" height="512" viewBox="0 0 100 100" width="512" xmlns="http://www.w3.org/2000/svg"><path d="m79 10h-58c-6.0654297 0-11 4.9345703-11 11v41.7290039c0 6.0654297 4.9345703 11 11 11h28v14.2709961h-19.6513672c-.5527344 0-1 .4477539-1 1s.4472656 1 1 1h41.3027344c.5527344 0 1-.4477539 1-1s-.4472656-1-1-1h-19.6513672v-14.2709961h28c6.0654297 0 11-4.9345703 11-11v-41.7290039c0-6.0654297-4.9345703-11-11-11zm9 52.7290039c0 4.9624023-4.0371094 9-9 9h-58c-4.9628906 0-9-4.0375977-9-9v-41.7290039c0-4.9624023 4.0371094-9 9-9h58c4.9628906 0 9 4.0375977 9 9z"/><path d="m50 18.8212891c-12.7060547 0-23.0439453 10.3374023-23.0439453 23.043457s10.3378906 23.043457 23.0439453 23.043457 23.0439453-10.3374023 23.0439453-23.043457-10.3378906-23.043457-23.0439453-23.043457zm20.9932861 22.043457h-10.2567749c-.0745239-2.9092407-.4696045-5.7471924-1.1729126-8.4538574 2.3088379-1.0541992 4.4451294-2.4958496 6.3305664-4.2962036 2.9933472 3.4551391 4.8688965 7.8864746 5.0991211 12.750061zm-5.0988769 14.7498169c-1.8856201-1.800415-4.0219727-3.2421265-6.3308716-4.2962646.7033081-2.7064819 1.0983276-5.5443115 1.1729736-8.4535522h10.2567749c-.2302246 4.8634642-2.1056518 9.2946776-5.0988769 12.7498168zm-1.3941651 1.4623413c-2.7659302 2.6375122-6.2374268 4.5374756-10.109375 5.3630371 1.9800415-2.7438354 3.5258179-5.8361816 4.5979614-9.161377 2.0067139.9504395 3.8623048 2.2237549 5.5114136 3.7983399zm-30.3946533-1.4623413c-2.9932251-3.4551392-4.8686523-7.8863525-5.098877-12.7498169h10.2567749c.074646 2.9092407.4696655 5.7470703 1.1729736 8.4535522-2.3088988 1.0541382-4.4452514 2.4958496-6.3308715 4.2962647zm6.9055786-2.3359985c1.0721436 3.3251953 2.6179199 6.4175415 4.5979614 9.161377-3.8719482-.8255615-7.3434448-2.7255249-10.109375-5.3630371 1.6491089-1.5745851 3.5046998-2.8479005 5.5114136-3.7983399zm-6.9053344-25.1638794c1.885437 1.800354 4.0217285 3.2420044 6.3305664 4.2962036-.7033081 2.706665-1.0983887 5.5446167-1.1729126 8.4538574h-10.2567749c.2302246-4.8635864 2.1057739-9.2949219 5.0991211-12.750061zm1.394165-1.4623413c2.7658081-2.6373291 6.2371216-4.5371094 10.1087036-5.3626709-1.9799194 2.7437744-3.5256348 5.8361206-4.5976562 9.1611328-2.0065918-.9504395-3.8619995-2.223877-5.5110474-3.7984619zm6.8044434 6.5155029c2.4363403.8601074 5.0280151 1.3121338 7.6955566 1.3121338s5.2592163-.4520264 7.6955566-1.3121338c.6205444 2.4668579.9696045 5.0499878 1.0410767 7.6968994h-17.4732666c.0714722-2.6469116.4205322-5.2300415 1.0410767-7.6968994zm-1.0410157 9.6968994h17.4731445c-.0715332 2.6469116-.4205933 5.2298584-1.0411377 7.6966553-2.4363403-.8599854-5.027893-1.3118897-7.6954345-1.3118897s-5.2590942.4519043-7.6954346 1.3118896c-.6205444-2.4667968-.9696045-5.0497436-1.0411377-7.6966552zm17.7255249-12.4139404c-1.0720215-3.3250122-2.6177368-6.4173584-4.5976562-9.1611328 3.871582.8255615 7.3428955 2.7253418 10.1087036 5.3626709-1.6490479 1.5745849-3.5044556 2.8480224-5.5110474 3.7984619zm-7.4245605-9.550293c2.477356 2.975769 4.3563232 6.4838867 5.5720825 10.3195801-2.2586059.812561-4.6577148 1.2598877-7.1364746 1.2598877s-4.8778687-.4473267-7.1364746-1.2598877c1.2157593-3.8356934 3.0947266-7.343811 5.5720825-10.3195801.5183716-.0383911 1.036377-.0792236 1.5643921-.0792236s1.0460205.0408325 1.5643921.0792236zm-3.1283569 41.9284668c-2.477417-2.9758301-4.3565063-6.4839478-5.5723267-10.3197021 2.2585449-.8125 4.6575928-1.2597656 7.1362915-1.2597656s4.8777466.4472656 7.1362915 1.2597656c-1.2158203 3.8357544-3.0949097 7.3438721-5.5723267 10.3197021-.5182495.0383911-1.0360717.0792236-1.5639648.0792236s-1.0457153-.0408325-1.5639648-.0792236z"/></svg>