<svg enable-background="new 0 0 64 64" height="512" viewBox="0 0 64 64" width="512" xmlns="http://www.w3.org/2000/svg"><g id="Grids" display="none"><g id="Grid_29_" display="inline"><g><path d="m51.9 4.1v55.8h-39.8v-55.8zm.1-.1h-40v56h40z" fill="#f00"/></g><g><path d="m59.9 12.1v39.8h-55.8v-39.8zm.1-.1h-56v40h56z" fill="#4600f0"/></g><g><path d="m55.9 8.1v47.8h-47.8v-47.8zm.1-.1h-48v48h48z" fill="#f0c800"/></g><g><path d="m32 6.1c14.281 0 25.9 11.619 25.9 25.9s-11.619 25.9-25.9 25.9-25.9-11.619-25.9-25.9 11.619-25.9 25.9-25.9m0-.1c-14.359 0-26 11.641-26 26s11.641 26 26 26 26-11.641 26-26-11.641-26-26-26z" fill="#00f096"/></g></g><g display="inline"><path d="m-13-805h442v1417h-442z" fill="none"/></g><g id="Grid_114_" display="inline"><g><path d="m51.9 4.1v55.8h-39.8v-55.8zm.1-.1h-40v56h40z" fill="#f00"/></g><g><path d="m59.9 12.1v39.8h-55.8v-39.8zm.1-.1h-56v40h56z" fill="#4600f0"/></g><g><path d="m55.9 8.1v47.8h-47.8v-47.8zm.1-.1h-48v48h48z" fill="#f0c800"/></g><g><path d="m32 6.1c14.281 0 25.9 11.619 25.9 25.9s-11.619 25.9-25.9 25.9-25.9-11.619-25.9-25.9 11.619-25.9 25.9-25.9m0-.1c-14.359 0-26 11.641-26 26s11.641 26 26 26 26-11.641 26-26-11.641-26-26-26z" fill="#00f096"/></g></g></g><g id="Icons"><g fill="#231f20"><path d="m15.977 40.104c-.497-.749-.931-1.5-1.33-2.297l-.895.447c.417.833.871 1.62 1.39 2.403z"/><path d="m17.5 47.83h1v8.17h-1z"/><path d="m54.887 40.002-2.013 1.002c-.848.43-1.374 1.287-1.374 2.236v6.76c0 1.93-1.57 3.5-3.5 3.5-2.843 0-6.206-.403-8.916-.883-.95-.16-1.83.612-1.752 1.609l.17 1.82.996-.093-.169-1.812c-.025-.321.26-.59.584-.54 2.542.45 7.144.977 9.092.898 2.464 0 4.495-2.007 4.495-4.5v-6.76c0-.57.316-1.085.823-1.342l2.014-1.002c.737-.376 1.033-1.279.661-2.008l-1-2.01-.896.445 1.002 2.014c.124.244.025.543-.217.666z"/><path d="m28.256 7.849.188.982c1.367-.262 2.799-.37 4.268-.322 6.685.245 12.904 4.12 16.231 10.113l.874-.485c-3.495-6.297-10.036-10.369-17.07-10.627-1.539-.052-3.05.063-4.491.339z"/><path d="m14.073 18.026.873.487c1.356-2.43 3.254-4.578 5.489-6.21l-.59-.808c-2.35 1.718-4.346 3.976-5.772 6.531z"/><path d="m7.5 28c0 .827.673 1.5 1.5 1.5h4c.827 0 1.5-.673 1.5-1.5s-.673-1.5-1.5-1.5h-4c-.827 0-1.5.673-1.5 1.5zm6 0c0 .276-.224.5-.5.5h-4c-.276 0-.5-.224-.5-.5s.224-.5.5-.5h4c.276 0 .5.224.5.5z"/><path d="m11.111 19.111c-.585.585-.585 1.537 0 2.122l2.829 2.828c.585.585 1.536.585 2.121 0s.585-1.536 0-2.121l-2.828-2.829c-.586-.586-1.538-.585-2.122 0zm4.243 4.243c-.195.195-.512.194-.707 0l-2.829-2.828c-.195-.195-.195-.512 0-.708.196-.196.513-.195.708 0l2.828 2.829c.194.194.194.512 0 .707z"/><path d="m16.061 31.939c-.585-.585-1.536-.585-2.121 0l-2.829 2.828c-.585.585-.585 1.537 0 2.122s1.537.585 2.122 0l2.828-2.829c.585-.584.585-1.536 0-2.121zm-.707 1.415-2.828 2.829c-.195.195-.512.196-.708 0-.195-.195-.195-.512 0-.708l2.829-2.828c.195-.195.512-.195.707 0 .194.194.194.512 0 .707z"/><path d="m55 26.5h-4c-.827 0-1.5.673-1.5 1.5s.673 1.5 1.5 1.5h4c.827 0 1.5-.673 1.5-1.5s-.673-1.5-1.5-1.5zm0 2h-4c-.276 0-.5-.224-.5-.5s.224-.5.5-.5h4c.276 0 .5.224.5.5s-.224.5-.5.5z"/><path d="m50.061 31.939c-.585-.585-1.536-.585-2.121 0s-.585 1.536 0 2.121l2.828 2.829c.585.585 1.537.585 2.122 0s.585-1.537 0-2.122zm2.121 4.243c-.195.196-.512.195-.708 0l-2.828-2.829c-.195-.195-.195-.512 0-.707s.512-.194.707 0l2.829 2.828c.195.196.195.513 0 .708z"/><path d="m52.889 21.232c.585-.585.585-1.537 0-2.122-.584-.584-1.536-.585-2.122 0l-2.828 2.829c-.585.585-.585 1.536 0 2.121s1.536.585 2.121 0zm-4.243 2.122c-.195-.195-.195-.512 0-.707l2.828-2.829c.195-.195.512-.196.708 0 .195.195.195.512 0 .708l-2.829 2.828c-.195.195-.511.195-.707 0z"/><path d="m32.5 31.87h1v8.13h-1z"/><path d="m30.5 31.87h1v8.13h-1z"/><path d="m29.188 34.957c-2.848-1.157-4.688-3.888-4.688-6.957 0-4.136 3.364-7.5 7.5-7.5s7.5 3.364 7.5 7.5c0 3.069-1.84 5.8-4.688 6.957l.376.927c3.227-1.311 5.312-4.405 5.312-7.884 0-4.687-3.813-8.5-8.5-8.5s-8.5 3.813-8.5 8.5c0 3.479 2.085 6.573 5.312 7.883z"/><path d="m34.747 32.599.507.862c1.953-1.149 3.167-3.272 3.167-5.541 0-3.54-2.88-6.42-6.42-6.42s-6.42 2.88-6.42 6.42c0 2.269 1.213 4.392 3.167 5.541l.507-.862c-1.649-.97-2.673-2.763-2.673-4.679 0-2.989 2.431-5.42 5.42-5.42s5.42 2.431 5.42 5.42c-.002 1.915-1.026 3.708-2.675 4.679z"/><path d="m32 25.5c-1.378 0-2.5 1.122-2.5 2.5s1.122 2.5 2.5 2.5 2.5-1.122 2.5-2.5-1.122-2.5-2.5-2.5zm0 4c-.827 0-1.5-.673-1.5-1.5s.673-1.5 1.5-1.5 1.5.673 1.5 1.5-.673 1.5-1.5 1.5z"/><path d="m25.5 48c0 1.223.884 2.239 2.046 2.454.215 1.162 1.231 2.046 2.454 2.046h4c1.223 0 2.239-.884 2.454-2.046 1.162-.215 2.046-1.231 2.046-2.454 0-4.12 0-.907 0-7.44 0-1.112.475-2.15 1.271-2.779 3.005-2.395 4.729-5.96 4.729-9.781 0-6.893-5.607-12.5-12.5-12.5-6.776 0-12.5 5.724-12.5 12.5 0 3.847 1.735 7.419 4.761 9.804.776.608 1.239 1.605 1.239 2.667zm1-3.5h2.5c.276 0 .5.224.5.5s-.224.5-.5.5h-2.5zm7.5 7h-4c-.651 0-1.201-.419-1.408-1h6.816c-.207.581-.757 1-1.408 1zm2-2h-8c-.827 0-1.5-.673-1.5-1.5v-1.5h2.5c.827 0 1.5-.673 1.5-1.5s-.673-1.5-1.5-1.5h-2.5v-1h11v3h-2.5c-.827 0-1.5.673-1.5 1.5s.673 1.5 1.5 1.5h2.408c-.207.581-.757 1-1.408 1zm1.5-2h-2.5c-.276 0-.5-.224-.5-.5s.224-.5.5-.5h2.5zm-12.621-10.482c-2.783-2.193-4.379-5.48-4.379-9.018 0-6.233 5.267-11.5 11.5-11.5 6.341 0 11.5 5.159 11.5 11.5 0 3.515-1.586 6.795-4.35 8.998-1.034.816-1.65 2.147-1.65 3.563v.94h-11v-1.03c0-1.367-.606-2.658-1.621-3.453z"/><path d="m20.5 45v-.5h.5c.827 0 1.5-.673 1.5-1.5s-.673-1.5-1.5-1.5h-.5v-.5c0-.827-.673-1.5-1.5-1.5s-1.5.673-1.5 1.5v.5h-.5c-.827 0-1.5.673-1.5 1.5s.673 1.5 1.5 1.5h.5v.5c0 .827.673 1.5 1.5 1.5s1.5-.673 1.5-1.5zm-2 0v-1c0-.276-.224-.5-.5-.5h-1c-.276 0-.5-.224-.5-.5s.224-.5.5-.5h1c.276 0 .5-.224.5-.5v-1c0-.276.224-.5.5-.5s.5.224.5.5v1c0 .276.224.5.5.5h1c.276 0 .5.224.5.5s-.224.5-.5.5h-1c-.276 0-.5.224-.5.5v1c0 .276-.224.5-.5.5s-.5-.224-.5-.5z"/><path d="m45 37.5c-.827 0-1.5.673-1.5 1.5v.5h-.5c-.827 0-1.5.673-1.5 1.5s.673 1.5 1.5 1.5h.5v.5c0 .827.673 1.5 1.5 1.5s1.5-.673 1.5-1.5v-.5h.5c.827 0 1.5-.673 1.5-1.5s-.673-1.5-1.5-1.5h-.5v-.5c0-.827-.673-1.5-1.5-1.5zm2 3c.276 0 .5.224.5.5s-.224.5-.5.5h-1c-.276 0-.5.224-.5.5v1c0 .276-.224.5-.5.5s-.5-.224-.5-.5v-1c0-.276-.224-.5-.5-.5h-1c-.276 0-.5-.224-.5-.5s.224-.5.5-.5h1c.276 0 .5-.224.5-.5v-1c0-.276.224-.5.5-.5s.5.224.5.5v1c0 .276.224.5.5.5z"/><path d="m23.5 9.5h-.5c-.827 0-1.5.673-1.5 1.5s.673 1.5 1.5 1.5h.5v.5c0 .827.673 1.5 1.5 1.5s1.5-.673 1.5-1.5v-.5h.5c.827 0 1.5-.673 1.5-1.5s-.673-1.5-1.5-1.5h-.5v-.5c0-.827-.673-1.5-1.5-1.5s-1.5.673-1.5 1.5zm.5 1c.276 0 .5-.224.5-.5v-1c0-.276.224-.5.5-.5s.5.224.5.5v1c0 .276.224.5.5.5h1c.276 0 .5.224.5.5s-.224.5-.5.5h-1c-.276 0-.5.224-.5.5v1c0 .276-.224.5-.5.5s-.5-.224-.5-.5v-1c0-.276-.224-.5-.5-.5h-1c-.276 0-.5-.224-.5-.5s.224-.5.5-.5z"/></g></g></svg>