<svg id="Layer_1" enable-background="new 0 0 512 512" viewBox="0 0 512 512" xmlns="http://www.w3.org/2000/svg"><path d="m505.18 333.1c-.15-.25-.32-.48-.49-.71-25.66-32.93-25.6-45.49-25.53-61.4.02-4.38.04-8.9-.42-14.08-3.58-39.49-25.21-74.06-60.9-97.34-41.88-27.31-98.36-35.66-145.77-21.98-19.06-31.39-53.58-52.41-92.91-52.41-59.9 0-108.64 48.72-108.64 108.61 0 39.67 16.28 57.85 33.52 77.09 2.6 2.91 5.3 5.91 7.94 9 8.99 10.56 13.37 22.42 13.37 36.25v17.94c0 25.84 21.01 46.87 46.84 46.87h13.92c12.76 0 24.35-5.14 32.81-13.44 16.22 24.92 23.96 49.73 3.19 100.02-2.82 6.79-2.09 14.18 2 20.26 4.09 6.09 10.62 9.58 17.93 9.58h141.31c9.99 0 18.62-6.78 20.99-16.5l5.77-23.78c36.99 6.77 57.27 4.35 67.18-7.79 6.9-8.46 7.6-20.36 2.09-36.26 5.49-3.92 8.87-9.51 9.04-15.5.1-3.5-.91-6.8-2.86-9.69 2.58-2.63 4.6-5.86 5.4-9.56.33-1.52.55-3.62.17-6.07 7.42-1.18 14.97-3.98 18.76-11 3.97-7.37 2.43-16.57-4.71-28.11zm-381.02-63.61c-2.77-3.24-5.53-6.32-8.19-9.29-16.44-18.36-29.43-32.86-29.43-66.41 0-51.06 41.55-92.59 92.62-92.59 51.06 0 92.59 41.54 92.59 92.59 0 33.53-12.97 48.03-29.39 66.38-2.67 2.98-5.43 6.07-8.21 9.33-7.16 8.4-12.03 17.45-14.72 27.35h-80.55c-2.67-9.9-7.55-18.95-14.72-27.36zm17.14 43.37h75.73c-.04 1.08-.07 2.17-.07 3.27v14.75h-75.6v-14.75c0-1.09-.02-2.19-.06-3.27zm44.81 52.08h-13.92c-12.43 0-23.15-7.4-28.03-18.03h70c-.42.91-.88 1.8-1.38 2.66-.16.24-.32.49-.45.75-5.45 8.77-15.16 14.62-26.22 14.62zm309.68-11.34c-1.1 2.05-6.97 3.23-17.44 3.52l-.69.02c-3.3.09-6.21 2.21-7.32 5.32s-.19 6.59 2.32 8.75c2.13 1.83 2.75 3.2 2.65 3.66-.32 1.47-3.25 3.78-5.7 4.49-3.27.95-5.58 3.87-5.76 7.27s1.82 6.54 4.98 7.83c2.75 1.12 3.59 2.3 3.58 2.6-.03.91-1.77 3.26-5.67 4.6-2.1.72-3.81 2.29-4.72 4.32-.9 2.03-.92 4.35-.05 6.4 3.88 9.1 7.53 21.13 2.92 26.78-5.94 7.28-25.85 7.54-59.16.76-4.22-.86-8.36 1.77-9.38 5.96l-7.57 31.2c-.63 2.59-2.76 4.27-5.43 4.27h-141.31c-1.99 0-3.51-.82-4.63-2.49-1.1-1.64-1.27-3.34-.49-5.21 25.08-60.74 11.87-91.12-8.14-120.2 2.69-5.91 4.21-12.46 4.21-19.37v-17.94c0-13.83 4.37-25.69 13.36-36.24 2.66-3.11 5.35-6.13 7.96-9.04 17.21-19.24 33.47-37.41 33.47-77.06 0-14.75-2.96-28.82-8.31-41.65 42.46-11.29 92.37-3.46 129.63 20.84 31.5 20.54 50.57 50.86 53.7 85.36.4 4.43.38 8.57.36 12.57-.08 17.44-.16 33.91 28.63 70.96 4.32 7.1 4.51 10.77 4 11.72zm-451.17-159.81c0 4.42-3.58 8.01-8.01 8.01h-28.63c-4.42 0-8.01-3.58-8.01-8.01s3.58-8.01 8.01-8.01h28.63c4.42.01 8.01 3.59 8.01 8.01zm229.65-95.14c-3.13-3.13-3.12-8.2.01-11.33l20.27-20.24c3.13-3.13 8.2-3.12 11.33.01s3.12 8.2-.01 11.33l-20.27 20.24c-1.56 1.56-3.61 2.34-5.66 2.34-2.06 0-4.11-.78-5.67-2.35zm-103.11-47.38v-28.63c0-4.42 3.58-8.01 8.01-8.01s8.01 3.58 8.01 8.01v28.63c0 4.42-3.58 8.01-8.01 8.01s-8.01-3.59-8.01-8.01zm-118.7 27.15c-3.13-3.13-3.13-8.2 0-11.33s8.2-3.13 11.33 0l20.24 20.24c3.13 3.13 3.13 8.2 0 11.33-1.56 1.56-3.61 2.35-5.66 2.35s-4.1-.78-5.66-2.35zm305.87 115.37c0 4.42-3.58 8.01-8.01 8.01h-28.63c-4.42 0-8.01-3.58-8.01-8.01s3.58-8.01 8.01-8.01h28.63c4.42.01 8.01 3.59 8.01 8.01zm-192.47 24.63 13.3-13.3 13.29 13.29c6.54 6.56 15.27 10.17 24.58 10.18h.02c9.32 0 18.06-3.61 24.62-10.17s10.17-15.3 10.17-24.63c0-9.32-3.61-18.07-10.17-24.63s-15.3-10.17-24.62-10.17h-.02c-9.31.01-18.04 3.62-24.58 10.17l-13.3 13.3-13.3-13.3c-13.58-13.58-35.67-13.58-49.25 0-6.56 6.56-10.17 15.3-10.17 24.63 0 9.32 3.61 18.07 10.17 24.63 6.79 6.79 15.71 10.18 24.63 10.18s17.84-3.39 24.63-10.18zm37.93-37.93c3.52-3.53 8.23-5.48 13.26-5.48h.01c5.04 0 9.76 1.95 13.3 5.48 3.53 3.53 5.48 8.26 5.48 13.3s-1.95 9.77-5.48 13.3-8.25 5.48-13.3 5.48h-.01c-5.03 0-9.74-1.95-13.26-5.48l-13.3-13.3zm-81.33 13.3c0-5.04 1.95-9.77 5.48-13.3 3.67-3.67 8.48-5.5 13.3-5.5s9.63 1.83 13.3 5.5l13.3 13.3-13.3 13.3c-3.53 3.53-8.26 5.48-13.3 5.48s-9.77-1.95-13.3-5.48c-3.54-3.53-5.48-8.25-5.48-13.3zm183.4 115.38c3.13 3.13 3.13 8.2.01 11.33-1.56 1.57-3.62 2.35-5.67 2.35s-4.1-.78-5.66-2.34l-20.27-20.24c-3.13-3.13-3.13-8.2-.01-11.33 3.13-3.13 8.2-3.13 11.33-.01zm-221.83-20.24c3.13 3.13 3.13 8.2 0 11.33l-20.24 20.24c-1.56 1.56-3.61 2.35-5.66 2.35s-4.1-.78-5.66-2.35c-3.13-3.13-3.13-8.2 0-11.33l20.24-20.24c3.12-3.13 8.19-3.13 11.32 0z"/></svg>