<svg xmlns="http://www.w3.org/2000/svg" version="1.1" xmlns:xlink="http://www.w3.org/1999/xlink" width="40" height="40" x="0" y="0" viewBox="0 0 60 60" style="enable-background:new 0 0 512 512" xml:space="preserve" class=""><g><path d="M30 38.64c4.55 0 8.26-3.71 8.26-8.26s-3.71-8.26-8.26-8.26-8.26 3.71-8.26 8.26c0 4.56 3.71 8.26 8.26 8.26zm0-14.51c3.45 0 6.26 2.81 6.26 6.26s-2.81 6.26-6.26 6.26-6.26-2.81-6.26-6.26 2.81-6.26 6.26-6.26zM14.78 48.76v5.22c0 .55.45 1 1 1h28.43c.55 0 1-.45 1-1v-5.22c0-4.72-3.84-8.56-8.56-8.56h-.01c-.23 0-.46.08-.63.23L30 45.37l-6.02-4.95a.978.978 0 0 0-.63-.23c-4.73.01-8.57 3.85-8.57 8.57zm8.21-6.55 6.37 5.23c.37.3.9.3 1.27 0L37 42.21c3.46.18 6.22 3.05 6.22 6.55v4.22H16.78v-4.22c0-3.5 2.76-6.37 6.21-6.55zM53.13 30.39a.997.997 0 0 0-.81-.68l-2.25-.33-1.01-2.04c-.17-.34-.52-.56-.9-.56s-.73.22-.9.56l-1.01 2.04-2.25.33c-.38.05-.69.32-.81.68s-.02.76.25 1.03l1.63 1.59-.39 2.25c-.06.38.09.75.4.98.31.22.72.25 1.05.08l2.02-1.06 2.02 1.06c.15.08.31.11.47.11a1.002 1.002 0 0 0 .99-1.17l-.39-2.25 1.63-1.59c.28-.27.38-.67.26-1.03zm-3.66 1.55c-.24.23-.34.56-.29.89l.13.77-.69-.36c-.15-.08-.31-.11-.47-.11s-.32.04-.47.11l-.69.36.13-.77a.991.991 0 0 0-.29-.89l-.53-.54.77-.11c.33-.05.61-.25.75-.55l.34-.7.34.7c.15.3.43.5.75.55l.77.11zM50.44 15.47l-2.91-.42-1.3-2.64c-.34-.68-1.46-.68-1.79 0l-1.3 2.64-2.91.42c-.38.05-.69.32-.81.68s-.02.76.25 1.03l2.11 2.05-.5 2.9c-.06.38.09.75.4.98.31.22.72.25 1.05.08l2.6-1.37 2.6 1.37c.15.08.31.11.47.11a1.002 1.002 0 0 0 .99-1.17l-.5-2.9L51 17.18a1.006 1.006 0 0 0-.56-1.71zm-3.32 2.69c-.24.23-.34.56-.29.89l.24 1.42-1.27-.67c-.15-.08-.31-.11-.47-.11s-.32.04-.47.11l-1.27.67.24-1.42a.991.991 0 0 0-.29-.89l-1.03-1.01 1.43-.21c.33-.05.61-.25.75-.55l.64-1.29.64 1.29c.15.29.43.5.75.55l1.43.21zM6.87 30.39c-.12.36-.02.76.25 1.03l1.63 1.59-.39 2.25c-.06.38.09.75.4.98.31.22.72.25 1.05.08l2.02-1.06 2.02 1.06c.15.08.31.11.47.11a1.002 1.002 0 0 0 .99-1.17l-.39-2.25 1.63-1.59a1.006 1.006 0 0 0-.56-1.71l-2.25-.33-1.01-2.04c-.34-.68-1.46-.68-1.79 0l-1.01 2.04-2.25.33c-.38.06-.69.32-.81.68zm3.87.9c.33-.05.61-.25.75-.55l.34-.7.34.7c.15.3.43.5.75.55l.77.11-.56.54c-.24.23-.34.56-.29.89l.13.77-.69-.36c-.15-.08-.31-.11-.47-.11s-.32.04-.47.11l-.69.36.13-.77a.991.991 0 0 0-.29-.89l-.52-.54zM19.78 15.47l-2.91-.42-1.3-2.64c-.17-.34-.52-.56-.9-.56s-.73.22-.9.56l-1.3 2.64-2.91.42c-.38.05-.69.32-.81.68s-.02.76.25 1.03l2.11 2.05-.5 2.9c-.06.38.09.75.4.98.17.13.38.19.59.19.16 0 .32-.04.47-.11l2.6-1.37 2.6 1.37c.34.18.74.15 1.05-.08.31-.22.46-.6.4-.98l-.5-2.9 2.11-2.05a1.006 1.006 0 0 0-.55-1.71zm-3.33 2.69c-.24.23-.34.56-.29.89l.24 1.42-1.27-.67c-.29-.15-.64-.15-.93 0l-1.28.67.24-1.42a.991.991 0 0 0-.29-.89l-1.03-1.01 1.43-.21c.33-.05.61-.25.75-.55l.64-1.29.64 1.29c.15.3.43.5.75.55l1.43.21zM38.18 10.92a.997.997 0 0 0-.81-.68l-4.47-.65-2-4.06c-.34-.68-1.46-.68-1.79 0l-2 4.06-4.48.65a.997.997 0 0 0-.56 1.7l3.24 3.16-.76 4.46c-.06.38.09.75.4.98.31.22.72.25 1.05.08l4-2.1 4 2.1c.15.08.31.11.47.11a1.002 1.002 0 0 0 .99-1.17l-.76-4.46 3.24-3.16c.26-.26.36-.66.24-1.02zm-5.26 3.12a1 1 0 0 0-.29.88l.51 2.98-2.67-1.41c-.15-.08-.31-.11-.47-.11s-.32.04-.47.11l-2.67 1.41.51-2.98a.964.964 0 0 0-.29-.88l-2.16-2.11 2.99-.43c.33-.05.61-.25.75-.55L30 8.24l1.34 2.71c.15.3.43.5.75.55l2.99.43z" fill="#ffffff" opacity="1" data-original="#000000" class=""></path></g></svg>