<svg xmlns="http://www.w3.org/2000/svg" version="1.1" xmlns:xlink="http://www.w3.org/1999/xlink" width="40" height="40" x="0" y="0" viewBox="0 0 512 512" style="enable-background:new 0 0 512 512" xml:space="preserve" class=""><g><path d="M300.799 287.477c0 8.615 3.636 16.393 9.446 21.895l-14.11 24.438a30.051 30.051 0 0 0-8.61-1.259c-16.636 0-30.17 13.534-30.17 30.17s13.534 30.17 30.17 30.17c14.422 0 26.508-10.175 29.47-23.722l71.955-1.35c3.36 12.995 15.184 22.621 29.213 22.621 16.636 0 30.17-13.534 30.17-30.17s-13.534-30.17-30.17-30.17a30.013 30.013 0 0 0-18.033 5.997l-42.156-35.193a29.969 29.969 0 0 0 3.164-13.427c0-16.636-13.534-30.17-30.17-30.17s-30.17 13.534-30.17 30.17zm-13.273 91.415c-8.916 0-16.17-7.254-16.17-16.17s7.254-16.17 16.17-16.17 16.171 7.254 16.171 16.17-7.254 16.17-16.171 16.17zm20.724-38.066 14.11-24.438a30.051 30.051 0 0 0 8.61 1.259 30.014 30.014 0 0 0 18.032-5.996l42.156 35.193a29.925 29.925 0 0 0-2.463 6.979l-71.955 1.35c-1.439-5.566-4.437-10.508-8.491-14.346zm109.915 3.274c8.916 0 16.17 7.254 16.17 16.17s-7.254 16.17-16.17 16.17-16.17-7.254-16.17-16.17 7.254-16.17 16.17-16.17zm-87.195-72.793c8.916 0 16.17 7.254 16.17 16.17s-7.254 16.17-16.17 16.17-16.17-7.254-16.17-16.17 7.254-16.17 16.17-16.17zm-36.253 91.415a7 7 0 0 1-7 7h-.38a7 7 0 1 1 0-14h.38a7 7 0 0 1 7 7zm116.259-2.452a7 7 0 0 1 7-7h.38a7 7 0 1 1 0 14h-.38a7 7 0 0 1-7-7zm-87.196-72.793a7 7 0 0 1 7-7h.38a7 7 0 1 1 0 14h-.38a7 7 0 0 1-7-7zm157.998 183.661h-17.733v-7.802c0-12.021-9.78-21.802-21.802-21.802H298.386c-12.021 0-21.802 9.78-21.802 21.802v7.802h-27.673v-91.007c0-20.58-16.743-37.322-37.322-37.322h-76.255c-21.635-17.787-31.812-46.6-25.973-74.086 4.49-21.132 17.594-39.06 36.212-49.761a40.994 40.994 0 0 0 21.143 5.848c8.849 0 17.049-2.811 23.775-7.573l40.079 40.079c1.366 1.367 3.158 2.05 4.949 2.05s3.583-.684 4.949-2.05l5.528-5.528 12.77 12.77c2.399 2.4 5.552 3.6 8.704 3.6s6.306-1.2 8.705-3.6l31.456-31.456c4.8-4.8 4.8-12.61 0-17.41l-12.769-12.77 5.527-5.527a6.999 6.999 0 0 0 0-9.899L162.781 49.888a7 7 0 0 0-9.898 0l-10.49 10.49-19.602-19.601 2.403-2.403a7 7 0 0 0 0-9.9L102.767 6.05a7 7 0 0 0-9.898 0L49.125 49.795a6.999 6.999 0 0 0 0 9.899L71.55 82.119c1.366 1.367 3.157 2.05 4.949 2.05s3.583-.684 4.949-2.05l2.402-2.401 19.601 19.602-10.489 10.489a6.999 6.999 0 0 0 0 9.899l40.078 40.078a41.29 41.29 0 0 0-4.385 7.882c-36.484 17.091-63.113 50.507-71.495 89.964-6.233 29.343-2.154 59.349 11.441 85.699-17.641 2.96-31.128 18.33-31.128 36.799v91.007h-7.249c-10.163 0-18.432 8.268-18.432 18.431s8.269 18.431 18.432 18.431h451.553c10.163 0 18.431-8.269 18.431-18.432s-8.268-18.431-18.431-18.431zm-191.194-7.802c0-4.302 3.5-7.802 7.802-7.802h143.857c4.302 0 7.802 3.5 7.802 7.802v7.802H290.584zM166.716 210.81c-15.024 0-27.248-12.223-27.248-27.247s12.224-27.248 27.248-27.248 27.247 12.223 27.247 27.248-12.223 27.247-27.247 27.247zm129.821 13.586-29.067 29.067-11.575-11.575 29.067-29.068 11.575 11.575zM63.973 54.745l33.845-33.846 12.526 12.525-33.846 33.845-12.525-12.525zm29.776 15.073 19.142-19.142 19.602 19.601-19.142 19.142L93.75 69.817zm64.082-5.08 127.707 127.708-50.021 50.021-35.129-35.129c4.762-6.725 7.573-14.926 7.573-23.775 0-22.744-18.504-41.248-41.247-41.248-8.85 0-17.05 2.811-23.775 7.573l-35.129-35.129zM70.853 260.543c6.758-31.807 26.82-59.21 54.652-75.432.339 9.134 3.66 17.514 9.019 24.2-19.906 12.876-33.871 33.019-38.859 56.503-5.837 27.476 1.831 56.065 19.754 76.995H84.303c-14.69-24.843-19.474-53.902-13.45-82.266zM51.472 380.131c0-12.86 10.462-23.322 23.322-23.322h136.793c12.86 0 23.322 10.462 23.322 23.322v91.007H51.473v-91.007zm430.304 113.87H30.224c-2.402 0-4.432-2.029-4.432-4.432s2.029-4.431 4.432-4.431h451.553c2.401 0 4.431 2.029 4.431 4.431S484.179 494 481.777 494zM166.714 165.518c-9.949 0-18.044 8.095-18.044 18.044s8.095 18.044 18.044 18.044 18.044-8.095 18.044-18.044-8.095-18.044-18.044-18.044zm0 22.088c-2.229 0-4.044-1.814-4.044-4.044s1.814-4.044 4.044-4.044 4.044 1.814 4.044 4.044-1.814 4.044-4.044 4.044zm-23.523 176.525c-16.432 0-29.8 13.369-29.8 29.8s13.368 29.8 29.8 29.8 29.801-13.369 29.801-29.8-13.369-29.8-29.801-29.8zm0 14c1.77 0 3.466.305 5.056.844l-20.011 20.012a15.707 15.707 0 0 1-.844-5.056c0-8.712 7.088-15.8 15.8-15.8zm0 31.601c-1.77 0-3.466-.305-5.056-.844l20.012-20.012c.539 1.59.845 3.287.845 5.057 0 8.712-7.088 15.8-15.801 15.8z" fill="#ffffff" opacity="1" data-original="#000000" class=""></path></g></svg>