<svg xmlns="http://www.w3.org/2000/svg" version="1.1" xmlns:xlink="http://www.w3.org/1999/xlink" width="40" height="40" x="0" y="0" viewBox="0 0 512 512" style="enable-background:new 0 0 512 512" xml:space="preserve" fill-rule="evenodd" class=""><g><path fill="#000000" d="M339.887 480.779H172.112a6.5 6.5 0 0 1-6.5-6.5V212.866a6.5 6.5 0 0 1 6.5-6.5h167.775a6.5 6.5 0 0 1 6.5 6.5V474.28a6.5 6.5 0 0 1-6.5 6.5zm-161.275-13h154.776V219.367H178.612z" opacity="1" data-original="#ce1e42" class=""></path><path fill="#000000" d="M339.886 219.367H172.113a6.5 6.5 0 0 1-5.233-10.356l81.936-111.198a6.505 6.505 0 0 1 5.16-2.644c2.072-.002 3.973.914 5.219 2.528l85.834 111.198a6.497 6.497 0 0 1 .689 6.838 6.498 6.498 0 0 1-5.832 3.634zm-154.909-13h141.68l-72.486-93.904-69.194 93.905zM172.113 480.78H45.698c-3.59 0-6.5-2.91-6.5-6.5V311.083a6.5 6.5 0 0 1 4.112-6.045L169.726 255.1a6.5 6.5 0 0 1 8.887 6.044v213.135a6.5 6.5 0 0 1-6.5 6.5zm-119.915-13h113.416V270.703L52.198 315.506V467.78zM466.302 480.78H339.886c-3.59 0-6.5-2.91-6.5-6.5V261.146a6.499 6.499 0 0 1 8.491-6.186l126.416 40.711a6.5 6.5 0 0 1 4.507 6.188V474.28a6.499 6.499 0 0 1-6.498 6.5zm-119.917-13h113.417V306.596l-113.417-36.526V467.78z" opacity="1" data-original="#ce1e42" class=""></path><path fill="#000000" d="M256 195.8c-12.62 0-22.887-10.267-22.887-22.887 0-12.622 10.267-22.888 22.887-22.888 12.619 0 22.886 10.266 22.886 22.888 0 12.62-10.267 22.887-22.886 22.887zm0-32.776c-5.453 0-9.89 4.437-9.89 9.889s4.438 9.888 9.89 9.888c5.452 0 9.887-4.438 9.887-9.888 0-5.452-4.435-9.889-9.887-9.889zM292.216 480.781h-72.435a6.5 6.5 0 0 1-6.5-6.5v-39.916c0-23.555 19.164-42.719 42.719-42.719 23.553 0 42.716 19.164 42.716 42.719v39.916a6.5 6.5 0 0 1-6.5 6.5zm-65.935-13h59.437v-33.416c0-16.388-13.332-29.72-29.717-29.72-16.388 0-29.72 13.332-29.72 29.72z" opacity="1" data-original="#e34a2f" class=""></path><path fill="#000000" d="M492.698 480.78H19.3c-3.59 0-6.5-2.91-6.5-6.5a6.5 6.5 0 0 1 6.5-6.5h473.398a6.5 6.5 0 0 1 0 13zM254.05 108.169a6.5 6.5 0 0 1-6.5-6.5V6.513a6.5 6.5 0 1 1 13 0v95.155a6.5 6.5 0 0 1-6.5 6.5z" opacity="1" data-original="#ce1e42" class=""></path><path fill="#000000" d="M332.514 65.233h-78.466a6.5 6.5 0 0 1-6.5-6.5V6.513a6.5 6.5 0 0 1 6.5-6.499h78.466a6.5 6.5 0 0 1 6.5 6.5v52.219a6.5 6.5 0 0 1-6.5 6.5zm-71.966-13h65.466v-39.22h-65.466z" opacity="1" data-original="#ce1e42" class=""></path><g fill="#e34a2f"><path d="M450.48 511.985H61.519c-3.59 0-6.5-2.91-6.5-6.5a6.5 6.5 0 0 1 6.5-6.5H450.48a6.5 6.5 0 0 1 0 13zM204.441 276.459a6.5 6.5 0 0 1-6.5-6.5v-16.403a6.5 6.5 0 0 1 6.5-6.5 6.5 6.5 0 0 1 6.5 6.5v16.403a6.5 6.5 0 0 1-6.5 6.5zM238.814 276.459a6.5 6.5 0 0 1-6.5-6.5v-16.403c0-3.59 2.91-6.5 6.5-6.5a6.5 6.5 0 0 1 6.5 6.5v16.403a6.5 6.5 0 0 1-6.5 6.5zM273.185 276.459a6.5 6.5 0 0 1-6.5-6.5v-16.403c0-3.59 2.91-6.5 6.5-6.5a6.5 6.5 0 0 1 6.5 6.5v16.403a6.5 6.5 0 0 1-6.5 6.5zM307.558 276.459a6.5 6.5 0 0 1-6.5-6.5v-16.403a6.5 6.5 0 0 1 6.5-6.5c3.59 0 6.5 2.91 6.5 6.5v16.403a6.5 6.5 0 0 1-6.5 6.5zM202.362 320.207c-3.59 0-6.5-2.91-6.5-6.5v-16.404a6.5 6.5 0 1 1 13 0v16.404a6.5 6.5 0 0 1-6.5 6.5zM236.736 320.207c-3.59 0-6.5-2.91-6.5-6.5v-16.404a6.5 6.5 0 1 1 13 0v16.404a6.5 6.5 0 0 1-6.5 6.5zM271.108 320.207a6.5 6.5 0 0 1-6.5-6.5v-16.404a6.5 6.5 0 0 1 13 0v16.404c0 3.59-2.91 6.5-6.5 6.5zM305.481 320.207c-3.59 0-6.5-2.91-6.5-6.5v-16.404a6.5 6.5 0 1 1 13 0v16.404a6.5 6.5 0 0 1-6.5 6.5zM200.286 363.955a6.5 6.5 0 0 1-6.5-6.5v-16.404c0-3.59 2.91-6.5 6.5-6.5a6.5 6.5 0 0 1 6.5 6.5v16.404a6.5 6.5 0 0 1-6.5 6.5zM234.657 363.955a6.5 6.5 0 0 1-6.5-6.5v-16.404a6.5 6.5 0 0 1 6.5-6.5c3.59 0 6.5 2.91 6.5 6.5v16.404a6.5 6.5 0 0 1-6.5 6.5zM269.03 363.955a6.5 6.5 0 0 1-6.5-6.5v-16.404a6.5 6.5 0 0 1 6.5-6.5c3.59 0 6.5 2.91 6.5 6.5v16.404a6.5 6.5 0 0 1-6.5 6.5zM303.403 363.955a6.5 6.5 0 0 1-6.5-6.5v-16.404a6.5 6.5 0 0 1 6.5-6.5 6.5 6.5 0 0 1 6.5 6.5v16.404a6.5 6.5 0 0 1-6.5 6.5zM370.799 359.022c-3.59 0-6.5-2.91-6.5-6.5v-16.405a6.5 6.5 0 1 1 13 0v16.405a6.5 6.5 0 0 1-6.5 6.5zM405.171 359.022c-3.59 0-6.5-2.91-6.5-6.5v-16.405a6.5 6.5 0 1 1 13 0v16.405a6.5 6.5 0 0 1-6.5 6.5zM439.544 359.022c-3.59 0-6.5-2.91-6.5-6.5v-16.405a6.5 6.5 0 1 1 13 0v16.405a6.5 6.5 0 0 1-6.5 6.5zM368.721 402.77a6.5 6.5 0 0 1-6.5-6.5v-16.404c0-3.59 2.91-6.5 6.5-6.5a6.5 6.5 0 0 1 6.5 6.5v16.404a6.5 6.5 0 0 1-6.5 6.5zM403.094 402.77a6.5 6.5 0 0 1-6.5-6.5v-16.404c0-3.59 2.91-6.5 6.5-6.5a6.5 6.5 0 0 1 6.5 6.5v16.404a6.5 6.5 0 0 1-6.5 6.5zM437.467 402.77a6.5 6.5 0 0 1-6.5-6.5v-16.404c0-3.59 2.91-6.5 6.5-6.5a6.5 6.5 0 0 1 6.5 6.5v16.404a6.5 6.5 0 0 1-6.5 6.5zM366.642 446.518a6.5 6.5 0 0 1-6.5-6.5v-16.405a6.5 6.5 0 0 1 13 0v16.405c0 3.59-2.91 6.5-6.5 6.5zM401.016 446.518c-3.59 0-6.5-2.91-6.5-6.5v-16.405a6.5 6.5 0 1 1 13 0v16.405a6.5 6.5 0 0 1-6.5 6.5zM435.389 446.518a6.5 6.5 0 0 1-6.5-6.5v-16.405a6.5 6.5 0 0 1 13 0v16.405c0 3.59-2.91 6.5-6.5 6.5zM76.609 359.022a6.5 6.5 0 0 1-6.5-6.5v-16.405a6.5 6.5 0 0 1 13 0v16.405a6.5 6.5 0 0 1-6.5 6.5zM110.983 359.022c-3.59 0-6.5-2.91-6.5-6.5v-16.405a6.5 6.5 0 1 1 13 0v16.405a6.5 6.5 0 0 1-6.5 6.5zM145.355 359.022c-3.59 0-6.5-2.91-6.5-6.5v-16.405a6.5 6.5 0 1 1 13 0v16.405a6.5 6.5 0 0 1-6.5 6.5zM74.531 402.77a6.5 6.5 0 0 1-6.5-6.5v-16.404c0-3.59 2.91-6.5 6.5-6.5a6.5 6.5 0 0 1 6.5 6.5v16.404a6.5 6.5 0 0 1-6.5 6.5zM108.905 402.77a6.5 6.5 0 0 1-6.5-6.5v-16.404c0-3.59 2.91-6.5 6.5-6.5a6.5 6.5 0 0 1 6.5 6.5v16.404a6.5 6.5 0 0 1-6.5 6.5zM143.278 402.77a6.5 6.5 0 0 1-6.5-6.5v-16.404c0-3.59 2.91-6.5 6.5-6.5a6.5 6.5 0 0 1 6.5 6.5v16.404a6.5 6.5 0 0 1-6.5 6.5zM72.455 446.518c-3.59 0-6.5-2.91-6.5-6.5v-16.405a6.5 6.5 0 1 1 13 0v16.405a6.5 6.5 0 0 1-6.5 6.5zM106.826 446.518a6.5 6.5 0 0 1-6.5-6.5v-16.405a6.5 6.5 0 0 1 13 0v16.405c0 3.59-2.91 6.5-6.5 6.5zM141.2 446.518c-3.59 0-6.5-2.91-6.5-6.5v-16.405a6.5 6.5 0 1 1 13 0v16.405a6.5 6.5 0 0 1-6.5 6.5z" fill="#000000" opacity="1" data-original="#e34a2f" class=""></path></g></g></svg>