<svg xmlns="http://www.w3.org/2000/svg" version="1.1" xmlns:xlink="http://www.w3.org/1999/xlink" width="40" height="40" x="0" y="0" viewBox="0 0 468 468" style="enable-background:new 0 0 512 512" xml:space="preserve" class=""><g><path d="M324.503 138.292c-23.597-23.004-55.739-35.673-90.503-35.673s-66.906 12.669-90.503 35.673c-23.592 22.999-36.584 54.27-36.584 88.053 0 36.056 16.031 70.46 43.983 94.392 14.647 12.539 23.892 29.881 26.979 50.393-7.513 4.409-12.565 12.523-12.565 21.789v7.583c0 11.523 7.812 21.266 18.458 24.312a24.97 24.97 0 0 0-2.218 10.299v7.583c0 13.953 11.449 25.305 25.521 25.305h53.859c14.072 0 25.521-11.352 25.521-25.305v-7.583c0-3.667-.797-7.151-2.218-10.299 10.646-3.046 18.458-12.788 18.458-24.312v-7.583c0-9.266-5.052-17.38-12.565-21.789 3.088-20.512 12.333-37.854 26.979-50.393 27.952-23.931 43.983-58.335 43.983-94.392 0-33.783-12.993-65.054-36.585-88.053zm-54.052 304.403c0 5.131-4.271 9.305-9.521 9.305h-53.86c-5.25 0-9.521-4.174-9.521-9.305v-7.583c0-5.131 4.271-9.306 9.521-9.306h53.859c5.25 0 9.521 4.174 9.521 9.306v7.583zm16.239-42.194c0 5.131-4.271 9.305-9.521 9.305H190.83c-5.25 0-9.521-4.174-9.521-9.305v-7.583c0-5.131 4.271-9.305 9.521-9.305h86.339c5.25 0 9.521 4.174 9.521 9.305zm-77.501-133.254h-15.868c-6.417 0-11.637-5.113-11.637-11.397s5.22-11.398 11.637-11.398h4.231c6.417 0 11.637 5.113 11.637 11.398zm34.195 100.366h-18.195v-84.366h18.195zm63.315-59.031c-17.361 14.863-28.387 35.162-32.215 59.031h-15.101v-84.366h16.129c15.239 0 27.637-12.291 27.637-27.397 0-15.107-12.398-27.398-27.637-27.398h-4.492c-15.239 0-27.637 12.291-27.637 27.398v11.397h-18.195V255.85c0-15.107-12.398-27.398-27.637-27.398h-4.231c-15.239 0-27.637 12.291-27.637 27.398s12.398 27.397 27.637 27.397h15.868v84.366h-15.674c-3.828-23.869-14.854-44.168-32.215-59.031-24.396-20.887-38.389-50.862-38.389-82.237 0-61.414 47.757-107.726 111.088-107.726s111.088 46.312 111.088 107.726c.002 31.375-13.99 61.349-38.387 82.237zm-47.315-41.335V255.85c0-6.285 5.22-11.398 11.637-11.398h4.492c6.417 0 11.637 5.113 11.637 11.398s-5.22 11.397-11.637 11.397z" fill="#ffffff" opacity="1" data-original="#000000" class=""></path><path d="M362.121 404.535c-5.936 0-11.693-2.245-16.13-6.67l-22.497-22.435 11.298-11.329 22.497 22.435c3.054 3.045 7.142 2.152 9.907.372l27.577-26.584c2.969-3.003 2.11-7.001.365-9.73l-21.963-21.903a8 8 0 0 1-.948-10.19c11.971-17.448 20.62-37.783 25.012-58.806a8 8 0 0 1 7.831-6.364h31.292c2.645-.46 6.639-2.356 6.639-6.957v-38.68c-.345-1.984-1.811-6.603-7.935-6.603h-31.871a8 8 0 0 1-7.891-6.681c-3.319-19.861-11.66-40.464-24.12-59.582a8 8 0 0 1 1.053-10.033l22.497-22.435c3.033-3.025 2.146-7.077.372-9.818l-26.657-27.5c-3.03-2.98-7.065-2.117-9.817-.364l-21.964 21.903a8.001 8.001 0 0 1-10.158.944c-17.5-11.941-37.896-20.569-58.984-24.95a8 8 0 0 1-6.373-7.833V22.957c0-4.161-3.134-6.957-6.061-6.957H216.3c-2.645.459-6.639 2.356-6.639 6.957v32.718a8 8 0 0 1-6.688 7.892c-19.923 3.312-40.589 11.632-59.764 24.061a8 8 0 0 1-10-1.048l-22.497-22.435c-3.054-3.044-7.142-2.152-9.907-.372L73.227 90.358c-2.968 3.002-2.108 7-.363 9.728l21.963 21.903a8 8 0 0 1 .948 10.19c-11.971 17.448-20.62 37.783-25.012 58.807a8 8 0 0 1-7.831 6.364H31.64c-2.645.459-6.64 2.356-6.64 6.957v38.678c.462 2.633 2.368 6.605 6.998 6.605h31.87a8 8 0 0 1 7.891 6.681c3.319 19.862 11.66 40.465 24.121 59.582a8 8 0 0 1-1.053 10.033L72.33 348.321c-3.033 3.025-2.146 7.077-.371 9.818l26.657 27.501c3.031 2.979 7.065 2.116 9.817.364l21.964-21.904 11.298 11.329-22.497 22.435a7.94 7.94 0 0 1-1.007.851c-10.002 7.125-22.714 6.391-30.913-1.786l-.095-.097-27.184-28.042a8.15 8.15 0 0 1-.76-.909c-7.159-9.995-6.422-22.697 1.792-30.889l17.974-17.924c-10.444-17.244-17.87-35.506-21.747-53.478h-25.26c-11.763 0-21.409-8.843-22.936-21.027a8.067 8.067 0 0 1-.062-.995v-39.261c0-11.744 8.861-21.373 21.071-22.896.328-.041.659-.062.99-.062h25.492c4.61-18.614 12.245-36.591 22.356-52.639l-17.877-17.828a7.961 7.961 0 0 1-.855-1.006c-7.159-9.995-6.422-22.697 1.792-30.888l.097-.095 28.121-27.109a8.03 8.03 0 0 1 .911-.756c10.001-7.125 22.714-6.391 30.913 1.787l17.997 17.947c17.301-10.426 35.625-17.837 53.655-21.705v-26.1c0-11.745 8.861-21.374 21.071-22.895.326-.041.657-.062.987-.062h39.37c12.164 0 22.061 10.298 22.061 22.957v25.397c18.677 4.599 36.712 12.219 52.812 22.313l17.902-17.852a7.94 7.94 0 0 1 1.007-.851c10.001-7.125 22.713-6.391 30.913 1.786l.095.097 27.184 28.044c.275.284.529.588.76.91 7.159 9.995 6.421 22.697-1.792 30.888l-17.973 17.924c10.443 17.244 17.869 35.508 21.747 53.478h25.26c12.504 0 22.321 8.646 23.873 21.027.041.33.062.663.062.995v39.261c0 11.744-8.861 21.373-21.071 22.896a7.986 7.986 0 0 1-.99.062h-25.492c-4.61 18.614-12.245 36.591-22.356 52.639l17.877 17.828c.313.311.598.648.855 1.006 7.159 9.995 6.422 22.697-1.792 30.889l-.097.095-28.121 27.109a8.03 8.03 0 0 1-.911.756c-4.59 3.266-9.751 4.881-14.783 4.881z" fill="#ffffff" opacity="1" data-original="#000000" class=""></path></g></svg>