<svg xmlns="http://www.w3.org/2000/svg" version="1.1" xmlns:xlink="http://www.w3.org/1999/xlink" width="40" height="40" x="0" y="0" viewBox="0 0 480 480" style="enable-background:new 0 0 512 512" xml:space="preserve" class=""><g><path d="m281.469 19.832-2.937 15.727a208.88 208.88 0 0 1 116.508 65.773l11.922-10.672a224.972 224.972 0 0 0-125.493-70.828zM198.531 19.832A224.999 224.999 0 0 0 74.078 89.52l11.844 10.75a208.966 208.966 0 0 1 115.547-64.711l-2.938-15.727zM43.828 170.668l-15.078-5.336c-17 48.327-17 101.009 0 149.336l15.078-5.336a209.111 209.111 0 0 1 0-138.664zM93.633 387.781l-11.266 11.367a222.831 222.831 0 0 0 116.164 61.02l2.937-15.727a206.826 206.826 0 0 1-107.835-56.66zM387.789 386.371a207.437 207.437 0 0 1-101.563 56.477l3.547 15.602a223.343 223.343 0 0 0 109.375-60.82l-11.359-11.259zM456.398 181.93l-15.453 4.141a208.696 208.696 0 0 1 7.055 53.93 207.621 207.621 0 0 1-11.828 69.332l15.078 5.336a225.276 225.276 0 0 0 5.148-132.739zM448.004 112H416a7.998 7.998 0 0 0-8 7.996V152a7.998 7.998 0 0 0 7.996 8H448a7.998 7.998 0 0 0 8-7.996V120a7.998 7.998 0 0 0-7.996-8zM440 144h-16v-16h16v16zM256.004 0H224a7.998 7.998 0 0 0-8 7.996V40a7.998 7.998 0 0 0 7.996 8H256a7.998 7.998 0 0 0 8-7.996V8a7.998 7.998 0 0 0-7.996-8zM248 32h-16V16h16v16zM72.004 104H40a7.998 7.998 0 0 0-8 7.996V144a7.998 7.998 0 0 0 7.996 8H72a7.998 7.998 0 0 0 8-7.996V112a7.998 7.998 0 0 0-7.996-8zM64 136H48v-16h16v16zM72.004 328H40a7.998 7.998 0 0 0-8 7.996V368a7.998 7.998 0 0 0 7.996 8H72a7.998 7.998 0 0 0 8-7.996V336a7.998 7.998 0 0 0-7.996-8zM64 360H48v-16h16v16zM256.004 432H224a7.998 7.998 0 0 0-8 7.996V472a7.998 7.998 0 0 0 7.996 8H256a7.998 7.998 0 0 0 8-7.996V440a7.998 7.998 0 0 0-7.996-8zM248 464h-16v-16h16v16zM440.004 328H408a7.998 7.998 0 0 0-8 7.996V368a7.998 7.998 0 0 0 7.996 8H440a7.998 7.998 0 0 0 8-7.996V336a7.998 7.998 0 0 0-7.996-8zM432 360h-16v-16h16v16zM240 80c-88.366 0-160 71.634-160 160s71.634 160 160 160c88.324-.1 159.9-71.676 160-160 0-88.366-71.634-160-160-160zm-46.766 23.949a135.334 135.334 0 0 0-22.423 36.269c-10.367-1.167-20.433-2.582-30.076-4.274a144.047 144.047 0 0 1 52.499-31.995zm-65.311 45.845c11.756 2.346 24.115 4.33 37.017 5.879A263.2 263.2 0 0 0 152.216 232h-55.81a143.177 143.177 0 0 1 31.517-82.206zM96.405 248h55.81a263.227 263.227 0 0 0 12.724 76.327c-12.902 1.549-25.261 3.533-37.017 5.879A143.191 143.191 0 0 1 96.405 248zm44.33 96.057c9.643-1.692 19.709-3.107 30.076-4.274a135.35 135.35 0 0 0 22.423 36.269 144.074 144.074 0 0 1-52.499-31.995zM232 383.001c-17.124-3.991-32.603-20.6-44.069-44.874 14.286-1.171 29.035-1.855 44.069-2.035v46.909zm0-62.909c-17.254.202-34.18 1.037-50.478 2.512A245.048 245.048 0 0 1 168.21 248H232v72.092zM232 232h-63.79a245.048 245.048 0 0 1 13.312-74.604c16.298 1.476 33.224 2.31 50.478 2.512V232zm0-88.091c-15.034-.18-29.783-.864-44.069-2.035C199.397 117.6 214.876 100.991 232 96.999v46.91zM383.595 232h-55.81a263.227 263.227 0 0 0-12.724-76.327c12.902-1.549 25.261-3.533 37.017-5.879A143.191 143.191 0 0 1 383.595 232zm-44.33-96.057c-9.643 1.692-19.709 3.107-30.076 4.274a135.35 135.35 0 0 0-22.423-36.269 144.074 144.074 0 0 1 52.499 31.995zM248 96.999c17.124 3.991 32.603 20.6 44.069 44.875-14.286 1.171-29.035 1.855-44.069 2.035v-46.91zm0 62.909c17.254-.202 34.18-1.037 50.478-2.512A245.048 245.048 0 0 1 311.79 232H248v-72.092zM248 248h63.79a245.048 245.048 0 0 1-13.312 74.604c-16.298-1.476-33.224-2.31-50.478-2.512V248zm0 135.001v-46.91c15.034.18 29.783.864 44.069 2.035-11.466 24.275-26.945 40.884-44.069 44.875zm38.766-6.95a135.334 135.334 0 0 0 22.423-36.269c10.367 1.167 20.433 2.582 30.076 4.274a144.047 144.047 0 0 1-52.499 31.995zm65.311-45.845c-11.756-2.346-24.115-4.33-37.017-5.879A263.2 263.2 0 0 0 327.784 248h55.81a143.177 143.177 0 0 1-31.517 82.206z" fill="#ffffff" opacity="1" data-original="#000000" class=""></path></g></svg>