<svg xmlns="http://www.w3.org/2000/svg" version="1.1" xmlns:xlink="http://www.w3.org/1999/xlink" width="35" height="35" x="0" y="0" viewBox="0 0 512 512" style="enable-background:new 0 0 512 512" xml:space="preserve" class=""><circle r="256" cx="256" cy="256" fill="#ffffff" shape="circle" transform="matrix(0.6,0,0,0.6,102.4,102.4)"></circle><g transform="matrix(-0.9999999999999996,-1.2246467991473527e-16,1.2246467991473527e-16,-0.9999999999999996,511.9999999999999,511.99999999999994)"><path d="M256 0C114.837 0 0 114.837 0 256s114.837 256 256 256 256-114.837 256-256S397.163 0 256 0zm79.083 271.083L228.416 377.749A21.275 21.275 0 0 1 213.333 384a21.277 21.277 0 0 1-15.083-6.251c-8.341-8.341-8.341-21.824 0-30.165L289.835 256l-91.584-91.584c-8.341-8.341-8.341-21.824 0-30.165s21.824-8.341 30.165 0l106.667 106.667c8.341 8.341 8.341 21.823 0 30.165z" fill="#007382" opacity="1" data-original="#000000" class=""></path></g></svg>