<svg xmlns="http://www.w3.org/2000/svg" version="1.1" xmlns:xlink="http://www.w3.org/1999/xlink" width="40" height="40" x="0" y="0" viewBox="0 0 64 64" style="enable-background:new 0 0 512 512" xml:space="preserve"><g><g fill="#293a4c"><path d="M37.64 60.5H26.06a1.5 1.5 0 0 1-1.5-1.5v-5.47a23.615 23.615 0 0 1-3.343-1.379l-3.868 3.869a1.5 1.5 0 0 1-2.122-.001L7.04 47.821a1.502 1.502 0 0 1 .002-2.122l3.866-3.857A23.711 23.711 0 0 1 9.53 38.5H5a1.5 1.5 0 0 1 0-3h5.648c.68 0 1.273.455 1.449 1.11a20.562 20.562 0 0 0 1.965 4.77 1.5 1.5 0 0 1-.247 1.8l-3.591 3.583 6.065 6.074 3.593-3.593a1.497 1.497 0 0 1 1.799-.245 20.6 20.6 0 0 0 4.77 1.964 1.5 1.5 0 0 1 1.11 1.449V57.5h8.579v-5.088a1.5 1.5 0 0 1 1.11-1.449A20.597 20.597 0 0 0 42.019 49a1.498 1.498 0 0 1 1.8.246l3.582 3.591 6.075-6.073-3.592-3.583a1.5 1.5 0 0 1-.246-1.8 20.561 20.561 0 0 0 1.965-4.77c.175-.655.769-1.11 1.448-1.11H59a1.5 1.5 0 0 1 0 3h-4.83a23.71 23.71 0 0 1-1.379 3.342l3.867 3.857a1.502 1.502 0 0 1 .001 2.123l-8.198 8.198a1.5 1.5 0 0 1-1.06.439h-.002a1.5 1.5 0 0 1-1.06-.44l-3.858-3.867a23.587 23.587 0 0 1-3.341 1.378V59a1.5 1.5 0 0 1-1.5 1.5z" fill="#ffffff" opacity="1" data-original="#293a4c"></path><path d="M32 44.5c-4.72 0-8.986-2.612-11.136-6.817a1.5 1.5 0 0 1 2.672-1.366C25.17 39.514 28.413 41.5 32 41.5s6.83-1.986 8.464-5.183a1.501 1.501 0 0 1 2.672 1.366A12.455 12.455 0 0 1 32 44.5zM13.5 23c-3.81 0-6.91-3.1-6.91-6.91s3.1-6.908 6.91-6.908 6.91 3.1 6.91 6.909S17.31 23 13.5 23zm0-10.818c-2.155 0-3.91 1.753-3.91 3.909S11.346 20 13.5 20s3.91-1.753 3.91-3.91-1.755-3.908-3.91-3.908z" fill="#ffffff" opacity="1" data-original="#293a4c"></path><path d="M15 31.5H5A1.5 1.5 0 0 1 3.5 30c0-5.514 4.486-10 10-10 4.114 0 7.864 2.578 9.331 6.415a1.5 1.5 0 1 1-2.803 1.07C19.003 24.804 16.378 23 13.5 23c-3.345 0-6.15 2.358-6.838 5.5H15a1.5 1.5 0 0 1 0 3zM50.5 23c-3.81 0-6.91-3.1-6.91-6.91s3.1-6.908 6.91-6.908 6.91 3.1 6.91 6.909S54.31 23 50.5 23zm0-10.818c-2.155 0-3.91 1.753-3.91 3.909S48.346 20 50.5 20s3.91-1.753 3.91-3.91-1.755-3.908-3.91-3.908z" fill="#ffffff" opacity="1" data-original="#293a4c"></path><path d="M59 31.5H49a1.5 1.5 0 0 1 0-3h8.338c-.689-3.142-3.493-5.5-6.838-5.5-2.879 0-5.503 1.803-6.528 4.486a1.5 1.5 0 0 1-2.803-1.071C42.636 22.578 46.386 20 50.5 20c5.514 0 10 4.486 10 10a1.5 1.5 0 0 1-1.5 1.5zM32 20.5c-4.687 0-8.5-3.813-8.5-8.5s3.813-8.5 8.5-8.5 8.5 3.813 8.5 8.5-3.813 8.5-8.5 8.5zm0-14c-3.032 0-5.5 2.467-5.5 5.5s2.468 5.5 5.5 5.5 5.5-2.467 5.5-5.5-2.468-5.5-5.5-5.5z" fill="#ffffff" opacity="1" data-original="#293a4c"></path><path d="M43 31.5H21a1.5 1.5 0 0 1-1.5-1.5c0-6.893 5.607-12.5 12.5-12.5S44.5 23.107 44.5 30a1.5 1.5 0 0 1-1.5 1.5zm-20.382-3h18.764c-.722-4.528-4.653-8-9.382-8s-8.66 3.472-9.382 8z" fill="#ffffff" opacity="1" data-original="#293a4c"></path></g></g></svg>