<svg xmlns="http://www.w3.org/2000/svg" version="1.1" xmlns:xlink="http://www.w3.org/1999/xlink" width="40" height="40" x="0" y="0" viewBox="0 0 511.999 511.999" style="enable-background:new 0 0 512 512" xml:space="preserve"><g><path d="M504.711 207.078c-4.112-.38-7.761 2.654-8.137 6.771-8.4 91.622-84.934 165.313-181.32 165.313-48.72 0-94.471-18.919-128.823-53.272-71.088-71.088-71.09-186.559-.001-257.646 34.352-34.354 80.103-53.273 128.823-53.273 96.405-.001 172.922 73.707 181.321 165.312.376 4.117 4.024 7.142 8.137 6.771a7.485 7.485 0 0 0 6.771-8.137C502.41 79.968 419.735-.001 315.253 0c-52.719 0-102.23 20.477-139.411 57.657-75.117 75.118-76.933 196.039-5.25 273.345l-14.963 14.569-8.997-8.996c-7.587-7.587-19.935-7.587-27.523 0L8.983 446.701c-11.33 11.33-11.33 29.765 0 41.095l16.065 16.065c10.855 10.854 28.51 10.849 39.359 0l110.996-110.995c7.588-7.59 7.585-19.936 0-27.523l-9.185-9.184 14.958-14.564c36.519 33.929 83.836 52.538 134.078 52.538 104.467 0 187.156-79.953 196.228-178.918a7.484 7.484 0 0 0-6.771-8.137zM53.819 493.276c-5.013 5.013-13.171 5.013-18.185 0l-16.065-16.065c-5.493-5.493-5.493-14.43 0-19.923l57.803-57.804 35.12 35.119-58.673 58.673zm69.259-69.26-35.12-35.118 10.634-10.634 35.119 35.118-10.633 10.634zm41.737-41.736-20.517 20.517-35.119-35.12 20.517-20.517c1.724-1.723 4.631-1.721 6.352 0l28.768 28.768c1.721 1.722 1.721 4.63-.001 6.352z" fill="#000000" opacity="1" data-original="#000000"></path><path d="M315.253 33.498c-137.482 0-214.134 160.607-126.781 267.344.188.309.399.608.635.891 31.159 37.59 77.124 59.324 126.147 59.324 90.499 0 163.78-73.438 163.78-163.78 0-90.309-73.472-163.779-163.781-163.779zm-23.71 310.692c-34.061-5.472-64.81-22.647-87.468-48.118 6.173-8.936 14.866-12.92 15.488-13.197l39.182-15.19 17.171 34.414.001.001c2.807 5.625 10.382 9.256 18.172 3.724l3.147 4.737-5.693 33.629zm-3.912-52.142-14.865-29.791 13.043-5.052 18.583 22.937a194994.69 194994.69 0 0 0-16.761 11.906zm27.701-65.581c-24.949 0-40.966-19.214-41.392-39.068-.037-1.243-.026 2.283-.026-36.367 23.827.963 48.543-6.055 68.859-18.711 6.822 7.316 10.907 11.592 12.601 13.551v40.554c0 21.944-17.89 40.041-40.042 40.041zm19.431 11.425v7.7l-19.529 24.106-19.566-24.152v-7.339c6.346 2.205 13.132 3.23 19.664 3.23 6.355 0 13.12-1.16 19.431-3.545zM306.45 345.819l4.984-29.448h7.6l4.984 29.45c-5.899.346-11.539.357-17.568-.002zm14.896-44.418h-12.222l-2.823-4.25 8.935-6.346 8.935 6.346-2.825 4.25zm23.285-44.207 13.072 5.063-14.865 29.791a77752.85 77752.85 0 0 0-16.784-11.923l18.577-22.931zm-5.704 87.002-5.693-33.635 3.147-4.737c7.587 5.388 15.265 2.099 18.172-3.724l.001-.001 17.171-34.413 39.202 15.182c.775.346 9.382 4.34 15.505 13.203-22.214 24.973-52.781 42.555-87.505 48.125zm77.688-75.177-.149-.06-66.732-25.844v-13.807c10.421-8.377 17.739-20.457 19.925-34.232 13.543-1.679 23.02-12.93 23.02-25.798a25.88 25.88 0 0 0-5.858-16.411v-20.372c0-33.118-22.404-61.897-54.483-69.985a7.486 7.486 0 0 0-3.661 14.516c25.419 6.409 43.173 29.219 43.173 55.469v11.352a67.808 67.808 0 0 0-1.525-.274c-.217-4.751-2.261-6.042-18.34-23.328a11.864 11.864 0 0 0-15.21-1.854c-19.457 12.71-43.19 19.097-65.056 17.527-5.349-.406-10.244 2.842-12.049 7.775-.171.027-2.161.432-2.235.45v-11.645c0-25.275 16.213-47.249 40.344-54.68a7.485 7.485 0 1 0-4.406-14.307c-30.451 9.378-50.91 37.102-50.91 68.988v20.903c-3.801 4.533-5.856 10.043-5.856 15.879 0 12.935 9.549 24.151 23.062 25.803 2.212 13.449 9.505 26.349 21.027 35.113v12.923l-66.658 25.843a5 5 0 0 0-.147.059c-.546.226-10.862 4.584-19.467 15.018-70.59-98.032-.129-235.568 120.827-235.568 82.054 0 148.81 66.756 148.81 148.81-.002 32.348-10.385 62.315-27.983 86.757-8.602-10.436-18.917-14.794-19.463-15.02zm-46.269-89.388v-20.684c4.638 1.654 7.363 5.866 7.363 10.332-.001 4.654-2.901 8.768-7.363 10.352zM258.943 159.38v20.253c-4.519-1.603-7.364-5.762-7.364-10.353 0-4.485 3.253-8.164 7.364-9.9z" fill="#000000" opacity="1" data-original="#000000"></path></g></svg>