<svg xmlns="http://www.w3.org/2000/svg" version="1.1" xmlns:xlink="http://www.w3.org/1999/xlink" width="40" height="40" x="0" y="0" viewBox="0 0 512 512" style="enable-background:new 0 0 512 512" xml:space="preserve"><g><path d="M329.95 364.08a8 8 0 0 0 2.004-6.199 76.628 76.628 0 0 0-4.072-17.757h93.68a8 8 0 0 0 7.954-8.851c-3.105-29.021-22.096-52.706-47.808-62.851 8.843-7.808 14.435-19.217 14.435-31.913 0-23.479-19.102-42.58-42.581-42.58-13.367 0-25.308 6.196-33.121 15.861-8.697-13.613-21.501-24.094-36.366-30.001 8.882-7.81 14.504-19.244 14.504-31.973 0-23.479-19.102-42.58-42.58-42.58-23.479 0-42.581 19.102-42.581 42.58 0 12.729 5.622 24.164 14.504 31.973-14.865 5.908-27.669 16.388-36.366 30.001-7.812-9.665-19.754-15.861-33.12-15.861-23.479 0-42.581 19.102-42.581 42.58 0 12.696 5.592 24.105 14.435 31.913-25.712 10.145-44.704 33.83-47.809 62.851a8 8 0 0 0 7.954 8.851h93.679a76.678 76.678 0 0 0-4.071 17.757 8 8 0 0 0 7.954 8.851h136a8.001 8.001 0 0 0 5.953-2.652zm82.045-39.956h-92.1a76.224 76.224 0 0 0-16.62-18.097c11.128-16.761 29.819-26.93 50.265-26.937h.044c27.885.008 51.599 18.827 58.411 45.034zm-189.724-26.627c-8.736-13.313-21.229-23.373-35.686-29.077a42.738 42.738 0 0 0 11.728-16.989h16.751a42.425 42.425 0 0 0-1.644 11.687c0 12.696 5.592 24.104 14.435 31.913a75.648 75.648 0 0 0-5.584 2.466zm33.729-7.8c-14.657 0-26.581-11.924-26.581-26.58s11.924-26.58 26.581-26.58c14.656 0 26.58 11.924 26.58 26.58s-11.923 26.58-26.58 26.58zm42.581-26.58c0-4.053-.581-7.97-1.644-11.687h16.751a42.728 42.728 0 0 0 11.728 16.989c-14.456 5.705-26.95 15.764-35.687 29.077a75.87 75.87 0 0 0-5.583-2.467c8.842-7.808 14.435-19.216 14.435-31.912zm54.982-53.189c14.657 0 26.581 11.924 26.581 26.58 0 14.65-11.913 26.57-26.561 26.581h-.043c-14.646-.013-26.558-11.931-26.558-26.581 0-14.656 11.924-26.58 26.581-26.58zM229.42 147.815c0-14.656 11.924-26.58 26.581-26.58 14.656 0 26.58 11.924 26.58 26.58 0 14.65-11.912 26.569-26.559 26.581h-.043c-14.647-.012-26.559-11.931-26.559-26.581zm26.559 42.581h.043c24.453.009 46.604 14.954 55.853 37.432a42.58 42.58 0 0 0-.865 7.603h-22.7c-7.815-9.107-19.396-14.894-32.31-14.894s-24.495 5.786-32.31 14.894h-22.7a42.58 42.58 0 0 0-.865-7.604c9.25-22.478 31.401-37.423 55.854-37.431zm-124.122 46.112c0-14.656 11.924-26.58 26.581-26.58s26.581 11.924 26.581 26.58c0 14.649-11.912 26.568-26.558 26.581h-.043c-14.648-.011-26.561-11.93-26.561-26.581zm-31.853 87.616c6.812-26.206 30.527-45.025 58.412-45.035h.044c20.446.007 39.136 10.176 50.264 26.937a76.254 76.254 0 0 0-16.621 18.098zm97.563 26.608c6.814-26.213 30.539-45.035 58.433-45.035s51.618 18.822 58.433 45.035zM504 256c0-18.595-13.872-34.002-31.809-36.44-5.466-32.581-18.348-63.669-37.561-90.644 4.865-6.371 7.506-14.113 7.506-22.266 0-9.826-3.826-19.063-10.774-26.011-6.948-6.949-16.186-10.775-26.012-10.775-8.153 0-15.896 2.642-22.266 7.507-26.975-19.212-58.062-32.095-90.644-37.56C290.002 21.872 274.595 8 256 8s-34.002 13.872-36.441 31.809c-32.581 5.465-63.669 18.348-90.644 37.56-6.371-4.866-14.113-7.507-22.266-7.507-9.826 0-19.064 3.826-26.012 10.775v-.001c-6.948 6.948-10.774 16.186-10.774 26.012 0 8.153 2.641 15.896 7.507 22.266-19.213 26.976-32.095 58.064-37.561 90.644C21.872 221.998 8 237.404 8 256s13.872 34.003 31.809 36.441c5.466 32.581 18.348 63.669 37.561 90.644-4.865 6.371-7.507 14.113-7.507 22.266 0 9.826 3.826 19.063 10.774 26.012v.001c7.171 7.171 16.592 10.757 26.012 10.757a36.706 36.706 0 0 0 22.261-7.493c26.976 19.215 58.065 32.098 90.649 37.564C221.998 490.128 237.405 504 256 504s34.003-13.872 36.441-31.809c32.582-5.466 63.672-18.349 90.648-37.563a36.707 36.707 0 0 0 22.262 7.493c9.419 0 18.841-3.587 26.012-10.757v-.001c6.948-6.948 10.774-16.186 10.774-26.012 0-8.153-2.642-15.896-7.507-22.266 19.213-26.975 32.096-58.063 37.562-90.643C490.128 290.002 504 274.595 504 256zm-16 0c0 11.462-9.325 20.787-20.787 20.787s-20.787-9.325-20.787-20.787 9.325-20.786 20.787-20.786S488 244.538 488 256zM405.351 85.863a20.65 20.65 0 0 1 14.698 6.088v.001a20.65 20.65 0 0 1 6.088 14.697 20.652 20.652 0 0 1-6.088 14.699c-3.926 3.926-9.146 6.088-14.698 6.088s-10.772-2.162-14.698-6.089c-3.926-3.926-6.088-9.146-6.088-14.698s2.162-10.771 6.089-14.698a20.644 20.644 0 0 1 14.697-6.088zM256 24c11.462 0 20.787 9.324 20.787 20.786S267.462 65.573 256 65.573s-20.787-9.324-20.787-20.786S244.538 24 256 24zM91.951 91.952a20.647 20.647 0 0 1 14.698-6.089 20.65 20.65 0 0 1 14.699 6.089 20.65 20.65 0 0 1 6.088 14.697 20.652 20.652 0 0 1-6.088 14.699 20.65 20.65 0 0 1-14.699 6.088 20.647 20.647 0 0 1-14.698-6.089c-3.926-3.926-6.088-9.146-6.088-14.698s2.162-10.772 6.088-14.697zM24 256c0-11.462 9.325-20.786 20.787-20.786S65.573 244.538 65.573 256s-9.325 20.787-20.787 20.787S24 267.461 24 256zm67.951 164.048c-3.926-3.926-6.088-9.146-6.088-14.698s2.162-10.771 6.088-14.698a20.65 20.65 0 0 1 14.698-6.088 20.65 20.65 0 0 1 14.699 6.089 20.65 20.65 0 0 1 6.088 14.697 20.648 20.648 0 0 1-6.088 14.698c-8.104 8.106-21.292 8.106-29.397 0zM256 488c-11.462 0-20.787-9.324-20.787-20.786s9.325-20.787 20.787-20.787 20.787 9.325 20.787 20.787S267.462 488 256 488zm0-57.574c-16.441 0-30.396 10.844-35.094 25.753-29.286-5.111-57.234-16.693-81.624-33.825 2.711-5.187 4.154-10.984 4.154-17.004 0-9.826-3.826-19.063-10.774-26.011-6.948-6.949-16.186-10.775-26.012-10.775a36.613 36.613 0 0 0-17.004 4.153c-17.133-24.39-28.714-52.337-33.825-81.624 14.91-4.698 25.753-18.653 25.753-35.094s-10.843-30.395-25.753-35.093c5.111-29.286 16.692-57.234 33.825-81.624 5.187 2.711 10.984 4.153 17.004 4.153 9.827 0 19.064-3.826 26.012-10.774s10.774-16.186 10.774-26.013c0-6.02-1.443-11.817-4.153-17.004 24.39-17.132 52.338-28.714 81.623-33.825 4.698 14.91 18.653 25.752 35.094 25.752s30.396-10.843 35.094-25.753c29.286 5.112 57.234 16.693 81.623 33.825a36.61 36.61 0 0 0-4.153 17.003c0 9.827 3.827 19.064 10.774 26.012 6.948 6.948 16.186 10.775 26.012 10.775a36.61 36.61 0 0 0 17.004-4.153c17.133 24.391 28.714 52.337 33.824 81.624-14.91 4.698-25.753 18.652-25.753 35.093s10.843 30.396 25.752 35.094c-5.111 29.286-16.692 57.233-33.825 81.623-5.187-2.711-10.983-4.153-17.003-4.153-9.827 0-19.064 3.827-26.012 10.774-6.948 6.948-10.775 16.186-10.775 26.012 0 6.02 1.443 11.817 4.153 17.004-24.39 17.132-52.338 28.714-81.623 33.825-4.696-14.906-18.651-25.75-35.092-25.75zm164.049-10.378c-8.105 8.104-21.292 8.104-29.396 0-3.926-3.926-6.088-9.146-6.088-14.698s2.162-10.771 6.089-14.698c3.926-3.926 9.146-6.088 14.698-6.088s10.772 2.162 14.698 6.089a20.65 20.65 0 0 1 6.088 14.697 20.652 20.652 0 0 1-6.089 14.698z" fill="#000000" opacity="1" data-original="#000000"></path></g></svg>