<svg xmlns="http://www.w3.org/2000/svg" version="1.1" xmlns:xlink="http://www.w3.org/1999/xlink" width="28" height="28" x="0" y="0" viewBox="0 0 64 64" style="enable-background:new 0 0 512 512" xml:space="preserve"><g><path d="m60.633 48.226-3-2.456a3.488 3.488 0 0 0-.246-4.648 3.5 3.5 0 0 0-4.949 0l-.222.222L50 39.527V27.42a9.053 9.053 0 0 0-1.508-4.994L35.832 3.445a1 1 0 0 0-1.391-.275l-.545.368A6.49 6.49 0 0 0 32 5.5a6.479 6.479 0 0 0-1.892-1.959l-.549-.37a1 1 0 0 0-1.391.274L15.505 22.43A9.051 9.051 0 0 0 14 27.42v12.107l-2.213 1.816-.222-.222a3.5 3.5 0 0 0-4.949 0 3.488 3.488 0 0 0-.246 4.648l-3 2.456a1 1 0 0 0-.074 1.481l11 11a1 1 0 0 0 1.434-.02l2.72-2.88a3.488 3.488 0 0 0 4.726-5.006L30 45.577a10.986 10.986 0 0 0 2-2.992 10.986 10.986 0 0 0 2 2.992l6.824 7.223a3.488 3.488 0 0 0 4.729 5.007l2.72 2.88a1 1 0 0 0 1.434.02l11-11a1 1 0 0 0-.074-1.481ZM14.979 58.565l-9.491-9.491 2.272-1.858 9.226 9.225Zm6.485-2.594a1.5 1.5 0 0 1-2.121 0L8.029 44.657a1.5 1.5 0 0 1 0-2.121 1.5 1.5 0 0 1 2.121 0l11.315 11.313a1.5 1.5 0 0 1-.001 2.122ZM31 38.024a8.968 8.968 0 0 1-2.457 6.18l-6.749 7.146-8.587-8.586 2.427-1.991A1 1 0 0 0 16 40V27.42a7.047 7.047 0 0 1 1.172-3.885L29.269 5.4a4.5 4.5 0 0 1 1.413 5.209l-4.748 11.853A3.965 3.965 0 0 0 25 25v10a1 1 0 0 0 2 0V25a2 2 0 0 1 4 0ZM29 21c-.116 0-.226.025-.34.034L32 12.7l3.34 8.338c-.114-.013-.224-.038-.34-.038a3.975 3.975 0 0 0-3 1.382A3.975 3.975 0 0 0 29 21Zm6.457 23.2A8.968 8.968 0 0 1 33 38.024V25a2 2 0 0 1 4 0v10a1 1 0 0 0 2 0V25a3.965 3.965 0 0 0-.934-2.538l-4.748-11.853A4.5 4.5 0 0 1 34.731 5.4l12.094 18.131A7.048 7.048 0 0 1 48 27.42V40a1 1 0 0 0 .366.773l2.427 1.991-8.587 8.586Zm9.2 11.767a1.5 1.5 0 0 1-2.122-2.122l11.314-11.31a1.5 1.5 0 0 1 2.121 0 1.5 1.5 0 0 1 0 2.121Zm4.364 2.594-2.007-2.124 9.226-9.225 2.272 1.858Z" fill="#ec3536" opacity="1" data-original="#000000"></path></g></svg>