<svg xmlns="http://www.w3.org/2000/svg" version="1.1" xmlns:xlink="http://www.w3.org/1999/xlink" width="28" height="28" x="0" y="0" viewBox="0 0 512 512" style="enable-background:new 0 0 512 512" xml:space="preserve" class=""><g><path d="m455.99 177.54-26.23-8.53c-.88-.29-1.35-.78-1.58-1.68a177.54 177.54 0 0 0-18.35-44.28c-.47-.8-.49-1.46-.06-2.3l12.54-24.62c3.63-7.16 2.25-15.75-3.4-21.36l-24.95-24.98c-5.66-5.66-14.25-7.02-21.4-3.4l-24.62 12.54c-.82.42-1.48.4-2.29-.07a177.15 177.15 0 0 0-44.3-18.36c-.87-.22-1.36-.69-1.64-1.55l-8.52-26.2c-2.43-7.64-9.48-12.78-17.52-12.78h-35.32c-8 0-15.04 5.12-17.51 12.73l-8.53 26.23c-.29.89-.77 1.35-1.68 1.58a176.887 176.887 0 0 0-44.22 18.34c-.83.48-1.51.51-2.35.08l-24.61-12.55c-7.17-3.61-15.77-2.23-21.37 3.42L93.1 74.79c-5.67 5.67-7.02 14.27-3.37 21.37l12.52 24.58c.43.85.41 1.54-.05 2.33a177.022 177.022 0 0 0-18.34 44.24c-.24.91-.72 1.42-1.6 1.7l-26.25 8.53a18.357 18.357 0 0 0-12.73 17.51v35.32c0 8 5.12 15.04 12.73 17.51l26.23 8.53c.89.29 1.38.8 1.61 1.68a175.819 175.819 0 0 0 18.34 44.22c.47.81.49 1.53.07 2.35l-12.52 24.58a18.334 18.334 0 0 0 3.36 21.4l24.97 24.97a18.379 18.379 0 0 0 18.38 4.6v103.13c0 9.5 4.47 18.06 12.29 23.5 4.95 3.43 10.46 5.17 16.1 5.17 3.39 0 6.83-.63 10.23-1.9l80.93-30.2 80.97 30.19c3.39 1.27 6.83 1.9 10.22 1.9 5.64 0 11.14-1.74 16.08-5.17 7.81-5.41 12.29-13.98 12.29-23.5V380.19c6.41 1.97 13.48.31 18.41-4.58l24.92-24.95c5.68-5.63 7.06-14.23 3.43-21.4l-12.54-24.63c-.42-.82-.4-1.5.08-2.32 8.11-13.91 14.29-28.79 18.34-44.23.24-.91.7-1.4 1.6-1.69l26.21-8.53a18.367 18.367 0 0 0 12.74-17.51v-35.32c-.02-7.98-5.14-15.01-12.76-17.49zm-96.45 202.47v29.64h-18.53c-3.21-6.58-8.49-11.84-15.17-15.08v-14.56c0-4.42-3.58-8.01-8.01-8.01s-8.01 3.58-8.01 8.01v11.27c-3.32.17-6.62.84-9.81 2.04l-17.38 6.48-5.38-24.07 5.24-13.01 6.74 6.32a7.997 7.997 0 0 0 5.48 2.17c.91 0 1.83-.16 2.72-.48a8.024 8.024 0 0 0 5.22-6.55l4.44-35.9c.19.08.38.14.57.2 3.75 1.44 7.54 2.78 11.26 4.1 25.18 8.87 40.61 15.36 40.61 36.03v11.4zm-157.33 27.34c1.43.14 2.84.46 4.22.97l26.66 9.95-30.88 11.52zm-7.67-167.72c-2.74 0-4.98-2.23-4.98-4.97V218.1c0-2.74 2.23-4.97 4.98-4.97h1.15v26.5zm89.9-87.21c.01.03.03.06.04.09 2.05 4.31 6.09 7.13 10.82 7.55 23.85 2.07 26.91 11.61 26.81 37.67-1.6-.39-3.25-.62-4.97-.62h-3.36c-3.83-8.23-12.18-13.95-21.84-13.95h-4.2c-3.03 0-5.4-.72-7.91-2.39l-7.2-4.82c-10.36-6.93-23.23-6.93-33.6 0l-7.19 4.81c-2.52 1.68-4.89 2.4-7.92 2.4h-4.2c-9.65 0-17.99 5.72-21.82 13.95h-3.38c-1.62 0-3.2.2-4.72.55V184c0-32.58 28.71-49.62 57.08-49.62h42.21l-3.44 4.88c-2.75 3.89-3.21 8.81-1.21 13.16zm37.71 65.68v16.55c0 2.7-2.29 4.97-5 4.97h-1.12v-26.5h1.12c2.33 0 4.34 1.69 4.86 3.88.01.07.03.13.04.2.06.29.1.59.1.9zm-110.44 23.98v-34.87c0-4.43 3.61-8.04 8.04-8.04h4.2c6.17 0 11.67-1.66 16.81-5.09l7.2-4.82c4.94-3.31 10.84-3.31 15.78 0l7.21 4.83c5.13 3.42 10.63 5.09 16.8 5.09h4.2c4.45 0 8.06 3.61 8.06 8.04v34.87c0 1.56-.09 3.1-.25 4.61-.01.05-.02.11-.02.16-1.41 12.66-8.34 23.66-18.32 30.56-.37.2-.71.44-1.04.69a42.649 42.649 0 0 1-23.3 6.9h-2.47c-8.6 0-16.61-2.55-23.33-6.93a7.22 7.22 0 0 0-.36-.23c-11.57-7.7-19.21-20.85-19.21-35.77zm60.15 88.71 14.54-14.99c1.64 1.82 3.46 3.49 5.47 4.97l-3.19 25.81zm-17.25-29.76h2.47c7.25 0 14.2-1.32 20.62-3.73.19 1.25.45 2.47.77 3.68l-21.4 22.07h-2.09l-21.42-22.1c.3-1.16.55-2.35.74-3.55a58.184 58.184 0 0 0 20.31 3.63zm-28.99 14.76 14.54 15-16.83 15.79-3.18-25.81a35.54 35.54 0 0 0 5.47-4.98zm29.13 23.28h2.53l12.67 11.89-6.06 15.04h-15.75l-6.07-15.03zm1.25 70.66-11.44-4.27 5.24-23.45h12.43l5.24 23.44zm53.76-97.63c-1.64-.68-3.25-1.37-4.82-2.1-7.29-3.4-11.65-10.23-11.65-18.25v-3.2c10.4-8.12 18.01-19.65 21.14-32.9h2.71c11.59 0 21.02-9.42 21.02-20.99V218.1c0-1.1-.11-2.17-.27-3.23.03-2.95.08-5.84.13-8.64.3-15.78.56-29.4-4.37-40.44-5.29-11.83-15.84-18.78-32.19-21.15l3.87-5.49c2.83-4.04 3.19-9.27.93-13.66-.02-.03-.03-.06-.05-.09-2.32-4.35-6.79-7.05-11.69-7.05H246.9c-18.96 0-36.8 6.06-50.24 17.08-14.74 12.08-22.86 29.33-22.86 48.56v31c-.15 1.02-.26 2.05-.26 3.1v16.55c0 11.57 9.42 20.99 20.99 20.99h2.74c3.16 13.37 10.88 24.99 21.43 33.13v2.97c0 8.04-4.34 14.86-11.62 18.25-1.57.73-3.18 1.43-4.83 2.1-36.63-19.82-59.24-57.58-59.24-99.39 0-62.29 50.68-112.97 112.97-112.97s112.98 50.68 112.98 112.97c.02 41.82-22.58 79.58-59.2 99.41zm-105.58 16.46c.26-.08.51-.17.75-.27l4.42 35.9a8.024 8.024 0 0 0 5.22 6.55 7.997 7.997 0 0 0 8.21-1.69l6.75-6.33 5.26 13.02-5.38 24.08-17.37-6.48a32.468 32.468 0 0 0-9.83-2.04v-11.26c0-4.42-3.58-8.01-8.01-8.01s-8.01 3.58-8.01 8.01v29.64h-33.73v-41.03c0-.29.01-.57.02-.86v-.19c.52-19.84 15.85-26.27 40.61-34.99 3.68-1.32 7.41-2.64 11.09-4.05zm-34.72 166.55c-4.05 1.52-8.06 1.02-11.58-1.42-3.54-2.47-5.41-6.05-5.41-10.35v-57.67h33.73v15.66c0 2.62 1.29 5.08 3.44 6.58a7.998 7.998 0 0 0 7.37.92l108.6-40.51c4.19-1.57 8.77-1.4 12.88.48s7.23 5.22 8.79 9.42c3.25 8.71-1.19 18.44-9.9 21.7zm184.68-1.43c-3.58 2.48-7.47 2.96-11.58 1.43l-63.66-23.74 44.08-16.45c12.68-4.74 20.72-16.53 21.34-29.26h15.22v57.67c0 4.32-1.87 7.9-5.4 10.35zm98.57-263.31c0 1.1-.61 1.93-1.67 2.28l-26.22 8.53c-6.08 1.98-10.5 6.65-12.13 12.84-3.69 14.04-9.31 27.58-16.7 40.25-3.22 5.55-3.4 12-.49 17.66l12.52 24.59c.5.99.35 2-.45 2.79l-24.92 24.95c-.8.8-1.83.97-2.84.45l-4.64-2.36c-1.42-12-7.06-21.59-17.16-29.16-8.33-6.25-18.71-10.34-29.08-14.05 34.95-23.88 56.06-63.26 56.06-106.43 0-71.13-57.86-128.99-128.99-128.99s-128.99 57.86-128.99 128.99c0 43.17 21.11 82.55 56.07 106.43-10.38 3.71-20.76 7.8-29.09 14.05-10.11 7.58-15.75 17.17-17.17 29.18l-4.62 2.35c-1 .51-2.02.35-2.8-.43l-24.97-24.97c-.78-.78-.94-1.78-.43-2.78l12.54-24.63c2.87-5.7 2.69-12.12-.52-17.66a160.272 160.272 0 0 1-16.69-40.23c-1.63-6.16-6.04-10.83-12.13-12.83l-26.25-8.53c-1.06-.34-1.67-1.17-1.67-2.28v-35.32c0-1.12.59-1.93 1.67-2.28l26.25-8.53c6.06-1.97 10.48-6.64 12.13-12.84 3.7-14.08 9.31-27.62 16.68-40.25 3.21-5.49 3.41-11.92.51-17.66l-12.54-24.63c-.5-.97-.34-1.98.44-2.75l25-25c1.05-1.06 2.22-.71 2.78-.43l24.56 12.52c5.68 2.92 12.13 2.74 17.7-.49 12.65-7.38 26.19-13 40.19-16.68 6.18-1.58 10.88-5.99 12.89-12.11l8.53-26.25c.34-1.06 1.17-1.67 2.28-1.67h35.32c1.11 0 1.93.59 2.28 1.67l8.54 26.27c2 6.09 6.69 10.5 12.83 12.08 14.08 3.7 27.63 9.32 40.25 16.68 5.53 3.24 11.98 3.42 17.66.51l24.59-12.52c1.01-.51 2.02-.35 2.82.44l24.97 25c.77.77.93 1.77.43 2.75l-12.52 24.58c-2.93 5.7-2.74 12.15.49 17.67a161.006 161.006 0 0 1 16.68 40.23c1.59 6.18 6 10.87 12.11 12.87l26.25 8.53c1.07.35 1.67 1.16 1.67 2.28v35.32z" fill="#ec3536" opacity="1" data-original="#000000"></path></g></svg>