<svg xmlns="http://www.w3.org/2000/svg" version="1.1" xmlns:xlink="http://www.w3.org/1999/xlink" width="28" height="28" x="0" y="0" viewBox="0 0 512 512" style="enable-background:new 0 0 512 512" xml:space="preserve" class=""><g><linearGradient id="a" x1="65.882" x2="447.469" y1="411.923" y2="30.336" data-name="GradientFill 1" gradientUnits="userSpaceOnUse"><stop stop-opacity="1" stop-color="#fac710" offset="0"></stop><stop stop-opacity="1" stop-color="#ec3536" offset="0"></stop></linearGradient><path fill="url(#a)" d="M496.661 243.977h-480a8 8 0 0 0-8 8v19.797c0 13.134 9.779 23.516 25.521 27.096l38.589 8.777a191.204 191.204 0 0 0 14.506 34.978l-21.091 33.51c-8.6 13.663-8.173 27.919 1.114 37.207l27.997 27.997c9.288 9.288 23.544 9.714 37.207 1.114l33.512-21.094a191.216 191.216 0 0 0 34.974 14.502l8.778 38.595c3.58 15.743 13.963 25.522 27.096 25.522h39.594c13.133 0 23.516-9.779 27.096-25.521l8.778-38.595a191.381 191.381 0 0 0 34.973-14.502l33.514 21.094c13.664 8.6 27.92 8.174 37.207-1.114l27.998-27.997c9.287-9.288 9.713-23.544 1.113-37.207l-21.086-33.5a191.237 191.237 0 0 0 14.506-34.989l38.584-8.776c15.742-3.58 25.521-13.962 25.521-27.096v-19.797a8 8 0 0 0-8-8zm-145.746 16c-4.075 48.43-44.789 86.595-94.254 86.595s-90.179-38.165-94.254-86.595zm137.746 11.797c0 7.692-9.14 10.601-13.07 11.494l-43.187 9.823a7.998 7.998 0 0 0-5.939 5.68 175.228 175.228 0 0 1-16.654 40.172 8.002 8.002 0 0 0 .182 8.219l23.602 37.497c2.147 3.411 6.553 11.93 1.114 17.37l-27.997 27.997c-5.439 5.439-13.959 1.033-17.37-1.114l-37.51-23.609a8.002 8.002 0 0 0-8.218-.183 175.213 175.213 0 0 1-40.157 16.652 8 8 0 0 0-5.68 5.939l-9.825 43.197c-.894 3.93-3.803 13.07-11.495 13.07h-39.594c-7.692 0-10.601-9.14-11.495-13.07l-9.825-43.197a8 8 0 0 0-5.679-5.939 175.187 175.187 0 0 1-40.158-16.652 8.002 8.002 0 0 0-8.219.182l-37.508 23.609c-3.411 2.148-11.931 6.552-17.37 1.114l-27.997-27.997c-5.44-5.44-1.034-13.959 1.113-17.371l23.606-37.506a8.002 8.002 0 0 0 .182-8.219 175.045 175.045 0 0 1-16.654-40.16 8 8 0 0 0-5.939-5.68l-43.191-9.824c-3.93-.894-13.07-3.802-13.07-11.494v-11.797h121.696c4.113 57.262 52.012 102.595 110.304 102.595s106.191-45.333 110.304-102.595h121.696v11.797zm-331.725 73.768a8 8 0 0 1-11.666 10.95c-18.638-19.855-31.644-44.317-37.611-70.74a7.998 7.998 0 0 1 6.041-9.565 7.998 7.998 0 0 1 9.565 6.041c5.34 23.643 16.983 45.536 33.671 63.314zm107.725 51.188a8 8 0 0 1-8 8c-22.988 0-45.091-4.985-65.694-14.816a8.001 8.001 0 0 1 6.891-14.441c18.434 8.797 38.218 13.257 58.804 13.257a8 8 0 0 1 8 8zm124.18-109.553a8.001 8.001 0 0 1 15.464 4.108c-7.108 26.753-21.441 51.126-41.451 70.484-14.311 13.844-30.891 24.611-49.281 32a7.975 7.975 0 0 1-2.98.579 8 8 0 0 1-2.986-15.425c16.461-6.614 31.306-16.254 44.122-28.653 17.918-17.335 30.752-39.152 37.112-63.093zm-372.18-61.645h480a8 8 0 0 0 8-8c0-44.413-28.55-82.277-68.259-96.22 16.155-10.872 26.806-29.325 26.806-50.22 0-33.356-27.137-60.494-60.494-60.494S342.22 37.735 342.22 71.092c0 20.895 10.65 39.347 26.805 50.219-15.009 5.27-28.42 13.956-39.301 25.123-11.106-11.433-24.566-19.984-39.337-25.147 16.135-10.876 26.769-29.316 26.769-50.195 0-33.356-27.138-60.494-60.494-60.494s-60.494 27.137-60.494 60.494c0 20.878 10.633 39.318 26.766 50.194-14.793 5.17-28.27 13.74-39.386 25.198-10.878-11.171-24.29-19.86-39.298-25.132 16.146-10.869 26.79-29.312 26.79-50.197 0-33.344-27.127-60.471-60.471-60.471S50.098 37.811 50.098 71.155c0 20.884 10.643 39.327 26.789 50.197-39.69 13.94-68.226 51.787-68.226 96.179a8 8 0 0 0 8 8zm341.56-154.44c0-24.534 19.96-44.494 44.494-44.494s44.494 19.96 44.494 44.494-19.939 44.472-44.456 44.493h-.077c-24.516-.021-44.455-19.972-44.455-44.493zm44.463 60.493h.059c44.682.016 81.503 34.3 85.548 77.947H317.133c4.045-43.648 40.867-77.932 85.55-77.947zM212.168 71.092c0-24.534 19.96-44.494 44.494-44.494s44.494 19.96 44.494 44.494-19.94 44.473-44.457 44.493h-.075c-24.517-.021-44.457-19.972-44.457-44.493zm44.457 60.493h.075c23.966.01 46.491 9.865 62.719 27.23-10.297 14.564-16.875 31.933-18.341 50.717h-88.916c-1.464-18.761-8.031-36.111-18.311-50.661 16.233-17.401 38.778-27.276 62.773-27.286zM66.098 71.156c0-24.521 19.949-44.471 44.471-44.471s44.471 19.949 44.471 44.471-19.922 44.442-44.42 44.47h-.103c-24.498-.028-44.419-19.966-44.419-44.47zm44.431 60.47.04.001h.039c44.654.021 81.451 34.286 85.498 77.906H25.03c4.047-43.619 40.845-77.886 85.499-77.906z" opacity="1" data-original="url(#a)"></path></g></svg>